<svg xmlns="http://www.w3.org/2000/svg" width="276" height="245" viewBox="0 0 276 245">
  <g fill="none" fill-rule="evenodd" class="web-landing-page">
    <g fill-rule="nonzero" class="web-landing-page__rma-lightweight-home" transform="translate(-676 -2789)">
      <g class="web-landing-page__rma-lightweight-home__icon-modular" transform="translate(676.438 2789)">
        <g class="web-landing-page__rma-lightweight-home__icon-modular__group-17" transform="translate(91.311 52)">
          <path fill="#004494" d="M36.6691265,41.1566349 C39.0502777,41.2807177 41.1981467,42.2755536 42.810219,43.8255845 L42.810219,29.3336565 L5.90480013,29.3336565 C2.64386548,29.3336565 0,31.977522 0,35.2384566 L0,72.1438755 L14.4905902,72.1438755 C12.9420643,73.7559478 11.9455561,75.9038167 11.8216406,78.2849679 C11.5455482,83.6155091 15.9299166,88.3070743 21.267983,88.3808216 C26.6311335,88.4560739 31.0006187,84.1322418 31.0006187,78.7869846 C31.0006187,76.2064983 29.9761836,73.8681574 28.319796,72.1440427 L42.810219,72.1440427 L42.810219,57.6534525 C41.0859371,59.30984 38.7475961,60.3342752 36.167277,60.3342752 C30.8218526,60.3342752 26.4980205,55.9646228 26.5734401,50.6031445 C26.6471874,45.2649109 31.3385853,40.8805425 36.6691265,41.1566349 Z" class="web-landing-page__rma-lightweight-home__icon-modular__group-17__path"/>
          <path fill="#3369A9" d="M11.8229784,78.2849679 C11.9470612,75.9038167 12.9418971,73.7559478 14.491928,72.1438755 L0,72.1438755 L0,109.049294 C0,112.310229 2.64386548,114.954094 5.90480013,114.954094 L42.810219,114.954094 L42.810219,100.463504 C44.4222913,102.01203 46.5701602,103.008538 48.9513114,103.132454 C54.2818526,103.408546 58.9734178,99.0241778 59.0471651,93.6861114 C59.1224175,88.3229609 54.7985853,83.9534757 49.4533282,83.9534757 C46.8728419,83.9534757 44.5345009,84.9779109 42.8103862,86.6342984 L42.8103862,72.1438755 L28.319796,72.1438755 C29.9761836,73.8681574 31.0006187,76.2064983 31.0006187,78.7868174 C31.0006187,84.1322418 26.6309663,88.4560739 21.2694881,88.3806544 C15.9312544,88.3069071 11.546886,83.6155091 11.8229784,78.2849679 Z" class="web-landing-page__rma-lightweight-home__icon-modular__group-17__path"/>
          <path fill="#668FBF" d="M48.9513114,103.131116 C46.5701602,103.007033 44.4222913,102.012197 42.810219,100.462166 L42.810219,114.954094 L79.7156378,114.954094 C82.9765725,114.954094 85.620438,112.310229 85.620438,109.049294 L85.620438,72.1438755 L71.1298477,72.1438755 C72.6783736,70.5318031 73.6748818,68.3839342 73.7987973,66.002783 C74.0748898,60.6722418 69.6905214,55.9808438 64.3524549,55.9069293 C58.9893044,55.831677 54.6198192,60.1555091 54.6198192,65.5007663 C54.6198192,68.0812526 55.6442544,70.4195936 57.300642,72.1437082 L42.810219,72.1437082 L42.810219,86.6342984 C44.5345009,84.9779109 46.8728419,83.9534757 49.4531609,83.9534757 C54.7985853,83.9534757 59.1224175,88.3231281 59.0469979,93.6846064 C58.9732506,99.02284 54.2818526,103.407208 48.9513114,103.131116 Z" class="web-landing-page__rma-lightweight-home__icon-modular__group-17__path"/>
          <path fill="#FFF" d="M95.838689,49.2603674 C95.7146062,51.6415186 94.7197703,53.7893875 93.1697394,55.4014599 L107.661667,55.4014599 L107.661667,18.496041 C107.661667,15.2351064 105.017802,12.5912409 101.756867,12.5912409 L64.8514484,12.5912409 L64.8514484,27.0818311 C63.2393761,25.5333052 61.0915072,24.536797 58.710356,24.4128815 C53.3798148,24.136789 48.6884168,28.5211575 48.6145023,33.8592239 C48.53925,39.2223744 52.8630821,43.5918596 58.2083393,43.5918596 C60.7888256,43.5918596 63.1271665,42.5674244 64.8512812,40.9110369 L64.8512812,55.4014599 L79.3418714,55.4014599 C77.6854839,53.6771779 76.6610487,51.338837 76.6610487,48.7585179 C76.6610487,43.4130935 81.0307011,39.0892614 86.3921794,39.1646809 C91.730413,39.2384282 96.1147814,43.9298262 95.838689,49.2603674 Z" class="web-landing-page__rma-lightweight-home__icon-modular__group-17__path" transform="rotate(30 78.138 33.996)"/>
        </g>
      </g>
    </g>
  </g>
</svg>
