<svg xmlns="http://www.w3.org/2000/svg" width="276" height="258" viewBox="0 0 276 258">
  <g fill="none" fill-rule="evenodd" class="web-landing-page">
    <g class="web-landing-page__rma-lightweight-home" transform="translate(-380 -6670)">
      <g class="web-landing-page__rma-lightweight-home__ico-fiberplastics" transform="translate(380 6670.5)">
        <g class="web-landing-page__rma-lightweight-home__ico-fiberplastics__group-26" transform="translate(87.198 77.698)">
          <polygon fill="#004494" points="0 100.604 100.604 100.604 100.604 0 0 0" class="web-landing-page__rma-lightweight-home__ico-fiberplastics__group-26__fill-1"/>
          <polygon fill="#668FBF" points="43.486 60.83 50.291 54.025 67.623 71.356 60.817 78.161" class="web-landing-page__rma-lightweight-home__ico-fiberplastics__group-26__fill-2"/>
          <polygon fill="#99B4D4" points="57.108 81.886 39.774 64.552 32.968 71.358 50.302 88.868" class="web-landing-page__rma-lightweight-home__ico-fiberplastics__group-26__fill-3"/>
          <polygon fill="#3369A9" points="64.541 60.831 81.872 43.5 88.677 50.305 71.346 67.637" class="web-landing-page__rma-lightweight-home__ico-fiberplastics__group-26__fill-4"/>
          <polygon fill="#668FBF" points="95.221 56.656 92.589 54.024 85.608 60.83 95.221 70.268" class="web-landing-page__rma-lightweight-home__ico-fiberplastics__group-26__fill-5"/>
          <polygon fill="#3369A9" points="22.433 60.827 39.765 43.495 46.57 50.301 29.239 67.632" class="web-landing-page__rma-lightweight-home__ico-fiberplastics__group-26__fill-6"/>
          <polygon fill="#668FBF" points="85.608 18.718 95.221 28.156 95.221 9.105" class="web-landing-page__rma-lightweight-home__ico-fiberplastics__group-26__fill-7"/>
          <polygon fill="#FFF" points="11.908 50.299 29.239 32.967 36.045 39.773 18.713 57.104" class="web-landing-page__rma-lightweight-home__ico-fiberplastics__group-26__fill-8"/>
          <polygon fill="#FFF" points="54.015 50.303 71.347 32.972 78.152 39.777 60.82 57.109" class="web-landing-page__rma-lightweight-home__ico-fiberplastics__group-26__fill-9"/>
          <polygon fill="#3369A9" points="64.552 18.718 71.358 25.524 91.5 5.383 77.712 5.383" class="web-landing-page__rma-lightweight-home__ico-fiberplastics__group-26__fill-10"/>
          <polygon fill="#99B4D4" points="95.221 35.6 81.886 22.44 75.08 29.246 95.221 49.212" class="web-landing-page__rma-lightweight-home__ico-fiberplastics__group-26__fill-11"/>
          <polygon fill="#668FBF" points="43.496 18.718 60.83 36.052 67.636 29.246 50.302 11.737" class="web-landing-page__rma-lightweight-home__ico-fiberplastics__group-26__fill-12"/>
          <polygon fill="#99B4D4" points="32.962 29.248 39.768 22.443 57.099 39.775 50.294 46.58" class="web-landing-page__rma-lightweight-home__ico-fiberplastics__group-26__fill-13"/>
          <polygon fill="#FFF" points="78.164 81.886 71.358 75.08 51.392 95.221 65.004 95.221" class="web-landing-page__rma-lightweight-home__ico-fiberplastics__group-26__fill-14"/>
          <polygon fill="#3369A9" points="46.58 92.589 39.774 85.608 30.336 95.221 43.948 95.221" class="web-landing-page__rma-lightweight-home__ico-fiberplastics__group-26__fill-15"/>
          <polygon fill="#FFF" points="36.052 81.886 29.246 75.08 9.105 95.221 22.892 95.221" class="web-landing-page__rma-lightweight-home__ico-fiberplastics__group-26__fill-16"/>
          <polygon fill="#99B4D4" points="81.886 64.552 75.08 71.358 95.221 91.5 95.221 77.712" class="web-landing-page__rma-lightweight-home__ico-fiberplastics__group-26__fill-17"/>
          <polygon fill="#99B4D4" points="5.383 72.448 5.383 91.499 14.996 81.886" class="web-landing-page__rma-lightweight-home__ico-fiberplastics__group-26__fill-18"/>
          <polygon fill="#3369A9" points="81.886 85.608 72.448 95.221 91.5 95.221" class="web-landing-page__rma-lightweight-home__ico-fiberplastics__group-26__fill-19"/>
          <polygon fill="#FFF" points="54.024 8.015 60.83 14.996 70.268 5.383 56.656 5.383" class="web-landing-page__rma-lightweight-home__ico-fiberplastics__group-26__fill-20"/>
          <polygon fill="#FFF" points="18.718 14.996 28.156 5.383 9.105 5.383" class="web-landing-page__rma-lightweight-home__ico-fiberplastics__group-26__fill-21"/>
          <polygon fill="#668FBF" points="18.718 78.164 25.524 71.358 5.383 51.392 5.383 65.004" class="web-landing-page__rma-lightweight-home__ico-fiberplastics__group-26__fill-22"/>
          <polygon fill="#3369A9" points="22.44 18.718 29.246 25.524 49.212 5.383 35.6 5.383" class="web-landing-page__rma-lightweight-home__ico-fiberplastics__group-26__fill-23"/>
          <polygon fill="#668FBF" points="18.718 36.052 25.524 29.246 5.383 9.105 5.383 22.892" class="web-landing-page__rma-lightweight-home__ico-fiberplastics__group-26__fill-24"/>
          <polygon fill="#99B4D4" points="8.015 46.58 14.996 39.774 5.383 30.336 5.383 43.948" class="web-landing-page__rma-lightweight-home__ico-fiberplastics__group-26__fill-25"/>
        </g>
      </g>
    </g>
  </g>
</svg>
