<svg xmlns="http://www.w3.org/2000/svg" width="277" height="258" viewBox="0 0 277 258">
  <g fill="none" fill-rule="evenodd" class="web-landing-page">
    <g fill-rule="nonzero" class="web-landing-page__rma-lightweight-home" transform="translate(-1116 -5799)">
      <g class="web-landing-page__rma-lightweight-home__ico-puzzle" transform="translate(1116.25 5799.555)">
        <g class="web-landing-page__rma-lightweight-home__ico-puzzle__path" transform="translate(92 48)">
          <path fill="#004494" d="M40.8143321,45.8091241 C43.4646569,45.9472336 45.8553285,47.0545292 47.649635,48.779781 L47.649635,32.649635 L6.57229927,32.649635 C2.94273723,32.649635 0,35.5923723 0,39.2219343 L0,80.2992701 L16.1286569,80.2992701 C14.4050803,82.0935766 13.2959234,84.4842482 13.158,87.134573 C12.8506971,93.0676971 17.7306898,98.2896131 23.6721898,98.3716971 C29.6416095,98.4554562 34.5050365,93.6428431 34.5050365,87.6933394 C34.5050365,84.821146 33.3647956,82.2184708 31.5211642,80.2994562 L47.649635,80.2994562 L47.649635,64.1707993 C45.7304343,66.0144307 43.1277591,67.1546715 40.2557518,67.1546715 C34.306062,67.1546715 29.4934489,62.2910584 29.5773942,56.3235 C29.6594781,50.3818139 34.881208,45.5018212 40.8143321,45.8091241 Z"/>
          <path fill="#3369A9" d="M13.1594891,87.134573 C13.2975985,84.4842482 14.4048942,82.0935766 16.130146,80.2992701 L0,80.2992701 L0,121.376606 C0,125.006168 2.94273723,127.948905 6.57229927,127.948905 L47.649635,127.948905 L47.649635,111.820248 C49.4439416,113.543825 51.8346131,114.652982 54.484938,114.790905 C60.418062,115.098208 65.6399781,110.218215 65.722062,104.276715 C65.8058212,98.3072956 60.993208,93.4438686 55.0437044,93.4438686 C52.1715109,93.4438686 49.5688358,94.5841095 47.6498212,96.4277409 L47.6498212,80.2992701 L31.5211642,80.2992701 C33.3647956,82.2184708 34.5050365,84.821146 34.5050365,87.6931533 C34.5050365,93.6428431 29.6414234,98.4554562 23.673865,98.3715109 C17.7321788,98.289427 12.8521861,93.0676971 13.1594891,87.134573 Z"/>
          <path fill="#668FBF" d="M54.484938,114.789416 C51.8346131,114.651307 49.4439416,113.544011 47.649635,111.818759 L47.649635,127.948905 L88.7269708,127.948905 C92.3565328,127.948905 95.2992701,125.006168 95.2992701,121.376606 L95.2992701,80.2992701 L79.1706131,80.2992701 C80.8941898,78.5049635 82.0033467,76.114292 82.1412701,73.4639672 C82.448573,67.5308431 77.5685803,62.3091131 71.6270803,62.2268431 C65.6576606,62.1430839 60.7942336,66.9556971 60.7942336,72.9052007 C60.7942336,75.7773942 61.9344745,78.3800693 63.7781058,80.2990839 L47.649635,80.2990839 L47.649635,96.4277409 C49.5688358,94.5841095 52.1715109,93.4438686 55.0435182,93.4438686 C60.993208,93.4438686 65.8058212,98.3074818 65.7218759,104.27504 C65.639792,110.216726 60.418062,115.096719 54.484938,114.789416 Z"/>
          <path fill="#FFF" d="M106.672628,54.8289307 C106.534518,57.4792555 105.427223,59.869927 103.701971,61.6642336 L119.832117,61.6642336 L119.832117,20.5868978 C119.832117,16.9573358 116.88938,14.0145985 113.259818,14.0145985 L72.1824818,14.0145985 L72.1824818,30.1432555 C70.3881752,28.4196788 67.9975036,27.3105219 65.3471788,27.1725985 C59.4140547,26.8652956 54.1923248,31.7452883 54.1100547,37.6867883 C54.0262956,43.656208 58.8389088,48.519635 64.7884124,48.519635 C67.6606058,48.519635 70.263281,47.3793942 72.1822956,45.5357628 L72.1822956,61.6642336 L88.3109526,61.6642336 C86.4673212,59.7450328 85.3270803,57.1423577 85.3270803,54.2703504 C85.3270803,48.3206606 90.1906934,43.5080474 96.1582518,43.5919927 C102.099938,43.6740766 106.979931,48.8958066 106.672628,54.8289307 Z" transform="rotate(30 86.97 37.84)"/>
        </g>
      </g>
    </g>
  </g>
</svg>
