<?xml version="1.0" encoding="utf-8"?>
<!-- Generator: Adobe Illustrator 24.3.0, SVG Export Plug-In . SVG Version: 6.00 Build 0)  -->
<svg version="1.1" id="Layer_1" xmlns="http://www.w3.org/2000/svg" xmlns:xlink="http://www.w3.org/1999/xlink" x="0px" y="0px"
	 viewBox="0 0 670 360" style="enable-background:new 0 0 670 360;" xml:space="preserve">
<style type="text/css">
	.st0{fill:#034EA2;}
	.st1{fill-rule:evenodd;clip-rule:evenodd;fill:#034EA2;}
	.st2{fill-rule:evenodd;clip-rule:evenodd;fill:#6BB845;}
	.st3{fill:#6BB845;}
	.st4{fill:#003399;}
	.st5{fill:#FFCC00;}
	.st6{fill:#FFFFFF;}
	.st7{fill-rule:evenodd;clip-rule:evenodd;fill:#FFFFFF;}
</style>
<g>
	<g>
		<path class="st6" d="M286.7,252.4c0,0.2,0,0.3,0,0.5c0,0.1-0.1,0.2-0.1,0.3c0,0.1-0.1,0.1-0.2,0.2c-0.1,0-0.1,0.1-0.2,0.1h-6.8
			v6.4h6.5c0.1,0,0.1,0,0.2,0.1c0.1,0,0.1,0.1,0.2,0.2c0,0.1,0.1,0.2,0.1,0.3c0,0.1,0,0.3,0,0.5c0,0.2,0,0.3,0,0.5
			c0,0.1-0.1,0.2-0.1,0.3c0,0.1-0.1,0.1-0.2,0.2c-0.1,0-0.1,0.1-0.2,0.1h-6.5v7.8c0,0.1,0,0.1-0.1,0.2c0,0.1-0.1,0.1-0.2,0.1
			c-0.1,0-0.2,0.1-0.4,0.1c-0.2,0-0.4,0-0.6,0c-0.2,0-0.4,0-0.6,0c-0.2,0-0.3-0.1-0.4-0.1c-0.1,0-0.2-0.1-0.2-0.1
			c0-0.1-0.1-0.1-0.1-0.2v-17.3c0-0.4,0.1-0.6,0.3-0.8c0.2-0.2,0.4-0.2,0.6-0.2h8.4c0.1,0,0.1,0,0.2,0.1c0.1,0,0.1,0.1,0.2,0.2
			s0.1,0.2,0.1,0.3C286.7,252,286.7,252.2,286.7,252.4z"/>
		<path class="st6" d="M301.2,269.6c0,0.1,0,0.1,0,0.2c0,0.1-0.1,0.1-0.2,0.1c-0.1,0-0.2,0.1-0.3,0.1c-0.1,0-0.3,0-0.5,0
			c-0.2,0-0.4,0-0.5,0c-0.1,0-0.2,0-0.3-0.1c-0.1,0-0.1-0.1-0.2-0.1c0-0.1,0-0.1,0-0.2v-1.7c-0.7,0.8-1.5,1.4-2.2,1.8
			c-0.7,0.4-1.5,0.6-2.2,0.6c-0.9,0-1.6-0.1-2.2-0.4s-1.1-0.7-1.4-1.2c-0.4-0.5-0.6-1.1-0.8-1.7c-0.2-0.7-0.2-1.5-0.2-2.4v-7.9
			c0-0.1,0-0.1,0-0.2c0-0.1,0.1-0.1,0.2-0.1c0.1,0,0.2-0.1,0.4-0.1c0.2,0,0.3,0,0.6,0c0.2,0,0.4,0,0.6,0c0.2,0,0.3,0,0.4,0.1
			c0.1,0,0.2,0.1,0.2,0.1c0,0.1,0.1,0.1,0.1,0.2v7.6c0,0.8,0.1,1.4,0.2,1.8c0.1,0.5,0.3,0.8,0.5,1.2c0.2,0.3,0.5,0.6,0.9,0.8
			c0.3,0.2,0.7,0.3,1.2,0.3c0.6,0,1.2-0.2,1.8-0.6c0.6-0.4,1.2-1,1.9-1.9v-9.1c0-0.1,0-0.1,0-0.2c0-0.1,0.1-0.1,0.2-0.1
			c0.1,0,0.2-0.1,0.4-0.1c0.1,0,0.3,0,0.6,0c0.2,0,0.4,0,0.6,0c0.2,0,0.3,0,0.4,0.1c0.1,0,0.2,0.1,0.2,0.1c0,0.1,0.1,0.1,0.1,0.2
			V269.6z"/>
		<path class="st6" d="M316.7,269.6c0,0.1,0,0.1-0.1,0.2c0,0.1-0.1,0.1-0.2,0.1c-0.1,0-0.2,0.1-0.4,0.1c-0.2,0-0.3,0-0.6,0
			c-0.2,0-0.4,0-0.6,0c-0.2,0-0.3,0-0.4-0.1c-0.1,0-0.2-0.1-0.2-0.1c0-0.1-0.1-0.1-0.1-0.2V262c0-0.7-0.1-1.3-0.2-1.8
			c-0.1-0.5-0.3-0.8-0.5-1.2c-0.2-0.3-0.5-0.6-0.9-0.7c-0.4-0.2-0.8-0.3-1.2-0.3c-0.6,0-1.2,0.2-1.8,0.6c-0.6,0.4-1.2,1-1.9,1.9v9.1
			c0,0.1,0,0.1-0.1,0.2c0,0.1-0.1,0.1-0.2,0.1c-0.1,0-0.2,0.1-0.4,0.1c-0.2,0-0.4,0-0.6,0c-0.2,0-0.4,0-0.6,0c-0.2,0-0.3,0-0.4-0.1
			c-0.1,0-0.2-0.1-0.2-0.1c0-0.1-0.1-0.1-0.1-0.2v-13c0-0.1,0-0.1,0-0.2c0-0.1,0.1-0.1,0.2-0.1c0.1,0,0.2-0.1,0.3-0.1
			c0.1,0,0.3,0,0.5,0c0.2,0,0.4,0,0.5,0c0.1,0,0.2,0,0.3,0.1c0.1,0,0.1,0.1,0.2,0.1c0,0.1,0.1,0.1,0.1,0.2v1.7
			c0.7-0.8,1.5-1.4,2.2-1.8s1.5-0.6,2.2-0.6c0.9,0,1.6,0.1,2.2,0.4c0.6,0.3,1.1,0.7,1.4,1.2c0.4,0.5,0.6,1.1,0.8,1.7
			c0.2,0.7,0.2,1.4,0.2,2.4V269.6z"/>
		<path class="st6" d="M332.1,269.6c0,0.1,0,0.1,0,0.2c0,0.1-0.1,0.1-0.2,0.1c-0.1,0-0.2,0.1-0.3,0.1c-0.1,0-0.3,0-0.5,0
			c-0.2,0-0.4,0-0.5,0c-0.1,0-0.2,0-0.3-0.1c-0.1,0-0.2-0.1-0.2-0.1c0-0.1-0.1-0.1-0.1-0.2v-1.7c-0.7,0.7-1.4,1.3-2.1,1.7
			c-0.7,0.4-1.5,0.6-2.4,0.6c-1,0-1.8-0.2-2.4-0.6c-0.7-0.4-1.2-0.9-1.6-1.5c-0.4-0.6-0.7-1.4-0.9-2.2c-0.2-0.9-0.3-1.8-0.3-2.7
			c0-1.1,0.1-2.1,0.4-3c0.2-0.9,0.6-1.7,1.1-2.3c0.5-0.6,1.1-1.1,1.8-1.5c0.7-0.3,1.5-0.5,2.4-0.5c0.8,0,1.5,0.2,2.1,0.5
			c0.6,0.3,1.3,0.8,1.9,1.5v-7.6c0-0.1,0-0.1,0-0.2c0-0.1,0.1-0.1,0.2-0.1c0.1,0,0.2-0.1,0.4-0.1c0.2,0,0.3,0,0.6,0
			c0.2,0,0.4,0,0.6,0c0.2,0,0.3,0.1,0.4,0.1c0.1,0,0.2,0.1,0.2,0.1c0,0.1,0.1,0.1,0.1,0.2V269.6z M329.7,260.5
			c-0.6-0.8-1.3-1.4-1.9-1.8c-0.6-0.4-1.2-0.6-1.9-0.6c-0.6,0-1.1,0.1-1.5,0.4c-0.4,0.3-0.8,0.7-1,1.1c-0.3,0.5-0.5,1-0.6,1.6
			c-0.1,0.6-0.2,1.2-0.2,1.8c0,0.7,0,1.3,0.2,1.9c0.1,0.6,0.3,1.2,0.5,1.7c0.2,0.5,0.6,0.9,1,1.2c0.4,0.3,0.9,0.4,1.6,0.4
			c0.3,0,0.6,0,0.9-0.1c0.3-0.1,0.6-0.2,0.9-0.4c0.3-0.2,0.6-0.5,1-0.8c0.3-0.3,0.7-0.7,1.1-1.2V260.5z"/>
		<path class="st6" d="M347.5,262.6c0,0.4-0.1,0.6-0.3,0.8c-0.2,0.2-0.4,0.2-0.6,0.2H338c0,0.7,0.1,1.4,0.2,2
			c0.1,0.6,0.4,1.1,0.7,1.5c0.3,0.4,0.8,0.7,1.3,1c0.5,0.2,1.2,0.3,2,0.3c0.6,0,1.2-0.1,1.7-0.2c0.5-0.1,0.9-0.2,1.3-0.3
			c0.4-0.1,0.6-0.2,0.9-0.3c0.2-0.1,0.4-0.2,0.5-0.2c0.1,0,0.1,0,0.2,0.1c0.1,0,0.1,0.1,0.1,0.2c0,0.1,0,0.2,0.1,0.3
			c0,0.1,0,0.3,0,0.4c0,0.1,0,0.2,0,0.3c0,0.1,0,0.2,0,0.2c0,0.1,0,0.1-0.1,0.2s-0.1,0.1-0.1,0.2c-0.1,0.1-0.2,0.1-0.5,0.3
			c-0.3,0.1-0.6,0.2-1,0.4c-0.4,0.1-0.9,0.2-1.4,0.3c-0.5,0.1-1.1,0.1-1.7,0.1c-1.1,0-2-0.2-2.8-0.4c-0.8-0.3-1.5-0.7-2-1.3
			c-0.5-0.6-1-1.3-1.2-2.2s-0.4-1.9-0.4-3.1c0-1.1,0.1-2.1,0.4-3c0.3-0.9,0.7-1.6,1.2-2.3c0.5-0.6,1.2-1.1,2-1.4
			c0.8-0.3,1.6-0.5,2.6-0.5c1,0,1.9,0.2,2.6,0.5s1.3,0.8,1.8,1.3c0.5,0.6,0.8,1.2,1,2c0.2,0.7,0.3,1.5,0.3,2.4V262.6z M345.1,261.9
			c0-1.3-0.2-2.2-0.8-2.9c-0.6-0.7-1.5-1.1-2.6-1.1c-0.6,0-1.1,0.1-1.6,0.3s-0.8,0.5-1.1,0.9c-0.3,0.4-0.5,0.8-0.7,1.3
			c-0.2,0.5-0.3,1-0.3,1.5H345.1z"/>
		<path class="st6" d="M362.1,269.6c0,0.1,0,0.1,0,0.2c0,0.1-0.1,0.1-0.2,0.1c-0.1,0-0.2,0.1-0.3,0.1c-0.1,0-0.3,0-0.5,0
			c-0.2,0-0.4,0-0.5,0c-0.1,0-0.2,0-0.3-0.1c-0.1,0-0.1-0.1-0.2-0.1c0-0.1-0.1-0.1-0.1-0.2v-1.7c-0.7,0.7-1.4,1.3-2.1,1.7
			c-0.7,0.4-1.5,0.6-2.4,0.6c-1,0-1.8-0.2-2.4-0.6c-0.7-0.4-1.2-0.9-1.6-1.5c-0.4-0.6-0.7-1.4-0.9-2.2c-0.2-0.9-0.3-1.8-0.3-2.7
			c0-1.1,0.1-2.1,0.4-3c0.2-0.9,0.6-1.7,1.1-2.3c0.5-0.6,1.1-1.1,1.8-1.5c0.7-0.3,1.5-0.5,2.4-0.5c0.8,0,1.5,0.2,2.1,0.5
			s1.3,0.8,1.9,1.5v-7.6c0-0.1,0-0.1,0-0.2c0-0.1,0.1-0.1,0.2-0.1c0.1,0,0.2-0.1,0.4-0.1c0.1,0,0.3,0,0.6,0c0.2,0,0.4,0,0.6,0
			c0.2,0,0.3,0.1,0.4,0.1c0.1,0,0.2,0.1,0.2,0.1c0,0.1,0.1,0.1,0.1,0.2V269.6z M359.7,260.5c-0.6-0.8-1.3-1.4-1.9-1.8
			c-0.6-0.4-1.2-0.6-1.9-0.6c-0.6,0-1.1,0.1-1.5,0.4c-0.4,0.3-0.8,0.7-1,1.1c-0.3,0.5-0.5,1-0.6,1.6c-0.1,0.6-0.2,1.2-0.2,1.8
			c0,0.7,0,1.3,0.2,1.9c0.1,0.6,0.3,1.2,0.5,1.7c0.2,0.5,0.6,0.9,1,1.2c0.4,0.3,0.9,0.4,1.6,0.4c0.3,0,0.6,0,0.9-0.1
			c0.3-0.1,0.6-0.2,0.9-0.4c0.3-0.2,0.6-0.5,1-0.8c0.3-0.3,0.7-0.7,1.1-1.2V260.5z"/>
		<path class="st6" d="M384.9,263c0,1.1-0.1,2.1-0.4,3c-0.2,0.9-0.6,1.7-1.1,2.3c-0.5,0.6-1.1,1.1-1.8,1.5c-0.7,0.3-1.5,0.5-2.4,0.5
			c-0.4,0-0.8,0-1.1-0.1c-0.4-0.1-0.7-0.2-1-0.4c-0.3-0.2-0.7-0.4-1-0.7s-0.7-0.6-1.1-1v1.6c0,0.1,0,0.1-0.1,0.2
			c0,0.1-0.1,0.1-0.2,0.1c-0.1,0-0.2,0.1-0.3,0.1c-0.1,0-0.3,0-0.5,0c-0.2,0-0.4,0-0.5,0c-0.1,0-0.2,0-0.3-0.1
			c-0.1,0-0.1-0.1-0.2-0.1c0-0.1,0-0.1,0-0.2v-19.3c0-0.1,0-0.1,0-0.2s0.1-0.1,0.2-0.1c0.1,0,0.2-0.1,0.4-0.1c0.2,0,0.3,0,0.6,0
			c0.2,0,0.4,0,0.6,0c0.2,0,0.3,0,0.4,0.1c0.1,0,0.1,0.1,0.2,0.1c0,0.1,0.1,0.1,0.1,0.2v7.8c0.4-0.4,0.8-0.7,1.1-1
			c0.4-0.3,0.7-0.5,1.1-0.7c0.3-0.2,0.7-0.3,1-0.4c0.3-0.1,0.7-0.1,1.1-0.1c0.9,0,1.8,0.2,2.4,0.6c0.7,0.4,1.2,0.9,1.6,1.5
			c0.4,0.6,0.7,1.4,0.9,2.2C384.8,261.1,384.9,262,384.9,263z M382.5,263.3c0-0.7-0.1-1.3-0.2-1.9c-0.1-0.6-0.3-1.2-0.5-1.7
			c-0.3-0.5-0.6-0.9-1-1.2c-0.4-0.3-0.9-0.4-1.6-0.4c-0.3,0-0.6,0-0.9,0.1c-0.3,0.1-0.6,0.2-0.9,0.4c-0.3,0.2-0.6,0.5-1,0.8
			c-0.3,0.3-0.7,0.7-1.1,1.2v5.2c0.7,0.8,1.3,1.4,1.9,1.8c0.6,0.4,1.2,0.6,1.9,0.6c0.6,0,1.1-0.1,1.5-0.4c0.4-0.3,0.8-0.7,1-1.1
			c0.3-0.5,0.5-1,0.6-1.6C382.4,264.5,382.5,263.9,382.5,263.3z"/>
		<path class="st6" d="M394.3,270l-1.7,4.8c-0.1,0.2-0.2,0.3-0.4,0.4c-0.2,0.1-0.6,0.1-1.1,0.1c-0.2,0-0.5,0-0.6,0
			c-0.2,0-0.3-0.1-0.4-0.1c-0.1-0.1-0.1-0.1-0.1-0.2c0-0.1,0-0.2,0.1-0.3l1.8-4.5c-0.1,0-0.2-0.1-0.2-0.2c-0.1-0.1-0.1-0.2-0.2-0.3
			l-4.6-12.4c-0.1-0.2-0.1-0.4-0.1-0.5c0-0.1,0-0.2,0.1-0.3c0.1-0.1,0.2-0.1,0.4-0.1c0.2,0,0.4,0,0.7,0c0.3,0,0.5,0,0.7,0
			c0.2,0,0.3,0,0.4,0.1c0.1,0,0.2,0.1,0.2,0.2c0,0.1,0.1,0.2,0.1,0.3l3.7,10.4h0l3.6-10.5c0.1-0.2,0.1-0.3,0.2-0.4
			c0.1-0.1,0.2-0.1,0.4-0.1c0.2,0,0.4,0,0.7,0c0.3,0,0.5,0,0.7,0c0.2,0,0.3,0.1,0.4,0.1c0.1,0.1,0.1,0.2,0.1,0.3
			c0,0.1,0,0.3-0.1,0.4L394.3,270z"/>
		<path class="st6" d="M415,268.7c0,0.3,0,0.5-0.1,0.7c0,0.2-0.1,0.3-0.2,0.4c-0.1,0.1-0.2,0.2-0.3,0.2c-0.2,0.1-0.3,0.1-0.5,0.2
			s-0.4,0.1-0.6,0.1c-0.2,0-0.4,0-0.7,0c-0.7,0-1.3-0.1-1.7-0.3c-0.5-0.2-0.9-0.4-1.2-0.8c-0.3-0.4-0.5-0.8-0.7-1.4
			c-0.1-0.6-0.2-1.2-0.2-2v-7.6H407c-0.1,0-0.3-0.1-0.3-0.2c-0.1-0.2-0.1-0.4-0.1-0.8c0-0.2,0-0.3,0-0.5s0.1-0.2,0.1-0.3
			c0-0.1,0.1-0.1,0.2-0.2c0.1,0,0.1,0,0.2,0h1.8v-3.1c0-0.1,0-0.1,0-0.2c0-0.1,0.1-0.1,0.2-0.2c0.1,0,0.2-0.1,0.4-0.1
			c0.2,0,0.3,0,0.6,0c0.2,0,0.4,0,0.6,0c0.2,0,0.3,0,0.4,0.1c0.1,0,0.1,0.1,0.2,0.2c0,0.1,0.1,0.1,0.1,0.2v3.1h3.3
			c0.1,0,0.1,0,0.2,0c0.1,0,0.1,0.1,0.2,0.2c0,0.1,0.1,0.2,0.1,0.3c0,0.1,0,0.3,0,0.5c0,0.3,0,0.6-0.1,0.8c-0.1,0.2-0.2,0.2-0.3,0.2
			h-3.3v7.2c0,0.9,0.1,1.6,0.4,2c0.3,0.5,0.7,0.7,1.4,0.7c0.2,0,0.4,0,0.6-0.1c0.2,0,0.3-0.1,0.5-0.1c0.1,0,0.2-0.1,0.3-0.1
			c0.1,0,0.2-0.1,0.3-0.1c0,0,0.1,0,0.1,0c0,0,0.1,0.1,0.1,0.1c0,0.1,0,0.2,0.1,0.3C415,268.4,415,268.5,415,268.7z"/>
		<path class="st6" d="M429.2,269.6c0,0.1,0,0.1-0.1,0.2c0,0.1-0.1,0.1-0.2,0.1c-0.1,0-0.2,0.1-0.4,0.1c-0.2,0-0.3,0-0.6,0
			c-0.2,0-0.4,0-0.6,0c-0.2,0-0.3,0-0.4-0.1c-0.1,0-0.1-0.1-0.2-0.1c0-0.1-0.1-0.1-0.1-0.2V262c0-0.7-0.1-1.3-0.2-1.8
			c-0.1-0.5-0.3-0.8-0.5-1.2c-0.2-0.3-0.5-0.6-0.9-0.7c-0.4-0.2-0.8-0.3-1.2-0.3c-0.6,0-1.2,0.2-1.8,0.6c-0.6,0.4-1.2,1-1.9,1.9v9.1
			c0,0.1,0,0.1-0.1,0.2c0,0.1-0.1,0.1-0.2,0.1c-0.1,0-0.2,0.1-0.4,0.1c-0.2,0-0.4,0-0.6,0c-0.2,0-0.4,0-0.6,0c-0.2,0-0.3,0-0.4-0.1
			c-0.1,0-0.2-0.1-0.2-0.1c0-0.1,0-0.1,0-0.2v-19.3c0-0.1,0-0.1,0-0.2c0-0.1,0.1-0.1,0.2-0.1c0.1,0,0.2-0.1,0.4-0.1
			c0.2,0,0.3,0,0.6,0c0.2,0,0.4,0,0.6,0c0.2,0,0.3,0,0.4,0.1c0.1,0,0.1,0.1,0.2,0.1s0.1,0.1,0.1,0.2v7.8c0.7-0.7,1.4-1.3,2.1-1.6
			c0.7-0.4,1.4-0.5,2.1-0.5c0.9,0,1.6,0.1,2.2,0.4c0.6,0.3,1.1,0.7,1.4,1.2c0.4,0.5,0.6,1.1,0.8,1.7c0.2,0.7,0.2,1.5,0.2,2.4V269.6z
			"/>
		<path class="st6" d="M444.5,262.6c0,0.4-0.1,0.6-0.3,0.8c-0.2,0.2-0.4,0.2-0.6,0.2H435c0,0.7,0.1,1.4,0.2,2
			c0.1,0.6,0.4,1.1,0.7,1.5c0.3,0.4,0.8,0.7,1.3,1c0.5,0.2,1.2,0.3,2,0.3c0.6,0,1.2-0.1,1.7-0.2c0.5-0.1,0.9-0.2,1.3-0.3
			c0.4-0.1,0.6-0.2,0.9-0.3c0.2-0.1,0.4-0.2,0.5-0.2c0.1,0,0.1,0,0.2,0.1c0.1,0,0.1,0.1,0.1,0.2c0,0.1,0.1,0.2,0.1,0.3
			c0,0.1,0,0.3,0,0.4c0,0.1,0,0.2,0,0.3c0,0.1,0,0.2,0,0.2c0,0.1,0,0.1-0.1,0.2s-0.1,0.1-0.1,0.2c-0.1,0.1-0.2,0.1-0.5,0.3
			c-0.3,0.1-0.6,0.2-1,0.4c-0.4,0.1-0.9,0.2-1.4,0.3c-0.5,0.1-1.1,0.1-1.7,0.1c-1.1,0-2-0.2-2.8-0.4c-0.8-0.3-1.5-0.7-2-1.3
			c-0.5-0.6-1-1.3-1.2-2.2s-0.4-1.9-0.4-3.1c0-1.1,0.1-2.1,0.4-3c0.3-0.9,0.7-1.6,1.2-2.3s1.2-1.1,2-1.4s1.6-0.5,2.6-0.5
			c1,0,1.9,0.2,2.6,0.5c0.7,0.3,1.3,0.8,1.8,1.3c0.5,0.6,0.8,1.2,1,2c0.2,0.7,0.3,1.5,0.3,2.4V262.6z M442.1,261.9
			c0-1.3-0.2-2.2-0.8-2.9c-0.6-0.7-1.5-1.1-2.6-1.1c-0.6,0-1.1,0.1-1.6,0.3s-0.8,0.5-1.1,0.9c-0.3,0.4-0.5,0.8-0.7,1.3
			c-0.2,0.5-0.3,1-0.3,1.5H442.1z"/>
	</g>
	<g>
		<path class="st6" d="M266.1,305.3c0,0.2,0,0.3,0,0.5c0,0.1-0.1,0.2-0.1,0.3c0,0.1-0.1,0.2-0.2,0.2c-0.1,0-0.1,0.1-0.2,0.1h-9
			c-0.2,0-0.4-0.1-0.6-0.2c-0.2-0.1-0.3-0.4-0.3-0.8v-16.7c0-0.4,0.1-0.6,0.3-0.8c0.2-0.1,0.4-0.2,0.6-0.2h8.9c0.1,0,0.1,0,0.2,0.1
			c0.1,0,0.1,0.1,0.2,0.2c0,0.1,0.1,0.2,0.1,0.3s0,0.3,0,0.5c0,0.2,0,0.3,0,0.5c0,0.1-0.1,0.2-0.1,0.3c0,0.1-0.1,0.1-0.2,0.2
			c-0.1,0-0.1,0.1-0.2,0.1h-7.3v5.9h6.3c0.1,0,0.1,0,0.2,0.1s0.1,0.1,0.2,0.2c0,0.1,0.1,0.2,0.1,0.3c0,0.1,0,0.3,0,0.5
			c0,0.2,0,0.3,0,0.5c0,0.1,0,0.2-0.1,0.3c0,0.1-0.1,0.1-0.2,0.2s-0.1,0-0.2,0h-6.3v6.7h7.4c0.1,0,0.1,0,0.2,0.1
			c0.1,0,0.1,0.1,0.2,0.2c0,0.1,0.1,0.2,0.1,0.3C266.1,304.9,266.1,305.1,266.1,305.3z"/>
		<path class="st6" d="M280.9,305.9c0,0.1,0,0.1,0,0.2c0,0.1-0.1,0.1-0.2,0.1c-0.1,0-0.2,0.1-0.3,0.1c-0.1,0-0.3,0-0.5,0
			c-0.2,0-0.4,0-0.5,0c-0.1,0-0.2,0-0.3-0.1c-0.1,0-0.1-0.1-0.2-0.1c0-0.1,0-0.1,0-0.2v-1.7c-0.7,0.8-1.5,1.4-2.2,1.8
			c-0.7,0.4-1.5,0.6-2.2,0.6c-0.9,0-1.6-0.1-2.2-0.4c-0.6-0.3-1.1-0.7-1.4-1.2c-0.4-0.5-0.6-1.1-0.8-1.7c-0.2-0.7-0.2-1.5-0.2-2.4
			v-7.9c0-0.1,0-0.1,0.1-0.2c0-0.1,0.1-0.1,0.2-0.1c0.1,0,0.2-0.1,0.4-0.1c0.2,0,0.3,0,0.6,0c0.2,0,0.4,0,0.6,0c0.2,0,0.3,0,0.4,0.1
			c0.1,0,0.2,0.1,0.2,0.1c0,0.1,0.1,0.1,0.1,0.2v7.6c0,0.8,0.1,1.4,0.2,1.8c0.1,0.5,0.3,0.8,0.5,1.2c0.2,0.3,0.5,0.6,0.9,0.8
			c0.3,0.2,0.8,0.3,1.2,0.3c0.6,0,1.2-0.2,1.8-0.6s1.2-1,1.9-1.9v-9.1c0-0.1,0-0.1,0-0.2c0-0.1,0.1-0.1,0.2-0.1
			c0.1,0,0.2-0.1,0.4-0.1c0.2,0,0.3,0,0.6,0c0.2,0,0.4,0,0.6,0c0.2,0,0.3,0,0.4,0.1c0.1,0,0.2,0.1,0.2,0.1c0,0.1,0.1,0.1,0.1,0.2
			V305.9z"/>
		<path class="st6" d="M292.8,293.8c0,0.2,0,0.4,0,0.5c0,0.1,0,0.3-0.1,0.3c0,0.1-0.1,0.1-0.1,0.2c0,0-0.1,0.1-0.2,0.1
			c-0.1,0-0.2,0-0.3-0.1c-0.1,0-0.2-0.1-0.4-0.1c-0.1,0-0.3-0.1-0.5-0.1c-0.2,0-0.4-0.1-0.6-0.1c-0.2,0-0.5,0-0.7,0.1
			c-0.2,0.1-0.5,0.3-0.7,0.5c-0.3,0.2-0.5,0.5-0.8,0.9c-0.3,0.4-0.6,0.8-0.9,1.3v8.5c0,0.1,0,0.1-0.1,0.2c0,0.1-0.1,0.1-0.2,0.1
			c-0.1,0-0.2,0.1-0.4,0.1c-0.2,0-0.4,0-0.6,0c-0.2,0-0.4,0-0.6,0c-0.2,0-0.3,0-0.4-0.1c-0.1,0-0.2-0.1-0.2-0.1c0-0.1,0-0.1,0-0.2
			v-13c0-0.1,0-0.1,0-0.2c0-0.1,0.1-0.1,0.2-0.1c0.1,0,0.2-0.1,0.3-0.1c0.1,0,0.3,0,0.5,0c0.2,0,0.4,0,0.5,0c0.1,0,0.2,0,0.3,0.1
			c0.1,0,0.1,0.1,0.2,0.1c0,0.1,0,0.1,0,0.2v1.9c0.4-0.5,0.7-0.9,1-1.3c0.3-0.3,0.6-0.6,0.9-0.8c0.3-0.2,0.6-0.3,0.8-0.4
			c0.3-0.1,0.6-0.1,0.8-0.1c0.1,0,0.3,0,0.4,0c0.2,0,0.3,0,0.5,0.1s0.3,0.1,0.5,0.1c0.1,0,0.2,0.1,0.3,0.1c0.1,0,0.1,0.1,0.1,0.1
			c0,0,0,0.1,0.1,0.2c0,0.1,0,0.2,0,0.3C292.8,293.4,292.8,293.6,292.8,293.8z"/>
		<path class="st6" d="M307.5,299.3c0,1.1-0.1,2-0.4,2.9c-0.3,0.9-0.7,1.7-1.2,2.3c-0.6,0.6-1.2,1.1-2.1,1.5
			c-0.8,0.4-1.8,0.5-2.9,0.5c-1.1,0-2-0.2-2.8-0.5c-0.8-0.3-1.5-0.8-2-1.4c-0.5-0.6-0.9-1.3-1.2-2.2c-0.3-0.9-0.4-1.8-0.4-2.9
			c0-1.1,0.1-2,0.4-2.9c0.3-0.9,0.7-1.7,1.2-2.3s1.2-1.1,2.1-1.5c0.8-0.4,1.8-0.5,2.9-0.5c1.1,0,2,0.2,2.8,0.5
			c0.8,0.3,1.5,0.8,2,1.4c0.5,0.6,0.9,1.3,1.2,2.2S307.5,298.2,307.5,299.3z M305,299.4c0-0.7-0.1-1.4-0.2-2
			c-0.1-0.6-0.3-1.2-0.7-1.6c-0.3-0.5-0.7-0.8-1.2-1.1c-0.5-0.3-1.2-0.4-1.9-0.4c-0.7,0-1.3,0.1-1.8,0.4c-0.5,0.3-0.9,0.6-1.3,1.1
			c-0.3,0.5-0.6,1-0.7,1.6c-0.2,0.6-0.2,1.3-0.2,2.1c0,0.7,0.1,1.4,0.2,2s0.3,1.2,0.7,1.6c0.3,0.5,0.7,0.8,1.2,1.1
			c0.5,0.3,1.2,0.4,1.9,0.4c0.7,0,1.3-0.1,1.8-0.4c0.5-0.2,0.9-0.6,1.3-1.1c0.3-0.4,0.6-1,0.7-1.6C304.9,300.9,305,300.2,305,299.4z
			"/>
		<path class="st6" d="M322.8,299.2c0,1.1-0.1,2.2-0.4,3.1c-0.2,0.9-0.6,1.7-1.1,2.3c-0.5,0.6-1.1,1.1-1.8,1.5s-1.5,0.5-2.4,0.5
			c-0.4,0-0.7,0-1.1-0.1c-0.3-0.1-0.6-0.2-1-0.4c-0.3-0.2-0.6-0.4-0.9-0.6c-0.3-0.2-0.6-0.5-1-0.9v6.5c0,0.1,0,0.1-0.1,0.2
			c0,0.1-0.1,0.1-0.2,0.1c-0.1,0-0.2,0.1-0.4,0.1c-0.2,0-0.4,0-0.6,0c-0.2,0-0.4,0-0.6,0c-0.2,0-0.3,0-0.4-0.1
			c-0.1,0-0.2-0.1-0.2-0.1c0-0.1,0-0.1,0-0.2v-18.2c0-0.1,0-0.2,0-0.2c0-0.1,0.1-0.1,0.2-0.1c0.1,0,0.2-0.1,0.3-0.1
			c0.1,0,0.3,0,0.5,0c0.2,0,0.4,0,0.5,0c0.1,0,0.2,0,0.3,0.1c0.1,0,0.1,0.1,0.2,0.1c0,0.1,0,0.1,0,0.2v1.7c0.4-0.4,0.8-0.8,1.1-1.1
			c0.4-0.3,0.7-0.5,1.1-0.7c0.4-0.2,0.7-0.3,1.1-0.4c0.4-0.1,0.8-0.2,1.2-0.2c0.9,0,1.7,0.2,2.4,0.5c0.7,0.4,1.2,0.9,1.6,1.5
			c0.4,0.6,0.7,1.4,0.9,2.2C322.7,297.4,322.8,298.3,322.8,299.2z M320.3,299.5c0-0.7-0.1-1.3-0.2-1.9c-0.1-0.6-0.3-1.2-0.5-1.7
			c-0.2-0.5-0.6-0.9-1-1.2c-0.4-0.3-0.9-0.4-1.6-0.4c-0.3,0-0.6,0-0.9,0.1c-0.3,0.1-0.6,0.2-0.9,0.4c-0.3,0.2-0.6,0.5-1,0.8
			c-0.3,0.3-0.7,0.7-1.1,1.2v5.2c0.7,0.8,1.3,1.4,1.9,1.8c0.6,0.4,1.2,0.6,1.9,0.6c0.6,0,1.1-0.1,1.5-0.4c0.4-0.3,0.8-0.7,1-1.2
			c0.3-0.5,0.5-1,0.6-1.6C320.3,300.7,320.3,300.1,320.3,299.5z"/>
		<path class="st6" d="M337.4,298.9c0,0.4-0.1,0.6-0.3,0.8c-0.2,0.2-0.4,0.2-0.6,0.2h-8.6c0,0.7,0.1,1.4,0.2,2
			c0.1,0.6,0.4,1.1,0.7,1.5c0.3,0.4,0.8,0.7,1.3,1c0.5,0.2,1.2,0.3,2,0.3c0.6,0,1.2,0,1.7-0.2c0.5-0.1,0.9-0.2,1.3-0.3
			c0.4-0.1,0.6-0.2,0.9-0.3c0.2-0.1,0.4-0.2,0.5-0.2c0.1,0,0.1,0,0.2,0c0.1,0,0.1,0.1,0.1,0.2c0,0.1,0.1,0.2,0.1,0.3
			c0,0.1,0,0.3,0,0.4c0,0.1,0,0.2,0,0.3c0,0.1,0,0.2,0,0.2c0,0.1,0,0.1-0.1,0.2s-0.1,0.1-0.1,0.2c-0.1,0.1-0.2,0.1-0.5,0.3
			c-0.3,0.1-0.6,0.2-1,0.4c-0.4,0.1-0.9,0.2-1.4,0.3c-0.5,0.1-1.1,0.1-1.7,0.1c-1.1,0-2-0.1-2.8-0.4c-0.8-0.3-1.5-0.7-2-1.3
			c-0.5-0.6-1-1.3-1.2-2.2c-0.3-0.9-0.4-1.9-0.4-3.1c0-1.1,0.1-2.1,0.4-3c0.3-0.9,0.7-1.6,1.2-2.3s1.2-1.1,2-1.4
			c0.8-0.3,1.6-0.5,2.6-0.5c1,0,1.9,0.2,2.6,0.5c0.7,0.3,1.3,0.8,1.8,1.3c0.5,0.6,0.8,1.2,1,1.9c0.2,0.7,0.3,1.5,0.3,2.4V298.9z
			 M335,298.2c0-1.3-0.2-2.2-0.8-2.9c-0.6-0.7-1.5-1.1-2.6-1.1c-0.6,0-1.1,0.1-1.6,0.3c-0.4,0.2-0.8,0.5-1.1,0.9
			c-0.3,0.4-0.5,0.8-0.7,1.3c-0.2,0.5-0.3,1-0.3,1.5H335z"/>
		<path class="st6" d="M350.7,305.9c0,0.1,0,0.2-0.1,0.3c-0.1,0.1-0.2,0.1-0.3,0.1c-0.1,0-0.3,0-0.6,0c-0.2,0-0.4,0-0.6,0
			c-0.1,0-0.3-0.1-0.3-0.1c-0.1-0.1-0.1-0.1-0.1-0.3v-1.3c-0.6,0.6-1.2,1.1-1.9,1.4c-0.7,0.3-1.4,0.5-2.2,0.5
			c-0.7,0-1.3-0.1-1.9-0.3c-0.6-0.2-1-0.4-1.4-0.8c-0.4-0.3-0.7-0.8-0.9-1.2s-0.3-1-0.3-1.7c0-0.7,0.1-1.4,0.4-1.9
			c0.3-0.5,0.7-1,1.3-1.3c0.6-0.4,1.2-0.6,2-0.8c0.8-0.2,1.7-0.3,2.7-0.3h1.8v-1c0-0.5-0.1-0.9-0.2-1.3c-0.1-0.4-0.3-0.7-0.5-1
			c-0.2-0.3-0.5-0.4-0.9-0.6c-0.4-0.1-0.8-0.2-1.4-0.2c-0.6,0-1.1,0.1-1.6,0.2c-0.5,0.1-0.9,0.3-1.2,0.5c-0.4,0.2-0.6,0.3-0.9,0.5
			c-0.2,0.1-0.4,0.2-0.5,0.2c-0.1,0-0.1,0-0.2-0.1c-0.1,0-0.1-0.1-0.2-0.2c0-0.1-0.1-0.2-0.1-0.3c0-0.1,0-0.3,0-0.4
			c0-0.2,0-0.4,0.1-0.6c0-0.1,0.1-0.3,0.2-0.4c0.1-0.1,0.4-0.3,0.7-0.4c0.3-0.2,0.7-0.3,1.1-0.5s0.9-0.3,1.4-0.3
			c0.5-0.1,1-0.1,1.5-0.1c0.9,0,1.7,0.1,2.4,0.3c0.7,0.2,1.2,0.5,1.6,0.9c0.4,0.4,0.7,0.9,0.9,1.5c0.2,0.6,0.3,1.3,0.3,2.1V305.9z
			 M348.3,300h-2c-0.7,0-1.2,0.1-1.7,0.2c-0.5,0.1-0.9,0.3-1.2,0.5s-0.6,0.5-0.7,0.8c-0.1,0.3-0.2,0.7-0.2,1c0,0.7,0.2,1.2,0.6,1.6
			c0.4,0.4,1,0.6,1.8,0.6c0.6,0,1.2-0.2,1.7-0.5c0.5-0.3,1.1-0.8,1.7-1.5V300z"/>
		<path class="st6" d="M366.1,305.9c0,0.1,0,0.1-0.1,0.2c0,0.1-0.1,0.1-0.2,0.1c-0.1,0-0.2,0.1-0.4,0.1c-0.2,0-0.3,0-0.6,0
			c-0.2,0-0.4,0-0.6,0c-0.2,0-0.3,0-0.4-0.1c-0.1,0-0.2-0.1-0.2-0.1c0-0.1-0.1-0.1-0.1-0.2v-7.6c0-0.7-0.1-1.3-0.2-1.8
			c-0.1-0.5-0.3-0.8-0.5-1.2c-0.2-0.3-0.5-0.6-0.9-0.7c-0.4-0.2-0.8-0.3-1.2-0.3c-0.6,0-1.2,0.2-1.8,0.6c-0.6,0.4-1.2,1-1.9,1.9v9.1
			c0,0.1,0,0.1-0.1,0.2c0,0.1-0.1,0.1-0.2,0.1c-0.1,0-0.2,0.1-0.4,0.1c-0.2,0-0.4,0-0.6,0c-0.2,0-0.4,0-0.6,0c-0.2,0-0.3,0-0.4-0.1
			c-0.1,0-0.2-0.1-0.2-0.1c0-0.1-0.1-0.1-0.1-0.2v-13c0-0.1,0-0.1,0-0.2c0-0.1,0.1-0.1,0.2-0.1c0.1,0,0.2-0.1,0.3-0.1
			c0.1,0,0.3,0,0.5,0c0.2,0,0.4,0,0.5,0c0.1,0,0.2,0,0.3,0.1c0.1,0,0.1,0.1,0.2,0.1c0,0.1,0.1,0.1,0.1,0.2v1.7
			c0.7-0.8,1.5-1.4,2.2-1.8c0.7-0.4,1.5-0.6,2.2-0.6c0.9,0,1.6,0.1,2.2,0.4c0.6,0.3,1.1,0.7,1.4,1.2c0.4,0.5,0.6,1.1,0.8,1.7
			c0.2,0.7,0.2,1.5,0.2,2.4V305.9z"/>
		<path class="st6" d="M391.2,299.4c0,1.1-0.2,2.2-0.5,3c-0.3,0.9-0.8,1.6-1.4,2.3s-1.4,1.1-2.3,1.4c-0.9,0.3-1.9,0.5-3,0.5
			c-1,0-2-0.1-2.8-0.4c-0.8-0.3-1.6-0.7-2.2-1.3c-0.6-0.6-1.1-1.3-1.4-2.2c-0.3-0.9-0.5-1.9-0.5-3V288c0-0.1,0-0.1,0.1-0.2
			c0-0.1,0.1-0.1,0.2-0.1c0.1,0,0.2-0.1,0.4-0.1c0.2,0,0.4,0,0.6,0c0.2,0,0.4,0,0.6,0c0.2,0,0.3,0.1,0.4,0.1c0.1,0,0.2,0.1,0.2,0.1
			c0,0.1,0.1,0.1,0.1,0.2v11.3c0,0.9,0.1,1.6,0.3,2.3c0.2,0.6,0.5,1.2,0.9,1.6c0.4,0.4,0.9,0.8,1.4,1c0.6,0.2,1.2,0.3,1.9,0.3
			c0.7,0,1.4-0.1,1.9-0.3c0.6-0.2,1-0.5,1.4-1c0.4-0.4,0.7-0.9,0.9-1.6c0.2-0.6,0.3-1.4,0.3-2.2V288c0-0.1,0-0.1,0.1-0.2
			c0-0.1,0.1-0.1,0.2-0.1c0.1,0,0.2-0.1,0.4-0.1c0.2,0,0.4,0,0.6,0c0.2,0,0.4,0,0.6,0c0.2,0,0.3,0.1,0.4,0.1c0.1,0,0.2,0.1,0.2,0.1
			c0,0.1,0.1,0.1,0.1,0.2V299.4z"/>
		<path class="st6" d="M407,305.9c0,0.1,0,0.1-0.1,0.2c0,0.1-0.1,0.1-0.2,0.1c-0.1,0-0.2,0.1-0.4,0.1c-0.2,0-0.3,0-0.6,0
			c-0.2,0-0.4,0-0.6,0c-0.2,0-0.3,0-0.4-0.1c-0.1,0-0.1-0.1-0.2-0.1c0-0.1-0.1-0.1-0.1-0.2v-7.6c0-0.7-0.1-1.3-0.2-1.8
			s-0.3-0.8-0.5-1.2c-0.2-0.3-0.5-0.6-0.9-0.7c-0.4-0.2-0.8-0.3-1.2-0.3c-0.6,0-1.2,0.2-1.8,0.6c-0.6,0.4-1.2,1-1.9,1.9v9.1
			c0,0.1,0,0.1-0.1,0.2c0,0.1-0.1,0.1-0.2,0.1c-0.1,0-0.2,0.1-0.4,0.1c-0.2,0-0.4,0-0.6,0c-0.2,0-0.4,0-0.6,0c-0.2,0-0.3,0-0.4-0.1
			c-0.1,0-0.2-0.1-0.2-0.1c0-0.1,0-0.1,0-0.2v-13c0-0.1,0-0.1,0-0.2c0-0.1,0.1-0.1,0.2-0.1c0.1,0,0.2-0.1,0.3-0.1c0.1,0,0.3,0,0.5,0
			c0.2,0,0.4,0,0.5,0c0.1,0,0.2,0,0.3,0.1c0.1,0,0.1,0.1,0.2,0.1c0,0.1,0,0.1,0,0.2v1.7c0.7-0.8,1.5-1.4,2.2-1.8
			c0.7-0.4,1.5-0.6,2.2-0.6c0.9,0,1.6,0.1,2.2,0.4c0.6,0.3,1.1,0.7,1.4,1.2c0.4,0.5,0.6,1.1,0.8,1.7c0.2,0.7,0.2,1.5,0.2,2.4V305.9z
			"/>
		<path class="st6" d="M413.8,288.5c0,0.6-0.1,0.9-0.3,1.1c-0.2,0.2-0.6,0.3-1.2,0.3c-0.6,0-0.9-0.1-1.1-0.3s-0.3-0.6-0.3-1.1
			c0-0.6,0.1-0.9,0.3-1.1c0.2-0.2,0.6-0.3,1.2-0.3c0.6,0,0.9,0.1,1.1,0.3S413.8,288,413.8,288.5z M413.6,305.9c0,0.1,0,0.1-0.1,0.2
			c0,0.1-0.1,0.1-0.2,0.1c-0.1,0-0.2,0.1-0.4,0.1c-0.2,0-0.4,0-0.6,0c-0.2,0-0.4,0-0.6,0c-0.2,0-0.3,0-0.4-0.1
			c-0.1,0-0.2-0.1-0.2-0.1c0-0.1,0-0.1,0-0.2v-13c0-0.1,0-0.1,0-0.2c0-0.1,0.1-0.1,0.2-0.1c0.1,0,0.2-0.1,0.4-0.1c0.2,0,0.3,0,0.6,0
			c0.2,0,0.4,0,0.6,0c0.2,0,0.3,0,0.4,0.1c0.1,0,0.1,0.1,0.2,0.1c0,0.1,0.1,0.1,0.1,0.2V305.9z"/>
		<path class="st6" d="M429.9,299.3c0,1.1-0.1,2-0.4,2.9c-0.3,0.9-0.7,1.7-1.2,2.3c-0.6,0.6-1.2,1.1-2.1,1.5
			c-0.8,0.4-1.8,0.5-2.9,0.5c-1.1,0-2-0.2-2.8-0.5c-0.8-0.3-1.5-0.8-2-1.4c-0.5-0.6-0.9-1.3-1.2-2.2c-0.3-0.9-0.4-1.8-0.4-2.9
			c0-1.1,0.1-2,0.4-2.9c0.3-0.9,0.7-1.7,1.2-2.3s1.2-1.1,2.1-1.5c0.8-0.4,1.8-0.5,2.9-0.5c1.1,0,2,0.2,2.8,0.5
			c0.8,0.3,1.5,0.8,2,1.4c0.5,0.6,0.9,1.3,1.2,2.2C429.8,297.2,429.9,298.2,429.9,299.3z M427.5,299.4c0-0.7-0.1-1.4-0.2-2
			s-0.3-1.2-0.6-1.6c-0.3-0.5-0.7-0.8-1.2-1.1c-0.5-0.3-1.2-0.4-1.9-0.4c-0.7,0-1.3,0.1-1.8,0.4c-0.5,0.3-0.9,0.6-1.3,1.1
			c-0.3,0.5-0.6,1-0.7,1.6c-0.2,0.6-0.2,1.3-0.2,2.1c0,0.7,0.1,1.4,0.2,2c0.1,0.6,0.4,1.2,0.7,1.6c0.3,0.5,0.7,0.8,1.2,1.1
			c0.5,0.3,1.2,0.4,1.9,0.4c0.7,0,1.3-0.1,1.8-0.4c0.5-0.2,0.9-0.6,1.3-1.1c0.3-0.4,0.6-1,0.7-1.6
			C427.4,300.9,427.5,300.2,427.5,299.4z"/>
		<path class="st6" d="M444.5,305.9c0,0.1,0,0.1-0.1,0.2c0,0.1-0.1,0.1-0.2,0.1c-0.1,0-0.2,0.1-0.4,0.1c-0.2,0-0.3,0-0.6,0
			c-0.2,0-0.4,0-0.6,0c-0.2,0-0.3,0-0.4-0.1c-0.1,0-0.2-0.1-0.2-0.1c0-0.1-0.1-0.1-0.1-0.2v-7.6c0-0.7-0.1-1.3-0.2-1.8
			c-0.1-0.5-0.3-0.8-0.5-1.2c-0.2-0.3-0.5-0.6-0.9-0.7c-0.4-0.2-0.8-0.3-1.2-0.3c-0.6,0-1.2,0.2-1.8,0.6c-0.6,0.4-1.2,1-1.9,1.9v9.1
			c0,0.1,0,0.1-0.1,0.2c0,0.1-0.1,0.1-0.2,0.1c-0.1,0-0.2,0.1-0.4,0.1c-0.2,0-0.4,0-0.6,0c-0.2,0-0.4,0-0.6,0c-0.2,0-0.3,0-0.4-0.1
			c-0.1,0-0.2-0.1-0.2-0.1c0-0.1-0.1-0.1-0.1-0.2v-13c0-0.1,0-0.1,0-0.2c0-0.1,0.1-0.1,0.2-0.1c0.1,0,0.2-0.1,0.3-0.1
			c0.1,0,0.3,0,0.5,0c0.2,0,0.4,0,0.5,0c0.1,0,0.2,0,0.3,0.1c0.1,0,0.1,0.1,0.2,0.1c0,0.1,0.1,0.1,0.1,0.2v1.7
			c0.7-0.8,1.5-1.4,2.2-1.8c0.7-0.4,1.5-0.6,2.2-0.6c0.9,0,1.6,0.1,2.2,0.4c0.6,0.3,1.1,0.7,1.4,1.2c0.4,0.5,0.6,1.1,0.8,1.7
			c0.2,0.7,0.2,1.5,0.2,2.4V305.9z"/>
	</g>
	<g>
		<g>
			<rect x="471.9" y="221.1" class="st4" width="172.9" height="116.2"/>
			<path class="st6" d="M643.4,222.5v113.4H473.4V222.5H643.4 M646.3,219.6h-2.8H473.4h-2.8v2.8v113.4v2.8h2.8h170.1h2.8v-2.8V222.5
				V219.6L646.3,219.6z"/>
		</g>
		<polygon class="st5" points="554.8,247.2 558.4,244.6 561.9,247.2 560.6,242.9 564.2,240.3 559.7,240.3 558.4,236 557,240.3 
			552.5,240.3 556.1,242.9 		"/>
		<polygon class="st5" points="536.2,252.2 539.8,249.6 543.4,252.2 542,247.9 545.7,245.3 541.2,245.3 539.8,241 538.4,245.3 
			533.9,245.3 537.6,247.9 		"/>
		<polygon class="st5" points="526.2,254.6 524.8,258.9 520.3,258.9 524,261.6 522.6,265.8 526.2,263.2 529.8,265.8 528.4,261.6 
			532.1,258.9 527.6,258.9 		"/>
		<polygon class="st5" points="521.2,281.7 524.8,284.3 523.4,280.1 527.1,277.5 522.6,277.5 521.2,273.2 519.8,277.5 515.3,277.5 
			519,280.1 517.6,284.3 		"/>
		<polygon class="st5" points="527.6,296.1 526.2,291.8 524.8,296.1 520.3,296.1 524,298.7 522.6,302.9 526.2,300.3 529.8,302.9 
			528.4,298.7 532.1,296.1 		"/>
		<polygon class="st5" points="541.2,309.7 539.8,305.4 538.4,309.7 534,309.7 537.6,312.3 536.2,316.6 539.8,313.9 543.4,316.6 
			542,312.3 545.7,309.7 		"/>
		<polygon class="st5" points="559.7,314.6 558.4,310.3 557,314.6 552.5,314.6 556.1,317.3 554.8,321.5 558.4,318.9 562,321.5 
			560.6,317.3 564.2,314.6 		"/>
		<polygon class="st5" points="578.3,309.7 576.9,305.4 575.5,309.7 571,309.7 574.7,312.3 573.3,316.6 576.9,313.9 580.5,316.6 
			579.1,312.3 582.8,309.7 		"/>
		<polygon class="st5" points="591.9,296.1 590.5,291.8 589.1,296.1 584.7,296.1 588.3,298.7 586.9,302.9 590.5,300.3 594.1,302.9 
			592.7,298.7 596.4,296.1 		"/>
		<polygon class="st5" points="601.3,277.4 596.8,277.4 595.5,273.1 594.1,277.4 589.6,277.4 593.2,280.1 591.9,284.3 595.5,281.7 
			599,284.3 597.7,280.1 		"/>
		<polygon class="st5" points="586.9,265.7 590.5,263.1 594.1,265.7 592.7,261.5 596.4,258.9 591.9,258.9 590.5,254.6 589.1,258.9 
			584.7,258.9 588.3,261.5 		"/>
		<polygon class="st5" points="577,241 575.6,245.3 571.1,245.3 574.7,247.9 573.4,252.2 577,249.6 580.6,252.2 579.2,247.9 
			582.8,245.3 578.3,245.3 		"/>
	</g>
</g>
<g>
	<g>
		<g>
			<rect x="116.2" y="83" class="st6" width="4.8" height="4.8"/>
			<rect x="116.2" y="92.5" class="st6" width="4.8" height="37.8"/>
			<path class="st7" d="M130.4,83h4.8v9.5H154v4.7h-18.8v23.6c0,2.6,2,4.8,4.7,4.8H154v4.7h-14.1c-4.9,0-9.5-4-9.5-9.5V97.1h-7.1
				v-4.7h7.1V83z"/>
			<path class="st6" d="M106.2,106.6H74.6c0.1-3.5,1-5.9,2.6-7.2c1.1-1,2.5-1.6,4.6-1.9c1.9-0.5,4.8-0.6,8.6-0.6
				c3.7,0,6.6,0.1,8.6,0.6c1.9,0.4,3.5,1,4.6,1.9C105.3,100.7,106.2,103.1,106.2,106.6 M74.6,111.4h36.9c0-4.2-0.2-7.3-0.7-9.4
				c-0.5-2-1.3-3.8-2.5-5.4c-1.6-1.8-3.5-3.1-6-3.7c-2.4-0.6-6.5-1-12-1c-5.6,0-9.6,0.4-12.1,1c-2.5,0.6-4.4,1.9-5.9,3.7
				c-1.3,1.6-2.2,3.4-2.5,5.4c-0.5,2-0.7,5.2-0.8,9.4c0.1,4.1,0.4,7.2,0.8,9.2c0.4,2,1.2,3.8,2.5,5.4c1.4,1.8,3.4,3.1,5.9,3.7
				c2.5,0.7,6.5,1,12.1,1c5.5,0,9.6-0.2,12-1c2.5-0.6,4.4-1.9,6-3.7c1-1.2,1.7-2.6,2.2-4.1h-5.6c-0.4,0.5-0.7,1-1.2,1.4
				c-1.1,0.8-2.6,1.6-4.6,1.9c-2,0.4-4.9,0.5-8.6,0.5c-3.8,0-6.7-0.1-8.6-0.5c-2-0.4-3.5-1.1-4.6-1.9c-1.4-1.2-2.3-3.2-2.5-6
				C74.6,115.5,74.6,113.3,74.6,111.4"/>
			<path class="st7" d="M111.6,196.3c46.9,0,85-38,85-84.9c0-47-38.1-85.1-85-85.1c-15.5,0-30,4.1-42.4,11.4l4.7,8.2
				c11.2-6.5,24-10.1,37.8-10.1c41.7,0,75.5,33.8,75.5,75.6c0,41.6-33.8,75.6-75.5,75.6S36,153,36,111.4h-9.5
				C26.6,158.3,64.7,196.3,111.6,196.3"/>
			<path class="st7" d="M111.6,177.5c24.5,0,45.8-13.3,57.2-33.1l-8.2-4.7c-9.8,16.9-28.1,28.3-49,28.3C80.3,168,55,142.6,55,111.4
				c0-31.3,25.3-56.7,56.6-56.7c21,0,39.2,11.4,49,28.3l8.2-4.7c-11.4-19.8-32.7-33.1-57.2-33.1c-36.4,0-66.1,29.6-66.1,66.2
				C45.5,147.9,75.1,177.5,111.6,177.5"/>
			<path class="st6" d="M610.3,121.1h4.4v0.7c0,1.4,0.1,2.4,0.5,3c0.2,0.6,0.8,1.1,1.8,1.4c1.2,0.5,4.6,0.6,10.3,0.6
				c3.6,0,6,0,7.4-0.2c1.4-0.1,2.4-0.4,3-0.8c0.8-0.7,1.2-1.7,1.2-3c0-1.6-0.5-2.6-1.4-3.2c-1-0.5-2.9-0.8-5.4-0.8
				c-0.8,0-4.9,0-12-0.1c-1.9,0-3.4-0.1-4.6-0.5c-1.1-0.2-2-0.6-2.8-1.2c-1.4-1.1-2-2.9-2-5.5c0-2.8,0.8-4.7,2.6-6
				c0.8-0.6,2.4-1.1,4.4-1.3c2.2-0.4,5.2-0.5,9.1-0.5c4.4,0,7.7,0.2,9.7,0.7c2.2,0.5,3.7,1.3,4.7,2.6c0.5,0.5,0.7,1.2,1,1.8
				c0.1,0.7,0.1,1.8,0.1,3.4h-4.3c0-1.7-0.4-2.6-0.8-3.2c-0.6-0.5-1.7-1-3.4-1.2c-1.6-0.2-4-0.4-7.1-0.4c-5.6,0-9.1,0.4-10.3,1.2
				c-1,0.6-1.3,1.6-1.3,3c0,1.4,0.5,2.4,1.4,2.8c1.1,0.5,3.1,0.7,6.4,0.6c3,0,7.1,0.1,12,0.2c3,0.1,5.2,0.8,6.5,2
				c1.3,1.2,1.9,3.1,1.9,5.6c0,1.6-0.2,2.9-0.6,3.8c-0.5,1-1.2,1.8-2.3,2.4c-1,0.6-2.4,1-4.4,1.2c-2,0.2-5,0.4-8.9,0.4
				c-4.3,0-7.6-0.1-9.7-0.4c-2-0.4-3.6-0.7-4.6-1.4c-1-0.6-1.7-1.4-2-2.4c-0.5-1-0.6-2.3-0.6-4V121.1z M602.2,130.3h4.1V92.4h-4.1
				V130.3z M581.4,118.3c-3.4,0-5.8,0.1-7.1,0.2c-1.4,0.1-2.4,0.4-3,0.6c-1.1,0.7-1.6,1.9-1.6,3.6c0,1.7,0.6,2.9,1.9,3.5
				c1.1,0.5,4.6,0.7,10.6,0.7c4.4,0,7.4-0.2,8.8-0.8c1.4-0.6,2.2-1.7,2.2-3.5c0-1.7-0.7-2.8-2.4-3.4
				C589.2,118.6,586.1,118.3,581.4,118.3 M570.8,111.9h-4.3c-0.1-0.5-0.1-0.8-0.1-1.2c0-2.6,1.1-4.6,3.1-5.5c2-1.1,6-1.6,11.6-1.6
				c4.4,0,7.7,0.2,9.6,0.6c2,0.5,3.5,1.2,4.7,2.4c0.8,0.8,1.4,1.9,1.8,3.2c0.2,1.2,0.4,3.5,0.4,6.6v13.8h-4.1v-3.1h-0.2
				c-1,1.4-2.2,2.4-3.7,2.9c-1.4,0.4-4.1,0.6-8.2,0.6c-4.6,0-7.8-0.1-9.6-0.4c-1.8-0.2-3.1-0.7-4.1-1.3c-0.8-0.7-1.6-1.6-1.9-2.4
				c-0.4-1-0.5-2.3-0.5-4c0-1.9,0.2-3.5,0.8-4.7c0.5-1.1,1.4-1.8,2.8-2.4c1.3-0.6,4.7-1,9.7-1c5.4,0,9,0.2,10.7,0.6
				c1.6,0.2,2.9,1.1,3.8,2.3h0.4v-2.9c0-2.3-0.5-4-1.3-4.9c-0.7-1-1.8-1.6-3.4-1.8c-1.4-0.4-4-0.5-7.3-0.5c-4.6,0-7.4,0.2-8.8,0.7
				c-1.3,0.6-1.9,1.7-1.9,3.5V111.9z M557.4,97.4h4.1v-4.9h-4.1V97.4z M557.4,130.3h4.1V104h-4.1V130.3z M526.4,130.3h4.1v-12.1
				c0-4.6,0.7-7.6,2.2-8.9c1.4-1.3,4.6-1.9,9.6-1.9c3.4,0,5.5,0.5,6.6,1.4c0.5,0.5,0.8,1.1,1,1.8c0.2,0.8,0.4,1.9,0.4,3.4v1.9h4.2
				v-2.8c0-3.5-0.8-5.9-2.6-7.4c-0.8-0.7-1.9-1.3-3.2-1.6c-1.2-0.2-3.2-0.5-5.8-0.5c-2.6,0-4.6,0.1-5.9,0.2
				c-1.3,0.2-2.3,0.5-3.1,0.8c-1.3,0.7-2.3,1.7-3,2.9h-0.2V104h-4.1V130.3z M518,114.5c0-2.6-0.7-4.4-2-5.4c-1-0.7-2.2-1.2-3.7-1.4
				c-1.7-0.2-4-0.4-7.1-0.4c-2.6,0-4.8,0.1-6.1,0.4c-1.4,0.2-2.5,0.7-3.4,1.3c-1.3,1-2,2.9-2.3,5.5H518z M518.1,122.2h4.3
				c0,3.1-1.1,5.3-3.2,6.5c-2.2,1.3-5.9,1.9-11.2,1.9c-4.4,0-7.8-0.2-10.1-0.5c-2.3-0.4-4-1-5.2-1.8c-2.6-1.9-4-5.6-4-11.2
				c0-3.8,0.6-6.8,1.7-8.8c1.1-1.8,2.6-3.1,4.7-3.7c1.9-0.7,5.4-1.1,10.1-1.1c4.6,0,7.8,0.2,9.8,0.7c1.9,0.5,3.6,1.4,4.8,2.8
				c1,1.2,1.7,2.5,2,4.1c0.4,1.4,0.6,3.7,0.6,6.8h-29.3c0.1,3.4,0.7,5.5,1.9,6.7c0.8,0.8,2,1.4,3.8,1.8c1.7,0.2,4.6,0.4,8.5,0.4
				c3,0,5.2-0.1,6.5-0.4c1.4-0.2,2.4-0.8,3.1-1.6C517.7,124.4,518,123.5,518.1,122.2 M463,104h-6.5v3.6h6.5v12.7c0,2,0,3.6,0.2,4.7
				c0.2,1,0.6,1.9,1.2,2.6c0.7,1.1,1.9,1.8,3.6,2.3c1.6,0.5,3.7,0.7,6.6,0.7c2.8,0,4.9-0.2,6.5-0.7c1.4-0.6,2.6-1.3,3.5-2.5
				c0.5-0.8,0.8-1.7,1.1-2.8c0.1-1.1,0.2-2.5,0.2-4.6v-1.7h-4.1v1.7c0,1.6-0.1,2.8-0.2,3.4c0,0.7-0.2,1.2-0.6,1.7
				c-0.5,0.7-1.1,1.2-1.9,1.4c-0.8,0.2-2.3,0.4-4.1,0.4c-2,0-3.6-0.1-4.6-0.4c-1.1-0.2-1.8-0.7-2.4-1.3c-0.4-0.6-0.6-1.2-0.7-1.7
				c-0.1-0.6-0.2-2.2-0.2-4.6v-11.4h18.4V104h-18.4v-6.5H463V104z M438.4,118.3c-3.4,0-5.8,0.1-7.1,0.2c-1.4,0.1-2.4,0.4-2.9,0.6
				c-1.2,0.7-1.7,1.9-1.7,3.6c0,1.7,0.6,2.9,1.9,3.5c1.1,0.5,4.6,0.7,10.7,0.7c4.3,0,7.3-0.2,8.6-0.8c1.4-0.6,2.2-1.7,2.2-3.5
				c0-1.7-0.7-2.8-2.4-3.4C446.2,118.6,443.1,118.3,438.4,118.3 M427.9,111.9h-4.3c0-0.5-0.1-0.8-0.1-1.2c0-2.6,1.1-4.6,3.1-5.5
				c2-1.1,6-1.6,11.6-1.6c4.4,0,7.7,0.2,9.6,0.6c2,0.5,3.5,1.2,4.7,2.4c0.8,0.8,1.4,1.9,1.8,3.2c0.2,1.2,0.4,3.5,0.4,6.6v13.8h-4.1
				l0.1-3.1h-0.2c-1.1,1.4-2.3,2.4-3.7,2.9c-1.4,0.4-4.2,0.6-8.3,0.6c-4.6,0-7.8-0.1-9.6-0.4c-1.8-0.2-3.1-0.7-4.1-1.3
				c-0.8-0.7-1.6-1.6-1.9-2.4c-0.4-1-0.5-2.3-0.5-4c0-1.9,0.2-3.5,0.8-4.7c0.5-1.1,1.4-1.8,2.8-2.4c1.3-0.6,4.7-1,9.8-1
				c5.4,0,8.9,0.2,10.6,0.6c1.7,0.2,2.9,1.1,3.8,2.3h0.4v-2.9c0-2.3-0.5-4-1.3-4.9c-0.7-1-1.8-1.6-3.4-1.8c-1.4-0.4-4-0.5-7.3-0.5
				c-4.4,0-7.4,0.2-8.8,0.7c-1.3,0.6-1.9,1.7-1.9,3.5V111.9z M357.3,130.3h5V97.1h2.2l21.4,33.1h4.1l21.1-33.1h2.2v33.1h5V92.4
				h-10.2l-20.2,32l-20.5-32h-10.1V130.3z M314.2,130.3h6.1l8-22.3h0.4l8.2,22.3h6.1l12.2-26.3h-4.8l-10.2,22.4h-0.4l-8-22.4h-6.6
				l-7.9,22.4H317L306.9,104h-4.7L314.2,130.3z M285.2,118.3c-3.4,0-5.8,0.1-7.2,0.2c-1.3,0.1-2.3,0.4-2.9,0.6
				c-1.1,0.7-1.7,1.9-1.7,3.6c0,1.7,0.7,2.9,2,3.5c1,0.5,4.6,0.7,10.6,0.7c4.4,0,7.3-0.2,8.8-0.8c1.4-0.6,2.2-1.7,2.2-3.5
				c0-1.7-0.8-2.8-2.4-3.4C293,118.6,289.8,118.3,285.2,118.3 M274.5,111.9h-4.3v-1.2c0-2.6,1-4.6,3.1-5.5c2-1.1,5.9-1.6,11.6-1.6
				c4.4,0,7.7,0.2,9.6,0.6c1.9,0.5,3.5,1.2,4.6,2.4c1,0.8,1.6,1.9,1.8,3.2c0.4,1.2,0.5,3.5,0.5,6.6v13.8h-4.2l0.1-3.1H297
				c-1,1.4-2.3,2.4-3.7,2.9c-1.4,0.4-4.2,0.6-8.2,0.6c-4.7,0-7.8-0.1-9.6-0.4c-1.8-0.2-3.1-0.7-4.1-1.3c-1-0.7-1.6-1.6-1.9-2.4
				c-0.4-1-0.6-2.3-0.6-4c0-1.9,0.4-3.5,0.8-4.7c0.6-1.1,1.4-1.8,2.8-2.4c1.4-0.6,4.7-1,9.8-1c5.4,0,8.9,0.2,10.6,0.6
				c1.7,0.2,3,1.1,3.8,2.3h0.4v-2.9c0-2.3-0.4-4-1.2-4.9c-0.7-1-1.9-1.6-3.4-1.8c-1.6-0.4-4-0.5-7.4-0.5c-4.4,0-7.3,0.2-8.6,0.7
				c-1.3,0.6-2,1.7-2,3.5V111.9z M227.4,111.3h18.5c4.9,0,8-0.1,9.5-0.2c1.3-0.1,2.5-0.5,3.4-1c1.3-0.8,1.9-3,1.9-6.4
				c0-2.8-0.6-4.7-1.8-5.5c-0.7-0.5-1.9-0.8-3.6-1.1c-1.7-0.1-4.8-0.2-9.4-0.2h-18.5V111.3z M222.4,130.3V92.4h23.5
				c6.4,0.1,10.4,0.2,12.2,0.5c3.1,0.4,5.3,1.8,6.5,4.2c0.8,1.6,1.2,3.8,1.2,6.7c0,2.2-0.1,3.8-0.4,5c-0.2,1.1-0.6,2-1.3,2.6
				c-1,1.1-2.4,1.9-4.6,2.4c1.7,0.2,2.9,0.8,3.8,1.8c0.7,0.8,1.2,1.7,1.4,2.8c0.2,1.1,0.4,3.2,0.4,6.4v5.4h-5v-3.6
				c0-3.1-0.1-5.3-0.2-6.4c-0.4-2.4-1.7-3.8-4.1-4.3c-1-0.1-1.8-0.1-2.5-0.1c-0.7-0.1-3.1-0.1-7.4-0.1h-18.5v14.5H222.4z"/>
		</g>
	</g>
	<path class="st6" d="M440.2,145.3h-5.3L422,168h4.6l2.6-4.6H446l2.6,4.6h4.5l-12.7-22.5L440.2,145.3z M437.8,148.9l6.1,10.9h-12.8
		l6.2-10.9H437.8z"/>
	<path class="st6" d="M477.1,160c0,0.4,0,0.9,0,1c0,2.6-0.4,2.8-2.3,3.1c-0.8,0.1-4.6,0.3-6.5,0.3c-2.8,0-5.6-0.1-7-0.3
		c-1.5-0.1-2.1-0.6-2.3-2c-0.1-1.1-0.3-4.5-0.3-6.3c0-4.3,0.5-5.7,1-6.1c1-0.8,5.5-0.9,8.9-0.9c5,0,6.7,0.4,7.2,0.6
		c0.8,0.3,1.1,0.7,1.1,2.7v1.3h3.8l0-0.6c0-2.6-0.1-2.9-0.3-3.9c-0.3-1.6-1.8-2.9-3.6-3.3c-1.7-0.4-4.4-0.6-8.1-0.6
		c-1.9,0-4.9,0.1-6.3,0.2c-3.2,0.2-4.4,0.5-5.5,1.4c-1.6,1.3-2.2,4-2.2,10.2c0,5.4,0.5,7.9,1.9,9.2c1.6,1.5,3.9,1.9,12.6,1.9
		c6.8,0,9-0.3,10.4-1.7c1.2-1.2,1.3-2.2,1.5-6.3l0-0.6h-3.9L477.1,160z"/>
	<path class="st6" d="M500.7,145.3h-5.3L482.6,168h4.6l2.6-4.6h16.8l2.6,4.6h4.5l-12.7-22.5L500.7,145.3z M498.4,148.9l6.1,10.9
		h-12.8l6.2-10.9H498.4z"/>
	<path class="st6" d="M532,145.3h-15.5V168h15.7c6.2,0,8-0.4,9.7-1.9c1.7-1.6,2.5-4.5,2.5-9.5c0-5.2-0.5-7.5-2-9.1
		C540.5,145.6,538.8,145.3,532,145.3z M540.3,156.5c0,4.9-0.8,7.1-2.8,7.6c-1.1,0.3-1.2,0.3-5.4,0.3h-11.6v-15.5h11.4
		c2.6,0,3.4,0,4.1,0.1c1.9,0.2,2.6,0.6,3.1,1.2C539.5,150.7,540.3,152.2,540.3,156.5z"/>
	<polygon class="st6" points="552.5,158.1 570,158.1 570,154.4 552.5,154.4 552.5,148.9 570.8,148.9 570.8,145.3 548.5,145.3 
		548.5,168 570.8,168 570.8,164.4 552.5,164.4 	"/>
	<polygon class="st6" points="592.5,163.1 581.1,145.3 574.4,145.3 574.4,168 578.5,168 578.5,149.1 578.9,149.1 591,168 594,168 
		606,149.1 606.4,149.1 606.4,168 610.4,168 610.4,145.3 603.7,145.3 	"/>
	<polygon class="st6" points="638.4,145.3 628.6,155.4 618.4,145.3 612.9,145.3 626.6,158.8 626.6,168 630.6,168 630.6,158.8 
		644,145.3 	"/>
</g>
</svg>
