<?xml version="1.0" encoding="utf-8"?>
<!-- Generator: Adobe Illustrator 24.3.0, SVG Export Plug-In . SVG Version: 6.00 Build 0)  -->
<svg version="1.1" id="Layer_1" xmlns="http://www.w3.org/2000/svg" xmlns:xlink="http://www.w3.org/1999/xlink" x="0px" y="0px"
	 viewBox="0 0 670 360" style="enable-background:new 0 0 670 360;" xml:space="preserve">
<style type="text/css">
	.st0{fill:#034EA2;}
	.st1{fill-rule:evenodd;clip-rule:evenodd;fill:#034EA2;}
	.st2{fill-rule:evenodd;clip-rule:evenodd;fill:#6BB845;}
	.st3{fill:#FFFFFF;}
	.st4{fill-rule:evenodd;clip-rule:evenodd;fill:#FFFFFF;}
	.st5{fill:#003399;}
	.st6{fill:#FFCC00;}
</style>
<g>
	<g>
		<path class="st3" d="M397,177.5c-3.7,0-5.9-2.3-5.9-6.4v-7.9c0-5.8,3.6-6.4,8.5-6.4h1.9c4.3,0,5.6,1.8,5.6,5.9v0.7h-2.3v-0.6
			c0-2.9-0.6-3.9-3.6-3.9h-1.3c-4.8,0-6.5,0.6-6.5,4.3v5.6c0,4.6,0.2,6.7,4,6.7h2.7c3.7,0,4.8-0.5,4.8-3.4v-1.6h2.3v1.9
			c0,4.7-3,5.2-7.1,5.2H397z"/>
		<path class="st3" d="M415.7,162.9c5.3,0,6.3,1.3,6.3,7.3c0,6-1,7.3-6.3,7.3c-5.3,0-6.3-1.3-6.3-7.3
			C409.3,164.2,410.4,162.9,415.7,162.9 M415.7,175.7c3.8,0,4.1-0.6,4.1-5.5c0-5-0.3-5.6-4.1-5.6c-3.8,0-4.1,0.6-4.1,5.6
			C411.6,175.2,411.8,175.7,415.7,175.7"/>
		<path class="st3" d="M427.4,164.8L427.4,164.8c0.7-1.7,2.8-1.9,4.5-1.9c3.7,0,5.4,1,5.4,4.9v9.5h-2.1v-9.6c0-2.6-1-3-3.4-3
			c-3.5,0-4.3,1.1-4.3,4.4v8.3h-2.1v-14.3h2.1V164.8z"/>
		<path class="st3" d="M443.2,164.8L443.2,164.8c0.7-1.7,2.8-1.9,4.5-1.9c3.7,0,5.4,1,5.4,4.9v9.5h-2.1v-9.6c0-2.6-1-3-3.4-3
			c-3.5,0-4.3,1.1-4.3,4.4v8.3H441v-14.3h2.1V164.8z"/>
		<path class="st3" d="M468.8,173v0.5c0,3.8-2.9,4-6.1,4c-5.6,0-6.4-1.8-6.4-7.3c0-5.9,1.3-7.3,6.4-7.3c4.6,0,6.1,1.1,6.1,6.3v1.4
			h-10.3c0,4.5,0.3,5.1,4.2,5.1c2.9,0,3.9-0.2,3.9-2.2V173H468.8z M466.6,168.9c-0.1-4-0.6-4.3-3.9-4.3c-3.9,0-4,1-4.2,4.3H466.6z"
			/>
		<path class="st3" d="M484,172.2v0.8c0,4-2.7,4.5-6.1,4.5c-5.9,0-6.3-2.3-6.3-7.6c0-4.6,0.8-7,6-7c3.4,0,6.2,0.4,6.2,4.4v0.4h-2.1
			v-0.4c0-2.6-1.4-2.6-3.9-2.6c-3.8,0-3.9,1.3-3.9,5.9c0,4,0.2,5.2,4.3,5.2c2.7,0,3.7-0.3,3.7-2.9v-0.7H484z"/>
		<path class="st3" d="M494.5,164.8H489v9c0,1.5,0.4,1.9,2,1.9c2,0,2-1.1,2-2.4v-1.1h2v1.1c0,2.8-1.2,4.2-4.1,4.2
			c-3.3,0-4.1-0.9-4.1-4.3v-8.4H485v-1.7h1.9v-3.5h2.1v3.5h5.5V164.8z"/>
		<path class="st3" d="M499.1,159.3h-2.1v-2.4h2.1V159.3z M499.1,177.3h-2.1v-14.3h2.1V177.3z"/>
		<path class="st3" d="M504.9,164.8L504.9,164.8c0.7-1.7,2.8-1.9,4.5-1.9c3.7,0,5.4,1,5.4,4.9v9.5h-2.1v-9.6c0-2.6-1-3-3.4-3
			c-3.5,0-4.3,1.1-4.3,4.4v8.3h-2.1v-14.3h2.1V164.8z"/>
		<path class="st3" d="M530.5,179c0,3.8-2.8,4.6-6.3,4.6c-3.3,0-5.9-0.5-5.7-4.6h2.1c0,2.7,1.3,2.9,3.6,2.9c2.6,0,4.1-0.3,4.1-3.1
			v-3.3h-0.1c-0.6,1.7-2.9,1.9-4.6,1.9c-4.6,0-5.6-2.4-5.6-7.3c0-4.8,0.7-7.3,5.6-7.3c2,0,3.8,0.3,4.6,2l0.1,0v-1.8h2.1V179z
			 M528.3,170.2c0-4-0.3-5.6-4.1-5.6c-4,0-3.9,1.8-3.9,5.6c0,3.4-0.2,5.5,3.9,5.5C528.3,175.8,528.3,173.4,528.3,170.2"/>
		<path class="st3" d="M545.5,165.3L545.5,165.3c0.8-1.8,3-2.4,4.8-2.4c1.7,0,3.9,0.5,4.4,2.4c1-1.9,3.2-2.4,5.1-2.4
			c3.7,0,4.9,1.5,4.9,5v9.4h-2.1v-9.2c0-2.4-0.4-3.5-3.1-3.5c-3,0-4.3,0.9-4.3,3.9v8.7H553v-9.6c-0.1-1.9-0.1-3.1-3.2-3.1
			c-2.8,0-4.3,1.2-4.3,4.1v8.6h-2.1v-14.3h2.1V165.3z"/>
		<path class="st3" d="M578.1,177.3v-1.5l-0.1-0.1c-0.8,1.6-2.9,1.7-4.7,1.7c-3.2,0-5.4-0.6-5.4-4.3c0-3.9,2-4.5,5.6-4.5
			c1.4,0,4.2,0.1,4.5,1.4h0.1v-2.6c0-2.6-1.4-2.9-3.8-2.9c-1.7,0-3.7,0-3.7,2v0.5h-2.2v-0.3c0-3.7,2.5-3.9,5.7-3.9
			c3.6,0,6.2,0.4,6.2,4.7v9.7H578.1z M578,173.1c0-2.7-1.6-2.7-4.3-2.7c-2.6,0-3.6,0.2-3.6,2.5c0,2.7,1.1,2.9,3.6,2.9
			C575.9,175.8,578,175.7,578,173.1"/>
		<path class="st3" d="M591.5,164.8H586v9c0,1.5,0.4,1.9,2,1.9c2,0,2-1.1,2-2.4v-1.1h2v1.1c0,2.8-1.2,4.2-4.1,4.2
			c-3.3,0-4.1-0.9-4.1-4.3v-8.4h-1.9v-1.7h1.9v-3.5h2.1v3.5h5.5V164.8z"/>
		<path class="st3" d="M601.4,164.8h-5.5v9c0,1.5,0.4,1.9,2,1.9c2,0,2-1.1,2-2.4v-1.1h2v1.1c0,2.8-1.2,4.2-4.1,4.2
			c-3.3,0-4.1-0.9-4.1-4.3v-8.4h-1.9v-1.7h1.9v-3.5h2.1v3.5h5.5V164.8z"/>
		<path class="st3" d="M615.9,173v0.5c0,3.8-2.9,4-6.1,4c-5.6,0-6.4-1.8-6.4-7.3c0-5.9,1.3-7.3,6.4-7.3c4.6,0,6.1,1.1,6.1,6.3v1.4
			h-10.3c0,4.5,0.3,5.1,4.2,5.1c2.9,0,3.9-0.2,3.9-2.2V173H615.9z M613.6,168.9c-0.1-4-0.6-4.3-3.9-4.3c-3.9,0-4,1-4.2,4.3H613.6z"
			/>
		<path class="st3" d="M621,163.1l-0.1,1.8l0.1,0.1c0.7-1.6,2.4-2,4-2c2.7,0,4,1.4,4,4v1h-2V167c0-1.8-0.6-2.4-2.4-2.4
			c-2.7,0-3.5,1.3-3.5,3.8v8.9h-2.1v-14.3H621z"/>
		<path class="st3" d="M642.5,166.8h-2.2v-0.5c0-1.4-1.1-1.4-3.3-1.4c-2.7,0-4,0-4,1.7c0,2.6,0.7,2.4,2.9,2.5c3.7,0.2,7-0.4,7,4.3
			c0,4-2.8,4.2-5.9,4.2c-3.1,0-6.3-0.2-6.3-3.3v-1.3h2.2v1.1c0,1.4,0.8,1.7,4.1,1.7c1.5,0,3.7,0.3,3.7-2.2c0-2.7-1.1-2.2-3.7-2.3
			c-3.1-0.2-6.2,0.1-6.2-3.9c0-4.1,2.4-4.2,6.2-4.2c2.5,0,5.6,0.1,5.6,3.3V166.8z"/>
		<rect x="116.2" y="83" class="st3" width="4.8" height="4.8"/>
		<rect x="116.2" y="92.5" class="st3" width="4.8" height="37.8"/>
		<path class="st4" d="M130.4,83h4.8v9.5H154v4.7h-18.8v23.6c0,2.6,2,4.8,4.7,4.8H154v4.7h-14.1c-4.9,0-9.5-4-9.5-9.5V97.1h-7.1
			v-4.7h7.1V83z"/>
		<path class="st3" d="M106.2,106.6H74.6c0.1-3.5,1-5.9,2.6-7.2c1.1-1,2.5-1.6,4.6-1.9c1.9-0.5,4.8-0.6,8.6-0.6
			c3.7,0,6.6,0.1,8.6,0.6c1.9,0.4,3.5,1,4.6,1.9C105.3,100.7,106.2,103.1,106.2,106.6 M74.6,111.4h36.9c0-4.2-0.2-7.3-0.7-9.4
			c-0.5-2-1.3-3.8-2.5-5.4c-1.6-1.8-3.5-3.1-6-3.7c-2.4-0.6-6.5-1-12-1c-5.6,0-9.6,0.4-12.1,1c-2.5,0.6-4.4,1.9-5.9,3.7
			c-1.3,1.6-2.2,3.4-2.5,5.4c-0.5,2-0.7,5.2-0.8,9.4c0.1,4.1,0.4,7.2,0.8,9.2c0.4,2,1.2,3.8,2.5,5.4c1.4,1.8,3.4,3.1,5.9,3.7
			c2.5,0.7,6.5,1,12.1,1c5.5,0,9.6-0.2,12-1c2.5-0.6,4.4-1.9,6-3.7c1-1.2,1.7-2.6,2.2-4.1h-5.6c-0.4,0.5-0.7,1-1.2,1.4
			c-1.1,0.8-2.6,1.6-4.6,1.9c-2,0.4-4.9,0.5-8.6,0.5c-3.8,0-6.7-0.1-8.6-0.5c-2-0.4-3.5-1.1-4.6-1.9c-1.4-1.2-2.3-3.2-2.5-6
			C74.6,115.5,74.6,113.3,74.6,111.4"/>
		<path class="st4" d="M111.6,196.3c46.9,0,85-38,85-84.9c0-47-38.1-85.1-85-85.1c-15.5,0-30,4.1-42.4,11.4l4.7,8.2
			c11.2-6.5,24-10.1,37.8-10.1c41.7,0,75.5,33.8,75.5,75.6c0,41.6-33.8,75.6-75.5,75.6S36,153,36,111.4h-9.5
			C26.6,158.3,64.7,196.3,111.6,196.3"/>
		<path class="st4" d="M111.6,177.5c24.5,0,45.8-13.3,57.2-33.1l-8.2-4.7c-9.8,16.9-28.1,28.3-49,28.3C80.3,168,55,142.6,55,111.4
			c0-31.3,25.3-56.7,56.6-56.7c21,0,39.2,11.4,49,28.3l8.2-4.7c-11.4-19.8-32.7-33.1-57.2-33.1c-36.4,0-66.1,29.6-66.1,66.2
			C45.5,147.9,75.1,177.5,111.6,177.5"/>
		<path class="st3" d="M610.3,121.1h4.4v0.7c0,1.4,0.1,2.4,0.5,3c0.2,0.6,0.8,1.1,1.8,1.4c1.2,0.5,4.6,0.6,10.3,0.6
			c3.6,0,6,0,7.4-0.2c1.4-0.1,2.4-0.4,3-0.8c0.8-0.7,1.2-1.7,1.2-3c0-1.6-0.5-2.6-1.4-3.2c-1-0.5-2.9-0.8-5.4-0.8
			c-0.8,0-4.9,0-12-0.1c-1.9,0-3.4-0.1-4.6-0.5c-1.1-0.2-2-0.6-2.8-1.2c-1.4-1.1-2-2.9-2-5.5c0-2.8,0.8-4.7,2.6-6
			c0.8-0.6,2.4-1.1,4.4-1.3c2.2-0.4,5.2-0.5,9.1-0.5c4.4,0,7.7,0.2,9.7,0.7c2.2,0.5,3.7,1.3,4.7,2.6c0.5,0.5,0.7,1.2,1,1.8
			c0.1,0.7,0.1,1.8,0.1,3.4h-4.3c0-1.7-0.4-2.6-0.8-3.2c-0.6-0.5-1.7-1-3.4-1.2c-1.6-0.2-4-0.4-7.1-0.4c-5.6,0-9.1,0.4-10.3,1.2
			c-1,0.6-1.3,1.6-1.3,3c0,1.4,0.5,2.4,1.4,2.8c1.1,0.5,3.1,0.7,6.4,0.6c3,0,7.1,0.1,12,0.2c3,0.1,5.2,0.8,6.5,2
			c1.3,1.2,1.9,3.1,1.9,5.6c0,1.6-0.2,2.9-0.6,3.8c-0.5,1-1.2,1.8-2.3,2.4c-1,0.6-2.4,1-4.4,1.2c-2,0.2-5,0.4-8.9,0.4
			c-4.3,0-7.6-0.1-9.7-0.4c-2-0.4-3.6-0.7-4.6-1.4c-1-0.6-1.7-1.4-2-2.4c-0.5-1-0.6-2.3-0.6-4V121.1z M602.2,130.3h4.1V92.4h-4.1
			V130.3z M581.4,118.3c-3.4,0-5.8,0.1-7.1,0.2c-1.4,0.1-2.4,0.4-3,0.6c-1.1,0.7-1.6,1.9-1.6,3.6c0,1.7,0.6,2.9,1.9,3.5
			c1.1,0.5,4.6,0.7,10.6,0.7c4.4,0,7.4-0.2,8.8-0.8c1.4-0.6,2.2-1.7,2.2-3.5c0-1.7-0.7-2.8-2.4-3.4
			C589.2,118.6,586.1,118.3,581.4,118.3 M570.8,111.9h-4.3c-0.1-0.5-0.1-0.8-0.1-1.2c0-2.6,1.1-4.6,3.1-5.5c2-1.1,6-1.6,11.6-1.6
			c4.4,0,7.7,0.2,9.6,0.6c2,0.5,3.5,1.2,4.7,2.4c0.8,0.8,1.4,1.9,1.8,3.2c0.2,1.2,0.4,3.5,0.4,6.6v13.8h-4.1v-3.1h-0.2
			c-1,1.4-2.2,2.4-3.7,2.9c-1.4,0.4-4.1,0.6-8.2,0.6c-4.6,0-7.8-0.1-9.6-0.4c-1.8-0.2-3.1-0.7-4.1-1.3c-0.8-0.7-1.6-1.6-1.9-2.4
			c-0.4-1-0.5-2.3-0.5-4c0-1.9,0.2-3.5,0.8-4.7c0.5-1.1,1.4-1.8,2.8-2.4c1.3-0.6,4.7-1,9.7-1c5.4,0,9,0.2,10.7,0.6
			c1.6,0.2,2.9,1.1,3.8,2.3h0.4v-2.9c0-2.3-0.5-4-1.3-4.9c-0.7-1-1.8-1.6-3.4-1.8c-1.4-0.4-4-0.5-7.3-0.5c-4.6,0-7.4,0.2-8.8,0.7
			c-1.3,0.6-1.9,1.7-1.9,3.5V111.9z M557.4,97.4h4.1v-4.9h-4.1V97.4z M557.4,130.3h4.1V104h-4.1V130.3z M526.4,130.3h4.1v-12.1
			c0-4.6,0.7-7.6,2.2-8.9c1.4-1.3,4.6-1.9,9.6-1.9c3.4,0,5.5,0.5,6.6,1.4c0.5,0.5,0.8,1.1,1,1.8c0.2,0.8,0.4,1.9,0.4,3.4v1.9h4.2
			v-2.8c0-3.5-0.8-5.9-2.6-7.4c-0.8-0.7-1.9-1.3-3.2-1.6c-1.2-0.2-3.2-0.5-5.8-0.5c-2.6,0-4.6,0.1-5.9,0.2c-1.3,0.2-2.3,0.5-3.1,0.8
			c-1.3,0.7-2.3,1.7-3,2.9h-0.2V104h-4.1V130.3z M518,114.5c0-2.6-0.7-4.4-2-5.4c-1-0.7-2.2-1.2-3.7-1.4c-1.7-0.2-4-0.4-7.1-0.4
			c-2.6,0-4.8,0.1-6.1,0.4c-1.4,0.2-2.5,0.7-3.4,1.3c-1.3,1-2,2.9-2.3,5.5H518z M518.1,122.2h4.3c0,3.1-1.1,5.3-3.2,6.5
			c-2.2,1.3-5.9,1.9-11.2,1.9c-4.4,0-7.8-0.2-10.1-0.5c-2.3-0.4-4-1-5.2-1.8c-2.6-1.9-4-5.6-4-11.2c0-3.8,0.6-6.8,1.7-8.8
			c1.1-1.8,2.6-3.1,4.7-3.7c1.9-0.7,5.4-1.1,10.1-1.1c4.6,0,7.8,0.2,9.8,0.7c1.9,0.5,3.6,1.4,4.8,2.8c1,1.2,1.7,2.5,2,4.1
			c0.4,1.4,0.6,3.7,0.6,6.8h-29.3c0.1,3.4,0.7,5.5,1.9,6.7c0.8,0.8,2,1.4,3.8,1.8c1.7,0.2,4.6,0.4,8.5,0.4c3,0,5.2-0.1,6.5-0.4
			c1.4-0.2,2.4-0.8,3.1-1.6C517.7,124.4,518,123.5,518.1,122.2 M463,104h-6.5v3.6h6.5v12.7c0,2,0,3.6,0.2,4.7c0.2,1,0.6,1.9,1.2,2.6
			c0.7,1.1,1.9,1.8,3.6,2.3c1.6,0.5,3.7,0.7,6.6,0.7c2.8,0,4.9-0.2,6.5-0.7c1.4-0.6,2.6-1.3,3.5-2.5c0.5-0.8,0.8-1.7,1.1-2.8
			c0.1-1.1,0.2-2.5,0.2-4.6v-1.7h-4.1v1.7c0,1.6-0.1,2.8-0.2,3.4c0,0.7-0.2,1.2-0.6,1.7c-0.5,0.7-1.1,1.2-1.9,1.4
			c-0.8,0.2-2.3,0.4-4.1,0.4c-2,0-3.6-0.1-4.6-0.4c-1.1-0.2-1.8-0.7-2.4-1.3c-0.4-0.6-0.6-1.2-0.7-1.7c-0.1-0.6-0.2-2.2-0.2-4.6
			v-11.4h18.4V104h-18.4v-6.5H463V104z M438.4,118.3c-3.4,0-5.8,0.1-7.1,0.2c-1.4,0.1-2.4,0.4-2.9,0.6c-1.2,0.7-1.7,1.9-1.7,3.6
			c0,1.7,0.6,2.9,1.9,3.5c1.1,0.5,4.6,0.7,10.7,0.7c4.3,0,7.3-0.2,8.6-0.8c1.4-0.6,2.2-1.7,2.2-3.5c0-1.7-0.7-2.8-2.4-3.4
			C446.2,118.6,443.1,118.3,438.4,118.3 M427.9,111.9h-4.3c0-0.5-0.1-0.8-0.1-1.2c0-2.6,1.1-4.6,3.1-5.5c2-1.1,6-1.6,11.6-1.6
			c4.4,0,7.7,0.2,9.6,0.6c2,0.5,3.5,1.2,4.7,2.4c0.8,0.8,1.4,1.9,1.8,3.2c0.2,1.2,0.4,3.5,0.4,6.6v13.8h-4.1l0.1-3.1h-0.2
			c-1.1,1.4-2.3,2.4-3.7,2.9c-1.4,0.4-4.2,0.6-8.3,0.6c-4.6,0-7.8-0.1-9.6-0.4c-1.8-0.2-3.1-0.7-4.1-1.3c-0.8-0.7-1.6-1.6-1.9-2.4
			c-0.4-1-0.5-2.3-0.5-4c0-1.9,0.2-3.5,0.8-4.7c0.5-1.1,1.4-1.8,2.8-2.4c1.3-0.6,4.7-1,9.8-1c5.4,0,8.9,0.2,10.6,0.6
			c1.7,0.2,2.9,1.1,3.8,2.3h0.4v-2.9c0-2.3-0.5-4-1.3-4.9c-0.7-1-1.8-1.6-3.4-1.8c-1.4-0.4-4-0.5-7.3-0.5c-4.4,0-7.4,0.2-8.8,0.7
			c-1.3,0.6-1.9,1.7-1.9,3.5V111.9z M357.3,130.3h5V97.1h2.2l21.4,33.1h4.1l21.1-33.1h2.2v33.1h5V92.4h-10.2l-20.2,32l-20.5-32
			h-10.1V130.3z M314.2,130.3h6.1l8-22.3h0.4l8.2,22.3h6.1l12.2-26.3h-4.8l-10.2,22.4h-0.4l-8-22.4h-6.6l-7.9,22.4H317L306.9,104
			h-4.7L314.2,130.3z M285.2,118.3c-3.4,0-5.8,0.1-7.2,0.2c-1.3,0.1-2.3,0.4-2.9,0.6c-1.1,0.7-1.7,1.9-1.7,3.6c0,1.7,0.7,2.9,2,3.5
			c1,0.5,4.6,0.7,10.6,0.7c4.4,0,7.3-0.2,8.8-0.8c1.4-0.6,2.2-1.7,2.2-3.5c0-1.7-0.8-2.8-2.4-3.4C293,118.6,289.8,118.3,285.2,118.3
			 M274.5,111.9h-4.3v-1.2c0-2.6,1-4.6,3.1-5.5c2-1.1,5.9-1.6,11.6-1.6c4.4,0,7.7,0.2,9.6,0.6c1.9,0.5,3.5,1.2,4.6,2.4
			c1,0.8,1.6,1.9,1.8,3.2c0.4,1.2,0.5,3.5,0.5,6.6v13.8h-4.2l0.1-3.1H297c-1,1.4-2.3,2.4-3.7,2.9c-1.4,0.4-4.2,0.6-8.2,0.6
			c-4.7,0-7.8-0.1-9.6-0.4c-1.8-0.2-3.1-0.7-4.1-1.3c-1-0.7-1.6-1.6-1.9-2.4c-0.4-1-0.6-2.3-0.6-4c0-1.9,0.4-3.5,0.8-4.7
			c0.6-1.1,1.4-1.8,2.8-2.4c1.4-0.6,4.7-1,9.8-1c5.4,0,8.9,0.2,10.6,0.6c1.7,0.2,3,1.1,3.8,2.3h0.4v-2.9c0-2.3-0.4-4-1.2-4.9
			c-0.7-1-1.9-1.6-3.4-1.8c-1.6-0.4-4-0.5-7.4-0.5c-4.4,0-7.3,0.2-8.6,0.7c-1.3,0.6-2,1.7-2,3.5V111.9z M227.4,111.3h18.5
			c4.9,0,8-0.1,9.5-0.2c1.3-0.1,2.5-0.5,3.4-1c1.3-0.8,1.9-3,1.9-6.4c0-2.8-0.6-4.7-1.8-5.5c-0.7-0.5-1.9-0.8-3.6-1.1
			c-1.7-0.1-4.8-0.2-9.4-0.2h-18.5V111.3z M222.4,130.3V92.4h23.5c6.4,0.1,10.4,0.2,12.2,0.5c3.1,0.4,5.3,1.8,6.5,4.2
			c0.8,1.6,1.2,3.8,1.2,6.7c0,2.2-0.1,3.8-0.4,5c-0.2,1.1-0.6,2-1.3,2.6c-1,1.1-2.4,1.9-4.6,2.4c1.7,0.2,2.9,0.8,3.8,1.8
			c0.7,0.8,1.2,1.7,1.4,2.8c0.2,1.1,0.4,3.2,0.4,6.4v5.4h-5v-3.6c0-3.1-0.1-5.3-0.2-6.4c-0.4-2.4-1.7-3.8-4.1-4.3
			c-1-0.1-1.8-0.1-2.5-0.1c-0.7-0.1-3.1-0.1-7.4-0.1h-18.5v14.5H222.4z"/>
	</g>
</g>
<g>
	<rect x="465" y="210.6" class="st3" width="178.5" height="122"/>
	<g>
		<g>
			<g>
				<g>
					<rect x="469.3" y="214.9" class="st5" width="169.9" height="113.3"/>
				</g>
			</g>
			<g>
				<polygon class="st6" points="550.7,239.6 554.3,237 557.8,239.6 556.5,235.4 560.1,232.7 555.6,232.7 554.3,228.5 552.9,232.8 
					548.4,232.7 552,235.4 				"/>
			</g>
			<g>
				<polygon class="st6" points="532.1,244.6 535.7,242 539.3,244.6 537.9,240.3 541.6,237.7 537.1,237.7 535.7,233.4 534.3,237.7 
					529.8,237.7 533.5,240.3 				"/>
			</g>
			<g>
				<polygon class="st6" points="522.1,247.1 520.8,251.3 516.3,251.3 519.9,254 518.5,258.2 522.1,255.6 525.7,258.2 524.3,254 
					528,251.3 523.5,251.3 				"/>
			</g>
			<g>
				<polygon class="st6" points="517.1,274.1 520.7,276.7 519.4,272.5 523,269.9 518.5,269.9 517.1,265.6 515.8,269.9 511.3,269.9 
					514.9,272.5 513.6,276.7 				"/>
			</g>
			<g>
				<polygon class="st6" points="523.5,288.5 522.1,284.2 520.7,288.5 516.3,288.5 519.9,291.1 518.5,295.3 522.1,292.7 
					525.7,295.3 524.3,291.1 528,288.5 				"/>
			</g>
			<g>
				<polygon class="st6" points="537.1,302.1 535.7,297.8 534.4,302.1 529.9,302.1 533.5,304.7 532.1,308.9 535.7,306.3 
					539.3,308.9 538,304.7 541.6,302.1 				"/>
			</g>
			<g>
				<polygon class="st6" points="555.6,307 554.3,302.7 552.9,307 548.4,307 552,309.6 550.7,313.8 554.3,311.2 557.9,313.8 
					556.5,309.6 560.1,307 				"/>
			</g>
			<g>
				<polygon class="st6" points="574.2,302.1 572.8,297.8 571.4,302.1 566.9,302.1 570.6,304.7 569.2,308.9 572.8,306.3 
					576.4,308.9 575,304.7 578.7,302.1 				"/>
			</g>
			<g>
				<polygon class="st6" points="587.8,288.5 586.4,284.2 585,288.5 580.5,288.5 584.2,291.1 582.8,295.3 586.4,292.7 590,295.3 
					588.6,291.1 592.3,288.5 				"/>
			</g>
			<g>
				<polygon class="st6" points="597.2,269.8 592.7,269.8 591.3,265.5 590,269.8 585.5,269.8 589.1,272.4 587.7,276.7 591.3,274.1 
					594.9,276.7 593.6,272.4 				"/>
			</g>
			<g>
				<polygon class="st6" points="582.8,258.1 586.4,255.5 590,258.1 588.6,253.9 592.3,251.3 587.8,251.3 586.4,247 585,251.3 
					580.5,251.3 584.2,253.9 				"/>
			</g>
			<g>
				<polygon class="st6" points="572.9,233.4 571.5,237.7 567,237.7 570.6,240.4 569.3,244.6 572.9,242 576.4,244.6 575.1,240.4 
					578.7,237.7 574.2,237.7 				"/>
			</g>
		</g>
	</g>
	<g>
		<g>
			<g>
				<path class="st3" d="M176.5,307.7c0,0.3,0,0.5,0,0.7c0,0.2-0.1,0.3-0.1,0.5c-0.1,0.1-0.2,0.2-0.2,0.3c-0.1,0.1-0.2,0.1-0.3,0.1
					h-13.1c-0.3,0-0.6-0.1-0.9-0.3c-0.3-0.2-0.4-0.6-0.4-1.2v-24.4c0-0.5,0.1-0.9,0.4-1.2c0.3-0.2,0.6-0.3,0.9-0.3h13
					c0.1,0,0.2,0,0.3,0.1c0.1,0.1,0.2,0.1,0.2,0.3c0.1,0.1,0.1,0.3,0.1,0.5c0,0.2,0.1,0.4,0.1,0.7c0,0.3,0,0.5-0.1,0.7
					c0,0.2-0.1,0.3-0.1,0.5c-0.1,0.1-0.1,0.2-0.2,0.3c-0.1,0.1-0.2,0.1-0.3,0.1h-10.7v8.6h9.2c0.1,0,0.2,0,0.3,0.1
					c0.1,0.1,0.2,0.2,0.2,0.3c0.1,0.1,0.1,0.3,0.1,0.5c0,0.2,0,0.4,0,0.7c0,0.3,0,0.5,0,0.7c0,0.2-0.1,0.3-0.1,0.4
					c-0.1,0.1-0.1,0.2-0.2,0.2c-0.1,0-0.2,0.1-0.3,0.1h-9.2v9.8h10.8c0.1,0,0.2,0,0.3,0.1c0.1,0.1,0.2,0.1,0.2,0.3
					c0.1,0.1,0.1,0.3,0.1,0.5C176.5,307.2,176.5,307.5,176.5,307.7z"/>
				<path class="st3" d="M198.4,308.7c0,0.1,0,0.2-0.1,0.3c-0.1,0.1-0.1,0.1-0.3,0.2c-0.1,0.1-0.3,0.1-0.5,0.1s-0.5,0-0.8,0
					c-0.3,0-0.6,0-0.8,0s-0.4-0.1-0.5-0.1c-0.1-0.1-0.2-0.1-0.2-0.2c0-0.1-0.1-0.2-0.1-0.3v-2.5c-1.1,1.2-2.2,2.1-3.2,2.6
					c-1.1,0.5-2.1,0.8-3.2,0.8c-1.3,0-2.3-0.2-3.2-0.6c-0.9-0.4-1.6-1-2.1-1.7c-0.5-0.7-0.9-1.6-1.2-2.5c-0.2-1-0.3-2.1-0.3-3.5
					v-11.6c0-0.1,0-0.2,0.1-0.3c0-0.1,0.1-0.1,0.3-0.2c0.1-0.1,0.3-0.1,0.5-0.1c0.2,0,0.5,0,0.8,0c0.3,0,0.6,0,0.8,0
					c0.2,0,0.4,0.1,0.5,0.1c0.1,0.1,0.2,0.1,0.3,0.2c0.1,0.1,0.1,0.2,0.1,0.3v11.1c0,1.1,0.1,2,0.2,2.7c0.2,0.7,0.4,1.2,0.7,1.7
					c0.3,0.5,0.7,0.8,1.3,1.1c0.5,0.3,1.1,0.4,1.8,0.4c0.9,0,1.7-0.3,2.6-0.9c0.9-0.6,1.8-1.5,2.8-2.7v-13.3c0-0.1,0-0.2,0.1-0.3
					c0-0.1,0.1-0.1,0.3-0.2c0.1-0.1,0.3-0.1,0.5-0.1c0.2,0,0.5,0,0.9,0c0.3,0,0.6,0,0.8,0c0.2,0,0.4,0.1,0.5,0.1
					c0.1,0.1,0.2,0.1,0.3,0.2c0.1,0.1,0.1,0.2,0.1,0.3V308.7z"/>
				<path class="st3" d="M216.2,290.9c0,0.3,0,0.6,0,0.8c0,0.2,0,0.4-0.1,0.5c0,0.1-0.1,0.2-0.2,0.3s-0.2,0.1-0.3,0.1
					c-0.1,0-0.2,0-0.4-0.1s-0.3-0.1-0.6-0.2c-0.2-0.1-0.4-0.1-0.7-0.2c-0.3-0.1-0.5-0.1-0.8-0.1c-0.4,0-0.7,0.1-1,0.2
					c-0.3,0.1-0.7,0.4-1.1,0.7c-0.4,0.3-0.8,0.8-1.2,1.3c-0.4,0.5-0.9,1.2-1.4,2v12.5c0,0.1,0,0.2-0.1,0.3c-0.1,0.1-0.1,0.1-0.3,0.2
					c-0.1,0.1-0.3,0.1-0.5,0.1c-0.2,0-0.5,0-0.9,0c-0.3,0-0.6,0-0.8,0c-0.2,0-0.4-0.1-0.5-0.1c-0.1-0.1-0.2-0.1-0.3-0.2
					c0-0.1-0.1-0.2-0.1-0.3v-19c0-0.1,0-0.2,0.1-0.3c0-0.1,0.1-0.1,0.3-0.2c0.1-0.1,0.3-0.1,0.5-0.1c0.2,0,0.5,0,0.8,0
					c0.3,0,0.6,0,0.8,0c0.2,0,0.4,0.1,0.5,0.1c0.1,0.1,0.2,0.1,0.2,0.2c0,0.1,0.1,0.2,0.1,0.3v2.8c0.5-0.8,1-1.4,1.5-1.9
					s0.9-0.9,1.3-1.1c0.4-0.3,0.8-0.5,1.2-0.6c0.4-0.1,0.8-0.2,1.2-0.2c0.2,0,0.4,0,0.6,0c0.2,0,0.5,0.1,0.7,0.1s0.5,0.1,0.7,0.2
					c0.2,0.1,0.3,0.1,0.4,0.2c0.1,0.1,0.1,0.1,0.2,0.2c0,0.1,0.1,0.1,0.1,0.2c0,0.1,0,0.2,0,0.4
					C216.2,290.3,216.2,290.6,216.2,290.9z"/>
				<path class="st3" d="M237.3,299c0,1.6-0.2,3-0.6,4.3c-0.4,1.3-1,2.4-1.8,3.4c-0.8,0.9-1.8,1.7-3,2.2c-1.2,0.5-2.6,0.8-4.2,0.8
					c-1.6,0-2.9-0.2-4.1-0.7c-1.2-0.5-2.1-1.1-2.9-2c-0.8-0.9-1.4-2-1.7-3.2c-0.4-1.3-0.6-2.7-0.6-4.3c0-1.6,0.2-3,0.6-4.3
					c0.4-1.3,1-2.4,1.8-3.4c0.8-0.9,1.8-1.7,3-2.2c1.2-0.5,2.6-0.8,4.3-0.8c1.6,0,2.9,0.2,4.1,0.7c1.2,0.5,2.1,1.1,2.9,2
					c0.8,0.9,1.4,2,1.7,3.2C237.1,296,237.3,297.4,237.3,299z M233.7,299.2c0-1-0.1-2-0.3-2.9c-0.2-0.9-0.5-1.7-0.9-2.4
					c-0.4-0.7-1-1.2-1.8-1.6c-0.8-0.4-1.7-0.6-2.8-0.6c-1,0-1.9,0.2-2.7,0.5c-0.7,0.4-1.4,0.9-1.8,1.6s-0.8,1.5-1.1,2.4
					s-0.4,1.9-0.4,3c0,1,0.1,2,0.3,2.9c0.2,0.9,0.5,1.7,1,2.4c0.4,0.7,1.1,1.2,1.8,1.6c0.8,0.4,1.7,0.6,2.8,0.6c1,0,1.9-0.2,2.7-0.5
					c0.8-0.4,1.4-0.9,1.9-1.5s0.8-1.5,1.1-2.4C233.6,301.3,233.7,300.3,233.7,299.2z"/>
				<path class="st3" d="M260.1,298.9c0,1.7-0.2,3.2-0.5,4.5c-0.4,1.3-0.9,2.4-1.6,3.4c-0.7,0.9-1.6,1.6-2.6,2.1
					c-1,0.5-2.2,0.8-3.5,0.8c-0.6,0-1.1-0.1-1.6-0.2c-0.5-0.1-0.9-0.3-1.4-0.5c-0.5-0.2-0.9-0.5-1.4-0.9c-0.4-0.4-0.9-0.8-1.4-1.3
					v9.5c0,0.1,0,0.2-0.1,0.3c-0.1,0.1-0.1,0.2-0.3,0.2c-0.1,0.1-0.3,0.1-0.5,0.1c-0.2,0-0.5,0-0.9,0c-0.3,0-0.6,0-0.8,0
					c-0.2,0-0.4-0.1-0.5-0.1c-0.1-0.1-0.2-0.1-0.3-0.2c0-0.1-0.1-0.2-0.1-0.3v-26.6c0-0.1,0-0.2,0.1-0.3c0-0.1,0.1-0.1,0.3-0.2
					c0.1-0.1,0.3-0.1,0.5-0.1c0.2,0,0.4,0,0.7,0c0.3,0,0.5,0,0.7,0c0.2,0,0.3,0.1,0.5,0.1c0.1,0.1,0.2,0.1,0.3,0.2
					c0,0.1,0.1,0.2,0.1,0.3v2.6c0.6-0.6,1.1-1.1,1.7-1.5c0.5-0.4,1.1-0.8,1.6-1.1c0.5-0.3,1.1-0.5,1.7-0.7c0.6-0.1,1.2-0.2,1.8-0.2
					c1.4,0,2.6,0.3,3.5,0.8c1,0.5,1.8,1.3,2.4,2.2c0.6,0.9,1.1,2,1.3,3.2C260,296.2,260.1,297.5,260.1,298.9z M256.5,299.3
					c0-1-0.1-1.9-0.2-2.8c-0.2-0.9-0.4-1.7-0.8-2.4c-0.4-0.7-0.8-1.3-1.5-1.7c-0.6-0.4-1.4-0.6-2.3-0.6c-0.5,0-0.9,0.1-1.3,0.2
					c-0.4,0.1-0.9,0.3-1.3,0.6c-0.5,0.3-0.9,0.7-1.4,1.1c-0.5,0.5-1,1.1-1.6,1.7v7.6c1,1.2,1.9,2.1,2.7,2.7c0.9,0.6,1.8,0.9,2.7,0.9
					c0.9,0,1.6-0.2,2.3-0.6c0.6-0.4,1.1-1,1.5-1.7c0.4-0.7,0.7-1.5,0.9-2.4C256.4,301.1,256.5,300.2,256.5,299.3z"/>
				<path class="st3" d="M281.7,298.4c0,0.5-0.1,0.9-0.4,1.2c-0.3,0.2-0.6,0.3-0.9,0.3h-12.5c0,1.1,0.1,2,0.3,2.9
					c0.2,0.8,0.6,1.6,1.1,2.2c0.5,0.6,1.1,1.1,1.9,1.4s1.8,0.5,2.9,0.5c0.9,0,1.7-0.1,2.4-0.2c0.7-0.1,1.3-0.3,1.8-0.5
					s0.9-0.3,1.3-0.5c0.3-0.1,0.6-0.2,0.8-0.2c0.1,0,0.2,0,0.3,0.1c0.1,0,0.1,0.1,0.2,0.2c0,0.1,0.1,0.2,0.1,0.4c0,0.2,0,0.4,0,0.6
					c0,0.2,0,0.3,0,0.5c0,0.1,0,0.3-0.1,0.4c0,0.1-0.1,0.2-0.1,0.3c0,0.1-0.1,0.2-0.2,0.2c-0.1,0.1-0.3,0.2-0.7,0.4
					c-0.4,0.2-0.9,0.3-1.5,0.5c-0.6,0.2-1.3,0.3-2.1,0.5c-0.8,0.1-1.6,0.2-2.5,0.2c-1.6,0-2.9-0.2-4.1-0.7c-1.2-0.4-2.2-1.1-3-1.9
					c-0.8-0.9-1.4-1.9-1.8-3.2c-0.4-1.3-0.6-2.8-0.6-4.5c0-1.6,0.2-3.1,0.6-4.4c0.4-1.3,1-2.4,1.8-3.3c0.8-0.9,1.8-1.6,2.9-2.1
					c1.1-0.5,2.4-0.7,3.8-0.7c1.5,0,2.8,0.2,3.8,0.7c1.1,0.5,1.9,1.1,2.6,1.9c0.7,0.8,1.2,1.8,1.5,2.9c0.3,1.1,0.5,2.3,0.5,3.5
					V298.4z M278.2,297.3c0-1.8-0.4-3.3-1.2-4.3c-0.9-1-2.1-1.6-3.8-1.6c-0.9,0-1.6,0.2-2.3,0.5c-0.7,0.3-1.2,0.8-1.6,1.3
					c-0.4,0.5-0.8,1.2-1,1.9c-0.2,0.7-0.4,1.5-0.4,2.2H278.2z"/>
				<path class="st3" d="M301.6,308.7c0,0.2-0.1,0.3-0.2,0.4c-0.1,0.1-0.3,0.1-0.5,0.2c-0.2,0-0.5,0.1-0.9,0.1c-0.4,0-0.7,0-0.9-0.1
					c-0.2,0-0.4-0.1-0.5-0.2c-0.1-0.1-0.1-0.2-0.1-0.4v-1.9c-0.8,0.9-1.8,1.6-2.8,2.1c-1,0.5-2.1,0.7-3.2,0.7c-1,0-1.9-0.1-2.7-0.4
					c-0.8-0.3-1.5-0.6-2.1-1.1c-0.6-0.5-1-1.1-1.3-1.8c-0.3-0.7-0.5-1.5-0.5-2.5c0-1.1,0.2-2,0.7-2.8c0.4-0.8,1.1-1.4,1.9-2
					c0.8-0.5,1.8-0.9,3-1.2c1.2-0.3,2.5-0.4,4-0.4h2.6V296c0-0.7-0.1-1.4-0.2-1.9c-0.2-0.6-0.4-1-0.8-1.4s-0.8-0.7-1.3-0.8
					c-0.5-0.2-1.2-0.3-2-0.3c-0.9,0-1.6,0.1-2.3,0.3c-0.7,0.2-1.3,0.4-1.8,0.7c-0.5,0.2-0.9,0.5-1.3,0.7c-0.3,0.2-0.6,0.3-0.8,0.3
					c-0.1,0-0.2,0-0.3-0.1c-0.1-0.1-0.2-0.1-0.2-0.3c-0.1-0.1-0.1-0.3-0.1-0.4c0-0.2,0-0.4,0-0.6c0-0.4,0-0.6,0.1-0.8
					c0-0.2,0.2-0.4,0.4-0.6c0.2-0.2,0.5-0.4,1-0.6c0.5-0.2,1-0.5,1.6-0.7c0.6-0.2,1.3-0.4,2-0.5c0.7-0.1,1.4-0.2,2.2-0.2
					c1.4,0,2.5,0.2,3.5,0.5c1,0.3,1.7,0.8,2.3,1.4c0.6,0.6,1,1.3,1.3,2.2c0.3,0.9,0.4,1.9,0.4,3.1V308.7z M298.1,300h-3
					c-1,0-1.8,0.1-2.5,0.2c-0.7,0.2-1.3,0.4-1.8,0.7c-0.5,0.3-0.8,0.7-1,1.1c-0.2,0.4-0.3,1-0.3,1.5c0,1,0.3,1.8,0.9,2.4
					c0.6,0.6,1.5,0.9,2.6,0.9c0.9,0,1.8-0.2,2.5-0.7c0.8-0.5,1.6-1.2,2.5-2.1V300z"/>
				<path class="st3" d="M324.5,308.7c0,0.1,0,0.2-0.1,0.3c-0.1,0.1-0.2,0.1-0.3,0.2c-0.1,0.1-0.3,0.1-0.5,0.1c-0.2,0-0.5,0-0.8,0
					c-0.4,0-0.6,0-0.9,0s-0.4-0.1-0.5-0.1c-0.1-0.1-0.2-0.1-0.3-0.2c-0.1-0.1-0.1-0.2-0.1-0.3v-11.1c0-1.1-0.1-2-0.3-2.6
					c-0.2-0.7-0.4-1.2-0.7-1.7s-0.7-0.8-1.3-1.1c-0.5-0.3-1.1-0.4-1.8-0.4c-0.9,0-1.7,0.3-2.6,0.9c-0.9,0.6-1.8,1.5-2.8,2.7v13.3
					c0,0.1,0,0.2-0.1,0.3c-0.1,0.1-0.2,0.1-0.3,0.2c-0.1,0.1-0.3,0.1-0.5,0.1c-0.2,0-0.5,0-0.9,0c-0.3,0-0.6,0-0.8,0
					c-0.2,0-0.4-0.1-0.5-0.1c-0.1-0.1-0.2-0.1-0.3-0.2c0-0.1-0.1-0.2-0.1-0.3v-19c0-0.1,0-0.2,0.1-0.3c0-0.1,0.1-0.1,0.3-0.2
					c0.1-0.1,0.3-0.1,0.5-0.1c0.2,0,0.5,0,0.8,0c0.3,0,0.6,0,0.8,0c0.2,0,0.4,0.1,0.5,0.1c0.1,0.1,0.2,0.1,0.2,0.2
					c0,0.1,0.1,0.2,0.1,0.3v2.5c1.1-1.2,2.1-2.1,3.2-2.6c1.1-0.6,2.1-0.8,3.2-0.8c1.3,0,2.3,0.2,3.2,0.6c0.9,0.4,1.6,1,2.1,1.7
					c0.5,0.7,0.9,1.6,1.2,2.5c0.2,1,0.3,2.1,0.3,3.5V308.7z"/>
				<path class="st3" d="M361.9,299.1c0,1.7-0.2,3.2-0.7,4.5s-1.2,2.4-2.1,3.3c-0.9,0.9-2,1.6-3.3,2.1c-1.3,0.5-2.8,0.7-4.4,0.7
					c-1.5,0-2.9-0.2-4.1-0.7c-1.2-0.4-2.3-1.1-3.2-1.9c-0.9-0.9-1.6-1.9-2.1-3.2c-0.5-1.3-0.7-2.8-0.7-4.4v-17c0-0.1,0-0.2,0.1-0.3
					c0.1-0.1,0.2-0.2,0.3-0.2c0.1,0,0.3-0.1,0.6-0.1c0.2,0,0.5-0.1,0.9-0.1c0.3,0,0.6,0,0.9,0.1c0.2,0,0.4,0.1,0.6,0.1
					c0.1,0.1,0.2,0.1,0.3,0.2c0.1,0.1,0.1,0.2,0.1,0.3V299c0,1.3,0.2,2.4,0.5,3.3c0.3,0.9,0.8,1.7,1.3,2.4s1.3,1.1,2.1,1.4
					c0.8,0.3,1.7,0.5,2.8,0.5c1.1,0,2-0.2,2.8-0.5c0.8-0.3,1.5-0.8,2.1-1.4s1-1.4,1.3-2.3s0.5-2,0.5-3.2v-16.7c0-0.1,0-0.2,0.1-0.3
					c0.1-0.1,0.2-0.2,0.3-0.2c0.1,0,0.3-0.1,0.6-0.1c0.2,0,0.5-0.1,0.9-0.1c0.3,0,0.6,0,0.9,0.1s0.4,0.1,0.6,0.1
					c0.1,0.1,0.2,0.1,0.3,0.2c0.1,0.1,0.1,0.2,0.1,0.3V299.1z"/>
				<path class="st3" d="M385.3,308.7c0,0.1,0,0.2-0.1,0.3c-0.1,0.1-0.1,0.1-0.3,0.2c-0.1,0.1-0.3,0.1-0.5,0.1c-0.2,0-0.5,0-0.8,0
					c-0.4,0-0.6,0-0.9,0c-0.2,0-0.4-0.1-0.5-0.1c-0.1-0.1-0.2-0.1-0.3-0.2c-0.1-0.1-0.1-0.2-0.1-0.3v-11.1c0-1.1-0.1-2-0.3-2.6
					c-0.2-0.7-0.4-1.2-0.7-1.7s-0.7-0.8-1.3-1.1c-0.5-0.3-1.1-0.4-1.8-0.4c-0.9,0-1.7,0.3-2.6,0.9c-0.9,0.6-1.8,1.5-2.8,2.7v13.3
					c0,0.1,0,0.2-0.1,0.3c-0.1,0.1-0.1,0.1-0.3,0.2c-0.1,0.1-0.3,0.1-0.5,0.1c-0.2,0-0.5,0-0.9,0c-0.3,0-0.6,0-0.8,0
					c-0.2,0-0.4-0.1-0.5-0.1c-0.1-0.1-0.2-0.1-0.3-0.2c0-0.1-0.1-0.2-0.1-0.3v-19c0-0.1,0-0.2,0.1-0.3c0-0.1,0.1-0.1,0.3-0.2
					c0.1-0.1,0.3-0.1,0.5-0.1c0.2,0,0.5,0,0.8,0c0.3,0,0.6,0,0.8,0c0.2,0,0.4,0.1,0.5,0.1c0.1,0.1,0.2,0.1,0.2,0.2
					c0,0.1,0.1,0.2,0.1,0.3v2.5c1.1-1.2,2.1-2.1,3.2-2.6c1.1-0.6,2.1-0.8,3.2-0.8c1.3,0,2.3,0.2,3.2,0.6c0.9,0.4,1.6,1,2.1,1.7
					c0.5,0.7,0.9,1.6,1.2,2.5c0.2,1,0.4,2.1,0.4,3.5V308.7z"/>
				<path class="st3" d="M395.7,283.2c0,0.8-0.2,1.4-0.5,1.7s-0.9,0.4-1.7,0.4c-0.8,0-1.4-0.1-1.7-0.4c-0.3-0.3-0.5-0.8-0.5-1.6
					c0-0.8,0.2-1.4,0.5-1.7c0.3-0.3,0.9-0.4,1.7-0.4c0.8,0,1.4,0.1,1.7,0.4C395.5,281.9,395.7,282.4,395.7,283.2z M395.3,308.7
					c0,0.1,0,0.2-0.1,0.3c-0.1,0.1-0.1,0.1-0.3,0.2c-0.1,0.1-0.3,0.1-0.5,0.1c-0.2,0-0.5,0-0.9,0c-0.3,0-0.6,0-0.8,0
					c-0.2,0-0.4-0.1-0.5-0.1c-0.1-0.1-0.2-0.1-0.3-0.2c0-0.1-0.1-0.2-0.1-0.3v-19c0-0.1,0-0.2,0.1-0.3c0-0.1,0.1-0.2,0.3-0.2
					c0.1-0.1,0.3-0.1,0.5-0.1c0.2,0,0.5,0,0.8,0c0.4,0,0.6,0,0.9,0c0.2,0,0.4,0.1,0.5,0.1c0.1,0.1,0.2,0.1,0.3,0.2
					c0.1,0.1,0.1,0.2,0.1,0.3V308.7z"/>
				<path class="st3" d="M419.6,299c0,1.6-0.2,3-0.6,4.3c-0.4,1.3-1,2.4-1.8,3.4c-0.8,0.9-1.8,1.7-3,2.2c-1.2,0.5-2.6,0.8-4.2,0.8
					c-1.6,0-2.9-0.2-4.1-0.7c-1.2-0.5-2.1-1.1-2.9-2c-0.8-0.9-1.4-2-1.7-3.2s-0.6-2.7-0.6-4.3c0-1.6,0.2-3,0.6-4.3
					c0.4-1.3,1-2.4,1.8-3.4c0.8-0.9,1.8-1.7,3-2.2c1.2-0.5,2.6-0.8,4.2-0.8c1.6,0,2.9,0.2,4.1,0.7c1.2,0.5,2.1,1.1,2.9,2
					c0.8,0.9,1.4,2,1.7,3.2C419.4,296,419.6,297.4,419.6,299z M415.9,299.2c0-1-0.1-2-0.3-2.9c-0.2-0.9-0.5-1.7-1-2.4
					c-0.4-0.7-1-1.2-1.8-1.6c-0.8-0.4-1.7-0.6-2.8-0.6c-1,0-1.9,0.2-2.7,0.5c-0.7,0.4-1.4,0.9-1.8,1.6s-0.8,1.5-1.1,2.4
					c-0.2,0.9-0.4,1.9-0.4,3c0,1,0.1,2,0.3,2.9c0.2,0.9,0.5,1.7,1,2.4c0.4,0.7,1.1,1.2,1.8,1.6c0.8,0.4,1.7,0.6,2.8,0.6
					c1,0,1.9-0.2,2.7-0.5c0.8-0.4,1.4-0.9,1.9-1.5s0.8-1.5,1.1-2.4C415.8,301.3,415.9,300.3,415.9,299.2z"/>
				<path class="st3" d="M441.2,308.7c0,0.1,0,0.2-0.1,0.3c-0.1,0.1-0.2,0.1-0.3,0.2c-0.1,0.1-0.3,0.1-0.5,0.1c-0.2,0-0.5,0-0.8,0
					c-0.4,0-0.6,0-0.9,0c-0.2,0-0.4-0.1-0.5-0.1c-0.1-0.1-0.2-0.1-0.3-0.2c-0.1-0.1-0.1-0.2-0.1-0.3v-11.1c0-1.1-0.1-2-0.3-2.6
					c-0.2-0.7-0.4-1.2-0.7-1.7s-0.7-0.8-1.3-1.1c-0.5-0.3-1.1-0.4-1.8-0.4c-0.9,0-1.7,0.3-2.6,0.9c-0.9,0.6-1.8,1.5-2.8,2.7v13.3
					c0,0.1,0,0.2-0.1,0.3c-0.1,0.1-0.2,0.1-0.3,0.2c-0.1,0.1-0.3,0.1-0.5,0.1c-0.2,0-0.5,0-0.9,0c-0.3,0-0.6,0-0.8,0
					c-0.2,0-0.4-0.1-0.5-0.1c-0.1-0.1-0.2-0.1-0.3-0.2c0-0.1-0.1-0.2-0.1-0.3v-19c0-0.1,0-0.2,0.1-0.3c0-0.1,0.1-0.1,0.3-0.2
					c0.1-0.1,0.3-0.1,0.5-0.1c0.2,0,0.5,0,0.8,0c0.3,0,0.6,0,0.8,0c0.2,0,0.4,0.1,0.5,0.1c0.1,0.1,0.2,0.1,0.2,0.2
					c0,0.1,0.1,0.2,0.1,0.3v2.5c1.1-1.2,2.1-2.1,3.2-2.6c1.1-0.6,2.1-0.8,3.2-0.8c1.3,0,2.3,0.2,3.2,0.6c0.9,0.4,1.6,1,2.1,1.7
					c0.5,0.7,0.9,1.6,1.2,2.5c0.2,1,0.3,2.1,0.3,3.5V308.7z"/>
			</g>
			<g>
				<path class="st3" d="M159.9,258.2c0,0.2,0,0.4,0,0.6c0,0.2,0,0.3-0.1,0.4c0,0.1-0.1,0.2-0.1,0.3c-0.1,0.1-0.2,0.2-0.3,0.4
					c-0.1,0.1-0.4,0.4-0.9,0.6c-0.5,0.3-1,0.6-1.7,0.8c-0.7,0.3-1.4,0.5-2.3,0.7c-0.9,0.2-1.8,0.3-2.8,0.3c-1.8,0-3.4-0.3-4.8-0.9
					c-1.4-0.6-2.7-1.5-3.7-2.6c-1-1.2-1.8-2.6-2.3-4.3c-0.5-1.7-0.8-3.7-0.8-5.9c0-2.3,0.3-4.3,0.9-6.1c0.6-1.8,1.4-3.3,2.5-4.5
					c1.1-1.2,2.3-2.2,3.8-2.8c1.5-0.6,3.1-1,4.9-1c0.8,0,1.6,0.1,2.3,0.2c0.7,0.1,1.4,0.3,2.1,0.6c0.6,0.2,1.2,0.5,1.7,0.8
					c0.5,0.3,0.8,0.5,1,0.7c0.2,0.2,0.3,0.3,0.4,0.4c0.1,0.1,0.1,0.2,0.1,0.3c0,0.1,0.1,0.3,0.1,0.5c0,0.2,0,0.4,0,0.7
					c0,0.3,0,0.5,0,0.7c0,0.2-0.1,0.4-0.1,0.5s-0.1,0.2-0.2,0.3c-0.1,0.1-0.2,0.1-0.3,0.1c-0.2,0-0.5-0.1-0.8-0.4
					c-0.4-0.3-0.8-0.6-1.4-0.9c-0.6-0.3-1.2-0.6-2-0.9c-0.8-0.3-1.8-0.4-2.9-0.4c-1.2,0-2.3,0.2-3.3,0.7c-1,0.5-1.9,1.2-2.6,2.1
					c-0.7,0.9-1.3,2.1-1.6,3.5c-0.4,1.4-0.6,2.9-0.6,4.7c0,1.7,0.2,3.3,0.6,4.6c0.4,1.3,0.9,2.4,1.6,3.3c0.7,0.9,1.6,1.6,2.6,2
					c1,0.5,2.2,0.7,3.5,0.7c1.1,0,2-0.1,2.9-0.4c0.8-0.3,1.5-0.6,2.1-0.9c0.6-0.3,1-0.6,1.4-0.9c0.4-0.3,0.7-0.4,0.9-0.4
					c0.1,0,0.2,0,0.3,0.1c0.1,0,0.1,0.1,0.2,0.2c0,0.1,0.1,0.3,0.1,0.5C159.9,257.6,159.9,257.9,159.9,258.2z"/>
				<path class="st3" d="M182.1,251.9c0,1.6-0.2,3-0.6,4.3c-0.4,1.3-1,2.4-1.8,3.4c-0.8,0.9-1.8,1.7-3,2.2c-1.2,0.5-2.6,0.8-4.2,0.8
					c-1.6,0-2.9-0.2-4.1-0.7s-2.1-1.1-2.9-2c-0.8-0.9-1.4-2-1.7-3.2c-0.4-1.3-0.6-2.7-0.6-4.3c0-1.6,0.2-3,0.6-4.3
					c0.4-1.3,1-2.4,1.8-3.4c0.8-0.9,1.8-1.7,3-2.2c1.2-0.5,2.6-0.8,4.3-0.8c1.6,0,2.9,0.2,4.1,0.7c1.2,0.5,2.1,1.1,2.9,2
					c0.8,0.9,1.4,2,1.7,3.2C181.9,248.8,182.1,250.3,182.1,251.9z M178.5,252.1c0-1-0.1-2-0.3-2.9c-0.2-0.9-0.5-1.7-1-2.4
					c-0.4-0.7-1-1.2-1.8-1.6c-0.8-0.4-1.7-0.6-2.8-0.6c-1,0-1.9,0.2-2.7,0.6c-0.7,0.4-1.4,0.9-1.8,1.6c-0.5,0.7-0.8,1.5-1.1,2.4
					c-0.2,0.9-0.4,1.9-0.4,3c0,1,0.1,2,0.3,2.9c0.2,0.9,0.5,1.7,1,2.4c0.4,0.7,1.1,1.2,1.8,1.6c0.8,0.4,1.7,0.6,2.8,0.6
					c1,0,1.9-0.2,2.7-0.5c0.8-0.4,1.4-0.9,1.9-1.5s0.8-1.5,1.1-2.4C178.4,254.2,178.5,253.2,178.5,252.1z"/>
				<path class="st3" d="M195.9,251.4c0,0.5-0.1,0.9-0.2,1.1s-0.3,0.3-0.5,0.3h-8.8c-0.3,0-0.4-0.1-0.6-0.3
					c-0.1-0.2-0.2-0.6-0.2-1.1s0.1-0.9,0.2-1.1c0.1-0.2,0.3-0.3,0.6-0.3h8.8c0.1,0,0.2,0,0.3,0.1c0.1,0,0.2,0.1,0.2,0.2
					c0.1,0.1,0.1,0.3,0.1,0.5C195.9,250.9,195.9,251.2,195.9,251.4z"/>
				<path class="st3" d="M210.8,234.7c0,0.3,0,0.5,0,0.6c0,0.2-0.1,0.3-0.1,0.4c0,0.1-0.1,0.2-0.1,0.2c-0.1,0-0.1,0.1-0.2,0.1
					c-0.1,0-0.2,0-0.4-0.1c-0.1-0.1-0.3-0.1-0.5-0.2c-0.2-0.1-0.5-0.1-0.8-0.2c-0.3-0.1-0.6-0.1-1-0.1c-0.5,0-1,0.1-1.3,0.3
					c-0.4,0.2-0.7,0.4-0.9,0.8c-0.2,0.4-0.4,0.8-0.5,1.4c-0.1,0.6-0.1,1.3-0.1,2.1v2.1h4.3c0.1,0,0.2,0,0.3,0.1
					c0.1,0,0.1,0.1,0.2,0.3c0.1,0.1,0.1,0.3,0.1,0.5c0,0.2,0.1,0.4,0.1,0.7c0,0.5-0.1,0.9-0.2,1.1c-0.1,0.2-0.3,0.3-0.5,0.3h-4.3
					v16.7c0,0.1,0,0.2-0.1,0.3c-0.1,0.1-0.2,0.1-0.3,0.2c-0.1,0.1-0.3,0.1-0.5,0.1c-0.2,0-0.5,0-0.8,0c-0.3,0-0.6,0-0.8,0
					c-0.2,0-0.4-0.1-0.5-0.1c-0.1-0.1-0.2-0.1-0.3-0.2c-0.1-0.1-0.1-0.2-0.1-0.3v-16.7h-2.7c-0.2,0-0.4-0.1-0.5-0.3
					c-0.1-0.2-0.2-0.6-0.2-1.1c0-0.3,0-0.5,0-0.7c0-0.2,0.1-0.3,0.1-0.5c0.1-0.1,0.1-0.2,0.2-0.3c0.1,0,0.2-0.1,0.3-0.1h2.7v-2
					c0-1.3,0.1-2.5,0.4-3.4c0.2-1,0.6-1.7,1.1-2.3c0.5-0.6,1.1-1.1,1.9-1.3c0.8-0.3,1.7-0.4,2.7-0.4c0.5,0,1,0,1.4,0.1
					c0.5,0.1,0.8,0.2,1.1,0.3c0.3,0.1,0.4,0.2,0.5,0.3c0.1,0.1,0.2,0.2,0.2,0.3s0.1,0.3,0.1,0.5
					C210.8,234.2,210.8,234.4,210.8,234.7z"/>
				<path class="st3" d="M230,261.6c0,0.1,0,0.2-0.1,0.3c-0.1,0.1-0.1,0.1-0.3,0.2c-0.1,0.1-0.3,0.1-0.5,0.1c-0.2,0-0.5,0-0.7,0
					c-0.3,0-0.6,0-0.8,0c-0.2,0-0.4-0.1-0.5-0.1c-0.1-0.1-0.2-0.1-0.2-0.2c0-0.1-0.1-0.2-0.1-0.3v-2.5c-1.1,1.2-2.2,2.1-3.2,2.6
					s-2.1,0.8-3.2,0.8c-1.3,0-2.3-0.2-3.2-0.6s-1.6-1-2.1-1.7c-0.5-0.7-0.9-1.6-1.2-2.5c-0.2-1-0.3-2.1-0.3-3.5v-11.6
					c0-0.1,0-0.2,0.1-0.3c0-0.1,0.1-0.1,0.3-0.2c0.1-0.1,0.3-0.1,0.5-0.1c0.2,0,0.5,0,0.8,0s0.6,0,0.8,0c0.2,0,0.4,0.1,0.5,0.1
					c0.1,0.1,0.2,0.1,0.3,0.2c0.1,0.1,0.1,0.2,0.1,0.3v11.1c0,1.1,0.1,2,0.2,2.7c0.2,0.7,0.4,1.2,0.7,1.7c0.3,0.5,0.7,0.8,1.3,1.1
					c0.5,0.3,1.1,0.4,1.8,0.4c0.9,0,1.7-0.3,2.6-0.9c0.9-0.6,1.8-1.5,2.8-2.7v-13.3c0-0.1,0-0.2,0.1-0.3c0-0.1,0.1-0.1,0.3-0.2
					c0.1-0.1,0.3-0.1,0.5-0.1c0.2,0,0.5,0,0.9,0c0.3,0,0.6,0,0.8,0c0.2,0,0.4,0.1,0.5,0.1c0.1,0.1,0.2,0.1,0.3,0.2
					c0.1,0.1,0.1,0.2,0.1,0.3V261.6z"/>
				<path class="st3" d="M253,261.6c0,0.1,0,0.2-0.1,0.3c-0.1,0.1-0.1,0.1-0.3,0.2c-0.1,0.1-0.3,0.1-0.5,0.1c-0.2,0-0.5,0-0.8,0
					c-0.4,0-0.6,0-0.9,0c-0.2,0-0.4-0.1-0.5-0.1c-0.1-0.1-0.2-0.1-0.3-0.2c-0.1-0.1-0.1-0.2-0.1-0.3v-11.1c0-1.1-0.1-2-0.3-2.6
					c-0.2-0.7-0.4-1.2-0.7-1.7c-0.3-0.5-0.7-0.8-1.3-1.1c-0.5-0.3-1.1-0.4-1.8-0.4c-0.9,0-1.7,0.3-2.6,0.9c-0.9,0.6-1.8,1.5-2.8,2.7
					v13.3c0,0.1,0,0.2-0.1,0.3c-0.1,0.1-0.1,0.1-0.3,0.2c-0.1,0.1-0.3,0.1-0.5,0.1c-0.2,0-0.5,0-0.9,0c-0.3,0-0.6,0-0.8,0
					c-0.2,0-0.4-0.1-0.5-0.1c-0.1-0.1-0.2-0.1-0.3-0.2c0-0.1-0.1-0.2-0.1-0.3v-19c0-0.1,0-0.2,0.1-0.3c0-0.1,0.1-0.1,0.3-0.2
					c0.1-0.1,0.3-0.1,0.5-0.1c0.2,0,0.5,0,0.8,0c0.3,0,0.6,0,0.8,0c0.2,0,0.4,0.1,0.5,0.1c0.1,0.1,0.2,0.1,0.2,0.2
					c0,0.1,0.1,0.2,0.1,0.3v2.5c1.1-1.2,2.1-2.1,3.2-2.6c1.1-0.6,2.1-0.8,3.2-0.8c1.3,0,2.3,0.2,3.2,0.6c0.9,0.4,1.6,1,2.1,1.7
					c0.5,0.7,0.9,1.6,1.2,2.5c0.2,1,0.3,2.1,0.3,3.5V261.6z"/>
				<path class="st3" d="M275.7,261.6c0,0.1,0,0.2-0.1,0.3c-0.1,0.1-0.1,0.2-0.3,0.2c-0.1,0-0.3,0.1-0.5,0.1c-0.2,0-0.4,0-0.7,0
					c-0.3,0-0.5,0-0.7,0c-0.2,0-0.4-0.1-0.5-0.1c-0.1,0-0.2-0.1-0.3-0.2c-0.1-0.1-0.1-0.2-0.1-0.3v-2.5c-1,1.1-2,1.9-3.1,2.5
					c-1.1,0.6-2.3,0.9-3.5,0.9c-1.4,0-2.6-0.3-3.6-0.8c-1-0.5-1.8-1.3-2.4-2.2c-0.6-0.9-1.1-2-1.3-3.3c-0.3-1.2-0.4-2.6-0.4-3.9
					c0-1.6,0.2-3.1,0.5-4.4c0.4-1.3,0.9-2.4,1.6-3.4s1.5-1.6,2.6-2.1c1-0.5,2.2-0.7,3.5-0.7c1.1,0,2.1,0.2,3.1,0.7
					c0.9,0.5,1.8,1.2,2.7,2.1v-11.1c0-0.1,0-0.2,0.1-0.3c0-0.1,0.1-0.2,0.3-0.2c0.1,0,0.3-0.1,0.5-0.1c0.2,0,0.5-0.1,0.8-0.1
					c0.4,0,0.6,0,0.9,0.1c0.2,0,0.4,0.1,0.5,0.1c0.1,0,0.2,0.1,0.3,0.2c0.1,0.1,0.1,0.2,0.1,0.3V261.6z M272.2,248.2
					c-0.9-1.2-1.9-2.1-2.7-2.7c-0.9-0.6-1.8-0.9-2.8-0.9c-0.9,0-1.6,0.2-2.3,0.6c-0.6,0.4-1.1,1-1.5,1.7c-0.4,0.7-0.7,1.5-0.8,2.3
					c-0.2,0.9-0.3,1.8-0.3,2.7c0,1,0.1,1.9,0.2,2.8c0.1,0.9,0.4,1.7,0.8,2.4c0.4,0.7,0.9,1.3,1.5,1.7c0.6,0.4,1.4,0.6,2.3,0.6
					c0.5,0,0.9-0.1,1.3-0.2c0.4-0.1,0.9-0.3,1.3-0.6c0.5-0.3,0.9-0.7,1.4-1.2c0.5-0.5,1-1.1,1.6-1.7V248.2z"/>
				<path class="st3" d="M298.5,251.2c0,0.5-0.1,0.9-0.4,1.2c-0.3,0.2-0.6,0.3-0.9,0.3h-12.5c0,1.1,0.1,2,0.3,2.9
					c0.2,0.8,0.6,1.6,1.1,2.2c0.5,0.6,1.1,1.1,1.9,1.4c0.8,0.3,1.8,0.5,2.9,0.5c0.9,0,1.7-0.1,2.4-0.2c0.7-0.1,1.3-0.3,1.8-0.5
					c0.5-0.2,0.9-0.3,1.3-0.5c0.3-0.1,0.6-0.2,0.8-0.2c0.1,0,0.2,0,0.3,0.1c0.1,0.1,0.1,0.1,0.2,0.2c0,0.1,0.1,0.2,0.1,0.4
					c0,0.2,0,0.4,0,0.6c0,0.2,0,0.3,0,0.5c0,0.1,0,0.3-0.1,0.4c0,0.1-0.1,0.2-0.1,0.3c0,0.1-0.1,0.2-0.2,0.2
					c-0.1,0.1-0.3,0.2-0.7,0.4c-0.4,0.2-0.9,0.3-1.5,0.5c-0.6,0.2-1.3,0.3-2.1,0.5c-0.8,0.1-1.6,0.2-2.5,0.2c-1.6,0-2.9-0.2-4.1-0.7
					c-1.2-0.4-2.2-1.1-3-1.9c-0.8-0.9-1.4-1.9-1.8-3.2c-0.4-1.3-0.6-2.8-0.6-4.5c0-1.6,0.2-3.1,0.6-4.4c0.4-1.3,1-2.4,1.8-3.3
					c0.8-0.9,1.8-1.6,2.9-2.1c1.1-0.5,2.4-0.7,3.8-0.7c1.5,0,2.8,0.2,3.8,0.7c1.1,0.5,1.9,1.1,2.6,1.9c0.7,0.8,1.2,1.8,1.5,2.9
					c0.3,1.1,0.5,2.3,0.5,3.5V251.2z M295,250.2c0-1.8-0.4-3.3-1.2-4.3c-0.9-1-2.1-1.6-3.8-1.6c-0.9,0-1.6,0.2-2.3,0.5
					c-0.7,0.3-1.2,0.8-1.6,1.3c-0.4,0.5-0.8,1.2-1,1.9c-0.2,0.7-0.4,1.5-0.4,2.2H295z"/>
				<path class="st3" d="M320.3,261.6c0,0.1,0,0.2-0.1,0.3c-0.1,0.1-0.1,0.2-0.3,0.2c-0.1,0-0.3,0.1-0.5,0.1c-0.2,0-0.4,0-0.7,0
					c-0.3,0-0.5,0-0.7,0c-0.2,0-0.4-0.1-0.5-0.1c-0.1,0-0.2-0.1-0.3-0.2c-0.1-0.1-0.1-0.2-0.1-0.3v-2.5c-1,1.1-2,1.9-3.1,2.5
					c-1.1,0.6-2.3,0.9-3.5,0.9c-1.4,0-2.6-0.3-3.6-0.8c-1-0.5-1.8-1.3-2.4-2.2c-0.6-0.9-1.1-2-1.3-3.3c-0.3-1.2-0.4-2.6-0.4-3.9
					c0-1.6,0.2-3.1,0.5-4.4c0.4-1.3,0.9-2.4,1.6-3.4s1.5-1.6,2.6-2.1c1-0.5,2.2-0.7,3.5-0.7c1.1,0,2.1,0.2,3.1,0.7
					c0.9,0.5,1.8,1.2,2.7,2.1v-11.1c0-0.1,0-0.2,0.1-0.3c0-0.1,0.1-0.2,0.3-0.2c0.1,0,0.3-0.1,0.5-0.1c0.2,0,0.5-0.1,0.8-0.1
					c0.4,0,0.6,0,0.9,0.1c0.2,0,0.4,0.1,0.5,0.1c0.1,0,0.2,0.1,0.3,0.2c0.1,0.1,0.1,0.2,0.1,0.3V261.6z M316.8,248.2
					c-0.9-1.2-1.9-2.1-2.7-2.7c-0.9-0.6-1.8-0.9-2.8-0.9c-0.9,0-1.6,0.2-2.3,0.6c-0.6,0.4-1.1,1-1.5,1.7c-0.4,0.7-0.7,1.5-0.8,2.3
					c-0.2,0.9-0.3,1.8-0.3,2.7c0,1,0.1,1.9,0.2,2.8c0.1,0.9,0.4,1.7,0.8,2.4c0.4,0.7,0.9,1.3,1.5,1.7c0.6,0.4,1.4,0.6,2.3,0.6
					c0.5,0,0.9-0.1,1.3-0.2c0.4-0.1,0.9-0.3,1.3-0.6c0.5-0.3,0.9-0.7,1.4-1.2c0.5-0.5,1-1.1,1.6-1.7V248.2z"/>
				<path class="st3" d="M354.2,251.8c0,1.7-0.2,3.1-0.5,4.5c-0.4,1.3-0.9,2.4-1.6,3.4c-0.7,0.9-1.6,1.6-2.6,2.1
					c-1,0.5-2.2,0.7-3.5,0.7c-0.6,0-1.2-0.1-1.7-0.2c-0.5-0.1-1-0.3-1.5-0.6c-0.5-0.3-1-0.6-1.5-1c-0.5-0.4-1-0.9-1.6-1.5v2.3
					c0,0.1,0,0.2-0.1,0.3c-0.1,0.1-0.1,0.2-0.3,0.2c-0.1,0-0.3,0.1-0.5,0.1c-0.2,0-0.4,0-0.7,0c-0.3,0-0.5,0-0.7,0
					c-0.2,0-0.4-0.1-0.5-0.1c-0.1,0-0.2-0.1-0.3-0.2c0-0.1-0.1-0.2-0.1-0.3v-28.3c0-0.1,0-0.2,0.1-0.3c0-0.1,0.1-0.2,0.3-0.2
					c0.1-0.1,0.3-0.1,0.5-0.1c0.2,0,0.5,0,0.8,0c0.4,0,0.6,0,0.9,0c0.2,0,0.4,0.1,0.5,0.1c0.1,0.1,0.2,0.1,0.3,0.2
					c0.1,0.1,0.1,0.2,0.1,0.3v11.4c0.6-0.6,1.1-1.1,1.6-1.5c0.5-0.4,1-0.7,1.6-1c0.5-0.2,1-0.4,1.5-0.5c0.5-0.1,1-0.2,1.6-0.2
					c1.4,0,2.6,0.3,3.5,0.8c1,0.5,1.8,1.3,2.4,2.2c0.6,0.9,1.1,2,1.3,3.2C354.1,249.1,354.2,250.4,354.2,251.8z M350.6,252.2
					c0-1-0.1-1.9-0.2-2.8c-0.1-0.9-0.4-1.7-0.8-2.4c-0.4-0.7-0.9-1.3-1.5-1.7c-0.6-0.4-1.4-0.6-2.3-0.6c-0.5,0-0.9,0.1-1.3,0.2
					s-0.9,0.3-1.3,0.6c-0.5,0.3-0.9,0.7-1.4,1.1c-0.5,0.5-1,1.1-1.6,1.8v7.6c1,1.2,1.9,2.1,2.8,2.7c0.9,0.6,1.8,0.9,2.7,0.9
					c0.9,0,1.6-0.2,2.3-0.6c0.6-0.4,1.1-1,1.5-1.7c0.4-0.7,0.7-1.5,0.9-2.3C350.5,254,350.6,253.1,350.6,252.2z"/>
				<path class="st3" d="M368.1,262.1l-2.5,7c-0.1,0.2-0.3,0.4-0.6,0.5c-0.3,0.1-0.9,0.2-1.6,0.2c-0.4,0-0.7,0-0.9-0.1
					c-0.2,0-0.4-0.1-0.5-0.2c-0.1-0.1-0.2-0.2-0.2-0.3c0-0.1,0-0.3,0.1-0.5l2.6-6.6c-0.1-0.1-0.2-0.1-0.4-0.3
					c-0.1-0.1-0.2-0.3-0.2-0.4l-6.8-18.2c-0.1-0.3-0.2-0.5-0.2-0.7c0-0.2,0.1-0.3,0.2-0.4c0.1-0.1,0.3-0.2,0.6-0.2
					c0.3,0,0.6-0.1,1-0.1c0.4,0,0.8,0,1,0c0.2,0,0.4,0.1,0.6,0.1c0.1,0.1,0.2,0.1,0.3,0.2c0.1,0.1,0.1,0.2,0.2,0.4l5.4,15.3h0.1
					l5.2-15.4c0.1-0.3,0.2-0.4,0.3-0.5c0.1-0.1,0.3-0.1,0.5-0.2c0.2,0,0.6-0.1,1-0.1c0.4,0,0.7,0,1,0.1c0.3,0,0.4,0.1,0.6,0.2
					c0.1,0.1,0.2,0.2,0.2,0.4c0,0.2,0,0.4-0.1,0.6L368.1,262.1z"/>
				<path class="st3" d="M398.9,260.2c0,0.4,0,0.7-0.1,1c-0.1,0.2-0.1,0.4-0.3,0.5c-0.1,0.1-0.3,0.2-0.5,0.3
					c-0.2,0.1-0.5,0.2-0.8,0.2c-0.3,0.1-0.6,0.1-0.9,0.2c-0.3,0-0.6,0.1-1,0.1c-1,0-1.8-0.1-2.5-0.4c-0.7-0.3-1.3-0.7-1.7-1.2
					c-0.5-0.5-0.8-1.2-1-2c-0.2-0.8-0.3-1.8-0.3-2.9v-11.1h-2.7c-0.2,0-0.4-0.1-0.5-0.3c-0.1-0.2-0.2-0.6-0.2-1.1
					c0-0.3,0-0.5,0.1-0.7c0-0.2,0.1-0.3,0.1-0.5c0.1-0.1,0.1-0.2,0.2-0.3c0.1,0,0.2-0.1,0.3-0.1h2.6v-4.5c0-0.1,0-0.2,0.1-0.3
					c0-0.1,0.1-0.2,0.3-0.2c0.1-0.1,0.3-0.1,0.5-0.1c0.2,0,0.5,0,0.8,0c0.4,0,0.6,0,0.9,0c0.2,0,0.4,0.1,0.5,0.1
					c0.1,0.1,0.2,0.1,0.3,0.2c0.1,0.1,0.1,0.2,0.1,0.3v4.5h4.9c0.1,0,0.2,0,0.3,0.1c0.1,0,0.2,0.1,0.2,0.3c0.1,0.1,0.1,0.3,0.1,0.5
					c0,0.2,0,0.4,0,0.7c0,0.5-0.1,0.9-0.2,1.1c-0.1,0.2-0.3,0.3-0.5,0.3h-4.9v10.6c0,1.3,0.2,2.3,0.6,3c0.4,0.7,1.1,1,2.1,1
					c0.3,0,0.6,0,0.9-0.1c0.3-0.1,0.5-0.1,0.7-0.2c0.2-0.1,0.4-0.1,0.5-0.2c0.1-0.1,0.3-0.1,0.4-0.1c0.1,0,0.1,0,0.2,0.1
					c0.1,0,0.1,0.1,0.1,0.2c0,0.1,0.1,0.2,0.1,0.4C398.9,259.7,398.9,259.9,398.9,260.2z"/>
				<path class="st3" d="M420.1,261.6c0,0.1,0,0.2-0.1,0.3c-0.1,0.1-0.1,0.1-0.3,0.2c-0.1,0.1-0.3,0.1-0.5,0.1c-0.2,0-0.5,0-0.8,0
					c-0.4,0-0.6,0-0.9,0c-0.2,0-0.4-0.1-0.5-0.1c-0.1-0.1-0.2-0.1-0.3-0.2c-0.1-0.1-0.1-0.2-0.1-0.3v-11.1c0-1.1-0.1-2-0.3-2.6
					c-0.2-0.7-0.4-1.2-0.7-1.7c-0.3-0.5-0.7-0.8-1.3-1.1c-0.5-0.3-1.1-0.4-1.8-0.4c-0.9,0-1.7,0.3-2.6,0.9c-0.9,0.6-1.8,1.5-2.8,2.7
					v13.3c0,0.1,0,0.2-0.1,0.3c-0.1,0.1-0.1,0.1-0.3,0.2c-0.1,0.1-0.3,0.1-0.5,0.1c-0.2,0-0.5,0-0.9,0c-0.3,0-0.6,0-0.8,0
					c-0.2,0-0.4-0.1-0.5-0.1c-0.1-0.1-0.2-0.1-0.3-0.2c0-0.1-0.1-0.2-0.1-0.3v-28.3c0-0.1,0-0.2,0.1-0.3c0-0.1,0.1-0.2,0.3-0.2
					c0.1-0.1,0.3-0.1,0.5-0.1c0.2,0,0.5,0,0.8,0c0.4,0,0.6,0,0.9,0c0.2,0,0.4,0.1,0.5,0.1c0.1,0.1,0.2,0.1,0.3,0.2
					c0.1,0.1,0.1,0.2,0.1,0.3v11.4c1-1.1,2-1.8,3-2.4c1-0.5,2-0.8,3.1-0.8c1.3,0,2.3,0.2,3.2,0.6c0.9,0.4,1.6,1,2.1,1.7
					c0.5,0.7,0.9,1.6,1.2,2.5c0.2,1,0.3,2.1,0.3,3.5V261.6z"/>
				<path class="st3" d="M442.8,251.2c0,0.5-0.1,0.9-0.4,1.2c-0.3,0.2-0.6,0.3-0.9,0.3h-12.5c0,1.1,0.1,2,0.3,2.9
					c0.2,0.8,0.6,1.6,1.1,2.2c0.5,0.6,1.1,1.1,1.9,1.4c0.8,0.3,1.8,0.5,2.9,0.5c0.9,0,1.7-0.1,2.4-0.2c0.7-0.1,1.3-0.3,1.8-0.5
					c0.5-0.2,0.9-0.3,1.3-0.5c0.3-0.1,0.6-0.2,0.8-0.2c0.1,0,0.2,0,0.3,0.1c0.1,0.1,0.1,0.1,0.2,0.2c0,0.1,0.1,0.2,0.1,0.4
					c0,0.2,0,0.4,0,0.6c0,0.2,0,0.3,0,0.5c0,0.1,0,0.3-0.1,0.4c0,0.1-0.1,0.2-0.1,0.3c0,0.1-0.1,0.2-0.2,0.2
					c-0.1,0.1-0.3,0.2-0.7,0.4c-0.4,0.2-0.9,0.3-1.5,0.5c-0.6,0.2-1.3,0.3-2.1,0.5c-0.8,0.1-1.6,0.2-2.5,0.2c-1.6,0-2.9-0.2-4.1-0.7
					c-1.2-0.4-2.2-1.1-3-1.9c-0.8-0.9-1.4-1.9-1.8-3.2c-0.4-1.3-0.6-2.8-0.6-4.5c0-1.6,0.2-3.1,0.6-4.4c0.4-1.3,1-2.4,1.8-3.3
					c0.8-0.9,1.8-1.6,2.9-2.1c1.1-0.5,2.4-0.7,3.8-0.7c1.5,0,2.8,0.2,3.8,0.7c1.1,0.5,1.9,1.1,2.6,1.9c0.7,0.8,1.2,1.8,1.5,2.9
					c0.3,1.1,0.5,2.3,0.5,3.5V251.2z M439.3,250.2c0-1.8-0.4-3.3-1.2-4.3c-0.9-1-2.1-1.6-3.8-1.6c-0.9,0-1.6,0.2-2.3,0.5
					c-0.7,0.3-1.2,0.8-1.6,1.3c-0.4,0.5-0.8,1.2-1,1.9c-0.2,0.7-0.4,1.5-0.4,2.2H439.3z"/>
			</g>
		</g>
	</g>
</g>
</svg>
