<svg xmlns="http://www.w3.org/2000/svg" xmlns:xlink="http://www.w3.org/1999/xlink" width="277" height="257" viewBox="0 0 277 257">
  <defs>
    <polygon id="path-1" points="0 .175 22.719 .175 22.719 22.894 0 22.894"/>
    <polygon id="path-3" points=".03 .002 22.744 .002 22.744 22.717 .03 22.717"/>
  </defs>
  <g fill="none" fill-rule="evenodd" class="web-landing-page">
    <g class="web-landing-page__rma-lightweight-home" transform="translate(-969 -7152)">
      <g class="web-landing-page__rma-lightweight-home__ico-polymers" transform="translate(969.323 7152)">
        <g class="web-landing-page__rma-lightweight-home__ico-polymers__ico" transform="translate(81 72)">
          <g class="web-landing-page__rma-lightweight-home__ico-polymers__ico__group-3" transform="translate(0 89.47)">
            <mask id="mask-2" fill="#fff">
              <use xlink:href="#path-1"/>
            </mask>
            <path fill="#99B4D4" d="M11.359371,0.17476171 C17.6328982,0.17476171 22.7187654,5.26062883 22.7187654,11.5341561 C22.7187654,17.8076833 17.6328982,22.8935504 11.359371,22.8935504 C5.08584376,22.8935504 -2.33607419e-05,17.8076833 -2.33607419e-05,11.5341561 C-2.33607419e-05,5.26062883 5.08584376,0.17476171 11.359371,0.17476171" class="web-landing-page__rma-lightweight-home__ico-polymers__ico__group-3__fill-1" mask="url(#mask-2)"/>
          </g>
          <g class="web-landing-page__rma-lightweight-home__ico-polymers__ico__group-6" transform="translate(68.914 .232)">
            <mask id="mask-4" fill="#fff">
              <use xlink:href="#path-3"/>
            </mask>
            <path fill="#99B4D4" d="M11.3868666,0.00182213787 C17.659693,0.00182213787 22.7443921,5.08675483 22.7443921,11.3593476 C22.7443921,17.6319404 17.659693,22.7168731 11.3868666,22.7168731 C5.11427378,22.7168731 0.0295746992,17.6319404 0.0295746992,11.3593476 C0.0295746992,5.08675483 5.11427378,0.00182213787 11.3868666,0.00182213787" class="web-landing-page__rma-lightweight-home__ico-polymers__ico__group-6__fill-4" mask="url(#mask-4)"/>
          </g>
          <path fill="#3369A9" d="M104.07061,49.770084 C109.774135,49.770084 114.39746,54.393642 114.39746,60.0969335 C114.39746,65.8004587 109.774135,70.4237831 104.07061,70.4237831 C98.3673185,70.4237831 93.7439941,65.8004587 93.7439941,60.0969335 C93.7439941,54.393642 98.3673185,49.770084 104.07061,49.770084" class="web-landing-page__rma-lightweight-home__ico-polymers__ico__fill-7"/>
          <path fill="#004494" d="M52.2584702,41.2868875 C62.6469921,41.2868875 71.0685396,49.708435 71.0685396,60.0969569 C71.0685396,70.4854788 62.6469921,78.9070263 52.2584702,78.9070263 C41.8699483,78.9070263 33.4484008,70.4854788 33.4484008,60.0969569 C33.4484008,49.708435 41.8699483,41.2868875 52.2584702,41.2868875" class="web-landing-page__rma-lightweight-home__ico-polymers__ico__fill-9"/>
          <path fill="#3369A9" d="M74.8231247,86.431054 C81.8570441,86.431054 87.5594012,92.1331775 87.5594012,99.1673305 C87.5594012,106.20125 81.8570441,111.903607 74.8231247,111.903607 C67.7889718,111.903607 62.0866147,106.20125 62.0866147,99.1673305 C62.0866147,92.1331775 67.7889718,86.431054 74.8231247,86.431054" class="web-landing-page__rma-lightweight-home__ico-polymers__ico__fill-11"/>
          <path fill="#3369A9" d="M17.2846363,13.7739139 C22.9879278,13.7739139 27.6114859,18.397472 27.6114859,24.1007635 C27.6114859,29.8042886 22.9879278,34.427613 17.2846363,34.427613 C11.5811112,34.427613 6.95778673,29.8042886 6.95778673,24.1007635 C6.95778673,18.397472 11.5811112,13.7739139 17.2846363,13.7739139" class="web-landing-page__rma-lightweight-home__ico-polymers__ico__fill-13"/>
          <path fill="#FFF" d="M19.3917986,92.9716179 C19.8150952,93.3949146 20.1851294,93.8499818 20.5275978,94.3185983 C21.0700343,94.2807539 21.602192,94.0644334 22.0170787,93.649313 L40.7196887,74.9469367 C39.4857743,73.9865766 38.3756719,72.8769413 37.4150782,71.644195 L18.7129354,90.3458705 C18.2980486,90.7600565 18.0821954,91.2926814 18.044351,91.8353514 C18.5134347,92.1782871 18.9685019,92.5483213 19.3917986,92.9716179" class="web-landing-page__rma-lightweight-home__ico-polymers__ico__fill-15"/>
          <path fill="#FFF" d="M74.6225961,21.4274069 C73.9208394,21.0223316 73.2798207,20.5523135 72.7004743,20.031369 L59.5764095,42.7637069 C61.0261771,43.3766928 62.3815674,44.1676875 63.6185187,45.1067893 L76.740481,22.3781891 C76.0176996,22.1385079 75.3080003,21.8226707 74.6225961,21.4274069" class="web-landing-page__rma-lightweight-home__ico-polymers__ico__fill-17"/>
          <path fill="#FFF" d="M94.0124791,62.4333815 C93.8386752,61.6825673 93.7440642,60.9009168 93.7440642,60.0973073 C93.7440642,59.2939314 93.8386752,58.5127482 94.0124791,57.7612331 L70.9192177,57.7612331 C71.0138287,58.5269982 71.0684929,59.3053782 71.0684929,60.0973073 C71.0684929,60.8894701 71.0138287,61.66785 70.9192177,62.4333815 L94.0124791,62.4333815 Z" class="web-landing-page__rma-lightweight-home__ico-polymers__ico__fill-19"/>
          <path fill="#FFF" d="M68.454823,88.1372525 C69.1463009,87.7382511 69.8604388,87.4149384 70.5867243,87.157503 L63.6184486,75.0874749 C62.3810301,76.0265767 61.0256398,76.8180387 59.5758722,77.4305573 L66.5408774,89.4935772 C67.1265312,88.9931901 67.763345,88.536254 68.454823,88.1372525" class="web-landing-page__rma-lightweight-home__ico-polymers__ico__fill-21"/>
          <path fill="#FFF" d="M25.6328077,30.1606334 C25.3179049,30.5932743 24.9773052,31.0128332 24.5871808,31.4034248 C23.8354322,32.1551735 22.9963143,32.7662905 22.1025323,33.2377103 L37.4154987,48.5506766 C38.3760924,47.3172294 39.4861948,46.2075942 40.7201092,45.2479349 L25.6328077,30.1606334 Z" class="web-landing-page__rma-lightweight-home__ico-polymers__ico__fill-23"/>
        </g>
      </g>
    </g>
  </g>
</svg>
