<svg xmlns="http://www.w3.org/2000/svg" width="277" height="258" viewBox="0 0 277 258">
  <g fill="none" fill-rule="evenodd" class="web-landing-page">
    <g class="web-landing-page__rma-lightweight-home" transform="translate(-675 -8116)">
      <g class="web-landing-page__rma-lightweight-home__ico-multimaterial" transform="translate(675.29 8116.791)">
        <g class="web-landing-page__rma-lightweight-home__ico-multimaterial__group-14" transform="translate(88 79)">
          <polygon fill="#004494" points="0 99.417 99.417 99.417 99.417 0 0 0" class="web-landing-page__rma-lightweight-home__ico-multimaterial__group-14__fill-1"/>
          <polygon fill="#FFF" points="5.319 14.014 45.892 14.014 45.892 5.319 5.319 5.319" class="web-landing-page__rma-lightweight-home__ico-multimaterial__group-14__fill-2"/>
          <polygon fill="#FFF" points="5.319 29.952 45.892 29.952 45.892 21.258 5.319 21.258" class="web-landing-page__rma-lightweight-home__ico-multimaterial__group-14__fill-3"/>
          <polygon fill="#FFF" points="5.319 37.198 5.319 45.892 17.636 45.892 33.575 45.892 45.892 45.892 45.892 37.198" class="web-landing-page__rma-lightweight-home__ico-multimaterial__group-14__fill-4"/>
          <polygon fill="#99B4D4" points="85.015 45.892 93.709 45.892 93.709 5.319 85.015 5.319" class="web-landing-page__rma-lightweight-home__ico-multimaterial__group-14__fill-5"/>
          <polygon fill="#99B4D4" points="69.076 45.892 77.77 45.892 77.77 5.319 69.076 5.319" class="web-landing-page__rma-lightweight-home__ico-multimaterial__group-14__fill-6"/>
          <polygon fill="#99B4D4" points="53.137 5.319 53.137 17.636 53.137 33.575 53.137 45.892 61.831 45.892 61.831 5.319" class="web-landing-page__rma-lightweight-home__ico-multimaterial__group-14__fill-7"/>
          <polygon fill="#3369A9" points="53.137 93.709 93.709 93.709 93.709 85.015 53.137 85.015" class="web-landing-page__rma-lightweight-home__ico-multimaterial__group-14__fill-8"/>
          <polygon fill="#3369A9" points="53.137 77.77 93.709 77.77 93.709 69.076 53.137 69.076" class="web-landing-page__rma-lightweight-home__ico-multimaterial__group-14__fill-9"/>
          <polygon fill="#3369A9" points="81.393 53.137 65.454 53.137 53.137 53.137 53.137 61.831 93.71 61.831 93.71 53.137" class="web-landing-page__rma-lightweight-home__ico-multimaterial__group-14__fill-10"/>
          <polygon fill="#668FBF" points="5.319 93.709 14.013 93.709 14.013 53.137 5.319 53.137" class="web-landing-page__rma-lightweight-home__ico-multimaterial__group-14__fill-11"/>
          <polygon fill="#668FBF" points="21.258 93.709 29.952 93.709 29.952 53.137 21.258 53.137" class="web-landing-page__rma-lightweight-home__ico-multimaterial__group-14__fill-12"/>
          <polygon fill="#668FBF" points="37.198 53.137 37.198 93.709 45.892 93.709 45.892 81.393 45.892 65.454 45.892 53.137" class="web-landing-page__rma-lightweight-home__ico-multimaterial__group-14__fill-13"/>
        </g>
      </g>
    </g>
  </g>
</svg>
