<svg xmlns="http://www.w3.org/2000/svg" width="277" height="258" viewBox="0 0 277 258">
  <g fill="none" fill-rule="evenodd" class="web-landing-page">
    <g class="web-landing-page__rma-lightweight-home" transform="translate(-378 -7152)">
      <g class="web-landing-page__rma-lightweight-home__ico-aluminum" transform="translate(378.648 7152.441)">
        <g class="web-landing-page__rma-lightweight-home__ico-aluminum__ico" transform="translate(93 77)">
          <path fill="#004494" d="M38.8922458,20.9419785 L20.9419785,20.9419785 C19.28836,20.9419785 17.9502673,19.6038858 17.9502673,17.9502673 C17.9502673,16.2966488 19.28836,14.9585561 20.9419785,14.9585561 L38.8922458,14.9585561 C40.5458643,14.9585561 41.883957,16.2966488 41.883957,17.9502673 C41.883957,19.6038858 40.5458643,20.9419785 38.8922458,20.9419785" class="web-landing-page__rma-lightweight-home__ico-aluminum__ico__fill-1"/>
          <path fill="#004494" d="M71.8010692,84.1668089 C71.8010692,85.8419677 70.4849157,87.1585201 68.809358,87.1585201 L20.9419785,87.1585201 C19.2664208,87.1585201 17.9502673,85.8419677 17.9502673,84.1668089 C17.9502673,82.4912512 19.2664208,81.1750977 20.9419785,81.1750977 L41.883957,81.1750977 L41.883957,69.2082528 C41.883957,67.5326951 43.2001105,66.2165416 44.8756683,66.2165416 C46.551226,66.2165416 47.8673795,67.5326951 47.8673795,69.2082528 L47.8673795,81.1750977 L68.809358,81.1750977 C70.4849157,81.1750977 71.8010692,82.4912512 71.8010692,84.1668089" class="web-landing-page__rma-lightweight-home__ico-aluminum__ico__fill-3"/>
          <path fill="#3369A9" d="M14.9585561,102.117076 L8.97513365,102.117076 C4.02604551,102.117076 0,98.0910307 0,93.1419426 L0,75.1916753 C0,70.2425871 4.02604551,66.2165416 8.97513365,66.2165416 L14.9585561,66.2165416 C19.9076442,66.2165416 23.9336897,70.2425871 23.9336897,75.1916753 L23.9336897,93.1419426 C23.9336897,98.0910307 19.9076442,102.117076 14.9585561,102.117076" class="web-landing-page__rma-lightweight-home__ico-aluminum__ico__fill-5"/>
          <path fill="#3369A9" d="M14.9585561,35.9005346 L8.97513365,35.9005346 C4.02604551,35.9005346 0,31.8744891 0,26.925401 L0,8.97513365 C0,4.02604551 4.02604551,0 8.97513365,0 L14.9585561,0 C19.9076442,0 23.9336897,4.02604551 23.9336897,8.97513365 L23.9336897,26.925401 C23.9336897,31.8744891 19.9076442,35.9005346 14.9585561,35.9005346" class="web-landing-page__rma-lightweight-home__ico-aluminum__ico__fill-7"/>
          <path fill="#004494" d="M47.8673795,23.9336897 L47.8673795,51.2579855 C47.8673795,52.9331444 46.551226,54.2496967 44.8756683,54.2496967 C43.2001105,54.2496967 41.883957,52.9331444 41.883957,51.2579855 L41.883957,23.9336897 C41.883957,22.258132 43.2001105,20.9419785 44.8756683,20.9419785 C46.551226,20.9419785 47.8673795,22.258132 47.8673795,23.9336897" class="web-landing-page__rma-lightweight-home__ico-aluminum__ico__fill-9"/>
          <path fill="#3369A9" d="M68.809358,20.9419785 L50.8590907,20.9419785 C49.2054722,20.9419785 47.8673795,19.6038858 47.8673795,17.9502673 C47.8673795,16.2966488 49.2054722,14.9585561 50.8590907,14.9585561 L68.809358,14.9585561 C70.4629765,14.9585561 71.8010692,16.2966488 71.8010692,17.9502673 C71.8010692,19.6038858 70.4629765,20.9419785 68.809358,20.9419785" class="web-landing-page__rma-lightweight-home__ico-aluminum__ico__fill-11"/>
          <path fill="#3369A9" d="M44.8756683,54.2496967 L44.8756683,20.9419785 C46.551226,20.9419785 47.8673795,22.258132 47.8673795,23.9336897 L47.8673795,51.2579855 C47.8673795,52.9331444 46.551226,54.2496967 44.8756683,54.2496967" class="web-landing-page__rma-lightweight-home__ico-aluminum__ico__fill-13"/>
          <path fill="#3369A9" d="M71.8010692,84.1668089 C71.8010692,85.8419677 70.4849157,87.1585201 68.809358,87.1585201 L44.8756683,87.1585201 L44.8756683,66.2165416 C46.551226,66.2165416 47.8673795,67.5326951 47.8673795,69.2082528 L47.8673795,81.1750977 L68.809358,81.1750977 C70.4849157,81.1750977 71.8010692,82.4912512 71.8010692,84.1668089" class="web-landing-page__rma-lightweight-home__ico-aluminum__ico__fill-15"/>
          <path fill="#004494" d="M80.7762029,102.117076 L74.7927804,102.117076 C69.8436923,102.117076 65.8176468,98.0910307 65.8176468,93.1419426 L65.8176468,75.1916753 C65.8176468,70.2425871 69.8436923,66.2165416 74.7927804,66.2165416 L80.7762029,66.2165416 C85.725291,66.2165416 89.7513365,70.2425871 89.7513365,75.1916753 L89.7513365,93.1419426 C89.7513365,98.0910307 85.725291,102.117076 80.7762029,102.117076" class="web-landing-page__rma-lightweight-home__ico-aluminum__ico__fill-17"/>
          <path fill="#004494" d="M80.7762029,35.9005346 L74.7927804,35.9005346 C69.8436923,35.9005346 65.8176468,31.8744891 65.8176468,26.925401 L65.8176468,8.97513365 C65.8176468,4.02604551 69.8436923,0 74.7927804,0 L80.7762029,0 C85.725291,0 89.7513365,4.02604551 89.7513365,8.97513365 L89.7513365,26.925401 C89.7513365,31.8744891 85.725291,35.9005346 80.7762029,35.9005346" class="web-landing-page__rma-lightweight-home__ico-aluminum__ico__fill-19"/>
          <path fill="#FFF" d="M44.8756683,8.97513365 C39.9092282,8.97513365 35.9005346,12.9838272 35.9005346,17.9502673 C35.9005346,22.9163085 39.9092282,26.925401 44.8756683,26.925401 C49.8421083,26.925401 53.8508019,22.9163085 53.8508019,17.9502673 C53.8508019,12.9838272 49.8421083,8.97513365 44.8756683,8.97513365" class="web-landing-page__rma-lightweight-home__ico-aluminum__ico__fill-21" transform="rotate(-180 44.876 17.95)"/>
          <path fill="#CCDAEA" d="M35.9005346,26.925401 L35.9005346,8.97513365 C40.8669747,8.97513365 44.8756683,12.9838272 44.8756683,17.9502673 C44.8756683,22.9163085 40.8669747,26.925401 35.9005346,26.925401" class="web-landing-page__rma-lightweight-home__ico-aluminum__ico__fill-23" transform="rotate(-180 40.388 17.95)"/>
          <path fill="#FFF" d="M41.883957,48.2662743 C36.917517,48.2662743 32.9088234,52.2749679 32.9088234,57.241408 L32.9088234,63.2248304 C32.9088234,68.1908716 36.917517,72.199964 41.883957,72.199964 L47.8673795,72.199964 C52.8338195,72.199964 56.8425131,68.1908716 56.8425131,63.2248304 L56.8425131,57.241408 C56.8425131,52.2749679 52.8338195,48.2662743 47.8673795,48.2662743 L41.883957,48.2662743 Z" class="web-landing-page__rma-lightweight-home__ico-aluminum__ico__fill-25" transform="rotate(-180 44.876 60.233)"/>
          <path fill="#CCDAEA" d="M44.8756683,57.241408 L44.8756683,63.2248304 C44.8756683,68.1908716 40.8669747,72.199964 35.9005346,72.199964 L32.9088234,72.199964 L32.9088234,48.2662743 L35.9005346,48.2662743 C40.8669747,48.2662743 44.8756683,52.2749679 44.8756683,57.241408" class="web-landing-page__rma-lightweight-home__ico-aluminum__ico__fill-27" transform="rotate(-180 38.892 60.233)"/>
        </g>
      </g>
    </g>
  </g>
</svg>
