<svg xmlns="http://www.w3.org/2000/svg" xmlns:xlink="http://www.w3.org/1999/xlink" width="277" height="258" viewBox="0 0 277 258">
  <defs>
    <polygon id="path-1" points=".077 .058 23.177 .058 23.177 41.307 .077 41.307"/>
    <polygon id="path-3" points="0 0 95.697 0 95.697 95.697 0 95.697"/>
  </defs>
  <g fill="none" fill-rule="evenodd" class="web-landing-page">
    <g class="web-landing-page__rma-lightweight-home" transform="translate(-969 -6669)">
      <g class="web-landing-page__rma-lightweight-home__ico-steel" transform="translate(969.492 6669.652)">
        <g class="web-landing-page__rma-lightweight-home__ico-steel__ico" transform="translate(89 81)">
          <path fill="#FFF" d="M47.8483142,70.9474617 L47.8483142,94.0466093 C47.8483142,94.9577832 47.1096559,95.6966285 46.198295,95.6966285 L22.0102245,95.6966285 L47.8483142,70.9474617 Z" class="web-landing-page__rma-lightweight-home__ico-steel__ico__fill-1"/>
          <g class="web-landing-page__rma-lightweight-home__ico-steel__ico__group-5" transform="translate(72.52 6.542)">
            <mask id="mask-2" fill="#fff">
              <use xlink:href="#path-1"/>
            </mask>
            <path fill="#FFF" d="M0.0773983864,41.3065525 L21.5267136,41.3065525 C22.4378875,41.3065525 23.1767328,40.5678942 23.1767328,39.6565333 L23.1767328,0.057941318 L0.0773983864,41.3065525 Z" class="web-landing-page__rma-lightweight-home__ico-steel__ico__group-5__fill-3" mask="url(#mask-2)"/>
          </g>
          <g class="web-landing-page__rma-lightweight-home__ico-steel__ico__group-8">
            <mask id="mask-4" fill="#fff">
              <use xlink:href="#path-3"/>
            </mask>
            <path fill="#004494" d="M79.1971092,23.0991475 C75.5522265,23.0991475 72.5974062,20.1443272 72.5974062,16.4994445 C72.5974062,12.8545618 75.5522265,9.89974145 79.1971092,9.89974145 C82.8419919,9.89974145 85.7969992,12.8545618 85.7969992,16.4994445 C85.7969992,18.249833 85.1017033,19.9284491 83.864002,21.1661504 C82.6263007,22.4038517 80.9474977,23.0991475 79.1971092,23.0991475 M16.4993697,23.0991475 C12.854487,23.0991475 9.89966669,20.1443272 9.89966669,16.4994445 C9.89966669,12.8545618 12.854487,9.89974145 16.4993697,9.89974145 C20.1442524,9.89974145 23.0990727,12.8545618 23.0990727,16.4994445 C23.0990727,18.249833 22.4039638,19.9284491 21.1662625,21.1661504 C19.9283743,22.4038517 18.2497582,23.0991475 16.4993697,23.0991475 M16.4993697,85.796887 C12.854487,85.796887 9.89966669,82.8420667 9.89966669,79.197184 C9.89966669,75.5523013 12.854487,72.597481 16.4993697,72.597481 C20.1442524,72.597481 23.0990727,75.5523013 23.0990727,79.197184 C23.0990727,82.8422536 20.1442524,85.796887 16.4993697,85.796887 M89.0970376,0 L9.89966669,0 C4.43206225,0 -7.47629904e-05,4.43213701 -7.47629904e-05,9.89974145 L-7.47629904e-05,89.0969254 C-7.47629904e-05,92.7418082 2.95474555,95.6966285 6.59962827,95.6966285 L22.0151963,95.6966285 C23.7655848,95.6966285 25.4442009,95.0013326 26.6819022,93.7636313 L93.7635566,26.6821639 C95.0014448,25.4444625 95.6965537,23.7658465 95.6965537,22.015458 L95.6965537,6.59970303 C95.6965537,2.95482031 92.7419203,0 89.0970376,0" class="web-landing-page__rma-lightweight-home__ico-steel__ico__group-8__fill-6" mask="url(#mask-4)"/>
          </g>
        </g>
      </g>
    </g>
  </g>
</svg>
