<svg xmlns="http://www.w3.org/2000/svg" xmlns:xlink="http://www.w3.org/1999/xlink" width="277" height="258" viewBox="0 0 277 258">
  <defs>
    <polygon id="path-1" points=".142 .019 84.888 .019 84.888 114.948 .142 114.948"/>
    <polygon id="path-3" points=".223 .019 48.933 .019 48.933 66.952 .223 66.952"/>
  </defs>
  <g fill="none" fill-rule="evenodd" class="web-landing-page">
    <g class="web-landing-page__rma-lightweight-home" transform="translate(-969 -8598)">
      <g class="web-landing-page__rma-lightweight-home__ico-ecotechplanning" transform="translate(969.756 8598.507)">
        <g class="web-landing-page__rma-lightweight-home__ico-ecotechplanning__ico" transform="translate(80 71.208)">
          <path fill="#004494" d="M3.41108874,80.1168711 C1.55052385,80.1168711 0.0423145355,78.6084342 0.0423145355,76.7480969 L0.0423145355,61.4540896 C0.0423145355,59.5932971 1.55075147,58.0850878 3.41108874,58.0850878 C5.27142602,58.0850878 6.77986295,59.5935247 6.77986295,61.4540896 L6.77986295,76.7480969 C6.77986295,78.6086618 5.27165364,80.1168711 3.41108874,80.1168711" class="web-landing-page__rma-lightweight-home__ico-ecotechplanning__ico__fill-1"/>
          <path fill="#004494" d="M21.9191115,80.1168711 C20.0585466,80.1168711 18.5503373,78.6084342 18.5503373,76.7480969 L18.5503373,61.4540896 C18.5503373,59.5932971 20.0587742,58.0850878 21.9191115,58.0850878 C23.7794488,58.0850878 25.2878857,59.5935247 25.2878857,61.4540896 L25.2878857,76.7480969 C25.2878857,78.6086618 23.7796764,80.1168711 21.9191115,80.1168711" class="web-landing-page__rma-lightweight-home__ico-ecotechplanning__ico__fill-3"/>
          <g class="web-landing-page__rma-lightweight-home__ico-ecotechplanning__ico__group-7" transform="translate(9.105)">
            <mask id="mask-2" fill="#fff">
              <use xlink:href="#path-1"/>
            </mask>
            <path fill="#004494" d="M62.5633951,114.948062 L60.3042678,114.948062 C48.0080143,114.948062 38.0041206,104.944396 38.0041206,92.6481421 L38.0041206,22.3195176 C38.0041206,13.7382482 31.0230189,6.75714649 22.4417495,6.75714649 C13.8604801,6.75714649 6.87937837,13.7382482 6.87937837,22.3195176 L6.87937837,49.4361014 C6.87937837,51.2966663 5.37094143,52.8048756 3.51060416,52.8048756 C1.65026688,52.8048756 0.141829947,51.2964387 0.141829947,49.4361014 L0.141829947,22.3195176 C0.141829947,10.0230365 10.145496,0.0193704517 22.4419771,0.0193704517 C34.7384582,0.0193704517 44.7421243,10.0230365 44.7421243,22.3195176 L44.7421243,92.6481421 C44.7421243,101.229184 51.723226,108.210513 60.3044954,108.210513 L62.5636227,108.210513 C71.1310073,108.210513 78.1123366,101.24011 78.1257662,92.6724974 L78.1501215,77.1292464 L78.1501215,31.421809 C78.1501215,29.5612441 79.6585585,28.0530348 81.5188958,28.0530348 C83.3794606,28.0530348 84.88767,29.5614717 84.88767,31.421809 L84.88767,77.1347093 L84.8633146,92.6831956 C84.8441946,104.960101 74.8403009,114.948062 62.5633951,114.948062" class="web-landing-page__rma-lightweight-home__ico-ecotechplanning__ico__group-7__fill-5" mask="url(#mask-2)"/>
          </g>
          <g class="web-landing-page__rma-lightweight-home__ico-ecotechplanning__ico__group-10" transform="translate(66.01 11.153)">
            <mask id="mask-4" fill="#fff">
              <use xlink:href="#path-3"/>
            </mask>
            <path fill="#CCDAEA" d="M41.5885874,15.7275776 L26.8010344,0.940024576 C25.5734804,-0.287984671 23.5827169,-0.287984671 22.3547077,0.940024576 L7.56715459,15.7275776 C-2.22459736,25.5195572 -2.22459736,41.4520383 7.56715459,51.2435626 L22.3547077,66.0311157 C22.9685985,66.6452341 23.7732347,66.9518381 24.5780986,66.9518381 C25.2081505,66.9518381 25.4528418,65.1957507 25.9916181,64.8190398 C26.1402539,64.7147899 26.5274353,64.5103872 26.6603653,64.3774572 L27.9703177,64.8613771 L41.5883598,51.243335 C51.3807946,41.4520383 51.3807946,25.5195572 41.5885874,15.7275776" class="web-landing-page__rma-lightweight-home__ico-ecotechplanning__ico__group-10__fill-8" mask="url(#mask-4)"/>
          </g>
          <path fill="#FFF" d="M92.8105944,12.0934214 C92.1967036,11.479303 91.392295,11.1724714 90.5874311,11.1724714 L90.5874311,78.1056901 C91.392295,78.1056901 91.5609613,76.4663718 92.1750797,75.852481 L93.9801054,76.0152292 L107.598147,62.3971871 C117.390127,52.6052075 117.390127,36.6727264 107.598147,26.8812021 L92.8105944,12.0934214 Z" class="web-landing-page__rma-lightweight-home__ico-ecotechplanning__ico__fill-11"/>
          <path fill="#004494" d="M100.087761,38.2881675 C98.7632412,36.9631922 96.6149648,36.9631922 95.2899895,38.2881675 L93.9802647,39.5978923 L93.9802647,29.2343592 C93.9802647,29.0001383 93.9563646,28.7713803 93.9112959,28.5508167 C93.8550738,28.2767623 93.7628877,28.0168204 93.644753,27.770991 C93.47768,27.4229602 93.2564335,27.1054304 92.9867039,26.8354733 C92.4845745,26.3333438 91.8244768,25.9921416 91.0888094,25.8826564 C90.9246954,25.8583011 90.7585329,25.8414572 90.587818,25.8414572 C88.7138236,25.8414572 87.1949161,27.3603647 87.1949161,29.2341315 L87.1949161,39.5972094 L83.9492842,36.3513499 C82.6243089,35.0263746 80.4762601,35.0263746 79.1515124,36.3513499 C77.8265371,37.6760976 77.8265371,39.8241464 79.1515124,41.1493493 L87.1946885,49.192753 L87.2543249,76.0748883 L88.3639718,77.1845353 C88.9778626,77.7986537 89.7827265,78.1052577 90.5873628,78.1052577 C91.2911634,78.1052577 91.4113467,76.616396 91.987225,76.146361 C92.0696234,76.0792131 92.459081,76.2765596 92.5357889,76.1998517 L93.9793542,76.0147967 L93.9793542,49.1938911 L100.086851,43.0861669 C101.412509,41.7611916 101.412509,39.6131428 100.087761,38.2881675" class="web-landing-page__rma-lightweight-home__ico-ecotechplanning__ico__fill-13"/>
          <path fill="#3369A9" d="M100.087761,43.0861897 C101.412509,41.761442 101.412509,39.6131655 100.087761,38.2881902 C98.7632412,36.9632149 96.6149648,36.9632149 95.2899895,38.2881902 L93.9802647,39.597915 L93.9802647,29.2343819 C93.9802647,29.0001611 93.9563646,28.7714031 93.9112959,28.5508394 C93.8550738,28.2767851 93.7628877,28.0168432 93.644753,27.7710137 C93.47768,27.4229829 93.2564335,27.1054532 92.9867039,26.835496 C92.4845745,26.3333666 91.8244768,25.9921644 91.0888094,25.8826792 C90.9246954,25.8583239 90.7585329,25.84148 90.587818,25.84148 L90.587818,78.105508 C91.2916187,78.105508 91.9958746,77.8701491 92.5717529,77.4005693 C92.6543789,77.3334214 92.7338182,77.2614935 92.8105261,77.1847856 L93.9800371,76.0152747 L93.9800371,49.1939139 L100.087761,43.0861897 Z" class="web-landing-page__rma-lightweight-home__ico-ecotechplanning__ico__fill-15"/>
          <path fill="#CCDAEA" d="M22.7770108,69.0552961 L2.52225588,69.1010545 C1.1301327,69.1042344 2.82440737e-13,67.9766055 2.82440737e-13,66.58471 L2.82440737e-13,57.2195177 C2.82440737e-13,50.2472931 5.66090639,44.5952639 12.643829,44.5952639 C19.6267517,44.5952639 25.2876581,50.2472931 25.2876581,57.2195177 L25.2876581,66.5387307 C25.2876581,67.9263015 24.1648092,69.0521095 22.7770108,69.0552961" class="web-landing-page__rma-lightweight-home__ico-ecotechplanning__ico__fill-17"/>
          <path fill="#FFF" d="M22.7772384,69.0781947 C24.1648092,69.075008 25.2878857,67.9494277 25.2878857,66.5616293 L25.2878857,57.2426438 C25.2878857,50.2704193 19.6269793,44.6183901 12.6440567,44.6183901 L12.6440567,69.1011843 L22.7772384,69.0781947 Z" class="web-landing-page__rma-lightweight-home__ico-ecotechplanning__ico__fill-19"/>
        </g>
      </g>
    </g>
  </g>
</svg>
