<svg xmlns="http://www.w3.org/2000/svg" xmlns:xlink="http://www.w3.org/1999/xlink" width="277" height="258" viewBox="0 0 277 258">
  <defs>
    <polygon id="path-1" points=".115 .142 34.823 .142 34.823 64.039 .115 64.039"/>
    <polygon id="path-3" points="0 .085 52.58 .085 52.58 66.429 0 66.429"/>
    <polygon id="path-5" points=".075 .211 20.007 .211 20.007 56.363 .075 56.363"/>
  </defs>
  <g fill="none" fill-rule="evenodd" class="web-landing-page">
    <g class="web-landing-page__rma-lightweight-home" transform="translate(-675 -7152)">
      <g class="web-landing-page__rma-lightweight-home__ico-castirons" transform="translate(675.16 7152.441)">
        <g class="web-landing-page__rma-lightweight-home__ico-castirons__ico" transform="translate(81 77)">
          <g class="web-landing-page__rma-lightweight-home__ico-castirons__ico__group-3" transform="translate(77.533 37.07)">
            <mask id="mask-2" fill="#fff">
              <use xlink:href="#path-1"/>
            </mask>
            <path fill="#FFF" d="M5.28260006,0.142052842 L0.115087731,0.142052842 L15.2459682,22.1233064 L15.2459682,50.6587513 L21.4010577,52.5552288 C20.597136,53.7333228 20.1264473,55.1570532 20.1264473,56.6910226 C20.1264473,60.7492831 23.4164652,64.0393011 27.4747258,64.0393011 C31.5329863,64.0393011 34.8230042,60.7492831 34.8230042,56.6910226 L34.8230042,31.9471604 C34.8230042,14.3821012 21.5970636,0.142052842 5.28260006,0.142052842" class="web-landing-page__rma-lightweight-home__ico-castirons__ico__group-3__fill-1" mask="url(#mask-2)"/>
          </g>
          <path fill="#CCDAEA" d="M78.2693318,38.0492116 L92.7790313,57.6273912 L92.7790313,89.557604 C92.7790313,91.7738205 94.5760192,93.5708083 96.7922356,93.5708083 C99.0086808,93.5708083 100.80544,91.7738205 100.80544,89.557604 L100.80544,66.7516161 C100.80544,52.8502898 91.2022928,41.1939976 78.2693318,38.0492116" class="web-landing-page__rma-lightweight-home__ico-castirons__ico__fill-4"/>
          <path fill="#3369A9" d="M73.1760365,83.8049557 C61.818213,95.1627791 47.1735737,100.66078 33.8698711,99.8692086 C31.3663927,99.7210034 29.0015137,98.6703018 27.2283118,96.8977861 L3.04730905,72.7170121 C1.27387847,70.9435815 0.225006578,68.5787024 0.0758865446,66.0761389 C-0.716599523,52.7708353 4.78231607,38.1277969 16.1401395,26.7699735 C23.7091247,19.2009883 32.7395778,14.2329125 41.8612868,11.9956546 L67.5485849,32.396739 L87.9503554,58.0838083 C85.7130974,67.2055173 80.7450217,76.2359704 73.1760365,83.8049557" class="web-landing-page__rma-lightweight-home__ico-castirons__ico__fill-6"/>
          <g class="web-landing-page__rma-lightweight-home__ico-castirons__ico__group-10" transform="translate(0 11.91)">
            <mask id="mask-4" fill="#fff">
              <use xlink:href="#path-3"/>
            </mask>
            <path fill="#004494" d="M3.04728618,60.8060265 C1.27477045,59.0325959 0.224983707,56.6686317 0.0749488266,54.1662969 C-0.717537241,40.8589349 4.78320804,26.2161252 16.1401166,14.8592167 C23.7091019,7.29023143 32.7395549,2.321927 41.861264,0.0848977859 L52.5802956,10.8030145 C45.0604833,14.6428554 36.9743809,20.5555105 29.4053957,28.1244957 C18.0484871,39.4823191 10.4223239,51.9987961 7.93416924,62.0264322 C7.46782607,63.9114741 7.72329705,65.4811225 8.67130708,66.4291326 L3.04728618,60.8060265 Z" class="web-landing-page__rma-lightweight-home__ico-castirons__ico__group-10__fill-8" mask="url(#mask-4)"/>
          </g>
          <g class="web-landing-page__rma-lightweight-home__ico-castirons__ico__group-13" transform="translate(14.18 .018)">
            <mask id="mask-6" fill="#fff">
              <use xlink:href="#path-5"/>
            </mask>
            <path fill="#FFF" d="M10.0408785,0.210849323 C4.53693128,0.210849323 0.074994569,4.67278603 0.074994569,10.1767333 L0.074994569,46.3971203 C0.074994569,51.901525 4.53670256,56.363233 10.0408785,56.363233 C15.5450545,56.363233 20.0067625,51.901525 20.0067625,46.3971203 L20.0067625,10.1767333 C20.0067625,4.67278603 15.5448258,0.210849323 10.0408785,0.210849323" class="web-landing-page__rma-lightweight-home__ico-castirons__ico__group-13__fill-11" mask="url(#mask-6)"/>
          </g>
          <path fill="#3369A9" d="M92.7791228,52.3410174 L47.6039862,7.16679572 C46.1443481,5.7071576 43.7776394,5.7071576 42.3177725,7.16679572 C40.8588206,8.6257477 40.8588206,10.9924565 42.3177725,12.4523233 L87.4929091,57.6272311 C88.9527759,59.0870979 91.3192559,59.0870979 92.7791228,57.6272311 C94.2380748,56.1673643 94.2380748,53.8008842 92.7791228,52.3410174" class="web-landing-page__rma-lightweight-home__ico-castirons__ico__fill-14"/>
          <path fill="#004494" d="M29.82714,46.4150513 C29.82714,49.5115791 27.3174865,52.0212327 24.2209587,52.0212327 C21.1253457,52.0212327 18.6156921,49.5115791 18.6156921,46.4150513 C18.6156921,43.3194383 21.1253457,40.8097848 24.2209587,40.8097848 C27.3174865,40.8097848 29.82714,43.3194383 29.82714,46.4150513" class="web-landing-page__rma-lightweight-home__ico-castirons__ico__fill-16"/>
        </g>
      </g>
    </g>
  </g>
</svg>
