<svg xmlns="http://www.w3.org/2000/svg" xmlns:xlink="http://www.w3.org/1999/xlink" width="277" height="258" viewBox="0 0 277 258">
  <defs>
    <polygon id="path-1" points="0 .108 7.455 .108 7.455 15.017 0 15.017"/>
    <polygon id="path-3" points="0 .108 15.075 .108 15.075 15.017 0 15.017"/>
    <polygon id="path-5" points="0 100.496 113.896 100.496 113.896 .229 0 .229"/>
  </defs>
  <g fill="none" fill-rule="evenodd" class="web-landing-page">
    <g class="web-landing-page__rma-lightweight-home" transform="translate(-1264 -6670)">
      <g class="web-landing-page__rma-lightweight-home__ico-magnesium" transform="translate(1264.495 6670.198)">
        <g class="web-landing-page__rma-lightweight-home__ico-magnesium__ico" transform="translate(81 78)">
          <path fill="#99B4D4" d="M62.6840154,7.6839569 L62.6840154,12.6538935 C62.6840154,14.0458515 61.5908906,15.1387472 60.1989325,15.1387472 L50.2592885,15.1387472 C48.8673305,15.1387472 47.7742057,14.0458515 47.7742057,12.6538935 L47.7742057,7.6839569 C47.7742057,3.55849934 51.1037675,0.229166624 55.2292251,0.229166624 C59.3546827,0.229166624 62.6840154,3.55849934 62.6840154,7.6839569" class="web-landing-page__rma-lightweight-home__ico-magnesium__ico__fill-1"/>
          <path fill="#99B4D4" d="M82.7291512,7.6839569 C82.7291512,3.57339517 79.2192352,0.229166624 75.1086735,0.229166624 C70.9983409,0.229166624 67.6538832,3.57339517 67.6538832,7.6839569 L67.6538832,12.6538935 C67.6538832,14.0270599 68.7655705,15.1387472 70.1389661,15.1387472 L80.2440683,15.1387472 C81.6172348,15.1387472 82.7291512,14.0270599 82.7291512,12.6538935 L82.7291512,7.6839569 Z" class="web-landing-page__rma-lightweight-home__ico-magnesium__ico__fill-3"/>
          <g class="web-landing-page__rma-lightweight-home__ico-magnesium__ico__group-7" transform="translate(55.23 .121)">
            <mask id="mask-2" fill="#fff">
              <use xlink:href="#path-1"/>
            </mask>
            <path fill="#99B4D4" d="M0,0.10766248 L0,15.0174722 L4.96993657,15.0174722 C6.36189464,15.0174722 7.45479027,13.9243474 7.45479027,12.5323893 L7.45479027,7.56245275 C7.45479027,3.43699519 4.12545756,0.10766248 0,0.10766248" class="web-landing-page__rma-lightweight-home__ico-magnesium__ico__group-7__fill-5" mask="url(#mask-2)"/>
          </g>
          <polygon fill="#99B4D4" points="110.458 66.121 105.32 66.121 93.271 66.121 93.271 86.746 105.32 86.746 110.458 86.746 113.896 86.746 113.896 83.309 113.896 69.559 113.896 66.121" class="web-landing-page__rma-lightweight-home__ico-magnesium__ico__fill-8"/>
          <g class="web-landing-page__rma-lightweight-home__ico-magnesium__ico__group-12" transform="translate(27.73 .121)">
            <mask id="mask-4" fill="#fff">
              <use xlink:href="#path-3"/>
            </mask>
            <path fill="#99B4D4" d="M7.45485902,0.10766248 C3.34429729,0.10766248 6.87499872e-05,3.45189102 6.87499872e-05,7.56245275 L6.87499872e-05,12.5323893 C6.87499872e-05,13.9055557 1.11175604,15.0174722 2.48492245,15.0174722 L12.5904831,15.0174722 C13.9634203,15.0174722 15.0753368,13.9055557 15.0753368,12.5323893 L15.0753368,7.56245275 C15.0753368,3.45189102 11.5654208,0.10766248 7.45485902,0.10766248" class="web-landing-page__rma-lightweight-home__ico-magnesium__ico__group-12__fill-10" mask="url(#mask-4)"/>
          </g>
          <path fill="#004494" d="M89.8333166,11.1214563 L38.0416596,11.1214563 L20.6249961,11.1214563 L10.3124981,11.1214563 L10.3124981,21.4339543 L10.3124981,30.6006193 L10.3124981,31.7464524 L17.1874968,38.6214563 L93.2708159,38.6214563 L100.145815,31.7464524 L100.145815,21.4339543 C100.145815,15.7272471 95.5400238,11.1214563 89.8333166,11.1214563" class="web-landing-page__rma-lightweight-home__ico-magnesium__ico__fill-13"/>
          <path fill="#004494" d="M17.1874968,59.2464473 L10.3124981,66.121446 L10.3124981,69.788112 L10.3124981,76.4339441 L10.3124981,86.7464473 L20.6249961,86.7464473 L43.5416585,86.7464473 L44.9166583,86.7464473 L44.9166583,100.49644 L55.2291563,100.49644 L55.2291563,97.8154192 C57.0168852,99.4651898 59.4231347,100.49644 62.1041551,100.49644 L89.8333166,100.49644 C95.5400238,100.49644 100.145815,95.8897321 100.145815,90.1839415 L100.145815,66.121446 L93.2708159,59.2464473 L17.1874968,59.2464473 Z" class="web-landing-page__rma-lightweight-home__ico-magnesium__ico__fill-15"/>
          <polygon fill="#3369A9" points="93.271 59.246 55.229 59.246 55.229 76.434 55.229 97.815 55.229 100.496 62.104 100.496 89.833 100.496 100.146 100.496 100.146 90.184 100.146 76.434 100.146 66.121" class="web-landing-page__rma-lightweight-home__ico-magnesium__ico__fill-17"/>
          <mask id="mask-6" fill="#fff">
            <use xlink:href="#path-5"/>
          </mask>
          <polygon fill="#004494" points="0 59.246 13.75 59.246 13.75 38.621 0 38.621" class="web-landing-page__rma-lightweight-home__ico-magnesium__ico__fill-19" mask="url(#mask-6)"/>
          <path fill="#3369A9" d="M100.145815,21.4339543 L100.145815,31.7464524 L93.2708159,38.6214563 L55.2291563,38.6214563 L55.2291563,11.1214563 L89.8333166,11.1214563 C95.5400238,11.1214563 100.145815,15.7272471 100.145815,21.4339543" class="web-landing-page__rma-lightweight-home__ico-magnesium__ico__fill-21" mask="url(#mask-6)"/>
          <polygon fill="#FFF" points="10.312 66.121 100.146 66.121 100.146 31.746 10.312 31.746" class="web-landing-page__rma-lightweight-home__ico-magnesium__ico__fill-22" mask="url(#mask-6)"/>
          <path fill="#004494" d="M110.458313,52.3714485 L82.7291512,52.3714485 C80.8036932,52.3714485 79.2916519,50.8584905 79.2916519,48.9339492 L79.2916519,42.0589505 C79.2916519,40.1334925 77.7796105,38.6214511 75.8541525,38.6214511 C73.9286945,38.6214511 72.4166531,40.1334925 72.4166531,42.0589505 L72.4166531,48.9339492 C72.4166531,50.1709906 72.6914239,51.2712196 73.0351739,52.3714485 L68.9791538,52.3714485 C67.0536958,52.3714485 65.5416544,50.8584905 65.5416544,48.9339492 L65.5416544,42.0589505 C65.5416544,40.1334925 64.029613,38.6214511 62.1041551,38.6214511 C60.1786971,38.6214511 58.6666608,40.1334925 58.6666608,42.0589505 L58.6666608,48.9339492 C58.6666608,50.1709906 58.9414265,51.2712196 59.2851764,52.3714485 L55.2291563,52.3714485 C53.3036984,52.3714485 51.791657,50.8584905 51.791657,48.9339492 L51.791657,44.0653043 L51.791657,42.0589505 L51.791657,37.5808055 L44.9166583,37.5808055 L44.9166583,42.0589505 L44.9166583,44.0653043 L44.9166583,48.9339492 C44.9166583,50.1709906 45.1914291,51.2712196 45.535179,52.3714485 L41.4791589,52.3714485 C39.5537009,52.3714485 38.0416596,50.8584905 38.0416596,48.9339492 L38.0416596,44.0653043 L38.0416596,42.0589505 L38.0416596,37.5808055 L31.1666608,37.5808055 L31.1666608,42.0589505 L31.1666608,44.0653043 L31.1666608,48.9339492 C31.1666608,54.6397398 35.7724517,59.2464473 41.4791589,59.2464473 L110.458313,59.2464473 C112.383771,59.2464473 113.895812,57.7334892 113.895812,55.8089479 C113.895812,53.8834899 112.383771,52.3714485 110.458313,52.3714485" class="web-landing-page__rma-lightweight-home__ico-magnesium__ico__fill-23" mask="url(#mask-6)"/>
          <path fill="#3369A9" d="M110.458313,52.3714485 L105.003689,52.3714485 L82.7291563,52.3714485 C80.8036932,52.3714485 79.2916519,50.8584905 79.2916519,48.9339492 L79.2916519,44.0653043 L79.2916519,42.0589505 L79.2916519,37.5808055 L72.4166531,37.5808055 L72.4166531,42.0589505 L72.4166531,44.0653043 L72.4166531,48.9339492 C72.4166531,50.1709906 72.6914239,51.2712196 73.0351739,52.3714485 L68.9791538,52.3714485 C67.0536958,52.3714485 65.5416544,50.8584905 65.5416544,48.9339492 L65.5416544,44.0653043 L65.5416544,42.0589505 L65.5416544,37.5808055 L58.6666557,37.5808055 L58.6666557,42.0589505 L58.6666557,44.0653043 L58.6666557,48.9339492 C58.6666557,50.1709906 58.9414265,51.2712196 59.2851764,52.3714485 L55.2291563,52.3714485 L55.2291563,59.2464473 L105.003689,59.2464473 L110.458313,59.2464473 L113.895812,59.2464473 L113.895812,52.3714485 L110.458313,52.3714485 Z" class="web-landing-page__rma-lightweight-home__ico-magnesium__ico__fill-24" mask="url(#mask-6)"/>
        </g>
      </g>
    </g>
  </g>
</svg>
