<svg xmlns="http://www.w3.org/2000/svg" width="276" height="245" viewBox="0 0 276 245">
  <g fill="none" fill-rule="evenodd" class="web-landing-page">
    <g class="web-landing-page__rma-lightweight-home" transform="translate(-971 -2789)">
      <g class="web-landing-page__rma-lightweight-home__icon-certified" transform="translate(971.25 2789)">
        <g class="web-landing-page__rma-lightweight-home__icon-certified__group-22" transform="translate(95.663 62)">
          <polygon fill="#004494" points="11.176 79.921 0 100.785 16.721 95.976 33.344 64.945 22.353 59.057" class="web-landing-page__rma-lightweight-home__icon-certified__group-22__fill-1"/>
          <polygon fill="#3369A9" points="16.721 95.976 21.981 112.56 33.158 91.696 44.334 70.832 33.344 64.945" class="web-landing-page__rma-lightweight-home__icon-certified__group-22__fill-2"/>
          <polygon fill="#3369A9" points="59.515 64.945 76.139 95.976 92.859 100.785 81.682 79.921 70.506 59.057" class="web-landing-page__rma-lightweight-home__icon-certified__group-22__fill-3"/>
          <polygon fill="#004494" points="48.525 70.832 59.701 91.696 70.878 112.56 76.139 95.976 59.515 64.945" class="web-landing-page__rma-lightweight-home__icon-certified__group-22__fill-4"/>
          <path fill="#FFF" d="M88.3360763,42.7645467 C88.3360763,54.2586461 83.8138298,64.6968807 76.4537781,72.3811054 C70.6887563,78.4038032 63.1806588,82.7371173 54.7425018,84.5655606 C51.826967,85.196833 48.8035992,85.5293181 45.7002553,85.5293181 C43.3321976,85.5293181 41.0113169,85.3358926 38.7488457,84.9636441 C30.6159909,83.6253917 23.2559392,79.9777157 17.3642135,74.7138926 C17.0447583,74.4310557 16.7322672,74.1437256 16.4220227,73.8492068 C15.3225753,72.8077197 14.2797404,71.7071491 13.2928437,70.5551332 C12.348631,69.4475984 11.4605813,68.2906402 10.6311658,67.0889761 C8.14112207,63.4862306 6.18889543,59.4779881 4.88973241,55.1848867 C3.70334473,51.2545984 3.06443419,47.0861789 3.06443419,42.7647714 C3.06443419,19.1473221 22.1542453,4.97379915e-14 45.7002553,4.97379915e-14 C50.0063865,4.97379915e-14 54.1646966,0.640932406 58.0806072,1.83338569 C62.3633746,3.13187475 66.3570147,5.08971769 69.9512235,7.58987078 C71.149293,8.42175746 72.3028815,9.31227833 73.4045753,10.2618827 C74.8800903,11.5246521 76.2657443,12.8891889 77.5556966,14.340666 C84.2626847,21.8972883 88.3360763,31.8547674 88.3360763,42.7645467" class="web-landing-page__rma-lightweight-home__icon-certified__group-22__fill-5"/>
          <path fill="#95B0D0" d="M45.7003451,8.76438946 C64.4213543,8.76438946 79.5978551,23.9865245 79.5978551,42.7643895 C79.5978551,61.5420051 64.4213543,76.7643895 45.7003451,76.7643895 C26.9793359,76.7643895 11.8028351,61.5420051 11.8028351,42.7643895 C11.8028351,23.9865245 26.9793359,8.76438946 45.7003451,8.76438946" class="web-landing-page__rma-lightweight-home__icon-certified__group-22__fill-7"/>
          <path fill="#C7D5E5" d="M45.7003451,69.8600147 C30.8038899,69.8600147 18.6866056,57.7058875 18.6866056,42.7649511 C18.6866056,27.8235654 30.8038899,15.6696628 45.7003451,15.6696628 C60.5965757,15.6696628 72.7140847,27.8235654 72.7140847,42.7649511 C72.7140847,57.7058875 60.5965757,69.8600147 45.7003451,69.8600147" class="web-landing-page__rma-lightweight-home__icon-certified__group-22__path"/>
        </g>
      </g>
    </g>
  </g>
</svg>
