<svg xmlns="http://www.w3.org/2000/svg" xmlns:xlink="http://www.w3.org/1999/xlink" width="277" height="258" viewBox="0 0 277 258">
  <defs>
    <polygon id="path-1" points=".165 .108 22.291 .108 22.291 31.051 .165 31.051"/>
  </defs>
  <g fill="none" fill-rule="evenodd" class="web-landing-page">
    <g class="web-landing-page__rma-lightweight-home" transform="translate(-675 -8599)">
      <g class="web-landing-page__rma-lightweight-home__ico-sustainable" transform="translate(675.137 8599.364)">
        <g class="web-landing-page__rma-lightweight-home__ico-sustainable__ico" transform="translate(81 66)">
          <path fill="#3369A9" d="M93.7138352,71.4936743 C93.7138352,48.9065968 75.452232,30.5966927 52.9248631,30.5966927 C30.3977369,30.5966927 12.1358909,48.9065968 12.1358909,71.4936743 C12.1358909,94.0807518 30.3977369,112.390656 52.9248631,112.390656 C75.452232,112.390656 93.7138352,94.0807518 93.7138352,71.4936743" class="web-landing-page__rma-lightweight-home__ico-sustainable__ico__fill-1"/>
          <path fill="#004494" d="M52.9249116,112.39068 C55.0183528,112.39068 57.0758718,112.232428 59.0838763,111.927089 C39.4795581,108.949912 24.4548396,91.9815096 24.4548396,71.4936985 C24.4548396,51.0058875 39.4795581,34.0374848 59.0838763,31.060308 C57.0758718,30.754969 55.0183528,30.596717 52.9249116,30.596717 C30.3975427,30.596717 12.1359395,48.9066211 12.1359395,71.4936985 C12.1359395,94.0805333 30.3975427,112.39068 52.9249116,112.39068" class="web-landing-page__rma-lightweight-home__ico-sustainable__ico__fill-3"/>
          <path fill="#99B4D4" d="M47.6230564,46.4908991 C41.3398202,50.4285103 36.6267256,56.7277659 40.1614252,63.8158543 C43.6958821,70.9029719 51.5502307,68.1469111 58.8155032,67.1626903 C66.0810184,66.1784696 60.5829743,88.6223436 64.9023806,94.1347079 C69.2220297,99.6470723 81.3960273,88.6223436 80.2183604,81.5342551 C78.4737048,71.0405929 77.8622986,67.359049 91.9996406,59.8782432 L92.0375046,59.8641655 C87.2722257,43.7280422 72.8477484,31.7552577 55.4791041,30.6790468 L55.4771623,30.7406972 C55.4771623,30.7406972 53.9062926,42.553288 47.6230564,46.4908991" class="web-landing-page__rma-lightweight-home__ico-sustainable__ico__fill-5"/>
          <path fill="#99B4D4" d="M78.4804523,39.6208441 C78.4833649,39.6227858 78.4860348,39.6256985 78.4889474,39.6273975 C78.4860348,39.6256985 78.4833649,39.6237567 78.4804523,39.6208441" class="web-landing-page__rma-lightweight-home__ico-sustainable__ico__fill-7"/>
          <path fill="#99B4D4" d="M83.4684977,44.3917784 C83.4684977,44.3927492 83.4694685,44.3937201 83.4704394,44.3937201 L83.4684977,44.3917784 Z" class="web-landing-page__rma-lightweight-home__ico-sustainable__ico__fill-9"/>
          <path fill="#99B4D4" d="M25.8277487,89.9999614 C23.9411031,87.1225416 29.1660896,80.3538698 30.3435137,75.234951 C31.5221515,70.1160322 24.452995,70.5094778 22.2930491,68.737395 C20.133346,66.9655549 17.1874798,59.2876622 15.0277767,57.5155794 L14.6826319,57.2434927 C13.0367624,61.6806171 12.1360366,66.4818183 12.1360366,71.4936985 C12.1360366,85.0118675 18.6780099,96.9960598 28.7602654,104.441672 L28.772644,103.584635 C28.772644,103.584635 30.3435137,96.8909629 25.8277487,89.9999614" class="web-landing-page__rma-lightweight-home__ico-sustainable__ico__fill-11"/>
          <path fill="#99B4D4" d="M80.2183604,81.5342308 C80.2098653,81.4830174 80.2013702,81.4327748 80.1928751,81.3815613 C79.4125373,84.5339803 78.2671519,87.5424677 76.8042916,90.3582371 C79.1241885,87.6201374 80.6744272,84.2817965 80.2183604,81.5342308" class="web-landing-page__rma-lightweight-home__ico-sustainable__ico__fill-13"/>
          <path fill="#004494" d="M52.869936,124.271523 C49.9811086,124.271523 47.0711646,124.034388 44.1634052,123.553807 C30.2629557,121.258424 18.0882299,113.687813 9.88242589,102.236386 C1.67637916,90.7849593 -1.57846679,76.8231022 0.717886492,62.9236236 C0.883662763,61.9168301 1.83754379,61.2360066 2.84166741,61.4020256 C3.84846092,61.5678019 4.53025527,62.5187703 4.36326541,63.5258065 C2.22904763,76.4512585 5.25549611,89.4349628 12.8870298,100.084207 C20.5183207,110.733451 31.8389225,117.773239 44.7663162,119.908185 C71.4531404,124.316911 96.7450653,106.191958 101.152821,79.5090176 C103.287039,66.5833229 100.26059,53.5998613 92.6292992,42.950617 C84.9987364,32.3013727 73.6774065,25.2615851 60.7507409,23.1263965 C59.7437047,22.9606202 59.062153,22.0096518 59.2279293,21.0026156 C59.3949192,19.9958221 60.3478293,19.3149986 61.3517102,19.4810176 C75.2531306,21.7764 87.4278564,29.3470115 95.6329322,40.7984381 C103.838736,52.2498648 107.093582,66.2117219 104.7982,80.1112005 C102.502817,94.0104364 94.931235,106.184191 83.4788374,114.389267 C74.4215793,120.878328 63.7951505,124.271523 52.869936,124.271523" class="web-landing-page__rma-lightweight-home__ico-sustainable__ico__fill-15"/>
          <path fill="#FFF" d="M41.6518097,44.6325787 C21.9271035,41.2857427 9.69072736,16.4508555 9.69072736,16.4508555 C9.69072736,16.4508555 29.4353365,-2.95807487 49.1600427,0.387790259 C68.8845063,3.73365539 81.1208824,28.5685426 81.1208824,28.5685426 C81.1208824,28.5685426 61.376516,47.9784438 41.6518097,44.6325787" class="web-landing-page__rma-lightweight-home__ico-sustainable__ico__fill-17"/>
          <path fill="#CCDAEA" d="M41.6518097,44.6325787 C61.376516,47.9784438 81.1208824,28.5685426 81.1208824,28.5685426 L9.69072736,16.4508555 C9.69072736,16.4508555 21.9271035,41.2857427 41.6518097,44.6325787" class="web-landing-page__rma-lightweight-home__ico-sustainable__ico__fill-19"/>
          <g class="web-landing-page__rma-lightweight-home__ico-sustainable__ico__group-23" transform="translate(89.563 7.767)">
            <mask id="mask-2" fill="#fff">
              <use xlink:href="#path-1"/>
            </mask>
            <path fill="#FFF" d="M1.64485011,10.842205 C5.86862559,2.29780959 18.8758735,0.108494865 18.8758735,0.108494865 C18.8758735,0.108494865 25.0343527,11.7730278 20.81082,20.3176659 C16.5872872,28.8620613 3.580282,31.051376 3.580282,31.051376 C3.580282,31.051376 -2.57868265,19.3866003 1.64485011,10.842205" class="web-landing-page__rma-lightweight-home__ico-sustainable__ico__group-23__fill-21" mask="url(#mask-2)"/>
          </g>
          <path fill="#CCDAEA" d="M91.2077252,18.6091752 C86.9841925,27.1535705 93.1431571,38.8183462 93.1431571,38.8183462 L108.438749,7.87546506 C108.438749,7.87546506 95.4315007,10.0647798 91.2077252,18.6091752" class="web-landing-page__rma-lightweight-home__ico-sustainable__ico__fill-24"/>
        </g>
      </g>
    </g>
  </g>
</svg>
