<?xml version="1.0" encoding="utf-8"?>
<!-- Generator: Adobe Illustrator 24.3.0, SVG Export Plug-In . SVG Version: 6.00 Build 0)  -->
<svg version="1.1" id="Layer_1" xmlns="http://www.w3.org/2000/svg" xmlns:xlink="http://www.w3.org/1999/xlink" x="0px" y="0px"
	 viewBox="0 0 1230 222" style="enable-background:new 0 0 1230 222;" xml:space="preserve">
<style type="text/css">
	.st0{fill:#034EA2;}
	.st1{fill-rule:evenodd;clip-rule:evenodd;fill:#034EA2;}
	.st2{fill-rule:evenodd;clip-rule:evenodd;fill:#6BB845;}
	.st3{fill:#6BB845;}
	.st4{fill:#003399;}
	.st5{fill:#FFCC00;}
	.st6{fill:#FFFFFF;}
	.st7{fill-rule:evenodd;clip-rule:evenodd;fill:#FFFFFF;}
</style>
<g>
	<g>
		<path class="st6" d="M1021.4,84.2c0,0.2,0,0.3,0,0.5c0,0.1-0.1,0.2-0.1,0.3c0,0.1-0.1,0.1-0.2,0.2c-0.1,0-0.1,0.1-0.2,0.1h-6.8
			v6.4h6.5c0.1,0,0.1,0,0.2,0.1c0.1,0,0.1,0.1,0.2,0.2c0,0.1,0.1,0.2,0.1,0.3c0,0.1,0,0.3,0,0.5c0,0.2,0,0.3,0,0.5
			c0,0.1-0.1,0.2-0.1,0.3c0,0.1-0.1,0.1-0.2,0.2c-0.1,0-0.1,0.1-0.2,0.1h-6.5v7.8c0,0.1,0,0.1-0.1,0.2c0,0.1-0.1,0.1-0.2,0.1
			c-0.1,0-0.2,0.1-0.4,0.1c-0.2,0-0.4,0-0.6,0c-0.2,0-0.4,0-0.6,0c-0.2,0-0.3-0.1-0.4-0.1c-0.1,0-0.2-0.1-0.2-0.1
			c0-0.1-0.1-0.1-0.1-0.2V84.2c0-0.4,0.1-0.6,0.3-0.8c0.2-0.2,0.4-0.2,0.6-0.2h8.4c0.1,0,0.1,0,0.2,0.1c0.1,0,0.1,0.1,0.2,0.2
			c0,0.1,0.1,0.2,0.1,0.3S1021.4,84,1021.4,84.2z"/>
		<path class="st6" d="M1035.9,101.5c0,0.1,0,0.1,0,0.2c0,0.1-0.1,0.1-0.2,0.1c-0.1,0-0.2,0.1-0.3,0.1c-0.1,0-0.3,0-0.5,0
			c-0.2,0-0.4,0-0.5,0s-0.2,0-0.3-0.1c-0.1,0-0.1-0.1-0.2-0.1c0-0.1,0-0.1,0-0.2v-1.7c-0.7,0.8-1.5,1.4-2.2,1.8
			c-0.7,0.4-1.5,0.6-2.2,0.6c-0.9,0-1.6-0.1-2.2-0.4c-0.6-0.3-1.1-0.7-1.4-1.2c-0.4-0.5-0.6-1.1-0.8-1.7c-0.2-0.7-0.2-1.5-0.2-2.4
			v-7.9c0-0.1,0-0.1,0-0.2c0-0.1,0.1-0.1,0.2-0.1c0.1,0,0.2-0.1,0.4-0.1c0.2,0,0.3,0,0.6,0c0.2,0,0.4,0,0.6,0c0.2,0,0.3,0,0.4,0.1
			c0.1,0,0.2,0.1,0.2,0.1c0,0.1,0.1,0.1,0.1,0.2v7.6c0,0.8,0.1,1.4,0.2,1.8c0.1,0.5,0.3,0.8,0.5,1.2c0.2,0.3,0.5,0.6,0.9,0.8
			c0.3,0.2,0.7,0.3,1.2,0.3c0.6,0,1.2-0.2,1.8-0.6c0.6-0.4,1.2-1,1.9-1.9v-9.1c0-0.1,0-0.1,0-0.2c0-0.1,0.1-0.1,0.2-0.1
			c0.1,0,0.2-0.1,0.4-0.1c0.1,0,0.3,0,0.6,0c0.2,0,0.4,0,0.6,0c0.2,0,0.3,0,0.4,0.1c0.1,0,0.2,0.1,0.2,0.1c0,0.1,0.1,0.1,0.1,0.2
			V101.5z"/>
		<path class="st6" d="M1051.4,101.5c0,0.1,0,0.1-0.1,0.2c0,0.1-0.1,0.1-0.2,0.1c-0.1,0-0.2,0.1-0.4,0.1c-0.2,0-0.3,0-0.6,0
			c-0.2,0-0.4,0-0.6,0c-0.2,0-0.3,0-0.4-0.1c-0.1,0-0.2-0.1-0.2-0.1c0-0.1-0.1-0.1-0.1-0.2v-7.6c0-0.7-0.1-1.3-0.2-1.8
			c-0.1-0.4-0.3-0.8-0.5-1.2c-0.2-0.3-0.5-0.6-0.9-0.7c-0.4-0.2-0.8-0.3-1.2-0.3c-0.6,0-1.2,0.2-1.8,0.6c-0.6,0.4-1.2,1-1.9,1.9v9.1
			c0,0.1,0,0.1-0.1,0.2c0,0.1-0.1,0.1-0.2,0.1c-0.1,0-0.2,0.1-0.4,0.1c-0.2,0-0.4,0-0.6,0c-0.2,0-0.4,0-0.6,0c-0.2,0-0.3,0-0.4-0.1
			c-0.1,0-0.2-0.1-0.2-0.1c0-0.1-0.1-0.1-0.1-0.2v-13c0-0.1,0-0.1,0-0.2c0-0.1,0.1-0.1,0.2-0.1c0.1,0,0.2-0.1,0.3-0.1
			c0.1,0,0.3,0,0.5,0c0.2,0,0.4,0,0.5,0c0.1,0,0.2,0,0.3,0.1c0.1,0,0.1,0.1,0.2,0.1c0,0.1,0.1,0.1,0.1,0.2v1.7
			c0.7-0.8,1.5-1.4,2.2-1.8c0.7-0.4,1.5-0.6,2.2-0.6c0.9,0,1.6,0.1,2.2,0.4c0.6,0.3,1.1,0.7,1.4,1.2c0.4,0.5,0.6,1.1,0.8,1.7
			c0.2,0.7,0.2,1.4,0.2,2.4V101.5z"/>
		<path class="st6" d="M1066.8,101.5c0,0.1,0,0.1,0,0.2c0,0.1-0.1,0.1-0.2,0.1c-0.1,0-0.2,0.1-0.3,0.1s-0.3,0-0.5,0
			c-0.2,0-0.4,0-0.5,0c-0.1,0-0.2,0-0.3-0.1c-0.1,0-0.2-0.1-0.2-0.1c0-0.1-0.1-0.1-0.1-0.2v-1.7c-0.7,0.7-1.4,1.3-2.1,1.7
			c-0.7,0.4-1.5,0.6-2.4,0.6c-1,0-1.8-0.2-2.4-0.6c-0.7-0.4-1.2-0.9-1.6-1.5c-0.4-0.6-0.7-1.4-0.9-2.2c-0.2-0.9-0.3-1.8-0.3-2.7
			c0-1.1,0.1-2.1,0.4-3c0.2-0.9,0.6-1.7,1.1-2.3c0.5-0.6,1.1-1.1,1.8-1.5c0.7-0.3,1.5-0.5,2.4-0.5c0.8,0,1.5,0.2,2.1,0.5
			c0.6,0.3,1.3,0.8,1.9,1.5v-7.6c0-0.1,0-0.1,0-0.2c0-0.1,0.1-0.1,0.2-0.1c0.1,0,0.2-0.1,0.4-0.1c0.2,0,0.3,0,0.6,0
			c0.2,0,0.4,0,0.6,0c0.2,0,0.3,0.1,0.4,0.1c0.1,0,0.2,0.1,0.2,0.1c0,0.1,0.1,0.1,0.1,0.2V101.5z M1064.4,92.3
			c-0.6-0.8-1.3-1.4-1.9-1.8c-0.6-0.4-1.2-0.6-1.9-0.6c-0.6,0-1.1,0.1-1.5,0.4c-0.4,0.3-0.8,0.7-1,1.1c-0.3,0.5-0.5,1-0.6,1.6
			c-0.1,0.6-0.2,1.2-0.2,1.8c0,0.7,0,1.3,0.2,1.9c0.1,0.6,0.3,1.2,0.5,1.7c0.2,0.5,0.6,0.9,1,1.2c0.4,0.3,0.9,0.4,1.6,0.4
			c0.3,0,0.6,0,0.9-0.1c0.3-0.1,0.6-0.2,0.9-0.4c0.3-0.2,0.6-0.5,1-0.8c0.3-0.3,0.7-0.7,1.1-1.2V92.3z"/>
		<path class="st6" d="M1082.2,94.4c0,0.4-0.1,0.6-0.3,0.8c-0.2,0.2-0.4,0.2-0.6,0.2h-8.6c0,0.7,0.1,1.4,0.2,2
			c0.1,0.6,0.4,1.1,0.7,1.5c0.3,0.4,0.8,0.7,1.3,1c0.5,0.2,1.2,0.3,2,0.3c0.6,0,1.2-0.1,1.7-0.2s0.9-0.2,1.3-0.3
			c0.4-0.1,0.6-0.2,0.9-0.3c0.2-0.1,0.4-0.2,0.5-0.2c0.1,0,0.1,0,0.2,0.1c0.1,0,0.1,0.1,0.1,0.2c0,0.1,0,0.2,0.1,0.3
			c0,0.1,0,0.3,0,0.4c0,0.1,0,0.2,0,0.3c0,0.1,0,0.2,0,0.2c0,0.1,0,0.1-0.1,0.2c0,0.1-0.1,0.1-0.1,0.2c-0.1,0.1-0.2,0.1-0.5,0.3
			c-0.3,0.1-0.6,0.2-1,0.4c-0.4,0.1-0.9,0.2-1.4,0.3c-0.5,0.1-1.1,0.1-1.7,0.1c-1.1,0-2-0.2-2.8-0.4c-0.8-0.3-1.5-0.7-2-1.3
			c-0.5-0.6-1-1.3-1.2-2.2c-0.3-0.9-0.4-1.9-0.4-3.1c0-1.1,0.1-2.1,0.4-3c0.3-0.9,0.7-1.6,1.2-2.3c0.5-0.6,1.2-1.1,2-1.4
			c0.8-0.3,1.6-0.5,2.6-0.5c1,0,1.9,0.2,2.6,0.5c0.7,0.3,1.3,0.8,1.8,1.3c0.5,0.6,0.8,1.2,1,2c0.2,0.7,0.3,1.5,0.3,2.4V94.4z
			 M1079.8,93.7c0-1.3-0.2-2.2-0.8-2.9c-0.6-0.7-1.5-1.1-2.6-1.1c-0.6,0-1.1,0.1-1.6,0.3c-0.4,0.2-0.8,0.5-1.1,0.9
			c-0.3,0.4-0.5,0.8-0.7,1.3c-0.2,0.5-0.3,1-0.3,1.5H1079.8z"/>
		<path class="st6" d="M1096.8,101.5c0,0.1,0,0.1,0,0.2c0,0.1-0.1,0.1-0.2,0.1c-0.1,0-0.2,0.1-0.3,0.1c-0.1,0-0.3,0-0.5,0
			c-0.2,0-0.4,0-0.5,0s-0.2,0-0.3-0.1c-0.1,0-0.1-0.1-0.2-0.1c0-0.1-0.1-0.1-0.1-0.2v-1.7c-0.7,0.7-1.4,1.3-2.1,1.7
			c-0.7,0.4-1.5,0.6-2.4,0.6c-1,0-1.8-0.2-2.4-0.6c-0.7-0.4-1.2-0.9-1.6-1.5c-0.4-0.6-0.7-1.4-0.9-2.2c-0.2-0.9-0.3-1.8-0.3-2.7
			c0-1.1,0.1-2.1,0.4-3c0.2-0.9,0.6-1.7,1.1-2.3c0.5-0.6,1.1-1.1,1.8-1.5c0.7-0.3,1.5-0.5,2.4-0.5c0.8,0,1.5,0.2,2.1,0.5
			s1.3,0.8,1.9,1.5v-7.6c0-0.1,0-0.1,0-0.2c0-0.1,0.1-0.1,0.2-0.1c0.1,0,0.2-0.1,0.4-0.1c0.1,0,0.3,0,0.6,0c0.2,0,0.4,0,0.6,0
			c0.2,0,0.3,0.1,0.4,0.1c0.1,0,0.2,0.1,0.2,0.1c0,0.1,0.1,0.1,0.1,0.2V101.5z M1094.4,92.3c-0.6-0.8-1.3-1.4-1.9-1.8
			c-0.6-0.4-1.2-0.6-1.9-0.6c-0.6,0-1.1,0.1-1.5,0.4c-0.4,0.3-0.8,0.7-1,1.1c-0.3,0.5-0.5,1-0.6,1.6c-0.1,0.6-0.2,1.2-0.2,1.8
			c0,0.7,0,1.3,0.2,1.9c0.1,0.6,0.3,1.2,0.5,1.7c0.2,0.5,0.6,0.9,1,1.2c0.4,0.3,0.9,0.4,1.6,0.4c0.3,0,0.6,0,0.9-0.1
			c0.3-0.1,0.6-0.2,0.9-0.4s0.6-0.5,1-0.8c0.3-0.3,0.7-0.7,1.1-1.2V92.3z"/>
		<path class="st6" d="M1119.6,94.8c0,1.1-0.1,2.1-0.4,3c-0.2,0.9-0.6,1.7-1.1,2.3c-0.5,0.6-1.1,1.1-1.8,1.5
			c-0.7,0.3-1.5,0.5-2.4,0.5c-0.4,0-0.8,0-1.1-0.1c-0.4-0.1-0.7-0.2-1-0.4c-0.3-0.2-0.7-0.4-1-0.7c-0.3-0.3-0.7-0.6-1.1-1v1.6
			c0,0.1,0,0.1-0.1,0.2c0,0.1-0.1,0.1-0.2,0.1c-0.1,0-0.2,0.1-0.3,0.1c-0.1,0-0.3,0-0.5,0c-0.2,0-0.4,0-0.5,0s-0.2,0-0.3-0.1
			c-0.1,0-0.1-0.1-0.2-0.1c0-0.1,0-0.1,0-0.2V82.2c0-0.1,0-0.1,0-0.2c0-0.1,0.1-0.1,0.2-0.1c0.1,0,0.2-0.1,0.4-0.1
			c0.2,0,0.3,0,0.6,0c0.2,0,0.4,0,0.6,0c0.2,0,0.3,0,0.4,0.1c0.1,0,0.1,0.1,0.2,0.1s0.1,0.1,0.1,0.2V90c0.4-0.4,0.8-0.7,1.1-1
			c0.4-0.3,0.7-0.5,1.1-0.7c0.3-0.2,0.7-0.3,1-0.4c0.3-0.1,0.7-0.1,1.1-0.1c0.9,0,1.8,0.2,2.4,0.6c0.7,0.4,1.2,0.9,1.6,1.5
			c0.4,0.6,0.7,1.4,0.9,2.2C1119.5,93,1119.6,93.9,1119.6,94.8z M1117.1,95.1c0-0.7-0.1-1.3-0.2-1.9c-0.1-0.6-0.3-1.2-0.5-1.7
			c-0.3-0.5-0.6-0.9-1-1.2c-0.4-0.3-0.9-0.4-1.6-0.4c-0.3,0-0.6,0-0.9,0.1c-0.3,0.1-0.6,0.2-0.9,0.4c-0.3,0.2-0.6,0.5-1,0.8
			c-0.3,0.3-0.7,0.7-1.1,1.2v5.2c0.7,0.8,1.3,1.4,1.9,1.8c0.6,0.4,1.2,0.6,1.9,0.6c0.6,0,1.1-0.1,1.5-0.4c0.4-0.3,0.8-0.7,1-1.1
			c0.3-0.5,0.5-1,0.6-1.6C1117.1,96.3,1117.1,95.7,1117.1,95.1z"/>
		<path class="st6" d="M1129,101.8l-1.7,4.8c-0.1,0.2-0.2,0.3-0.4,0.4c-0.2,0.1-0.6,0.1-1.1,0.1c-0.2,0-0.5,0-0.6,0
			c-0.2,0-0.3-0.1-0.4-0.1c-0.1-0.1-0.1-0.1-0.1-0.2c0-0.1,0-0.2,0.1-0.3l1.8-4.5c-0.1,0-0.2-0.1-0.2-0.2c-0.1-0.1-0.1-0.2-0.2-0.3
			l-4.6-12.4c-0.1-0.2-0.1-0.4-0.1-0.5c0-0.1,0-0.2,0.1-0.3c0.1-0.1,0.2-0.1,0.4-0.1c0.2,0,0.4,0,0.7,0c0.3,0,0.5,0,0.7,0
			c0.2,0,0.3,0,0.4,0.1c0.1,0,0.2,0.1,0.2,0.2c0,0.1,0.1,0.2,0.1,0.3l3.7,10.4h0l3.6-10.5c0.1-0.2,0.1-0.3,0.2-0.4
			c0.1-0.1,0.2-0.1,0.4-0.1c0.2,0,0.4,0,0.7,0c0.3,0,0.5,0,0.7,0c0.2,0,0.3,0.1,0.4,0.1c0.1,0.1,0.1,0.2,0.1,0.3
			c0,0.1,0,0.3-0.1,0.4L1129,101.8z"/>
		<path class="st6" d="M1149.7,100.5c0,0.3,0,0.5-0.1,0.7c0,0.2-0.1,0.3-0.2,0.4c-0.1,0.1-0.2,0.2-0.3,0.2c-0.2,0.1-0.3,0.1-0.5,0.2
			c-0.2,0-0.4,0.1-0.6,0.1c-0.2,0-0.4,0-0.7,0c-0.7,0-1.3-0.1-1.7-0.3c-0.5-0.2-0.9-0.4-1.2-0.8c-0.3-0.4-0.5-0.8-0.7-1.4
			c-0.1-0.6-0.2-1.2-0.2-2v-7.6h-1.8c-0.1,0-0.3-0.1-0.3-0.2c-0.1-0.2-0.1-0.4-0.1-0.8c0-0.2,0-0.3,0-0.5c0-0.1,0.1-0.2,0.1-0.3
			s0.1-0.1,0.2-0.2c0.1,0,0.1,0,0.2,0h1.8V85c0-0.1,0-0.1,0-0.2c0-0.1,0.1-0.1,0.2-0.2c0.1,0,0.2-0.1,0.4-0.1c0.2,0,0.3,0,0.6,0
			c0.2,0,0.4,0,0.6,0c0.2,0,0.3,0,0.4,0.1c0.1,0,0.1,0.1,0.2,0.2c0,0.1,0.1,0.1,0.1,0.2v3.1h3.3c0.1,0,0.1,0,0.2,0
			c0.1,0,0.1,0.1,0.2,0.2c0,0.1,0.1,0.2,0.1,0.3c0,0.1,0,0.3,0,0.5c0,0.3,0,0.6-0.1,0.8c-0.1,0.2-0.2,0.2-0.3,0.2h-3.3v7.2
			c0,0.9,0.1,1.6,0.4,2c0.3,0.5,0.7,0.7,1.4,0.7c0.2,0,0.4,0,0.6-0.1c0.2,0,0.3-0.1,0.5-0.1c0.1,0,0.2-0.1,0.3-0.1
			c0.1,0,0.2-0.1,0.3-0.1c0,0,0.1,0,0.1,0c0,0,0.1,0.1,0.1,0.1c0,0.1,0,0.2,0.1,0.3C1149.7,100.2,1149.7,100.4,1149.7,100.5z"/>
		<path class="st6" d="M1163.9,101.5c0,0.1,0,0.1-0.1,0.2c0,0.1-0.1,0.1-0.2,0.1c-0.1,0-0.2,0.1-0.4,0.1c-0.2,0-0.3,0-0.6,0
			c-0.2,0-0.4,0-0.6,0c-0.2,0-0.3,0-0.4-0.1c-0.1,0-0.1-0.1-0.2-0.1c0-0.1-0.1-0.1-0.1-0.2v-7.6c0-0.7-0.1-1.3-0.2-1.8
			c-0.1-0.4-0.3-0.8-0.5-1.2c-0.2-0.3-0.5-0.6-0.9-0.7c-0.4-0.2-0.8-0.3-1.2-0.3c-0.6,0-1.2,0.2-1.8,0.6c-0.6,0.4-1.2,1-1.9,1.9v9.1
			c0,0.1,0,0.1-0.1,0.2c0,0.1-0.1,0.1-0.2,0.1c-0.1,0-0.2,0.1-0.4,0.1c-0.2,0-0.4,0-0.6,0c-0.2,0-0.4,0-0.6,0c-0.2,0-0.3,0-0.4-0.1
			c-0.1,0-0.2-0.1-0.2-0.1c0-0.1,0-0.1,0-0.2V82.2c0-0.1,0-0.1,0-0.2c0-0.1,0.1-0.1,0.2-0.1c0.1,0,0.2-0.1,0.4-0.1
			c0.2,0,0.3,0,0.6,0c0.2,0,0.4,0,0.6,0c0.2,0,0.3,0,0.4,0.1c0.1,0,0.1,0.1,0.2,0.1s0.1,0.1,0.1,0.2V90c0.7-0.7,1.4-1.3,2.1-1.6
			s1.4-0.5,2.1-0.5c0.9,0,1.6,0.1,2.2,0.4c0.6,0.3,1.1,0.7,1.4,1.2c0.4,0.5,0.6,1.1,0.8,1.7c0.2,0.7,0.2,1.5,0.2,2.4V101.5z"/>
		<path class="st6" d="M1179.2,94.4c0,0.4-0.1,0.6-0.3,0.8c-0.2,0.2-0.4,0.2-0.6,0.2h-8.6c0,0.7,0.1,1.4,0.2,2
			c0.1,0.6,0.4,1.1,0.7,1.5c0.3,0.4,0.8,0.7,1.3,1c0.5,0.2,1.2,0.3,2,0.3c0.6,0,1.2-0.1,1.7-0.2s0.9-0.2,1.3-0.3
			c0.4-0.1,0.6-0.2,0.9-0.3c0.2-0.1,0.4-0.2,0.5-0.2c0.1,0,0.1,0,0.2,0.1c0.1,0,0.1,0.1,0.1,0.2c0,0.1,0.1,0.2,0.1,0.3
			c0,0.1,0,0.3,0,0.4c0,0.1,0,0.2,0,0.3c0,0.1,0,0.2,0,0.2c0,0.1,0,0.1-0.1,0.2c0,0.1-0.1,0.1-0.1,0.2c-0.1,0.1-0.2,0.1-0.5,0.3
			c-0.3,0.1-0.6,0.2-1,0.4c-0.4,0.1-0.9,0.2-1.4,0.3c-0.5,0.1-1.1,0.1-1.7,0.1c-1.1,0-2-0.2-2.8-0.4c-0.8-0.3-1.5-0.7-2-1.3
			s-1-1.3-1.2-2.2c-0.3-0.9-0.4-1.9-0.4-3.1c0-1.1,0.1-2.1,0.4-3c0.3-0.9,0.7-1.6,1.2-2.3c0.5-0.6,1.2-1.1,2-1.4
			c0.8-0.3,1.6-0.5,2.6-0.5c1,0,1.9,0.2,2.6,0.5c0.7,0.3,1.3,0.8,1.8,1.3c0.5,0.6,0.8,1.2,1,2c0.2,0.7,0.3,1.5,0.3,2.4V94.4z
			 M1176.8,93.7c0-1.3-0.2-2.2-0.8-2.9c-0.6-0.7-1.5-1.1-2.6-1.1c-0.6,0-1.1,0.1-1.6,0.3c-0.4,0.2-0.8,0.5-1.1,0.9
			c-0.3,0.4-0.5,0.8-0.7,1.3c-0.2,0.5-0.3,1-0.3,1.5H1176.8z"/>
	</g>
	<g>
		<path class="st6" d="M1022,137.1c0,0.2,0,0.3,0,0.5c0,0.1-0.1,0.2-0.1,0.3c0,0.1-0.1,0.2-0.2,0.2c-0.1,0-0.1,0.1-0.2,0.1h-9
			c-0.2,0-0.4-0.1-0.6-0.2c-0.2-0.1-0.3-0.4-0.3-0.8v-16.7c0-0.4,0.1-0.6,0.3-0.8c0.2-0.1,0.4-0.2,0.6-0.2h8.9c0.1,0,0.1,0,0.2,0.1
			c0.1,0,0.1,0.1,0.2,0.2c0,0.1,0.1,0.2,0.1,0.3c0,0.1,0,0.3,0,0.5c0,0.2,0,0.3,0,0.5c0,0.1-0.1,0.2-0.1,0.3c0,0.1-0.1,0.1-0.2,0.2
			c-0.1,0-0.1,0.1-0.2,0.1h-7.3v5.9h6.3c0.1,0,0.1,0,0.2,0.1c0.1,0,0.1,0.1,0.2,0.2c0,0.1,0.1,0.2,0.1,0.3c0,0.1,0,0.3,0,0.5
			c0,0.2,0,0.3,0,0.4c0,0.1,0,0.2-0.1,0.3c0,0.1-0.1,0.1-0.2,0.2c-0.1,0-0.1,0-0.2,0h-6.3v6.7h7.4c0.1,0,0.1,0,0.2,0.1
			s0.1,0.1,0.2,0.2c0,0.1,0.1,0.2,0.1,0.3C1022,136.7,1022,136.9,1022,137.1z"/>
		<path class="st6" d="M1036.8,137.8c0,0.1,0,0.1,0,0.2c0,0.1-0.1,0.1-0.2,0.1c-0.1,0-0.2,0.1-0.3,0.1c-0.1,0-0.3,0-0.5,0
			c-0.2,0-0.4,0-0.5,0c-0.1,0-0.2,0-0.3-0.1c-0.1,0-0.1-0.1-0.2-0.1c0-0.1,0-0.1,0-0.2V136c-0.7,0.8-1.5,1.4-2.2,1.8
			c-0.7,0.4-1.5,0.6-2.2,0.6c-0.9,0-1.6-0.1-2.2-0.4c-0.6-0.3-1.1-0.7-1.4-1.2c-0.4-0.5-0.6-1.1-0.8-1.7c-0.2-0.7-0.2-1.5-0.2-2.4
			v-7.9c0-0.1,0-0.1,0.1-0.2c0-0.1,0.1-0.1,0.2-0.1c0.1,0,0.2-0.1,0.4-0.1c0.2,0,0.3,0,0.6,0c0.2,0,0.4,0,0.6,0c0.2,0,0.3,0,0.4,0.1
			c0.1,0,0.2,0.1,0.2,0.1c0,0.1,0.1,0.1,0.1,0.2v7.6c0,0.8,0.1,1.4,0.2,1.8c0.1,0.5,0.3,0.8,0.5,1.2c0.2,0.3,0.5,0.6,0.9,0.8
			c0.3,0.2,0.8,0.3,1.2,0.3c0.6,0,1.2-0.2,1.8-0.6c0.6-0.4,1.2-1,1.9-1.9v-9.1c0-0.1,0-0.1,0-0.2c0-0.1,0.1-0.1,0.2-0.1
			c0.1,0,0.2-0.1,0.4-0.1c0.2,0,0.3,0,0.6,0c0.2,0,0.4,0,0.6,0c0.2,0,0.3,0,0.4,0.1c0.1,0,0.2,0.1,0.2,0.1c0,0.1,0.1,0.1,0.1,0.2
			V137.8z"/>
		<path class="st6" d="M1048.7,125.6c0,0.2,0,0.4,0,0.5c0,0.1,0,0.3-0.1,0.3c0,0.1-0.1,0.1-0.1,0.2c0,0-0.1,0.1-0.2,0.1
			c-0.1,0-0.2,0-0.3-0.1c-0.1,0-0.2-0.1-0.4-0.1c-0.1,0-0.3-0.1-0.5-0.1c-0.2,0-0.4-0.1-0.6-0.1c-0.2,0-0.5,0-0.7,0.1
			c-0.2,0.1-0.5,0.3-0.7,0.5c-0.3,0.2-0.5,0.5-0.8,0.9c-0.3,0.4-0.6,0.8-0.9,1.3v8.5c0,0.1,0,0.1-0.1,0.2c0,0.1-0.1,0.1-0.2,0.1
			c-0.1,0-0.2,0.1-0.4,0.1c-0.2,0-0.4,0-0.6,0c-0.2,0-0.4,0-0.6,0c-0.2,0-0.3,0-0.4-0.1c-0.1,0-0.2-0.1-0.2-0.1c0-0.1,0-0.1,0-0.2
			v-13c0-0.1,0-0.1,0-0.2c0-0.1,0.1-0.1,0.2-0.1c0.1,0,0.2-0.1,0.3-0.1c0.1,0,0.3,0,0.5,0c0.2,0,0.4,0,0.5,0c0.1,0,0.2,0,0.3,0.1
			c0.1,0,0.1,0.1,0.2,0.1c0,0.1,0,0.1,0,0.2v1.9c0.4-0.5,0.7-0.9,1-1.3s0.6-0.6,0.9-0.8c0.3-0.2,0.6-0.3,0.8-0.4
			c0.3-0.1,0.6-0.1,0.8-0.1c0.1,0,0.3,0,0.4,0c0.2,0,0.3,0,0.5,0.1c0.2,0,0.3,0.1,0.5,0.1c0.1,0,0.2,0.1,0.3,0.1
			c0.1,0,0.1,0.1,0.1,0.1c0,0,0,0.1,0.1,0.2c0,0.1,0,0.2,0,0.3C1048.7,125.2,1048.7,125.4,1048.7,125.6z"/>
		<path class="st6" d="M1063.4,131.1c0,1.1-0.1,2-0.4,2.9c-0.3,0.9-0.7,1.7-1.2,2.3c-0.6,0.6-1.2,1.1-2.1,1.5
			c-0.8,0.4-1.8,0.5-2.9,0.5c-1.1,0-2-0.2-2.8-0.5c-0.8-0.3-1.5-0.8-2-1.4c-0.5-0.6-0.9-1.3-1.2-2.2c-0.3-0.9-0.4-1.8-0.4-2.9
			c0-1.1,0.1-2,0.4-2.9c0.3-0.9,0.7-1.7,1.2-2.3c0.6-0.6,1.2-1.1,2.1-1.5c0.8-0.4,1.8-0.5,2.9-0.5c1.1,0,2,0.2,2.8,0.5
			c0.8,0.3,1.5,0.8,2,1.4c0.5,0.6,0.9,1.3,1.2,2.2S1063.4,130,1063.4,131.1z M1060.9,131.3c0-0.7-0.1-1.4-0.2-2
			c-0.1-0.6-0.3-1.2-0.7-1.6c-0.3-0.5-0.7-0.8-1.2-1.1s-1.2-0.4-1.9-0.4c-0.7,0-1.3,0.1-1.8,0.4c-0.5,0.3-0.9,0.6-1.3,1.1
			c-0.3,0.5-0.6,1-0.7,1.6c-0.2,0.6-0.2,1.3-0.2,2.1c0,0.7,0.1,1.4,0.2,2c0.1,0.6,0.3,1.2,0.7,1.6c0.3,0.5,0.7,0.8,1.2,1.1
			c0.5,0.3,1.2,0.4,1.9,0.4c0.7,0,1.3-0.1,1.8-0.4c0.5-0.2,0.9-0.6,1.3-1.1c0.3-0.4,0.6-1,0.7-1.6
			C1060.8,132.7,1060.9,132,1060.9,131.3z"/>
		<path class="st6" d="M1078.7,131.1c0,1.1-0.1,2.2-0.4,3.1s-0.6,1.7-1.1,2.3c-0.5,0.6-1.1,1.1-1.8,1.5s-1.5,0.5-2.4,0.5
			c-0.4,0-0.7,0-1.1-0.1c-0.3-0.1-0.6-0.2-1-0.4c-0.3-0.2-0.6-0.4-0.9-0.6c-0.3-0.2-0.6-0.5-1-0.9v6.5c0,0.1,0,0.1-0.1,0.2
			c0,0.1-0.1,0.1-0.2,0.1c-0.1,0-0.2,0.1-0.4,0.1c-0.2,0-0.4,0-0.6,0c-0.2,0-0.4,0-0.6,0c-0.2,0-0.3,0-0.4-0.1
			c-0.1,0-0.2-0.1-0.2-0.1c0-0.1,0-0.1,0-0.2v-18.2c0-0.1,0-0.2,0-0.2c0-0.1,0.1-0.1,0.2-0.1c0.1,0,0.2-0.1,0.3-0.1
			c0.1,0,0.3,0,0.5,0c0.2,0,0.4,0,0.5,0c0.1,0,0.2,0,0.3,0.1c0.1,0,0.1,0.1,0.2,0.1c0,0.1,0,0.1,0,0.2v1.7c0.4-0.4,0.8-0.8,1.1-1.1
			c0.4-0.3,0.7-0.5,1.1-0.7c0.4-0.2,0.7-0.3,1.1-0.4c0.4-0.1,0.8-0.2,1.2-0.2c0.9,0,1.7,0.2,2.4,0.5c0.7,0.4,1.2,0.9,1.6,1.5
			c0.4,0.6,0.7,1.4,0.9,2.2C1078.6,129.2,1078.7,130.1,1078.7,131.1z M1076.2,131.3c0-0.7-0.1-1.3-0.2-1.9c-0.1-0.6-0.3-1.2-0.5-1.7
			c-0.2-0.5-0.6-0.9-1-1.2c-0.4-0.3-0.9-0.4-1.6-0.4c-0.3,0-0.6,0-0.9,0.1c-0.3,0.1-0.6,0.2-0.9,0.4c-0.3,0.2-0.6,0.5-1,0.8
			c-0.3,0.3-0.7,0.7-1.1,1.2v5.2c0.7,0.8,1.3,1.4,1.9,1.8c0.6,0.4,1.2,0.6,1.9,0.6c0.6,0,1.1-0.1,1.5-0.4c0.4-0.3,0.8-0.7,1-1.2
			c0.3-0.5,0.5-1,0.6-1.6C1076.2,132.5,1076.2,131.9,1076.2,131.3z"/>
		<path class="st6" d="M1093.3,130.7c0,0.4-0.1,0.6-0.3,0.8c-0.2,0.2-0.4,0.2-0.6,0.2h-8.6c0,0.7,0.1,1.4,0.2,2
			c0.1,0.6,0.4,1.1,0.7,1.5c0.3,0.4,0.8,0.7,1.3,1c0.5,0.2,1.2,0.3,2,0.3c0.6,0,1.2,0,1.7-0.2c0.5-0.1,0.9-0.2,1.3-0.3
			c0.4-0.1,0.6-0.2,0.9-0.3c0.2-0.1,0.4-0.2,0.5-0.2c0.1,0,0.1,0,0.2,0c0.1,0,0.1,0.1,0.1,0.2c0,0.1,0.1,0.2,0.1,0.3
			c0,0.1,0,0.3,0,0.4c0,0.1,0,0.2,0,0.3c0,0.1,0,0.2,0,0.2c0,0.1,0,0.1-0.1,0.2c0,0.1-0.1,0.1-0.1,0.2c-0.1,0.1-0.2,0.1-0.5,0.3
			c-0.3,0.1-0.6,0.2-1,0.4c-0.4,0.1-0.9,0.2-1.4,0.3c-0.5,0.1-1.1,0.1-1.7,0.1c-1.1,0-2-0.1-2.8-0.4c-0.8-0.3-1.5-0.7-2-1.3
			c-0.5-0.6-1-1.3-1.2-2.2c-0.3-0.9-0.4-1.9-0.4-3.1c0-1.1,0.1-2.1,0.4-3c0.3-0.9,0.7-1.6,1.2-2.3c0.5-0.6,1.2-1.1,2-1.4
			c0.8-0.3,1.6-0.5,2.6-0.5c1,0,1.9,0.2,2.6,0.5c0.7,0.3,1.3,0.8,1.8,1.3c0.5,0.6,0.8,1.2,1,1.9c0.2,0.7,0.3,1.5,0.3,2.4V130.7z
			 M1090.9,130c0-1.3-0.2-2.2-0.8-2.9c-0.6-0.7-1.5-1.1-2.6-1.1c-0.6,0-1.1,0.1-1.6,0.3c-0.4,0.2-0.8,0.5-1.1,0.9
			c-0.3,0.4-0.5,0.8-0.7,1.3c-0.2,0.5-0.3,1-0.3,1.5H1090.9z"/>
		<path class="st6" d="M1106.6,137.8c0,0.1,0,0.2-0.1,0.3c-0.1,0.1-0.2,0.1-0.3,0.1c-0.1,0-0.3,0-0.6,0c-0.2,0-0.5,0-0.6,0
			c-0.1,0-0.3-0.1-0.3-0.1c-0.1-0.1-0.1-0.1-0.1-0.3v-1.3c-0.6,0.6-1.2,1.1-1.9,1.4c-0.7,0.3-1.4,0.5-2.2,0.5
			c-0.7,0-1.3-0.1-1.9-0.3c-0.6-0.2-1-0.4-1.4-0.8c-0.4-0.3-0.7-0.8-0.9-1.2c-0.2-0.5-0.3-1-0.3-1.7c0-0.7,0.1-1.4,0.4-1.9
			c0.3-0.5,0.7-1,1.3-1.3c0.6-0.4,1.2-0.6,2-0.8c0.8-0.2,1.7-0.3,2.7-0.3h1.8v-1c0-0.5-0.1-0.9-0.2-1.3c-0.1-0.4-0.3-0.7-0.5-1
			c-0.2-0.3-0.5-0.4-0.9-0.6c-0.4-0.1-0.8-0.2-1.4-0.2c-0.6,0-1.1,0.1-1.6,0.2c-0.5,0.1-0.9,0.3-1.2,0.5c-0.4,0.2-0.6,0.3-0.9,0.5
			c-0.2,0.1-0.4,0.2-0.5,0.2c-0.1,0-0.1,0-0.2-0.1c-0.1,0-0.1-0.1-0.2-0.2c0-0.1-0.1-0.2-0.1-0.3c0-0.1,0-0.3,0-0.4
			c0-0.2,0-0.4,0.1-0.6c0-0.1,0.1-0.3,0.2-0.4s0.4-0.3,0.7-0.4c0.3-0.2,0.7-0.3,1.1-0.5c0.4-0.1,0.9-0.3,1.4-0.3
			c0.5-0.1,1-0.1,1.5-0.1c0.9,0,1.7,0.1,2.4,0.3c0.7,0.2,1.2,0.5,1.6,0.9c0.4,0.4,0.7,0.9,0.9,1.5c0.2,0.6,0.3,1.3,0.3,2.1V137.8z
			 M1104.2,131.8h-2c-0.7,0-1.2,0.1-1.7,0.2c-0.5,0.1-0.9,0.3-1.2,0.5s-0.6,0.5-0.7,0.8c-0.1,0.3-0.2,0.7-0.2,1
			c0,0.7,0.2,1.2,0.6,1.6c0.4,0.4,1,0.6,1.8,0.6c0.6,0,1.2-0.2,1.7-0.5c0.5-0.3,1.1-0.8,1.7-1.5V131.8z"/>
		<path class="st6" d="M1122,137.8c0,0.1,0,0.1-0.1,0.2s-0.1,0.1-0.2,0.1c-0.1,0-0.2,0.1-0.4,0.1c-0.2,0-0.3,0-0.6,0
			c-0.2,0-0.4,0-0.6,0c-0.2,0-0.3,0-0.4-0.1c-0.1,0-0.2-0.1-0.2-0.1c0-0.1-0.1-0.1-0.1-0.2v-7.6c0-0.7-0.1-1.3-0.2-1.8
			c-0.1-0.5-0.3-0.8-0.5-1.2c-0.2-0.3-0.5-0.6-0.9-0.7c-0.4-0.2-0.8-0.3-1.2-0.3c-0.6,0-1.2,0.2-1.8,0.6c-0.6,0.4-1.2,1-1.9,1.9v9.1
			c0,0.1,0,0.1-0.1,0.2c0,0.1-0.1,0.1-0.2,0.1c-0.1,0-0.2,0.1-0.4,0.1c-0.2,0-0.4,0-0.6,0c-0.2,0-0.4,0-0.6,0c-0.2,0-0.3,0-0.4-0.1
			c-0.1,0-0.2-0.1-0.2-0.1c0-0.1-0.1-0.1-0.1-0.2v-13c0-0.1,0-0.1,0-0.2c0-0.1,0.1-0.1,0.2-0.1c0.1,0,0.2-0.1,0.3-0.1
			c0.1,0,0.3,0,0.5,0c0.2,0,0.4,0,0.5,0c0.1,0,0.2,0,0.3,0.1c0.1,0,0.1,0.1,0.2,0.1c0,0.1,0.1,0.1,0.1,0.2v1.7
			c0.7-0.8,1.5-1.4,2.2-1.8c0.7-0.4,1.5-0.6,2.2-0.6c0.9,0,1.6,0.1,2.2,0.4c0.6,0.3,1.1,0.7,1.4,1.2c0.4,0.5,0.6,1.1,0.8,1.7
			c0.2,0.7,0.2,1.5,0.2,2.4V137.8z"/>
		<path class="st6" d="M1147.1,131.2c0,1.1-0.2,2.2-0.5,3c-0.3,0.9-0.8,1.6-1.4,2.3s-1.4,1.1-2.3,1.4c-0.9,0.3-1.9,0.5-3,0.5
			c-1,0-2-0.1-2.8-0.4c-0.8-0.3-1.6-0.7-2.2-1.3c-0.6-0.6-1.1-1.3-1.4-2.2c-0.3-0.9-0.5-1.9-0.5-3v-11.6c0-0.1,0-0.1,0.1-0.2
			c0-0.1,0.1-0.1,0.2-0.1c0.1,0,0.2-0.1,0.4-0.1c0.2,0,0.4,0,0.6,0c0.2,0,0.4,0,0.6,0c0.2,0,0.3,0.1,0.4,0.1c0.1,0,0.2,0.1,0.2,0.1
			c0,0.1,0.1,0.1,0.1,0.2v11.3c0,0.9,0.1,1.6,0.3,2.3c0.2,0.6,0.5,1.2,0.9,1.6c0.4,0.4,0.9,0.8,1.4,1c0.6,0.2,1.2,0.3,1.9,0.3
			c0.7,0,1.4-0.1,1.9-0.3c0.6-0.2,1-0.5,1.4-1c0.4-0.4,0.7-0.9,0.9-1.6c0.2-0.6,0.3-1.4,0.3-2.2v-11.4c0-0.1,0-0.1,0.1-0.2
			c0-0.1,0.1-0.1,0.2-0.1c0.1,0,0.2-0.1,0.4-0.1c0.2,0,0.4,0,0.6,0c0.2,0,0.4,0,0.6,0c0.2,0,0.3,0.1,0.4,0.1c0.1,0,0.2,0.1,0.2,0.1
			c0,0.1,0.1,0.1,0.1,0.2V131.2z"/>
		<path class="st6" d="M1162.9,137.8c0,0.1,0,0.1-0.1,0.2c0,0.1-0.1,0.1-0.2,0.1c-0.1,0-0.2,0.1-0.4,0.1c-0.2,0-0.3,0-0.6,0
			c-0.2,0-0.4,0-0.6,0c-0.2,0-0.3,0-0.4-0.1c-0.1,0-0.1-0.1-0.2-0.1c0-0.1-0.1-0.1-0.1-0.2v-7.6c0-0.7-0.1-1.3-0.2-1.8
			c-0.1-0.5-0.3-0.8-0.5-1.2c-0.2-0.3-0.5-0.6-0.9-0.7c-0.4-0.2-0.8-0.3-1.2-0.3c-0.6,0-1.2,0.2-1.8,0.6c-0.6,0.4-1.2,1-1.9,1.9v9.1
			c0,0.1,0,0.1-0.1,0.2c0,0.1-0.1,0.1-0.2,0.1c-0.1,0-0.2,0.1-0.4,0.1c-0.2,0-0.4,0-0.6,0c-0.2,0-0.4,0-0.6,0c-0.2,0-0.3,0-0.4-0.1
			c-0.1,0-0.2-0.1-0.2-0.1c0-0.1,0-0.1,0-0.2v-13c0-0.1,0-0.1,0-0.2c0-0.1,0.1-0.1,0.2-0.1c0.1,0,0.2-0.1,0.3-0.1c0.1,0,0.3,0,0.5,0
			c0.2,0,0.4,0,0.5,0c0.1,0,0.2,0,0.3,0.1s0.1,0.1,0.2,0.1c0,0.1,0,0.1,0,0.2v1.7c0.7-0.8,1.5-1.4,2.2-1.8c0.7-0.4,1.5-0.6,2.2-0.6
			c0.9,0,1.6,0.1,2.2,0.4c0.6,0.3,1.1,0.7,1.4,1.2c0.4,0.5,0.6,1.1,0.8,1.7c0.2,0.7,0.2,1.5,0.2,2.4V137.8z"/>
		<path class="st6" d="M1169.7,120.4c0,0.6-0.1,0.9-0.3,1.1c-0.2,0.2-0.6,0.3-1.2,0.3c-0.6,0-0.9-0.1-1.1-0.3
			c-0.2-0.2-0.3-0.6-0.3-1.1c0-0.6,0.1-0.9,0.3-1.1c0.2-0.2,0.6-0.3,1.2-0.3c0.6,0,0.9,0.1,1.1,0.3
			C1169.6,119.5,1169.7,119.8,1169.7,120.4z M1169.5,137.8c0,0.1,0,0.1-0.1,0.2s-0.1,0.1-0.2,0.1c-0.1,0-0.2,0.1-0.4,0.1
			c-0.2,0-0.4,0-0.6,0c-0.2,0-0.4,0-0.6,0c-0.2,0-0.3,0-0.4-0.1c-0.1,0-0.2-0.1-0.2-0.1c0-0.1,0-0.1,0-0.2v-13c0-0.1,0-0.1,0-0.2
			c0-0.1,0.1-0.1,0.2-0.1c0.1,0,0.2-0.1,0.4-0.1c0.2,0,0.3,0,0.6,0c0.2,0,0.4,0,0.6,0c0.2,0,0.3,0,0.4,0.1c0.1,0,0.1,0.1,0.2,0.1
			c0,0.1,0.1,0.1,0.1,0.2V137.8z"/>
		<path class="st6" d="M1185.8,131.1c0,1.1-0.1,2-0.4,2.9c-0.3,0.9-0.7,1.7-1.2,2.3c-0.6,0.6-1.2,1.1-2.1,1.5
			c-0.8,0.4-1.8,0.5-2.9,0.5c-1.1,0-2-0.2-2.8-0.5c-0.8-0.3-1.5-0.8-2-1.4c-0.5-0.6-0.9-1.3-1.2-2.2c-0.3-0.9-0.4-1.8-0.4-2.9
			c0-1.1,0.1-2,0.4-2.9c0.3-0.9,0.7-1.7,1.2-2.3c0.6-0.6,1.2-1.1,2.1-1.5c0.8-0.4,1.8-0.5,2.9-0.5c1.1,0,2,0.2,2.8,0.5
			c0.8,0.3,1.5,0.8,2,1.4c0.5,0.6,0.9,1.3,1.2,2.2C1185.7,129.1,1185.8,130,1185.8,131.1z M1183.4,131.3c0-0.7-0.1-1.4-0.2-2
			c-0.1-0.6-0.3-1.2-0.6-1.6c-0.3-0.5-0.7-0.8-1.2-1.1s-1.2-0.4-1.9-0.4c-0.7,0-1.3,0.1-1.8,0.4c-0.5,0.3-0.9,0.6-1.3,1.1
			c-0.3,0.5-0.6,1-0.7,1.6c-0.2,0.6-0.2,1.3-0.2,2.1c0,0.7,0.1,1.4,0.2,2c0.1,0.6,0.4,1.2,0.7,1.6c0.3,0.5,0.7,0.8,1.2,1.1
			c0.5,0.3,1.2,0.4,1.9,0.4c0.7,0,1.3-0.1,1.8-0.4c0.5-0.2,0.9-0.6,1.3-1.1c0.3-0.4,0.6-1,0.7-1.6
			C1183.3,132.7,1183.4,132,1183.4,131.3z"/>
		<path class="st6" d="M1200.4,137.8c0,0.1,0,0.1-0.1,0.2c0,0.1-0.1,0.1-0.2,0.1c-0.1,0-0.2,0.1-0.4,0.1c-0.2,0-0.3,0-0.6,0
			c-0.2,0-0.4,0-0.6,0c-0.2,0-0.3,0-0.4-0.1c-0.1,0-0.2-0.1-0.2-0.1s-0.1-0.1-0.1-0.2v-7.6c0-0.7-0.1-1.3-0.2-1.8
			c-0.1-0.5-0.3-0.8-0.5-1.2c-0.2-0.3-0.5-0.6-0.9-0.7c-0.4-0.2-0.8-0.3-1.2-0.3c-0.6,0-1.2,0.2-1.8,0.6c-0.6,0.4-1.2,1-1.9,1.9v9.1
			c0,0.1,0,0.1-0.1,0.2c0,0.1-0.1,0.1-0.2,0.1c-0.1,0-0.2,0.1-0.4,0.1c-0.2,0-0.4,0-0.6,0c-0.2,0-0.4,0-0.6,0c-0.2,0-0.3,0-0.4-0.1
			c-0.1,0-0.2-0.1-0.2-0.1c0-0.1-0.1-0.1-0.1-0.2v-13c0-0.1,0-0.1,0-0.2c0-0.1,0.1-0.1,0.2-0.1c0.1,0,0.2-0.1,0.3-0.1
			c0.1,0,0.3,0,0.5,0c0.2,0,0.4,0,0.5,0c0.1,0,0.2,0,0.3,0.1c0.1,0,0.1,0.1,0.2,0.1c0,0.1,0.1,0.1,0.1,0.2v1.7
			c0.7-0.8,1.5-1.4,2.2-1.8c0.7-0.4,1.5-0.6,2.2-0.6c0.9,0,1.6,0.1,2.2,0.4c0.6,0.3,1.1,0.7,1.4,1.2c0.4,0.5,0.6,1.1,0.8,1.7
			c0.2,0.7,0.2,1.5,0.2,2.4V137.8z"/>
	</g>
	<g>
		<rect x="811.7" y="52.9" class="st4" width="172.9" height="116.2"/>
		<path class="st6" d="M983.2,54.3v113.4H813.1V54.3H983.2 M986,51.5h-2.8H813.1h-2.8v2.8v113.4v2.8h2.8h170.1h2.8v-2.8V54.3V51.5
			L986,51.5z"/>
	</g>
	<polygon class="st5" points="894.5,79 898.1,76.4 901.7,79 900.4,74.8 904,72.2 899.5,72.2 898.1,67.9 896.8,72.2 892.3,72.2 
		895.9,74.8 	"/>
	<polygon class="st5" points="876,84 879.6,81.4 883.1,84 881.8,79.8 885.4,77.2 880.9,77.2 879.6,72.9 878.2,77.2 873.7,77.2 
		877.3,79.8 	"/>
	<polygon class="st5" points="866,86.5 864.6,90.8 860.1,90.8 863.7,93.4 862.4,97.6 866,95 869.6,97.6 868.2,93.4 871.8,90.8 
		867.3,90.8 	"/>
	<polygon class="st5" points="861,113.6 864.6,116.2 863.2,111.9 866.8,109.3 862.4,109.3 861,105 859.6,109.3 855.1,109.3 
		858.8,111.9 857.4,116.2 	"/>
	<polygon class="st5" points="867.3,127.9 866,123.6 864.6,127.9 860.1,127.9 863.7,130.5 862.4,134.8 866,132.2 869.6,134.8 
		868.2,130.5 871.8,127.9 	"/>
	<polygon class="st5" points="881,141.5 879.6,137.2 878.2,141.5 873.7,141.5 877.4,144.2 876,148.4 879.6,145.8 883.2,148.4 
		881.8,144.2 885.5,141.5 	"/>
	<polygon class="st5" points="899.5,146.5 898.1,142.2 896.8,146.5 892.3,146.5 895.9,149.1 894.5,153.3 898.1,150.7 901.7,153.3 
		900.4,149.1 904,146.5 	"/>
	<polygon class="st5" points="918.1,141.5 916.7,137.2 915.3,141.5 910.8,141.5 914.5,144.2 913.1,148.4 916.7,145.8 920.3,148.4 
		918.9,144.2 922.5,141.5 	"/>
	<polygon class="st5" points="931.7,127.9 930.3,123.6 928.9,127.9 924.4,127.9 928.1,130.5 926.7,134.8 930.3,132.2 933.9,134.8 
		932.5,130.5 936.2,127.9 	"/>
	<polygon class="st5" points="941.1,109.3 936.6,109.3 935.2,105 933.8,109.3 929.4,109.3 933,111.9 931.6,116.1 935.2,113.5 
		938.8,116.1 937.4,111.9 	"/>
	<polygon class="st5" points="926.7,97.6 930.3,94.9 933.9,97.6 932.5,93.3 936.2,90.7 931.7,90.7 930.3,86.4 928.9,90.7 
		924.4,90.7 928.1,93.3 	"/>
	<polygon class="st5" points="916.7,72.9 915.4,77.2 910.9,77.2 914.5,79.8 913.1,84 916.7,81.4 920.3,84 919,79.8 922.6,77.2 
		918.1,77.2 	"/>
</g>
<g>
	<g>
		<g>
			<rect x="116.2" y="82.6" class="st6" width="4.8" height="4.8"/>
			<rect x="116.2" y="92.1" class="st6" width="4.8" height="37.8"/>
			<path class="st7" d="M130.3,82.6h4.8v9.5h18.8v4.7h-18.8v23.6c0,2.6,2,4.8,4.7,4.8h14.1v4.7h-14.1c-4.9,0-9.5-4-9.5-9.5V96.8
				h-7.1v-4.7h7.1V82.6z"/>
			<path class="st6" d="M106.1,106.3H74.6c0.1-3.5,1-5.9,2.6-7.2c1.1-1,2.5-1.6,4.6-1.9c1.9-0.5,4.8-0.6,8.6-0.6
				c3.7,0,6.6,0.1,8.6,0.6c1.9,0.4,3.5,1,4.6,1.9C105.3,100.4,106.1,102.8,106.1,106.3 M74.6,111.1h36.9c0-4.2-0.2-7.3-0.7-9.4
				c-0.5-2-1.3-3.8-2.5-5.4c-1.6-1.8-3.5-3.1-6-3.7c-2.4-0.6-6.5-1-12-1c-5.6,0-9.6,0.4-12.1,1c-2.5,0.6-4.4,1.9-5.9,3.7
				c-1.3,1.6-2.2,3.4-2.5,5.4c-0.5,2-0.7,5.2-0.8,9.4c0.1,4.1,0.4,7.2,0.8,9.2c0.4,2,1.2,3.8,2.5,5.4c1.4,1.8,3.4,3.1,5.9,3.7
				c2.5,0.7,6.5,1,12.1,1c5.5,0,9.6-0.2,12-1c2.5-0.6,4.4-1.9,6-3.7c1-1.2,1.7-2.6,2.2-4.1h-5.6c-0.4,0.5-0.7,1-1.2,1.4
				c-1.1,0.8-2.6,1.6-4.6,1.9c-2,0.4-4.9,0.5-8.6,0.5c-3.8,0-6.7-0.1-8.6-0.5c-2-0.4-3.5-1.1-4.6-1.9c-1.4-1.2-2.3-3.2-2.5-6
				C74.6,115.1,74.6,113,74.6,111.1"/>
			<path class="st7" d="M111.5,196c46.9,0,85-38,85-84.9c0-47-38.1-85.1-85-85.1c-15.5,0-30,4.1-42.4,11.4l4.7,8.2
				c11.2-6.5,24-10.1,37.8-10.1c41.7,0,75.5,33.8,75.5,75.6c0,41.6-33.8,75.6-75.5,75.6S36,152.7,36,111.1h-9.5
				C26.5,158,64.6,196,111.5,196"/>
			<path class="st7" d="M111.5,177.2c24.5,0,45.8-13.3,57.2-33.1l-8.2-4.7c-9.8,16.9-28.1,28.3-49,28.3c-31.3,0-56.6-25.4-56.6-56.6
				c0-31.3,25.3-56.7,56.6-56.7c21,0,39.2,11.4,49,28.3l8.2-4.7c-11.4-19.8-32.7-33.1-57.2-33.1c-36.4,0-66.1,29.6-66.1,66.2
				C45.4,147.5,75.1,177.2,111.5,177.2"/>
			<path class="st6" d="M610.3,120.8h4.4v0.7c0,1.4,0.1,2.4,0.5,3c0.2,0.6,0.8,1.1,1.8,1.4c1.2,0.5,4.6,0.6,10.3,0.6
				c3.6,0,6,0,7.4-0.2c1.4-0.1,2.4-0.4,3-0.8c0.8-0.7,1.2-1.7,1.2-3c0-1.6-0.5-2.6-1.4-3.2c-1-0.5-2.9-0.8-5.4-0.8
				c-0.8,0-4.9,0-12-0.1c-1.9,0-3.4-0.1-4.6-0.5c-1.1-0.2-2-0.6-2.8-1.2c-1.4-1.1-2-2.9-2-5.5c0-2.8,0.8-4.7,2.6-6
				c0.8-0.6,2.4-1.1,4.4-1.3c2.2-0.4,5.2-0.5,9.1-0.5c4.4,0,7.7,0.2,9.7,0.7c2.2,0.5,3.7,1.3,4.7,2.6c0.5,0.5,0.7,1.2,1,1.8
				c0.1,0.7,0.1,1.8,0.1,3.4h-4.3c0-1.7-0.4-2.6-0.8-3.2c-0.6-0.5-1.7-1-3.4-1.2c-1.6-0.2-4-0.4-7.1-0.4c-5.6,0-9.1,0.4-10.3,1.2
				c-1,0.6-1.3,1.6-1.3,3c0,1.4,0.5,2.4,1.4,2.8c1.1,0.5,3.1,0.7,6.4,0.6c3,0,7.1,0.1,12,0.2c3,0.1,5.2,0.8,6.5,2
				c1.3,1.2,1.9,3.1,1.9,5.6c0,1.6-0.2,2.9-0.6,3.8c-0.5,1-1.2,1.8-2.3,2.4c-1,0.6-2.4,1-4.4,1.2c-2,0.2-5,0.4-8.9,0.4
				c-4.3,0-7.6-0.1-9.7-0.4c-2-0.4-3.6-0.7-4.6-1.4c-1-0.6-1.7-1.4-2-2.4c-0.5-1-0.6-2.3-0.6-4V120.8z M602.1,129.9h4.1V92.1h-4.1
				V129.9z M581.3,117.9c-3.4,0-5.8,0.1-7.1,0.2c-1.4,0.1-2.4,0.4-3,0.6c-1.1,0.7-1.6,1.9-1.6,3.6c0,1.7,0.6,2.9,1.9,3.5
				c1.1,0.5,4.6,0.7,10.6,0.7c4.4,0,7.4-0.2,8.8-0.8c1.4-0.6,2.2-1.7,2.2-3.5c0-1.7-0.7-2.8-2.4-3.4
				C589.1,118.3,586,117.9,581.3,117.9 M570.8,111.5h-4.3c-0.1-0.5-0.1-0.8-0.1-1.2c0-2.6,1.1-4.6,3.1-5.5c2-1.1,6-1.6,11.6-1.6
				c4.4,0,7.7,0.2,9.6,0.6c2,0.5,3.5,1.2,4.7,2.4c0.8,0.8,1.4,1.9,1.8,3.2c0.2,1.2,0.4,3.5,0.4,6.6v13.8h-4.1v-3.1h-0.2
				c-1,1.4-2.2,2.4-3.7,2.9c-1.4,0.4-4.1,0.6-8.2,0.6c-4.6,0-7.8-0.1-9.6-0.4c-1.8-0.2-3.1-0.7-4.1-1.3c-0.8-0.7-1.6-1.6-1.9-2.4
				c-0.4-1-0.5-2.3-0.5-4c0-1.9,0.2-3.5,0.8-4.7c0.5-1.1,1.4-1.8,2.8-2.4c1.3-0.6,4.7-1,9.7-1c5.4,0,9,0.2,10.7,0.6
				c1.6,0.2,2.9,1.1,3.8,2.3h0.4v-2.9c0-2.3-0.5-4-1.3-4.9c-0.7-1-1.8-1.6-3.4-1.8c-1.4-0.4-4-0.5-7.3-0.5c-4.6,0-7.4,0.2-8.8,0.7
				c-1.3,0.6-1.9,1.7-1.9,3.5V111.5z M557.3,97h4.1v-4.9h-4.1V97z M557.3,129.9h4.1v-26.3h-4.1V129.9z M526.4,129.9h4.1v-12.1
				c0-4.6,0.7-7.6,2.2-8.9c1.4-1.3,4.6-1.9,9.6-1.9c3.4,0,5.5,0.5,6.6,1.4c0.5,0.5,0.8,1.1,1,1.8c0.2,0.8,0.4,1.9,0.4,3.4v1.9h4.2
				v-2.8c0-3.5-0.8-5.9-2.6-7.4c-0.8-0.7-1.9-1.3-3.2-1.6c-1.2-0.2-3.2-0.5-5.8-0.5c-2.6,0-4.6,0.1-5.9,0.2
				c-1.3,0.2-2.3,0.5-3.1,0.8c-1.3,0.7-2.3,1.7-3,2.9h-0.2v-3.6h-4.1V129.9z M518,114.2c0-2.6-0.7-4.4-2-5.4c-1-0.7-2.2-1.2-3.7-1.4
				c-1.7-0.2-4-0.4-7.1-0.4c-2.6,0-4.8,0.1-6.1,0.4c-1.4,0.2-2.5,0.7-3.4,1.3c-1.3,1-2,2.9-2.3,5.5H518z M518.1,121.9h4.3
				c0,3.1-1.1,5.3-3.2,6.5c-2.2,1.3-5.9,1.9-11.2,1.9c-4.4,0-7.8-0.2-10.1-0.5c-2.3-0.4-4-1-5.2-1.8c-2.6-1.9-4-5.6-4-11.2
				c0-3.8,0.6-6.8,1.7-8.8c1.1-1.8,2.6-3.1,4.7-3.7c1.9-0.7,5.4-1.1,10.1-1.1c4.6,0,7.8,0.2,9.8,0.7c1.9,0.5,3.6,1.4,4.8,2.8
				c1,1.2,1.7,2.5,2,4.1c0.4,1.4,0.6,3.7,0.6,6.8h-29.3c0.1,3.4,0.7,5.5,1.9,6.7c0.8,0.8,2,1.4,3.8,1.8c1.7,0.2,4.6,0.4,8.5,0.4
				c3,0,5.2-0.1,6.5-0.4c1.4-0.2,2.4-0.8,3.1-1.6C517.6,124,518,123.2,518.1,121.9 M463,103.6h-6.5v3.6h6.5v12.7c0,2,0,3.6,0.2,4.7
				c0.2,1,0.6,1.9,1.2,2.6c0.7,1.1,1.9,1.8,3.6,2.3c1.6,0.5,3.7,0.7,6.6,0.7c2.8,0,4.9-0.2,6.5-0.7c1.4-0.6,2.6-1.3,3.5-2.5
				c0.5-0.8,0.8-1.7,1.1-2.8c0.1-1.1,0.2-2.5,0.2-4.6V118h-4.1v1.7c0,1.6-0.1,2.8-0.2,3.4c0,0.7-0.2,1.2-0.6,1.7
				c-0.5,0.7-1.1,1.2-1.9,1.4c-0.8,0.2-2.3,0.4-4.1,0.4c-2,0-3.6-0.1-4.6-0.4c-1.1-0.2-1.8-0.7-2.4-1.3c-0.4-0.6-0.6-1.2-0.7-1.7
				c-0.1-0.6-0.2-2.2-0.2-4.6v-11.4h18.4v-3.6h-18.4v-6.5H463V103.6z M438.4,117.9c-3.4,0-5.8,0.1-7.1,0.2c-1.4,0.1-2.4,0.4-2.9,0.6
				c-1.2,0.7-1.7,1.9-1.7,3.6c0,1.7,0.6,2.9,1.9,3.5c1.1,0.5,4.6,0.7,10.7,0.7c4.3,0,7.3-0.2,8.6-0.8c1.4-0.6,2.2-1.7,2.2-3.5
				c0-1.7-0.7-2.8-2.4-3.4C446.2,118.3,443.1,117.9,438.4,117.9 M427.8,111.5h-4.3c0-0.5-0.1-0.8-0.1-1.2c0-2.6,1.1-4.6,3.1-5.5
				c2-1.1,6-1.6,11.6-1.6c4.4,0,7.7,0.2,9.6,0.6c2,0.5,3.5,1.2,4.7,2.4c0.8,0.8,1.4,1.9,1.8,3.2c0.2,1.2,0.4,3.5,0.4,6.6v13.8h-4.1
				l0.1-3.1h-0.2c-1.1,1.4-2.3,2.4-3.7,2.9c-1.4,0.4-4.2,0.6-8.3,0.6c-4.6,0-7.8-0.1-9.6-0.4c-1.8-0.2-3.1-0.7-4.1-1.3
				c-0.8-0.7-1.6-1.6-1.9-2.4c-0.4-1-0.5-2.3-0.5-4c0-1.9,0.2-3.5,0.8-4.7c0.5-1.1,1.4-1.8,2.8-2.4c1.3-0.6,4.7-1,9.8-1
				c5.4,0,8.9,0.2,10.6,0.6c1.7,0.2,2.9,1.1,3.8,2.3h0.4v-2.9c0-2.3-0.5-4-1.3-4.9c-0.7-1-1.8-1.6-3.4-1.8c-1.4-0.4-4-0.5-7.3-0.5
				c-4.4,0-7.4,0.2-8.8,0.7c-1.3,0.6-1.9,1.7-1.9,3.5V111.5z M357.2,129.9h5V96.8h2.2l21.4,33.1h4.1L411,96.8h2.2v33.1h5V92.1H408
				l-20.2,32l-20.5-32h-10.1V129.9z M314.2,129.9h6.1l8-22.3h0.4l8.2,22.3h6.1l12.2-26.3h-4.8l-10.2,22.4h-0.4l-8-22.4h-6.6
				l-7.9,22.4h-0.4l-10.1-22.4h-4.7L314.2,129.9z M285.1,117.9c-3.4,0-5.8,0.1-7.2,0.2c-1.3,0.1-2.3,0.4-2.9,0.6
				c-1.1,0.7-1.7,1.9-1.7,3.6c0,1.7,0.7,2.9,2,3.5c1,0.5,4.6,0.7,10.6,0.7c4.4,0,7.3-0.2,8.8-0.8c1.4-0.6,2.2-1.7,2.2-3.5
				c0-1.7-0.8-2.8-2.4-3.4C292.9,118.3,289.8,117.9,285.1,117.9 M274.4,111.5h-4.3v-1.2c0-2.6,1-4.6,3.1-5.5c2-1.1,5.9-1.6,11.6-1.6
				c4.4,0,7.7,0.2,9.6,0.6c1.9,0.5,3.5,1.2,4.6,2.4c1,0.8,1.6,1.9,1.8,3.2c0.4,1.2,0.5,3.5,0.5,6.6v13.8h-4.2l0.1-3.1H297
				c-1,1.4-2.3,2.4-3.7,2.9c-1.4,0.4-4.2,0.6-8.2,0.6c-4.7,0-7.8-0.1-9.6-0.4c-1.8-0.2-3.1-0.7-4.1-1.3c-1-0.7-1.6-1.6-1.9-2.4
				c-0.4-1-0.6-2.3-0.6-4c0-1.9,0.4-3.5,0.8-4.7c0.6-1.1,1.4-1.8,2.8-2.4c1.4-0.6,4.7-1,9.8-1c5.4,0,8.9,0.2,10.6,0.6
				c1.7,0.2,3,1.1,3.8,2.3h0.4v-2.9c0-2.3-0.4-4-1.2-4.9c-0.7-1-1.9-1.6-3.4-1.8c-1.6-0.4-4-0.5-7.4-0.5c-4.4,0-7.3,0.2-8.6,0.7
				c-1.3,0.6-2,1.7-2,3.5V111.5z M227.4,110.9h18.5c4.9,0,8-0.1,9.5-0.2c1.3-0.1,2.5-0.5,3.4-1c1.3-0.8,1.9-3,1.9-6.4
				c0-2.8-0.6-4.7-1.8-5.5c-0.7-0.5-1.9-0.8-3.6-1.1c-1.7-0.1-4.8-0.2-9.4-0.2h-18.5V110.9z M222.3,129.9V92.1h23.5
				c6.4,0.1,10.4,0.2,12.2,0.5c3.1,0.4,5.3,1.8,6.5,4.2c0.8,1.6,1.2,3.8,1.2,6.7c0,2.2-0.1,3.8-0.4,5c-0.2,1.1-0.6,2-1.3,2.6
				c-1,1.1-2.4,1.9-4.6,2.4c1.7,0.2,2.9,0.8,3.8,1.8c0.7,0.8,1.2,1.7,1.4,2.8c0.2,1.1,0.4,3.2,0.4,6.4v5.4h-5v-3.6
				c0-3.1-0.1-5.3-0.2-6.4c-0.4-2.4-1.7-3.8-4.1-4.3c-1-0.1-1.8-0.1-2.5-0.1c-0.7-0.1-3.1-0.1-7.4-0.1h-18.5v14.5H222.3z"/>
		</g>
	</g>
	<path class="st6" d="M440.1,144.9h-5.3L422,167.7h4.6l2.6-4.6h16.8l2.6,4.6h4.5l-12.7-22.5L440.1,144.9z M437.8,148.6l6.1,10.9
		h-12.8l6.2-10.9H437.8z"/>
	<path class="st6" d="M477,159.7c0,0.4,0,0.9,0,1c0,2.6-0.4,2.8-2.3,3.1c-0.8,0.1-4.6,0.3-6.5,0.3c-2.8,0-5.6-0.1-7-0.3
		c-1.5-0.1-2.1-0.6-2.3-2c-0.1-1.1-0.3-4.5-0.3-6.3c0-4.3,0.5-5.7,1-6.1c1-0.8,5.5-0.9,8.9-0.9c5,0,6.7,0.4,7.2,0.6
		c0.8,0.3,1.1,0.7,1.1,2.7v1.3h3.8l0-0.6c0-2.6-0.1-2.9-0.3-3.9c-0.3-1.6-1.8-2.9-3.6-3.3c-1.7-0.4-4.4-0.6-8.1-0.6
		c-1.9,0-4.9,0.1-6.3,0.2c-3.2,0.2-4.4,0.5-5.5,1.4c-1.6,1.3-2.2,4-2.2,10.2c0,5.4,0.5,7.9,1.9,9.2c1.6,1.5,3.9,1.9,12.6,1.9
		c6.8,0,9-0.3,10.4-1.7c1.2-1.2,1.3-2.2,1.5-6.3l0-0.6h-3.9L477,159.7z"/>
	<path class="st6" d="M500.7,144.9h-5.3l-12.9,22.7h4.6l2.6-4.6h16.8l2.6,4.6h4.5l-12.7-22.5L500.7,144.9z M498.4,148.6l6.1,10.9
		h-12.8l6.2-10.9H498.4z"/>
	<path class="st6" d="M531.9,144.9h-15.5v22.7h15.7c6.2,0,8-0.4,9.7-1.9c1.7-1.6,2.5-4.5,2.5-9.5c0-5.2-0.5-7.5-2-9.1
		C540.5,145.3,538.7,144.9,531.9,144.9z M540.2,156.1c0,4.9-0.8,7.1-2.8,7.6c-1.1,0.3-1.2,0.3-5.4,0.3h-11.6v-15.5h11.4
		c2.6,0,3.4,0,4.1,0.1c1.9,0.2,2.6,0.6,3.1,1.2C539.5,150.3,540.2,151.9,540.2,156.1z"/>
	<polygon class="st6" points="552.5,157.7 570,157.7 570,154.1 552.5,154.1 552.5,148.6 570.7,148.6 570.7,144.9 548.5,144.9 
		548.5,167.7 570.8,167.7 570.8,164 552.5,164 	"/>
	<polygon class="st6" points="592.5,162.8 581,144.9 574.4,144.9 574.4,167.7 578.4,167.7 578.4,148.7 578.8,148.7 591,167.7 
		593.9,167.7 606,148.7 606.3,148.7 606.3,167.7 610.3,167.7 610.3,144.9 603.7,144.9 	"/>
	<polygon class="st6" points="638.4,144.9 628.5,155.1 618.3,144.9 612.8,144.9 626.5,158.5 626.5,167.7 630.5,167.7 630.5,158.5 
		644,144.9 	"/>
</g>
</svg>
