<?xml version="1.0" encoding="UTF-8" standalone="no"?><!DOCTYPE svg PUBLIC "-//W3C//DTD SVG 1.1//EN" "http://www.w3.org/Graphics/SVG/1.1/DTD/svg11.dtd"><svg width="100%" height="100%" viewBox="0 0 1150 617" version="1.1" xmlns="http://www.w3.org/2000/svg" xmlns:xlink="http://www.w3.org/1999/xlink" xml:space="preserve" xmlns:serif="http://www.serif.com/" style="fill-rule:evenodd;clip-rule:evenodd;stroke-linejoin:round;stroke-miterlimit:2;"><rect x="0" y="-0" width="1150" height="616.667" style="fill:#fff;"/><g><rect x="95.833" y="-170.833" width="958.333" height="958.333" style="fill:#fff;fill-opacity:0;"/><path d="M304.214,469.413l2.6,-2.6c1.303,-0 7.811,-2.601 11.281,4.34c3.908,7.368 9.978,19.091 9.978,19.091l2.601,-4.34l-1.303,-1.74c0,0 -4.34,-7.806 -8.243,-15.189c-2.173,-3.902 -7.811,-3.465 -9.113,-3.465l1.302,-1.74c3.471,-0 9.979,-0.865 12.146,3.038c2.173,3.465 7.378,13.011 7.378,13.011c0,-0 5.206,-9.974 6.076,-11.709c0.87,-2.167 3.903,-5.205 11.713,-5.205l2.173,1.73c-3.038,0.438 -7.373,1.313 -9.546,4.778c-1.735,3.903 -18.226,39.048 -18.226,39.048c-3.908,7.815 -9.546,8.681 -19.092,10.848c-2.6,0.438 -3.903,-0.865 -5.638,-1.302l0.433,-1.303c18.654,-2.6 19.091,-6.94 24.729,-19.519c-2.6,-6.08 -8.675,-18.226 -10.843,-22.567c-2.163,-4.768 -4.768,-5.643 -10.406,-5.205Z" style="fill:#236bb3;"/><path d="M326.776,511.936c2.6,-3.475 16.486,-34.713 16.486,-34.713c4.34,-8.243 4.34,-10.848 9.978,-10.848l4.773,0l2.173,2.178c-9.546,-0.438 -9.978,5.205 -20.394,27.334c3.47,7.368 5.205,9.974 7.81,13.011c2.601,3.038 1.303,3.476 17.357,7.378l-3.038,2.601c-1.735,-0 -3.47,-0.438 -5.205,-0.875c-2.912,-0.951 -5.805,-1.96 -8.676,-3.028c-2.6,-0.875 -3.908,-2.178 -5.21,-4.34c-0.866,-2.178 -5.206,-9.119 -5.206,-9.119l-1.302,3.913c4.34,9.546 6.508,12.146 20.394,14.751c-0.865,0.865 -1.736,2.168 -3.903,2.168c-2.168,-0 -4.773,-0.428 -6.513,-0.865c-4.336,-1.74 -8.676,-2.6 -13.449,-9.983c-4.34,5.205 -3.908,4.777 -5.643,6.08c-1.302,1.303 -3.032,3.038 -5.638,3.903c-2.605,0.865 -7.81,1.74 -8.68,1.74c-1.303,0 -5.638,-1.74 -5.638,-1.74c4.773,-1.303 9.113,-2.178 11.281,-2.6c2.167,-0.875 5.205,-3.043 8.243,-6.946Zm5.638,-323.685c-19.524,-0 -32.973,1.302 -49.027,7.81l49.027,-7.81Zm3.47,-0l-5.638,-0l5.638,-0Zm-3.47,-15.621c-19.524,-0 -36.448,1.735 -52.502,8.675l52.502,-8.675Zm3.47,-0l-5.638,-0l5.638,-0Zm-54.232,20.826c2.6,0 5.206,-2.172 5.206,-5.205c-0,-2.6 -2.601,-4.773 -5.206,-4.773c-3.037,-0 -5.205,2.173 -5.205,4.773c-0.005,3.038 2.163,5.205 5.205,5.205Zm20.389,-7.373c1.735,0 3.038,-1.735 3.038,-3.47c0,-1.735 -1.303,-3.038 -3.038,-3.038c-2.172,0 -3.47,1.303 -3.47,3.038c0,1.735 1.303,3.47 3.47,3.47Zm11.719,-1.735c1.735,0 3.037,-1.303 3.037,-3.47c0.001,-0.024 0.001,-0.047 0.001,-0.071c0,-1.628 -1.34,-2.968 -2.968,-2.968c-0.023,0 -0.047,0 -0.07,0.001c-2.173,-0 -3.471,1.303 -3.471,3.038c-0.004,2.167 1.298,3.47 3.471,3.47Zm19.086,-8.243l-7.378,4.335l7.378,3.908l0,-8.243Zm0.438,12.146c19.524,-0 33.41,1.302 49.031,7.81l-49.031,-7.81Zm-3.47,-0l6.07,-0l-6.07,-0Zm3.47,-15.621c19.524,-0 36.448,1.735 52.501,8.675l-52.501,-8.675Zm-3.47,-0l6.07,-0l-6.07,-0Zm54.231,20.826c-2.6,0 -5.205,-2.172 -5.205,-5.205c-0,-2.6 2.6,-4.773 5.205,-4.773c3.038,-0 5.206,2.173 5.206,4.773c0.005,3.038 -2.168,5.205 -5.206,5.205Zm-19.956,-7.373c-2.168,0 -3.471,-1.735 -3.471,-3.47c0,-1.735 1.303,-3.038 3.471,-3.038c1.74,0 3.037,1.303 3.037,3.038c0,1.735 -1.302,3.47 -3.037,3.47Zm-11.714,-1.735c-2.172,0 -3.47,-1.303 -3.47,-3.47c0,-1.735 1.303,-3.038 3.47,-3.038c1.735,-0 3.038,1.303 3.038,3.038c-0.005,2.167 -1.303,3.47 -3.038,3.47Zm-19.529,-8.243l7.378,4.335l-7.378,3.908l0,-8.243Z" style="fill:#236bb3;"/><path d="M279.047,181.743c-0.432,-2.173 -1.303,-2.6 -3.47,-4.773c-2.173,-2.168 -15.189,-10.848 -16.054,-11.713c-0.865,-0.433 -3.038,-1.741 -4.773,-1.741l-0.432,-0.432c1.735,-1.303 4.34,-3.47 8.243,-1.735c2.167,1.302 3.903,1.735 6.508,0.432c3.037,-1.302 8.243,-1.74 8.243,4.773c-0,3.033 -0.433,2.6 -0,4.34c0.87,2.168 5.205,3.471 8.243,2.601c3.908,-0.865 7.811,-3.908 9.546,-9.114c1.74,-4.772 4.773,-6.075 8.68,-0.432c3.908,5.643 19.092,5.205 22.562,-0c1.735,-3.47 4.341,-6.508 6.508,-6.508l-53.804,24.302Z" style="fill:#236bb3;"/><path d="M259.085,160.916c-1.74,1.303 -1.74,2.173 0,4.341c-2.605,-1.741 -4.34,-2.173 -4.34,-2.173c2.173,-1.298 4.34,-2.168 4.34,-2.168Zm147.522,0c1.735,1.303 2.173,2.173 0,4.341c2.605,-1.741 4.34,-2.173 4.34,-2.173c-2.167,-1.298 -4.34,-2.168 -4.34,-2.168Zm-150.127,-2.6c3.038,-0 5.206,-2.173 5.206,-5.205c-0,-2.606 -2.173,-5.206 -5.206,-5.206c-2.6,0 -5.205,2.6 -5.205,5.206c-0,3.032 2.605,5.205 5.205,5.205Zm3.908,-12.588c2.173,-0 3.903,-1.736 3.903,-4.336c-0,-2.173 -1.735,-4.34 -3.903,-4.34c-2.378,0.008 -4.332,1.962 -4.34,4.34c0.005,2.605 1.74,4.336 4.34,4.336Zm32.978,-2.168c2.6,-0 4.335,-1.735 4.335,-4.341c0,-2.172 -1.735,-3.907 -4.335,-3.907c-0.007,-0 -0.014,-0 -0.02,-0c-2.133,-0 -3.888,1.755 -3.888,3.888c-0,0.006 -0,0.013 -0,0.019c-0,2.606 1.735,4.341 3.908,4.341Zm-27.335,-6.071c2.168,0 3.903,-2.172 3.903,-4.34c-0,-2.168 -1.735,-4.34 -3.903,-4.34c-2.379,0.005 -4.335,1.961 -4.34,4.34c-0,2.168 1.735,4.34 4.34,4.34Zm8.243,-6.945c1.735,-0 3.47,-1.735 3.47,-3.908c0,-1.735 -1.735,-3.47 -3.47,-3.47c-0.017,-0.001 -0.033,-0.001 -0.05,-0.001c-1.876,0 -3.42,1.544 -3.42,3.421c-0,0.017 -0,0.033 -0,0.05c-0.005,2.173 1.302,3.908 3.47,3.908Zm8.243,-4.336c0.024,0.001 0.047,0.001 0.071,0.001c1.628,0 2.968,-1.34 2.968,-2.968c-0,-0.023 -0,-0.047 -0.001,-0.07c0,-1.735 -1.303,-3.471 -3.038,-3.471c-0.016,0 -0.033,0 -0.05,0c-1.876,0 -3.42,1.544 -3.42,3.421c-0,0.016 -0,0.033 0,0.05c0,1.73 1.298,3.037 3.47,3.037Zm12.584,5.638c2.172,0 3.47,-1.735 3.47,-3.907c0,-0.017 0,-0.034 0,-0.05c0,-1.877 -1.544,-3.421 -3.42,-3.421c-0.017,-0 -0.034,0 -0.05,0c-1.735,0 -3.47,1.74 -3.47,3.471c-0.005,2.172 1.735,3.907 3.47,3.907Zm5.638,-9.113c2.172,0 3.47,-1.74 3.47,-3.908c0,-0.016 0,-0.033 0,-0.05c0,-1.876 -1.544,-3.42 -3.42,-3.42c-0.017,-0 -0.034,-0 -0.05,0c-1.735,0 -3.471,1.735 -3.471,3.47c0,2.173 1.736,3.908 3.471,3.908Zm7.81,-6.94c1.736,-0 3.038,-1.303 3.038,-3.038c0,-1.735 -1.302,-3.47 -3.038,-3.47c-2.167,-0 -3.47,1.735 -3.47,3.47c0,1.735 1.303,3.038 3.47,3.038Zm24.297,25.599c2.378,-0.008 4.332,-1.962 4.341,-4.34c-0,-2.6 -1.736,-4.341 -4.341,-4.341c-2.605,0 -4.34,1.741 -4.34,4.341c-0,2.172 1.74,4.34 4.34,4.34Z" style="fill:#236bb3;"/><path d="M289.025,126.208c3.908,-10.415 13.016,-13.886 18.227,-16.486l-0,-0.87c-4.341,0 -16.487,7.378 -22.129,16.486c-0.438,0.87 -0.438,2.173 -0.438,2.173l3.47,0.865l0.87,-2.168Z" style="fill:#236bb3;"/><path d="M263.426,161.786c-1.303,-18.226 6.508,-29.507 21.697,-34.28l-21.697,34.28Zm25.599,-6.508c-4.773,-7.378 -4.773,-17.356 -2.172,-27.767l2.172,27.767Zm35.146,-5.643c-0.87,-7.81 -2.606,-28.199 4.335,-37.313l-4.335,37.313Zm8.675,-75.496l-3.47,0l-0,9.109l-7.373,-0.433l-0,7.373l7.373,0l-0,6.946l3.47,-22.995Zm0,39.048c4.341,0 8.243,-3.907 8.243,-8.243c0,-4.34 -3.907,-8.243 -8.243,-8.243c-4.34,0 -8.243,3.903 -8.243,8.243c0,4.341 3.903,8.243 8.243,8.243Z" style="fill:#236bb3;"/><path d="M305.079,150.938c-4.34,-20.394 -0.432,-35.583 21.259,-41.221l-21.259,41.221Z" style="fill:#236bb3;"/><path d="M318.96,112.322c3.038,0 5.211,-2.6 5.211,-5.205c-0,-2.6 -2.173,-5.205 -5.211,-5.205c-2.6,-0 -4.768,2.605 -4.768,5.205c0,2.6 2.168,5.205 4.768,5.205Zm13.886,19.087c2.173,-0 3.903,-1.735 3.903,-3.903c0,-2.168 -1.735,-3.903 -3.903,-3.903c-2.167,0 -3.908,1.735 -3.908,3.903c0,2.168 1.741,3.903 3.908,3.903Zm0,-9.108c1.735,-0 3.471,-1.303 3.471,-3.038c-0,-1.74 -1.736,-3.47 -3.471,-3.47c-1.735,-0 -3.032,1.735 -3.032,3.47c-0,1.735 1.297,3.038 3.032,3.038Zm75.934,33.842c-2.601,0 -5.206,-2.6 -5.206,-5.205c0,-3.038 2.601,-5.21 5.206,-5.21c3.037,-0 5.205,2.172 5.205,5.21c0,2.605 -2.168,5.205 -5.205,5.205Zm-32.978,9.546c-3.033,0 -5.205,-2.173 -5.205,-5.205c-0,-2.606 2.172,-5.206 5.205,-5.206c2.605,0 4.773,2.6 4.773,5.206c0,3.032 -2.168,5.205 -4.773,5.205Z" style="fill:#236bb3;"/><path d="M370.597,156.576c-3.038,-0 -5.206,-2.605 -5.206,-5.206c0,-3.037 2.168,-5.205 5.206,-5.205c2.6,0 4.773,2.173 4.773,5.205c-0,2.606 -2.168,5.206 -4.773,5.206Z" style="fill:#236bb3;"/><path d="M361.051,161.349c-3.038,-0 -5.205,-2.173 -5.205,-5.206c-0,-3.032 2.167,-5.205 5.205,-5.205c2.6,-0 5.205,2.168 5.205,5.205c0,3.038 -2.6,5.206 -5.205,5.206Zm43.821,-18.222c-2.6,0 -4.34,-1.735 -4.34,-3.903c-0,-2.605 1.735,-4.34 4.34,-4.34c2.173,0 3.908,1.735 3.908,4.34c-0,0.005 -0,0.01 -0,0.015c-0,2.133 -1.755,3.888 -3.888,3.888c-0.007,0 -0.013,0 -0.02,0Zm-32.54,0.433c-2.38,-0.003 -4.338,-1.961 -4.34,-4.341c-0,-2.172 2.167,-3.907 4.34,-3.907c2.168,-0 4.34,1.735 4.34,3.907c-0.005,2.379 -1.961,4.335 -4.34,4.341Zm26.032,-7.806c-2.379,-0.005 -4.335,-1.961 -4.34,-4.34c-0,-2.168 2.172,-3.903 4.34,-3.903c2.173,0 4.34,1.735 4.34,3.903c-0.005,2.379 -1.961,4.335 -4.34,4.34Zm-15.184,-9.113c-1.735,-0 -3.47,-1.303 -3.47,-3.033c-0,-1.74 1.735,-3.47 3.47,-3.47c1.735,-0 3.038,1.735 3.038,3.47c-0,1.73 -1.303,3.033 -3.038,3.033Zm-12.583,5.205c-2.173,0 -3.471,-1.735 -3.471,-3.907c0,-1.736 1.303,-3.471 3.471,-3.471c2.167,0 3.47,1.74 3.47,3.471c-0,2.172 -1.298,3.907 -3.47,3.907Zm-5.643,-9.113c-1.735,0 -3.47,-1.74 -3.47,-3.908c-0,-1.735 1.735,-3.47 3.47,-3.47c2.172,0 3.47,1.735 3.47,3.47c0.005,2.173 -1.298,3.908 -3.47,3.908Zm-7.373,-6.94c-2.173,-0 -3.471,-1.303 -3.471,-3.038c0,-1.735 1.303,-3.47 3.471,-3.47c1.735,-0 3.037,1.735 3.037,3.47c0,1.735 -1.302,3.038 -3.037,3.038Zm-24.735,36.443c-2.6,-0 -5.205,-2.168 -5.205,-4.768c-0,-3.038 2.605,-5.211 5.205,-5.211c3.038,0 5.206,2.173 5.206,5.211c0.005,2.6 -2.168,4.768 -5.206,4.768Z" style="fill:#236bb3;"/><path d="M376.672,126.208c-3.903,-10.415 -13.016,-13.886 -18.226,-16.486l-0,-0.87c4.34,0 16.924,7.378 22.562,16.486l-0,2.173l-3.471,0.865l-0.865,-2.168Z" style="fill:#236bb3;"/><path d="M402.704,161.786c0.87,-18.226 -6.94,-29.507 -21.696,-34.28l21.696,34.28Zm-26.032,-6.508c4.773,-7.378 5.206,-17.356 2.173,-27.767l-2.173,27.767Zm-35.145,-5.643c0.865,-7.81 2.6,-28.199 -4.34,-37.313l4.34,37.313Zm-8.681,-75.496l3.476,0l-0,9.109l7.373,-0.433l-0,7.373l-7.373,0l-0,6.946l-3.476,-22.995Zm27.772,76.799c4.341,-20.394 0.866,-35.583 -21.259,-41.221l21.259,41.221Z" style="fill:#236bb3;"/><path d="M346.732,112.322c-3.037,0 -5.205,-2.6 -5.205,-5.205c-0,-2.6 2.168,-5.205 5.205,-5.205c2.606,-0 4.773,2.605 4.773,5.205c0,2.6 -2.167,5.205 -4.773,5.205Zm-193.515,146.219c-0.865,-6.94 0.433,-10.411 7.811,-15.188c0.432,-5.638 3.038,-11.714 12.583,-10.411c3.908,-5.206 6.941,-8.681 16.054,-4.773l-36.448,30.372Z" style="fill:#236bb3;"/><path d="M159.293,282.406c-3.471,-4.341 -12.151,-16.487 3.032,-20.827c-3.902,-6.508 -2.172,-11.281 6.076,-12.151c-2.168,-7.373 -0.865,-10.848 9.113,-9.546c0.433,-6.075 5.206,-7.81 8.243,-6.508l-26.464,49.032Zm26.464,-49.032c3.471,1.303 5.638,5.206 1.303,10.849c6.075,6.508 1.302,8.243 -2.6,10.411c5.643,5.642 1.302,11.28 -4.341,13.016c6.941,3.47 6.513,16.486 -7.373,18.659l13.011,-52.935Zm3.476,-5.205c11.28,-16.054 22.129,-26.47 33.842,-36.448l-33.842,36.448Z" style="fill:#236bb3;"/><path d="M194.438,243.358c2.173,3.47 3.47,7.378 -1.735,12.151c2.6,7.373 0.432,9.113 -3.47,13.016c3.47,5.638 3.902,21.259 -11.286,22.561l16.491,-47.728Zm-53.372,93.722c-4.34,-5.215 -3.903,-9.983 1.303,-17.361c-1.735,-5.643 -1.735,-12.146 7.373,-14.752c1.303,-6.075 3.038,-10.848 12.583,-10.41l-21.259,42.523Z" style="fill:#236bb3;"/><path d="M156.687,356.171c-5.205,-2.6 -17.788,-10.42 -5.637,-20.394c-6.076,-4.34 -6.941,-9.545 0.432,-13.458c-5.205,-5.633 -5.205,-9.546 4.773,-12.574c-2.173,-5.643 1.303,-9.113 4.773,-9.113l-4.341,55.539Zm4.341,-55.539c3.47,-0.432 7.373,2.6 5.643,9.113c8.243,3.903 4.34,6.941 1.735,10.849c7.378,3.027 5.643,9.545 1.302,13.448c7.811,0.438 12.584,13.886 0,20.827l-8.68,-54.237Zm1.302,-6.075c3.908,-19.092 9.114,-33.41 16.054,-47.297l-16.054,47.297Z" style="fill:#236bb3;"/><path d="M172.741,306.27c3.471,2.168 6.076,5.201 3.471,12.146c5.637,5.205 4.34,7.816 2.172,13.021c5.206,3.903 12.579,16.914 -1.735,25.595l-3.908,-50.762Zm-11.281,107.608c-6.94,-2.177 -7.378,-7.378 -5.638,-16.058c-3.907,-4.341 -6.508,-10.411 1.303,-16.054c-1.303,-6.08 -1.303,-11.286 7.373,-14.751l-3.038,46.863Z" style="fill:#236bb3;"/><path d="M182.724,425.592c-8.68,0.437 -18.658,-2.168 -13.016,-16.054c-7.378,-1.74 -9.978,-6.08 -4.34,-12.583c-6.94,-3.476 -8.681,-6.941 -0.87,-13.449c-3.908,-4.34 -1.735,-8.681 1.303,-10.421l16.923,52.507Z" style="fill:#236bb3;"/><path d="M165.801,373.085c3.037,-1.73 7.81,-0.427 8.68,6.518c9.114,0.428 6.508,4.331 5.638,9.109c8.243,-0.438 9.984,3.037 6.076,10.41c9.113,-1.74 16.919,9.119 8.243,19.529l-28.637,-45.566Zm-1.303,-6.065c-3.47,-19.092 -5.205,-34.28 -4.34,-49.902l4.34,49.902Z" style="fill:#236bb3;"/><path d="M179.687,373.523c3.903,0.865 6.508,3.038 6.508,9.546c7.373,-0 8.675,3.902 7.373,10.848c9.978,0.865 16.486,13.448 8.681,24.734l-22.562,-45.128Zm16.054,-183.1c2.167,-6.508 4.772,-9.545 13.453,-10.415c3.033,-4.773 8.243,-9.114 16.054,-3.903c5.643,-2.605 9.983,-4.34 16.054,3.038l-45.561,11.28Z" style="fill:#236bb3;"/><path d="M191.4,215.585c-1.297,-5.637 -4.34,-21.259 11.281,-18.221c-0.865,-7.811 2.605,-11.713 10.416,-8.681c1.302,-7.378 5.205,-10.848 12.583,-4.34c3.038,-5.205 7.811,-4.773 10.411,-2.173l-44.691,33.415Zm44.686,-33.41c2.605,2.601 2.605,6.941 -3.47,9.979c2.173,8.675 -2.605,7.81 -7.378,8.243c3.038,7.81 -2.6,10.848 -8.243,9.546c4.34,6.508 0.865,17.788 -15.189,13.881l34.28,-41.649Z" style="fill:#236bb3;"/><path d="M239.129,193.894c0.865,6.508 0.432,8.243 -6.076,10.848c-0.432,7.373 -2.172,9.113 -7.81,9.978c1.74,8.244 -6.076,21.26 -20.394,16.054l34.28,-36.88Zm-27.335,283.329c-7.373,0.438 -9.978,-3.902 -11.713,-12.583c-5.206,-2.6 -9.978,-6.936 -5.643,-15.616c-3.47,-5.206 -5.638,-9.546 1.303,-16.487l16.053,44.686Z" style="fill:#236bb3;"/><path d="M236.086,478.959c-7.805,3.902 -18.221,5.205 -18.221,-9.546c-7.811,1.302 -11.714,-1.74 -9.546,-9.546c-7.811,-0.437 -10.416,-3.038 -6.075,-12.146c-5.643,-2.6 -5.643,-7.378 -3.038,-9.983l36.88,41.221Zm-36.88,-41.221c2.172,-2.6 6.94,-3.465 10.416,2.6c8.243,-3.465 7.81,1.303 9.113,5.643c6.94,-3.465 9.978,-1.303 9.978,7.378c7.373,-5.215 18.659,1.303 15.189,14.314l-44.696,-29.935Zm-3.903,-5.206c-10.848,-16.053 -18.654,-29.074 -23.864,-43.82l23.864,43.82Z" style="fill:#236bb3;"/><path d="M211.794,432.532c3.903,-0.865 7.373,0 10.411,6.081c6.508,-3.038 9.113,-0 10.848,6.935c9.114,-3.465 20.827,5.643 17.789,19.092l-39.048,-32.108Zm70.723,79.842c-6.94,1.302 -8.243,1.302 -13.881,-5.643c-6.075,-0 -12.583,-2.6 -12.583,-12.146c-5.206,-3.038 -9.113,-6.081 -6.513,-15.189l32.977,32.978Z" style="fill:#236bb3;"/><path d="M306.814,503.255c-3.903,4.341 -14.751,13.887 -20.826,-0.865c-6.076,4.768 -11.281,3.903 -13.016,-4.34c-6.941,3.038 -10.411,1.74 -10.411,-8.243c-6.076,0.437 -8.243,-3.903 -7.378,-7.378l51.631,20.826Zm-51.631,-20.826c0.87,-3.465 4.773,-6.071 10.415,-2.6c6.076,-6.508 8.244,-2.168 10.849,1.74c5.205,-6.508 10.848,-3.038 13.453,2.6c2.601,-7.378 17.357,-8.671 19.524,6.508l-54.241,-8.248Zm-5.643,-3.033c-16.919,-9.546 -28.637,-18.664 -39.918,-29.512l39.918,29.512Z" style="fill:#236bb3;"/><path d="M263.858,472.883c3.903,-3.903 7.811,-5.205 12.584,0.438c6.508,-5.206 8.681,-3.038 13.453,1.74c5.206,-3.903 20.827,-8.243 23.427,10.848l-49.464,-13.026Zm51.199,25.605c-19.091,-1.741 -29.934,-5.206 -44.691,-10.849l44.691,10.849Zm195.688,-242.552c0.865,-6.94 -0.432,-10.848 -7.81,-15.184c-0.433,-6.075 -3.038,-11.713 -12.584,-10.41c-3.908,-5.211 -6.513,-7.378 -15.189,-3.471l35.583,29.065Z" style="fill:#236bb3;"/><path d="M505.972,279.8c4.773,-5.205 11.281,-16.053 -3.907,-19.956c3.907,-6.508 2.605,-11.714 -5.638,-12.151c2.172,-7.373 0.432,-11.281 -9.546,-9.978c-0.433,-6.076 -5.206,-7.373 -8.681,-6.076l27.772,48.161Z" style="fill:#236bb3;"/><path d="M478.638,231.639c-4.341,1.735 -5.206,6.513 -1.303,10.849c-5.643,6.508 -0.87,8.243 3.033,10.41c-6.508,6.941 -1.735,10.849 3.908,12.584c-7.811,3.903 -4.341,18.654 8.68,18.654l-14.318,-52.497Zm-3.476,-4.768c-11.28,-16.053 -22.129,-26.037 -34.28,-36.015l34.28,36.015Z" style="fill:#236bb3;"/><path d="M470.822,241.618c-3.47,3.47 -4.34,7.81 1.303,12.583c-3.038,6.941 -1.735,9.978 3.037,12.579c-4.34,6.94 -3.037,20.826 12.146,22.566l-16.486,-47.728Zm53.372,92.424c3.908,-5.205 4.34,-10.421 -1.735,-16.486c3.037,-5.205 2.172,-11.714 -6.941,-14.319c-1.303,-6.075 -3.47,-11.281 -13.016,-11.281l21.692,42.086Z" style="fill:#236bb3;"/><path d="M509.005,353.571c5.205,-2.61 16.924,-9.546 5.205,-19.529c6.509,-4.34 5.643,-9.983 0.433,-14.323c3.47,-4.768 4.773,-9.974 -5.205,-11.281c1.302,-5.638 -2.601,-9.979 -6.076,-10.411l5.643,55.544Z" style="fill:#236bb3;"/><path d="M503.367,298.027c-3.47,-0 -6.075,3.033 -4.773,9.978c-6.94,2.6 -4.773,6.941 -2.172,10.849c-6.076,2.167 -6.076,9.108 -1.303,13.011c-5.643,-0 -12.583,14.761 0.433,20.826l7.815,-54.664Zm-0.87,-6.076c-3.903,-19.091 -9.546,-32.977 -16.486,-46.858l16.486,46.858Z" style="fill:#236bb3;"/><path d="M492.524,304.535c-3.471,2.173 -6.941,4.773 -4.341,11.281c-5.205,5.205 -3.907,8.243 -2.172,13.448c-5.206,3.903 -10.849,16.924 1.735,25.167l4.778,-49.896Zm12.146,106.733c6.075,-3.903 6.508,-7.368 5.205,-15.616c3.47,-4.34 6.076,-9.983 -1.302,-16.486c0.87,-6.081 0.87,-10.849 -7.811,-15.189l3.908,47.291Z" style="fill:#236bb3;"/><path d="M483.838,423.424c7.378,-0.875 17.356,-2.177 12.151,-16.059c6.941,-3.037 8.243,-6.94 5.205,-13.011c4.773,-2.6 7.811,-6.94 0,-13.448c3.903,-4.34 1.736,-9.118 -2.172,-10.421l-15.184,52.939Zm15.189,-53.376c-3.038,-1.293 -7.373,-0.428 -7.811,7.378c-7.81,-0.438 -6.94,5.205 -5.638,9.545c-8.243,0 -9.546,4.341 -6.508,10.849c-9.113,-1.73 -16.054,9.118 -7.81,19.529l27.767,-47.301Zm1.302,-6.071c3.903,-19.091 5.638,-33.415 4.768,-49.026l-4.768,49.026Z" style="fill:#236bb3;"/><path d="M486.881,371.36c-3.903,0 -8.243,3.028 -7.811,9.973c-6.94,-0.427 -9.113,3.476 -8.248,10.849c-8.676,1.302 -15.184,13.458 -7.373,24.734l23.432,-45.556Zm-19.524,-183.109c-2.605,-6.508 -3.47,-8.243 -12.584,-9.113c-3.47,-6.076 -7.81,-9.546 -16.053,-3.908c-6.076,-3.903 -10.849,-4.773 -16.919,2.6l45.556,10.421Z" style="fill:#236bb3;"/><path d="M472.995,213.855c1.302,-5.643 3.903,-20.394 -11.281,-17.789c0.432,-7.378 -3.47,-11.285 -10.848,-8.243c-1.303,-7.81 -3.471,-10.416 -12.151,-4.773c-3.038,-5.205 -7.806,-5.638 -10.411,-3.037l44.691,33.842Z" style="fill:#236bb3;"/><path d="M428.304,180.008c-2.605,2.605 -2.605,7.373 3.47,10.415c-2.173,8.676 0.865,9.114 6.941,9.114c-2.601,7.373 3.037,10.411 8.68,9.545c-3.908,6.076 0.87,19.524 15.621,13.449l-34.712,-42.523Z" style="fill:#236bb3;"/><path d="M424.833,193.024c-2.605,7.373 1.298,9.113 6.076,10.848c0.865,7.378 1.735,8.243 7.806,9.546c-0,8.675 6.075,22.129 21.259,16.054l-35.141,-36.448Zm29.94,281.157c6.941,0.875 9.546,-3.903 11.281,-12.574c5.206,-2.177 9.978,-6.94 5.638,-15.188c3.47,-5.206 5.643,-9.546 -1.302,-16.487l-15.617,44.249Z" style="fill:#236bb3;"/><path d="M430.039,475.921c7.81,4.34 18.226,5.643 18.226,-9.108c7.811,1.302 11.714,-1.74 9.546,-9.546c7.811,-0.438 10.411,-3.475 6.076,-12.146c5.642,-2.6 5.642,-7.378 3.037,-9.983l-36.885,40.783Zm36.88,-40.783c-2.172,-2.601 -6.94,-3.466 -10.416,2.167c-8.243,-3.027 -7.805,1.74 -8.675,6.081c-7.373,-3.475 -10.416,-1.303 -9.979,7.378c-7.81,-4.34 -19.091,2.6 -15.621,15.616l44.691,-31.242Zm3.903,-5.206c10.848,-16.054 18.227,-29.075 23.432,-43.821l-23.432,43.821Z" style="fill:#236bb3;"/><path d="M454.336,429.932c-3.908,-0.875 -7.378,0 -10.411,6.071c-6.076,-3.028 -8.681,0.437 -10.848,7.378c-9.114,-3.475 -20.394,5.205 -17.357,19.529l38.616,-32.978Zm-47.291,-233.005l-0,-0.433l-0,0.433Zm-23.432,315.447c6.513,1.302 9.113,0.427 14.318,-6.518c6.076,0.437 12.584,-2.168 12.584,-11.709c5.205,-3.037 7.81,-6.94 6.075,-16.053l-32.977,34.28Z" style="fill:#236bb3;"/><path d="M359.316,503.693c5.205,6.508 14.751,13.449 20.394,-1.303c6.075,4.768 12.151,3.903 13.886,-4.34c6.508,2.6 9.541,1.303 9.541,-8.681c8.243,-1.302 8.243,-5.205 7.378,-8.67l-51.199,22.994Zm51.199,-22.994c-0.865,-3.476 -4.773,-4.341 -10.411,-0.875c-6.075,-6.508 -7.811,-2.168 -10.848,1.74c-4.773,-6.508 -10.849,-2.6 -13.016,2.6c-2.606,-6.941 -17.357,-8.671 -19.962,6.508l54.237,-9.973Zm5.638,-2.605c17.356,-9.546 28.637,-17.362 39.918,-28.21l-39.918,28.21Z" style="fill:#236bb3;"/><path d="M401.834,472.883c-3.47,-3.903 -7.81,-5.205 -12.583,0.438c-6.508,-5.206 -8.681,-3.038 -13.454,1.74c-5.205,-3.903 -20.821,-8.243 -23.427,10.848l49.464,-13.026Zm-51.199,25.605c19.524,-1.741 29.935,-5.206 44.691,-10.849l-44.691,10.849Zm40.788,-368.377c-1.735,0 -3.47,-1.735 -3.47,-3.47c0,-2.173 1.735,-3.903 3.47,-3.903c2.173,0 3.903,1.735 3.903,3.903c0,1.735 -1.73,3.47 -3.903,3.47Zm-207.833,78.534c-0,-0.433 -0,-0.865 -0.433,-1.303c0,-0.865 -0.87,-1.735 -1.74,-2.167c-1.303,-0.87 -2.168,-0.87 -3.903,-0c-1.735,0.865 -2.173,1.735 -2.6,2.6c-0,1.302 -0,2.605 0.432,3.47c0.433,0.865 0.87,1.303 1.736,1.303c0.432,0.432 1.735,-0 3.037,-0c0.87,-0.433 2.605,-0.865 3.471,-1.735c0.432,-0.433 0.432,-1.303 -0,-2.168l1.735,-0c0.432,1.303 0.432,3.038 0.432,4.773c0,5.205 -3.037,9.546 -6.508,9.546c-3.037,-0 -5.643,-4.773 -5.643,-9.979c0,-7.81 3.038,-9.546 6.508,-9.113c2.173,0 4.341,1.303 5.206,4.773l-1.73,-0Zm67.685,-4.34c3.47,1.735 5.643,1.302 7.378,-0.866c2.168,-2.172 2.6,-5.642 -3.038,-10.848c-4.34,-3.47 -9.113,-4.34 -11.281,-1.74c-2.172,2.605 -0.87,7.378 3.038,10.848c1.303,1.303 2.6,2.173 3.903,2.606l0.432,-0.433c-0.865,-0.433 -2.172,-1.735 -2.172,-2.6c-0.433,-0.87 0.87,-3.038 1.302,-3.903c0.865,-0.87 1.736,-1.735 2.601,-2.173l1.735,0c1.121,0.352 2.058,1.134 2.605,2.173c0.432,0.865 0.432,2.173 -0,3.903c-0.438,0.87 -0.87,2.172 -1.735,2.6c-0.87,0 -2.605,0.433 -3.47,0c-0,0 -0.433,0 -0.871,-0.433l-0.427,0.866Zm-43.821,43.825c-1.303,0 -2.605,-0.437 -4.34,-1.302c-5.206,-1.735 -8.244,-6.076 -6.941,-9.113c1.303,-3.038 6.076,-3.908 11.281,-2.173c7.373,2.605 7.811,6.076 6.508,9.113c-0.87,2.605 -2.6,3.908 -6.508,3.475l0.432,-0.87c0.866,0.433 2.601,0.433 3.471,-0.432c1.297,-0.865 1.297,-1.303 1.297,-3.47c0.318,-1.228 -0.008,-2.536 -0.865,-3.471c-0.773,-0.856 -1.884,-1.333 -3.037,-1.302c-0.804,0.016 -1.574,0.323 -2.168,0.865c-0.865,0.432 -1.303,1.302 -1.303,2.605c0,0.865 -0.432,2.605 -0.432,3.47c-0,0.87 2.172,1.74 2.605,1.74l-0,0.865Zm-20.394,57.708c3.47,-0.871 4.773,-2.606 4.773,-5.206c-0,-3.47 -1.303,-6.94 -9.113,-6.94c-5.206,-0 -9.114,2.6 -9.114,6.075c0,3.038 3.471,6.513 8.681,6.513c1.735,-0.01 3.47,-0.01 4.773,-0.442l-1.303,-1.303c-0.87,-0 -1.302,-0.433 -1.302,-0.865c-0.433,-1.303 -0.87,-1.735 -1.303,-3.038c0,0 -0.432,-2.173 0,-3.038c0.865,-1.302 0.865,-1.735 1.735,-2.167c1.303,-0.433 2.6,-0 3.47,0.432c0.871,0.433 1.741,1.303 2.173,2.6c0.433,1.741 0.433,3.038 -0.432,4.341c-0.438,0.865 -1.741,1.302 -2.606,1.302c-0.432,0.433 -1.297,0.433 -1.735,0.433l1.303,1.303Zm-35.578,-26.038c0.433,1.303 0.87,2.606 1.735,4.341c1.735,4.773 0.433,9.978 -3.038,10.848c-3.037,1.303 -6.508,-2.168 -8.675,-7.373c-3.038,-6.94 -0,-10.416 3.033,-11.286c2.172,-0.865 4.777,0.433 6.945,3.47l-1.303,1.303c0,-0.432 -0.865,-1.735 -0.865,-2.168c-0.87,-0.87 -1.302,-1.74 -2.605,-1.74c-1.302,-0.432 -2.172,-0.432 -3.908,0.87c-0.865,1.303 -1.297,2.168 -1.735,3.038c0,0.865 0.438,2.6 1.303,3.47c1.302,1.74 0.432,1.303 2.168,1.303c0.87,0.433 1.735,-0.433 2.605,-0.865c0.865,-0.87 2.172,-1.303 2.6,-2.605c0.432,-0.433 0.432,-0.865 0.432,-1.735l1.308,-0.871Zm-3.903,76.799c0.865,0.875 2.168,1.74 3.471,3.475c3.902,3.466 5.205,8.681 3.032,11.286c-2.6,2.168 -7.373,0.428 -11.281,-3.038c-5.638,-5.205 -4.768,-8.243 -3.037,-11.285c1.74,-1.741 4.34,-2.168 7.378,-0.438l0.432,1.74c-0.432,0 -1.302,-0.865 -1.735,-0.865c-1.302,-0.437 -1.735,-0.875 -2.605,-0.437c-1.303,-0 -2.6,0.437 -3.038,2.167c-0.432,0.875 -0.865,2.61 -0.432,3.475c-0,0.866 0.87,1.741 2.172,2.601c0.865,0.437 1.735,0.865 3.038,0.437c0.87,-0.437 1.303,-1.302 2.173,-2.6c0.432,-1.303 0.865,-2.178 0.865,-3.475c-0,-0.438 -0.433,-0.865 -0.433,-1.303l0,-1.74Zm44.254,9.546c-1.303,0.875 -2.173,1.74 -3.903,3.037c-4.773,2.178 -9.983,1.303 -11.281,-1.74c-1.735,-3.027 0.865,-6.508 5.638,-9.108c6.075,-3.903 9.113,-1.74 10.848,0.865c1.735,2.615 1.303,4.341 -1.302,6.946l-2.173,-0c0.438,-0.428 1.303,-0.865 1.303,-0.865c1.302,-0.865 1.74,-2.168 1.74,-3.466c0.432,-1.312 -0,-1.74 -1.303,-3.475c-0.865,-0.865 -2.167,-1.302 -3.47,-1.302c-0.87,0.437 -1.735,0.437 -2.605,1.302c-0.865,0.438 -0.865,1.303 -0.865,3.038c-0,0.865 1.735,2.6 1.302,2.6l2.173,2.168c0.432,0.437 1.302,-0 1.735,-0l2.163,-0Zm27.772,54.241c-0.87,1.303 -1.735,2.601 -3.038,3.903c-3.47,4.341 -7.81,5.206 -10.416,3.038c-2.6,-2.178 -2.167,-6.518 1.303,-10.848c4.768,-6.081 8.243,-5.643 10.848,-3.476c3.038,3.043 2.601,3.908 1.303,7.383l-2.6,0.866c0.432,-0.438 1.302,-1.303 1.302,-1.741c0.865,-0.865 0.865,-2.167 0.433,-3.465c-0,-1.302 -0.433,-1.74 -2.6,-2.6c-0.866,-0.438 -2.168,-0.438 -3.471,-0c-0.865,0.437 -1.297,0.865 -2.167,1.74c-0.433,1.303 -0.433,2.6 0.432,3.465c0.438,0.865 1.303,0.865 2.173,1.74c-0.87,-0.875 0.87,0.428 3.038,0.866l0.87,-0l2.59,-0.871Zm-46.426,9.974c1.302,-0 3.037,0.437 5.205,0.875c4.773,1.302 7.373,5.205 6.508,8.243c-0.865,3.465 -3.903,4.34 -9.978,3.465c-5.206,-1.302 -8.243,-2.6 -7.811,-8.67c0.433,-2.178 2.6,-3.913 6.076,-3.913l1.735,1.74c-0.433,-0 -1.303,-0.428 -1.735,-0.428c-1.303,0 -2.605,0.428 -3.471,1.303c-0.865,0.865 -1.302,1.303 -1.302,3.465c-0,1.303 0.87,2.6 1.735,3.038c0.87,0.865 1.303,1.303 2.605,1.303c1.303,0.437 2.173,-0.875 2.6,-1.741c0.433,-0.865 0.433,-1.302 0.433,-2.6c-0,0.865 0.433,-0.865 -0,-3.465l-0.865,-0.875l-1.735,-1.74Zm57.269,55.544c1.303,-0.437 3.038,-0.437 4.773,-0.865c5.206,-0.437 10.411,2.168 10.411,5.205c0.432,3.466 -3.908,6.071 -9.546,6.941c-8.243,1.303 -9.546,-3.475 -9.978,-5.215c-0,-2.168 0.87,-4.331 4.34,-5.633l0.87,1.302c-0.432,0 -1.302,0.428 -1.302,0.428c-1.303,0.875 -2.168,1.74 -2.601,2.6c-0.432,1.303 0,2.178 0.871,3.475c0.865,1.74 2.167,2.168 3.037,2.168c0.865,0.437 2.168,-0 3.471,-0.428c0.432,-0.437 0.865,-1.302 0.865,-1.74c0.432,-0.865 -0,-2.177 -0.433,-3.037c-0.432,-1.303 -0.87,-2.601 -2.173,-3.466c-0.432,-0.437 -1.302,0 -1.735,0l-0.87,-1.735Zm167.916,-27.772c-0,-3.903 0.432,-5.643 3.908,-6.508c3.037,-0.438 7.378,0.437 8.68,7.378c0.865,5.205 0,9.973 -3.037,10.411c-3.903,0.437 -6.941,-1.74 -8.676,-6.508c-0.438,-2.173 -0.438,-3.47 -0.875,-4.773l1.303,0.437c-0,0.438 0.432,1.303 1.297,1.303l3.47,0c1.303,0 2.173,0 3.038,-0.437c0.433,-0.428 0.865,-0.866 0.865,-1.731c0,-1.312 0,-2.61 -0.865,-3.475c-0.432,-0.437 -1.735,-1.74 -3.038,-1.74c-2.167,-0.428 -3.032,0.438 -4.335,1.303c-0.432,1.302 -0.87,2.177 -0.432,3.037l-0,1.74l-1.303,-0.437Zm37.313,26.032c-1.303,-0.438 -3.038,-0.438 -4.768,-0.865c-5.21,-0.438 -9.978,2.168 -10.416,5.205c0,3.466 3.903,6.508 9.113,6.941c6.941,0.865 9.546,-1.303 10.411,-5.206c0.438,-2.172 -0.865,-4.772 -4.34,-6.075l-0.865,1.74c0.432,0 1.302,0.438 1.735,0.438c1.038,0.545 1.818,1.481 2.168,2.6c0.432,1.302 -0,1.73 -0.866,3.465c-0.865,1.735 -2.172,2.178 -3.037,2.178c-0.87,0.427 -2.173,-0 -3.038,-0.438c-0.865,-0.865 -1.303,-1.302 -1.303,-2.177c0,-0.428 0,-1.731 0.433,-2.601c0.433,-1.302 0.865,-2.6 2.168,-3.465c0.432,-0.437 1.302,0 1.735,0l0.87,-1.74Zm10.853,-65.08c-1.735,-3.038 -0.87,-5.206 0.865,-6.941c2.168,-1.74 6.508,-3.902 10.849,2.601c3.47,4.34 4.34,8.68 1.735,11.285c-2.601,2.168 -6.941,1.303 -10.416,-2.6c-1.298,-1.74 -2.168,-3.043 -3.033,-4.345l1.735,0.427c0.865,0 0.865,0.438 1.735,0.438c0.866,-0 1.736,-0.438 2.601,-0.865c0.865,-0.438 1.735,-0.875 2.6,-1.74c0.432,-0.865 1.302,-2.168 0.432,-3.466c-0.865,-0.875 -1.302,-1.312 -2.172,-1.74c-0.865,-0.875 -2.6,-0.437 -3.908,0c-1.735,0.865 -2.168,1.303 -2.6,3.038c-0,0.865 -0,1.73 0.87,3.028c-0,-0 0.432,0.875 0.432,1.302l-1.725,-0.422Zm45.556,8.671c-1.302,-0 -3.033,-0 -4.773,0.437c-5.205,1.303 -7.373,4.778 -7.373,8.243c0.433,3.466 5.206,4.778 10.416,3.903c6.941,-1.303 8.243,-5.205 7.373,-8.671c-0.437,-2.172 -2.172,-3.912 -5.643,-3.912l-1.735,1.302l1.735,0c1.227,-0.396 2.578,-0.056 3.471,0.875c0.87,0.865 1.302,1.74 1.302,3.466c0,1.302 -0.87,2.6 -1.735,3.475c-0.87,0.427 -1.303,0.865 -2.6,1.302c-1.303,0 -2.173,-1.302 -2.605,-2.177c-0.433,-0.865 -0.866,-1.303 -0.866,-2.6c0,0.875 -0.437,-0.866 0,-3.038c0.433,-0.428 0.866,-0.865 1.303,-0.865l1.73,-1.74Zm26.465,-74.184c-0.865,0.865 -2.168,1.73 -3.47,3.028c-4.341,3.475 -5.638,9.118 -3.471,11.718c2.605,3.038 7.378,0.865 11.281,-2.6c6.076,-5.215 4.773,-9.118 3.038,-11.286c-1.735,-1.735 -3.903,-2.172 -7.378,-0.86l-0.433,2.168c0.433,-0.438 1.303,-0.865 1.74,-1.303c1.303,-0.437 1.736,-0.437 2.601,-0.437c1.302,0.437 2.172,0.875 3.037,2.177c0.433,0.866 0.865,2.601 0.433,3.466c-0,0.865 -0.87,2.177 -2.173,3.037c-0.87,0.438 -1.735,0.438 -3.037,0c-0.866,-0.437 -0.866,-0.865 -2.173,-2.6c-0.433,-0.875 -1.303,-1.74 -0.865,-3.037c-0,-0.866 0.432,-0.866 0.432,-1.303l0.438,-2.168Zm-44.686,11.271c0.865,0.875 2.172,1.74 3.903,2.6c4.772,2.178 9.545,0.875 10.848,-1.73c1.303,-3.038 -0,-6.08 -5.205,-9.546c-4.773,-2.6 -8.244,-3.475 -11.714,1.731c-1.307,1.74 -1.307,4.345 2.168,6.945l1.735,-0.427c-0.433,-0.438 -1.303,-0.875 -1.735,-1.303c-0.87,-0.438 -1.303,-1.74 -1.735,-3.038c-0,-1.302 0.432,-2.177 1.735,-3.475c0.865,-0.865 2.172,-1.303 3.47,-1.303c0.865,0 1.735,0 2.6,0.875c0.87,0.866 0.87,1.731 0.87,3.028c0,0.875 -1.735,2.61 -1.735,2.61c-0.432,0.865 -0.87,1.731 -2.172,2.168c-0.433,0.438 -0.866,0.438 -1.298,0.438l-1.735,0.427Zm40.35,-88.944c-0.432,0.865 -1.302,2.172 -2.172,3.902c-2.168,5.211 -1.303,10.416 1.735,11.714c3.47,1.303 6.075,0.432 9.546,-6.941c3.037,-7.373 0.432,-9.978 -2.168,-11.281c-2.168,-1.297 -4.34,-0.432 -6.941,2.606l0.866,1.302l0.87,-1.302c0.865,-0.865 1.735,-1.303 2.6,-1.735c0.865,-0.433 2.172,-0 3.47,0.87c0.865,1.297 1.735,1.735 1.735,2.6c0,0.865 0,2.6 -0.87,3.47c-1.302,2.168 -0.432,1.303 -2.167,1.735c-1.138,-0.049 -2.218,-0.513 -3.038,-1.302c-0.87,-0.433 -2.173,-1.303 -2.605,-2.601c-0.433,-0.437 -0.433,-0.87 -0,-1.74l-0.861,-1.297Zm-56.841,-28.638c-3.908,0.87 -6.076,-0.432 -6.941,-2.6c-2.168,-5.21 1.303,-8.243 6.075,-9.978c4.341,-1.735 8.681,-1.735 10.416,1.303c1.303,3.037 -0.432,7.373 -5.205,9.54c-1.74,0.865 -3.043,1.735 -4.345,1.735l0.432,-1.302c0.865,-0.438 1.303,-0.87 1.303,-1.735c-0,-0.87 -1.303,-2.173 -1.303,-3.038c0,-1.303 0.433,-2.605 0,-3.038c-0.594,-0.544 -1.367,-0.853 -2.173,-0.87c-1.302,0.433 -2.172,0.433 -3.037,1.303c-0.433,0.865 -0.87,1.302 -0.87,3.038c-0,1.735 -0,3.037 1.302,3.902c0.87,0.87 1.74,0.87 2.605,0.87c0.433,0 1.736,-0.432 2.173,-0.432l-0.432,1.302Zm20.394,56.842c1.302,0 3.037,0.433 4.772,0.433c4.773,-0 9.114,-3.038 9.114,-6.076c-0,-3.47 -3.471,-6.075 -8.676,-6.508c-7.811,-0.432 -9.546,2.606 -9.546,6.076c-0.437,2.605 0.865,4.773 4.336,6.075l1.74,-1.735l-1.74,0c-1.303,0 -2.168,-0.432 -3.038,-1.735c-0.433,-0.87 -0.433,-2.173 -0,-3.903c0.432,-1.302 0.87,-2.172 2.168,-2.605c0.437,-0.432 1.74,-0.865 3.037,-0.432c0.87,0.432 1.303,0.87 1.735,1.735c0.433,0.865 0,3.47 0,3.47c0,0.865 -0.432,1.735 -0.865,2.6c-0.437,0.87 -0.87,0.87 -1.302,0.87l-1.735,1.735Zm1.302,-97.192l0,4.773c0,5.643 2.168,10.41 5.638,10.41c4.341,0 6.508,-4.767 6.508,-10.41c0,-6.941 -3.47,-9.546 -6.075,-9.546c-3.903,-0 -5.206,1.735 -6.071,4.773l1.735,0.865c0.433,-0.433 0.433,-0.865 0.433,-1.303c0.35,-1.121 1.132,-2.059 2.173,-2.605c1.302,-0.865 2.172,-0.432 3.47,0.433c1.735,0.432 2.172,1.735 2.6,2.605c0.433,0.865 0.433,1.302 0,2.6c-0.432,0.87 -1.303,0.433 -1.735,0.87c-0.433,0.433 -1.735,1.303 -3.038,0.865c-1.302,0 -2.6,-0.432 -3.47,-1.302c-0.433,-0.433 -0.433,-1.303 -0.433,-2.173l-1.735,-0.855Zm-47.296,-54.674c0.433,0.87 1.303,2.172 1.735,4.34c2.168,4.773 0.865,9.978 -2.172,10.848c-3.466,1.303 -7.369,-2.167 -9.109,-6.94c-2.6,-7.378 -0.432,-9.984 2.605,-11.286c2.168,-0.865 4.773,-0.428 6.941,3.038l-0.865,0.432c-0,-0.432 -0.433,-0.865 -0.433,-0.865c-0.87,-0.865 -1.735,-1.735 -3.907,-1.735c-1.736,-0 -2.173,-0 -3.038,0.87c-0.865,0.865 -0.865,3.033 -0.865,4.34l-0,0.865c-0,0.433 0.432,1.735 1.302,1.735c1.736,0 1.736,-0.865 3.471,-0.865c1.302,0 2.6,0 3.037,-0.432c0.438,-0.433 0.865,-0.87 0.865,-1.735c0,-0.87 0,-1.735 -0.432,-2.173l0.865,-0.437Zm-26.032,42.96c-1.735,3.038 -1.735,6.076 -0,7.811c2.6,2.173 5.638,3.47 11.281,-2.173c3.908,-3.907 4.34,-8.243 2.173,-10.848c-2.173,-2.168 -6.513,-1.735 -10.416,2.173c-1.303,1.297 -2.173,1.735 -3.038,3.037l1.303,1.303c0.432,-0.433 0.865,-1.303 1.735,-1.735c0.87,-0 0.87,-0.433 1.735,-0c1.302,0.432 1.735,2.167 2.168,2.605c0.437,0.865 2.605,1.735 2.172,3.903c0,0.432 -0.865,1.302 -1.735,1.302l-0.437,0.433c-0.433,0.432 -0.866,0.432 -1.303,0.432c-1.303,0 -2.6,-0.432 -3.038,-0.87c-0.865,-0.432 -1.302,-1.302 -1.735,-2.172c0,-1.735 0,-3.033 0.433,-3.903l-1.298,-1.298Zm-162.71,-38.183c-0.433,1.303 -0.865,3.033 -1.303,4.773c-1.735,5.206 -6.075,8.243 -9.113,6.941c-3.038,-0.87 -3.908,-6.076 -2.173,-10.849c2.173,-7.378 5.638,-8.243 8.681,-6.94c2.6,0.865 3.903,2.6 3.47,6.075l-1.302,-0.432c-0,-0.87 -0.433,-3.47 -1.303,-4.341c-0.865,-0.865 -1.298,-0.865 -3.038,-0.865c-1.735,0 -3.037,0.865 -3.47,1.303c-0.865,0.87 -1.303,2.173 -1.303,3.47c0,0.87 0.433,1.303 1.303,1.735c0.433,0.433 1.74,0.87 2.6,0.87c1.303,0.433 2.605,0.433 3.908,0c0.433,-0.432 1.303,-1.302 1.303,-2.172l1.74,0.432Zm25.167,301.556c-0.433,1.303 -0.87,3.038 -1.303,4.768c-1.298,5.216 -4.768,7.816 -8.243,6.941c-3.038,-0.865 -4.773,-5.205 -3.47,-10.411c2.167,-7.378 6.075,-8.243 8.68,-7.378c2.168,0.438 4.336,2.178 4.336,6.08l-1.303,0.866l0,-1.731c0,-0.875 0,-1.74 -0.865,-3.037c-0.87,-0.875 -2.173,-1.74 -3.908,-1.303c-1.735,0 -2.605,1.303 -3.47,1.73c-0.433,0.875 -0.865,2.178 -0.433,3.475c0,0.866 0.433,1.303 0.87,1.741c0.433,0.427 1.736,0.427 2.601,0.427l3.907,0c0.433,0 0.866,-0.865 0.866,-1.302l1.735,-0.866Zm15.188,-280.734c2.168,-0.865 12.146,-3.47 13.881,-8.243c0.866,-3.033 3.038,-3.47 5.206,-1.735c4.027,2.884 8.941,4.265 13.881,3.903l-32.968,6.075Z" style="fill:#236bb3;"/><path d="M315.057,171.765c2.601,-0 12.146,-2.173 14.752,-6.508c0.663,-1.045 1.801,-1.696 3.037,-1.741l-17.789,8.249Zm35.578,-0c-2.6,-0 -12.146,-2.173 -14.751,-6.508c-0.664,-1.045 -1.801,-1.696 -3.038,-1.741l17.789,8.249Z" style="fill:#236bb3;"/><path d="M382.315,177.835c-2.173,-0.865 -12.151,-3.47 -13.886,-8.243c-0.87,-3.033 -3.038,-3.47 -5.205,-1.735c-4.028,2.884 -8.942,4.265 -13.881,3.903l32.972,6.075Zm-91.987,-12.146c2.605,0 4.773,-2.173 4.773,-5.205c-0,-2.606 -2.168,-5.206 -4.773,-5.206c-3.038,0 -5.205,2.6 -5.205,5.206c-0,3.032 2.167,5.205 5.205,5.205Z" style="fill:#236bb3;"/><path d="M295.533,156.576c2.601,-0 4.773,-2.605 4.773,-5.206c0,-3.037 -2.172,-5.205 -4.773,-5.205c-3.037,0 -5.205,2.173 -5.205,5.205c-0,2.606 2.168,5.206 5.205,5.206Zm9.114,4.773c3.037,-0 5.205,-2.173 5.205,-5.206c-0,-3.032 -2.168,-5.205 -5.205,-5.205c-2.601,-0 -4.773,2.168 -4.773,5.205c-0,3.038 2.167,5.206 4.773,5.206Zm20.821,-1.303c2.605,0 5.206,-2.168 5.206,-5.205c-0,-2.605 -2.601,-4.773 -5.206,-4.773c-3.038,-0 -5.205,2.168 -5.205,4.773c0.005,3.037 2.172,5.205 5.205,5.205Zm14.756,0c-3.037,0 -5.205,-2.168 -5.205,-5.205c-0,-2.605 2.168,-4.773 5.205,-4.773c2.601,-0 5.211,2.168 5.211,4.773c-0,3.037 -2.61,5.205 -5.211,5.205Z" style="fill:#236bb3;"/><path d="M386.65,181.743c0.433,-2.173 1.303,-2.6 3.471,-4.773c2.167,-2.168 15.183,-10.848 16.054,-11.713c0.865,-0.433 3.037,-1.741 4.772,-1.741l0.433,-0.432c-1.735,-1.303 -4.34,-3.47 -8.243,-1.735c-2.173,1.302 -3.903,1.735 -6.508,0.432c-3.038,-1.302 -8.243,-1.74 -8.243,4.773c-0,3.033 0.432,2.6 -0,4.34c-0.87,2.168 -5.206,3.471 -8.244,2.601c-3.902,-0.865 -7.81,-3.908 -9.545,-9.114c-1.735,-4.772 -4.773,-6.075 -9.113,-0.432c-3.471,5.638 -18.659,5.205 -22.13,-0c-1.735,-3.47 -4.34,-6.508 -6.508,-6.508l53.804,24.302Zm-160.537,93.722c1.302,-3.908 3.038,-8.243 -0,-9.546l7.811,0l-13.882,36.016c-3.907,-2.173 -4.772,-2.601 -6.508,-6.941l-7.81,-21.259c-1.303,-3.038 -1.735,-6.075 -4.341,-7.811l7.806,0l0,0.433c0,1.303 0.865,3.903 1.303,5.205l8.243,22.562l7.378,-18.659Zm17.789,20.394l6.508,0.87c3.47,0.433 7.378,-0.87 9.978,-3.037l-2.173,6.94l-22.129,0l0,-0.432c2.605,-0.87 2.173,-4.773 2.173,-6.941l-0,-19.962c-0,-2.605 0.437,-6.075 -2.173,-7.378l16.924,0c0.87,0 1.735,0 2.173,-0.432l0.432,-0l0,6.508l-0.432,-0c-1.303,-2.173 -3.471,-2.173 -6.076,-2.173c-1.735,0 -3.47,0 -5.205,0.433l-0,9.545l6.075,0c0.87,0 1.735,0 2.605,-0.432l0,5.643c-0.87,-1.303 -3.037,-1.303 -4.772,-1.303l-3.903,0l-0,12.151l-0.005,0Zm31.675,-2.172c-0,3.037 -0,5.205 2.6,6.513l-0,0.432l-9.978,0l-0,-0.432c2.6,-0.87 2.167,-4.773 2.167,-6.941l0,-23.432l-4.768,0c-2.172,0 -4.34,0.433 -6.075,2.173l-0.433,-0l2.168,-6.508c0.433,0.432 1.303,0.432 2.173,0.432l20.826,0c0.87,0 1.736,0 2.173,-0.432l0.433,-0l-1.736,6.508c-0.87,-2.173 -3.037,-2.173 -4.772,-2.173l-4.768,0l-0,23.86l-0.01,-0Zm19.524,2.172l6.94,0.87c3.471,0.433 6.941,-0.87 9.546,-3.037l0.433,-0l-2.606,6.94l-21.691,0l-0,-0.432c2.6,-0.87 2.172,-4.773 2.172,-6.941l0,-19.962c0,-2.605 0.433,-6.075 -2.172,-7.378l16.486,0c1.303,0 2.173,0 2.6,-0.432l0.433,-0l-0,6.508l-0.433,-0c-1.735,-2.173 -3.903,-2.173 -6.075,-2.173c-1.735,0 -3.903,0 -5.643,0.433l-0,9.545l6.508,0c0.87,0 1.735,0 2.173,-0.432l0.432,-0l0,5.643l-0.432,-0c-0.866,-1.303 -3.038,-1.303 -4.773,-1.303l-3.898,0l-0,12.151Zm24.729,-2.172c0,3.037 0,5.205 3.038,6.513l-0,0.432l-9.546,0l0,-0.432c3.038,-1.303 3.038,-3.471 3.038,-6.513l-0,-20.827c-0,-3.038 -0,-5.205 -3.038,-6.941l7.811,0c-0,0.865 0.432,0.865 0.87,1.303l0.432,1.303l19.529,23.864l0,-19.524c0,-3.038 0,-5.205 -2.605,-6.941l9.113,0c-2.6,1.736 -2.6,3.908 -2.6,6.941l0,29.507c-3.903,-1.302 -5.643,-3.038 -7.81,-6.075l-18.227,-22.995l0,20.385l-0.005,-0Zm51.632,-21.692c-2.168,-1.74 -5.206,-3.038 -8.243,-3.038c-3.038,0 -6.941,0.87 -6.941,4.773c0,6.941 18.227,6.941 18.227,16.924c-0,5.205 -6.076,10.848 -13.882,10.848c-3.47,0 -6.508,-0.865 -9.545,-1.735l-1.735,-6.508c3.47,2.6 7.373,4.335 11.713,4.335c3.033,0 7.373,-1.735 7.373,-5.638c0,-8.243 -17.789,-6.508 -17.789,-17.788c0,-6.508 6.508,-9.114 13.016,-9.114c2.6,0 5.206,0.433 7.811,1.303l-0,5.638l-0.005,-0Zm6.075,1.302c0,-2.605 0.433,-6.075 -2.6,-7.378l10.411,0c-2.6,1.303 -2.6,4.773 -2.6,7.378l-0,19.962c-0,2.168 -0,6.075 2.6,6.941l-0,0.432l-10.411,0l0,-0.432c3.038,-0.87 2.6,-4.773 2.6,-6.941l0,-19.962Zm13.016,0c1.735,-2.605 4.773,-5.642 1.303,-7.378l9.546,0l-12.151,15.622l10.416,13.881c1.735,2.167 3.907,3.47 6.508,4.773l-0,0.432l-5.211,0c-2.168,0 -4.768,-1.302 -5.638,-2.6l-11.713,-15.621l6.94,-9.109Z" style="fill:#236bb3;"/><path d="M410.515,287.611l-2.605,7.373c-1.303,3.038 -1.735,4.341 0.87,5.211l-0,0.432l-9.546,0l-0,-0.432c3.038,-1.303 3.903,-4.341 5.205,-7.378l8.681,-21.697c0.865,-2.173 1.735,-4.34 -0.87,-5.206l8.243,0l10.848,26.903c1.303,3.037 2.173,6.075 5.206,7.378l-0,0.432l-10.848,0l-0,-0.432c2.605,-0.87 2.172,-1.741 0.87,-5.211l-2.601,-7.373l-13.453,0Zm6.508,-17.356l-5.206,13.453l10.411,0l-5.205,-13.453Zm32.107,-4.336c6.941,0 12.146,3.471 12.146,9.114c0,6.075 -5.638,9.978 -11.713,9.978c-1.298,-0 -2.6,-0 -3.47,-0.87c4.34,-0 9.113,-3.038 9.113,-7.811c-0,-4.768 -3.033,-6.508 -7.373,-6.508l-3.471,0l0,23.865c0,3.037 -0.432,5.205 2.601,6.513l-0,0.432l-10.416,0l-0,-0.432c2.6,-0.87 2.168,-4.773 2.168,-6.941l-0,-19.962c-0,-2.172 0.432,-6.075 -2.168,-7.378l12.583,0Zm-132.337,68.123c-0,10.849 -8.681,18.654 -19.092,18.654c-10.411,0 -19.091,-7.368 -19.091,-18.216c-0,-9.984 8.68,-18.664 19.524,-18.227c10.853,0 18.659,8.243 18.659,17.789Zm-32.541,0c0,7.368 5.206,14.751 13.449,14.751c8.243,0 13.454,-5.643 13.454,-13.448c-0,-7.806 -5.211,-15.189 -13.454,-15.189c-8.243,0 -13.449,5.643 -13.449,13.886Zm62.913,-10.421c-2.6,-1.73 -6.076,-3.027 -9.546,-3.027c-7.373,-0 -12.151,5.205 -12.151,13.011c0,7.805 5.206,14.751 13.021,14.751c3.903,-0 7.806,-1.73 11.281,-3.465l-2.6,6.07c-2.173,1.303 -5.206,1.74 -7.811,1.74c-12.583,0 -19.961,-6.94 -19.961,-18.216c-0,-10.859 7.378,-18.227 18.226,-18.227c3.47,0 6.508,0.865 9.546,1.303l-0,6.06l-0.005,0Zm12.151,11.286l-0,9.546c-0,2.178 -0.433,6.08 2.168,6.941l-0,0.437l-9.979,0l0,-0.437c2.6,-0.865 2.168,-4.768 2.168,-6.941l-0,-19.957c-0,-2.177 0.432,-6.08 -2.168,-7.378l9.979,0c-2.601,1.303 -2.168,5.206 -2.168,7.378l-0,6.508l18.654,0l-0,-6.508c-0,-2.177 0.432,-6.08 -2.173,-7.378l9.983,0c-2.605,1.303 -2.172,5.206 -2.172,7.378l-0,19.957c-0,2.178 -0.433,6.08 2.172,6.941l0,0.437l-9.983,0l0,-0.437c2.605,-0.865 2.173,-4.768 2.173,-6.941l-0,-9.546l-18.654,0Zm-97.193,40.784c0,-2.168 0.433,-6.071 -2.172,-6.936l-0,-0.438l9.978,0l-0,0.438c-2.605,0.865 -2.605,4.768 -2.605,6.936l-0,19.966c-0,2.168 -0,6.071 2.605,7.368l-9.978,0c2.605,-1.302 2.172,-5.205 2.172,-7.368l0,-19.966Zm13.016,-0c1.735,-2.168 4.773,-5.643 1.303,-6.936l-0,-0.438l9.546,0l-12.151,15.617l10.415,13.886c1.736,2.177 3.903,3.903 6.508,5.205l-4.772,0c-2.601,0 -5.206,-0.865 -6.076,-2.168l-11.713,-15.626l6.94,-9.54Z" style="fill:#236bb3;"/><path d="M325.041,385.236c-0,10.859 -9.114,18.664 -19.524,18.664c-10.416,0 -19.092,-7.378 -19.092,-18.226c0,-9.983 8.676,-18.227 19.524,-18.227c11.281,0 19.092,8.244 19.092,17.789Zm-32.545,0c-0,7.378 5.205,14.761 13.448,14.761c7.811,0 13.016,-5.643 13.016,-13.448c0,-7.816 -4.768,-15.189 -13.448,-15.189c-7.811,0 -13.016,5.633 -13.016,13.876Z" style="fill:#236bb3;"/><path d="M331.111,396.09c0,3.027 0,5.205 3.038,6.935l-9.546,0c3.038,-1.73 3.038,-3.903 3.038,-6.935l-0,-20.827c-0,-3.038 -0,-5.215 -3.038,-6.508l0,-0.438l7.811,0c-0,0.865 0.432,0.865 0.87,1.303l0.865,1.303l19.091,24.297l0,-19.957c0,-3.038 0,-5.215 -2.6,-6.508l0,-0.438l9.113,0l0,0.438c-2.6,1.293 -2.6,3.465 -2.6,6.508l0,29.502c-3.908,-1.302 -5.638,-3.037 -7.81,-6.07l-18.227,-23.004l0,20.399l-0.005,-0Zm52.069,-21.265c-1.735,-2.167 -5.205,-3.465 -8.243,-3.465c-3.038,0 -6.508,1.303 -6.508,4.768c0,7.378 17.789,6.941 17.789,16.924c-0,5.643 -5.643,10.848 -13.881,10.848c-3.47,0 -6.508,-0.437 -9.546,-1.74l-1.303,-6.508c3.038,2.6 7.379,4.34 11.286,4.34c3.033,0 7.373,-1.74 7.373,-5.215c0,-8.233 -17.788,-6.936 -17.788,-18.216c-0,-6.518 6.508,-9.119 13.016,-9.119c2.657,0.01 5.295,0.453 7.81,1.313l0,6.07l-0.005,0Zm18.222,21.265c-0,3.027 -0,5.205 3.032,6.935l-10.41,0c2.605,-1.302 2.172,-5.205 2.172,-7.368l0,-23.432l-4.773,0c-2.172,0 -4.34,0.438 -6.075,2.168l-0.433,-0l2.168,-6.508c0.87,0.437 1.303,0.437 2.173,0.437l20.826,0c0.87,0 1.735,0 2.173,-0.437l0.432,-0l-1.735,6.508c-0.87,-1.73 -3.037,-2.168 -4.773,-2.168l-4.772,0l-0,23.865l-0.005,-0Zm162.71,-170.959c-0,-4.335 0.432,-12.146 -4.773,-13.881l0,-0.432l19.957,-0l-0,0.432c-5.638,1.735 -4.768,9.546 -4.768,13.881l-0,39.048c-0,4.773 -0.87,12.146 4.768,14.319l-19.957,-0c5.205,-2.173 4.773,-9.546 4.773,-14.319l-0,-39.048Zm25.167,0.433c3.465,-4.768 9.546,-11.281 2.6,-14.319l0,-0.432l18.654,-0l-23.859,30.372l20.826,27.335c3.466,4.34 7.368,7.373 12.574,9.978l-9.546,-0c-5.205,-0 -9.973,-1.735 -11.708,-4.34l-22.995,-30.805l13.454,-17.789Zm65.517,47.733c-3.465,4.773 -9.983,6.508 -15.626,6.508c-5.205,0 -10.411,-1.735 -14.313,-5.205c-3.903,-4.773 -3.903,-9.978 -3.903,-15.621l-0,-21.259c-0,-3.471 0.427,-9.114 -3.475,-10.849l15.188,0c-3.903,1.735 -3.465,7.373 -3.465,10.849l-0,21.259c-0,10.416 4.34,15.189 12.583,15.189c4.331,-0 8.671,-1.736 11.276,-5.638c1.74,-2.173 1.74,-4.341 1.74,-6.941l0,-23.864c0,-3.471 0.438,-9.114 -3.465,-10.849l15.179,0c-3.903,1.735 -3.465,7.373 -3.465,10.849l-0,29.935c-0,3.47 -0.438,9.113 3.465,10.848l-11.709,-0l0,-5.211l-0.01,0Zm25.595,-4.772c0,4.34 0,7.373 3.903,9.978l-13.876,-0c4.33,-2.6 4.33,-5.638 4.33,-9.978l0,-31.675c0,-4.341 0,-7.373 -4.33,-9.979l11.708,0c0.438,0.865 0.438,1.303 1.303,1.735l0.865,1.741l29.075,36.442l-0,-29.939c-0,-4.341 -0,-7.373 -4.341,-9.979l13.886,0c-3.902,2.601 -3.902,5.638 -3.902,9.979l-0,44.258c-5.643,-1.735 -8.244,-4.34 -11.709,-9.113l-26.907,-34.28l-0,30.81l-0.005,-0Zm88.949,-32.545c-3.465,-3.908 -9.545,-4.773 -14.313,-4.773c-12.146,-0 -21.692,7.81 -21.692,20.826c0,12.584 10.411,22.13 22.557,22.13c3.801,0.021 7.59,-0.417 11.286,-1.303l-0,-11.281c-0,-3.903 -0,-7.811 -3.903,-9.113l-0,-0.433l12.146,0l-0,0.433c-0.438,0.87 -0.438,2.173 -0.438,3.47l0,18.227c0,0.87 0,2.167 0.438,3.47c-6.081,1.302 -12.584,2.167 -18.654,2.167c-20.404,0 -32.113,-10.848 -32.113,-26.902c0,-16.918 13.449,-27.334 32.541,-27.334c3.902,-0 8.243,0.432 12.145,1.302l0,9.114Zm31.238,36.88c5.215,0.432 9.983,-1.303 13.886,-4.773l0.438,0l-4.341,10.411l-32.54,-0c4.34,-1.303 3.903,-7.373 3.903,-10.848l-0,-29.935c-0,-3.471 0.437,-9.114 -3.903,-10.849l15.189,0c-3.903,1.735 -3.475,7.373 -3.475,10.849l-0,34.707l10.843,0.438Zm-213.899,84.177c-0,6.08 -0,9.983 5.205,13.448l-20.394,0c5.205,-2.168 4.773,-9.546 4.773,-14.314l-0,-45.998l-9.113,-0c-4.341,-0 -9.114,1.302 -12.146,4.34l-0.433,0l3.47,-12.583l0.433,-0c1.303,0.87 2.605,0.87 3.908,0.87l40.788,-0c2.168,-0 3.465,-0 4.768,-0.87l0.437,-0l-3.037,12.583l-0.438,0c-1.303,-3.903 -5.633,-4.34 -9.108,-4.34l-9.108,-0l-0,46.864l-0.005,-0Zm33.4,6.94l9.983,0.865c5.205,0.438 10.421,-1.302 14.751,-4.768l-3.465,10.411l-32.978,0c3.903,-1.303 3.466,-7.368 3.466,-10.848l-0,-29.935c-0,-3.465 0.437,-9.108 -3.466,-10.848l25.167,-0c1.303,-0 2.601,-0 3.903,-0.438l0,9.118c-2.6,-3.038 -5.643,-3.038 -9.546,-3.038c-2.6,0 -5.215,0 -7.815,0.428l-0,14.761l9.118,0c1.303,0 2.6,0 3.465,-0.437l0.438,-0l-0,8.243l-0.438,-0c-1.302,-2.168 -4.34,-2.168 -6.94,-2.168l-5.643,0l-0,18.654Zm30.815,-34.275c-0,-3.465 0.865,-9.108 -3.476,-10.848l15.189,-0c-3.903,1.302 -3.465,7.378 -3.465,10.848l-0,29.935c-0,3.475 -0.438,9.118 3.465,10.848l-15.189,0c4.341,-1.73 3.476,-7.368 3.476,-10.848l-0,-29.935Zm19.524,-0c2.6,-3.465 7.368,-8.243 2.167,-10.848l14.324,-0l-18.226,22.994l16.053,21.264c2.178,3.028 5.206,5.205 9.109,7.368l-7.369,0c-3.902,0 -7.378,-1.302 -8.68,-3.465l-17.789,-23.432l10.411,-13.881Zm33.842,30.8c0,4.34 0,7.378 4.341,9.983l-13.886,0c3.902,-2.6 3.902,-5.643 3.902,-9.983l0,-31.665c0,-4.341 0,-7.378 -3.902,-9.983l11.285,-0c0.428,0.865 0.866,1.302 1.303,1.74l1.303,1.73l28.637,36.453l-0,-29.935c-0,-4.341 -0,-7.378 -3.903,-9.983l13.876,-0c-4.33,2.6 -4.33,5.642 -4.33,9.983l-0,44.248c-5.643,-1.73 -7.816,-4.33 -11.286,-9.108l-27.335,-34.28l0,30.8l-0.005,-0Zm50.767,-30.8c-0,-3.465 0.865,-9.108 -3.475,-10.848l15.188,-0c-3.903,1.74 -3.465,7.378 -3.465,10.848l-0,29.935c-0,3.475 -0.438,9.118 3.465,10.848l-15.188,0c3.902,-1.303 3.475,-7.368 3.475,-10.848l-0,-29.935Zm48.161,-1.74c-3.038,-3.038 -8.243,-4.768 -12.583,-4.768c-4.341,-0 -9.984,1.73 -9.984,6.94c0,10.849 26.897,10.849 26.897,25.595c0,8.243 -8.67,16.054 -20.821,16.054c-4.778,-0 -9.983,-0.428 -14.324,-2.168l-2.167,-9.983c4.34,3.903 10.848,6.508 17.351,6.508c4.34,-0 11.286,-2.6 11.286,-8.243c-0,-12.146 -27.335,-9.974 -27.335,-26.897c0,-9.984 10.411,-13.449 19.957,-13.449c3.903,-0 7.805,0.437 11.718,1.74l0,8.671l0.005,-0Zm10.411,1.74c-0,-3.465 0.437,-9.108 -3.465,-10.848l15.178,-0c-3.902,1.302 -3.465,7.378 -3.465,10.848l0,29.935c0,3.475 -0.437,9.118 3.465,10.848l-15.178,0c3.902,-1.73 3.465,-7.368 3.465,-10.848l-0,-29.935Zm19.529,-0c2.6,-3.465 7.368,-8.243 2.168,-10.848l14.323,-0l-18.226,22.994l16.054,21.264c2.177,3.028 5.205,5.205 9.118,7.368l-7.378,0c-3.903,0 -7.378,-1.302 -8.681,-3.465l-17.789,-23.432l10.411,-13.881Z" style="fill:#236bb3;"/><path d="M864.365,350.956l-4.34,11.286c-1.74,4.34 -2.168,6.94 1.74,8.243l-14.751,0c4.768,-2.168 6.071,-6.94 7.806,-11.286l13.011,-32.967c1.302,-2.611 2.6,-6.081 -0.865,-7.378l12.146,-0l16.486,40.345c1.74,4.341 3.475,9.118 7.806,11.286l-16.054,0c3.903,-1.73 3.038,-2.6 0.865,-8.243l-4.331,-11.286l-19.519,0Zm9.546,-25.594l-7.805,19.966l15.616,0l-7.811,-19.966Zm-300.253,102.83l-0,18.654c-0,4.778 -0.433,12.156 4.773,13.886l-0,0.438l-19.525,-0l0,-0.438c5.206,-1.73 4.336,-9.108 4.336,-13.886l-0,-39.048c-0,-4.778 0.87,-12.146 -4.336,-13.886l0,-0.438l19.525,0l-0,0.438c-5.211,1.74 -4.773,9.108 -4.773,13.886l-0,13.011l37.313,0l-0,-13.011c-0,-4.778 0.865,-12.146 -4.341,-13.886l0,-0.438l19.529,0l0,0.438c-5.205,1.74 -4.34,9.108 -4.34,13.886l-0,39.048c-0,4.778 -0.865,12.156 4.34,13.886l0,0.438l-19.529,-0l0,-0.438c5.206,-1.73 4.341,-9.108 4.341,-13.886l-0,-18.654l-37.313,0Z" style="fill:#236bb3;"/><path d="M683.434,434.7c-0,16.059 -13.449,27.772 -29.075,27.772c-15.616,0 -28.637,-11.286 -28.637,-27.334c-0,-15.189 13.021,-27.773 29.512,-27.335c16.486,-0 28.2,12.583 28.2,26.897Zm-48.594,-0.427c-0,11.275 7.806,22.556 19.956,22.556c12.151,0 19.529,-8.68 19.529,-20.394c0,-11.713 -6.94,-22.994 -19.529,-22.994c-12.15,0.005 -19.956,9.113 -19.956,20.832Zm12.573,-29.945c-2.606,-0.024 -4.743,-2.162 -4.767,-4.768c-0,-3.038 2.167,-4.778 4.767,-4.778c2.601,0 4.778,2.178 4.778,4.778c0,3.038 -2.172,4.768 -4.778,4.768Zm14.324,-0c-2.608,-0.024 -4.748,-2.16 -4.778,-4.768c0,-3.038 2.178,-4.778 5.216,-4.778c2.6,0 4.33,2.178 4.33,4.778c-0,3.038 -1.725,4.768 -4.768,4.768Zm69.42,13.886c-3.465,-3.465 -9.108,-4.331 -14.313,-4.331c-12.146,0 -21.692,7.806 -21.692,20.395c0,13.011 10.411,22.556 22.557,22.556c3.903,0 7.806,-0.437 11.286,-1.74l-0,-11.276c-0,-3.475 -0,-7.378 -3.903,-8.68l-0,-0.438l12.146,0l-0,0.438c-0.438,0.865 -0.438,2.167 -0.438,3.475l0,17.779c0,1.312 0,2.61 0.438,3.913c-6.081,0.865 -12.584,2.167 -18.664,2.167c-20.394,0 -32.103,-10.848 -32.103,-26.897c0,-16.924 13.449,-27.772 32.541,-27.772c3.902,-0 8.243,0.865 12.145,1.74l0,8.671Zm40.784,0.432c-3.028,-3.037 -7.806,-4.768 -12.146,-4.768c-4.341,0 -10.411,1.731 -10.411,6.936c-0,10.858 27.335,10.858 27.335,25.167c-0,8.681 -8.681,16.486 -21.265,16.486c-4.768,0 -9.545,-0.865 -13.876,-2.167l-2.61,-9.984c4.778,3.903 11.286,6.508 17.361,6.508c4.768,0 11.286,-2.6 11.286,-8.243c0,-12.146 -26.907,-9.973 -26.907,-26.897c0,-9.983 9.983,-13.886 19.529,-13.886c3.903,0 8.243,0.865 11.709,1.74l-0,9.108l-0.005,0Zm11.286,1.74c-0,-3.475 0.437,-9.545 -3.466,-10.848l0,-0.437l15.189,-0l-0,0.437c-4.34,1.303 -3.475,7.368 -3.475,10.848l-0,29.503c-0,3.903 -0.865,9.546 3.475,11.286l-15.189,-0c3.903,-1.74 3.466,-7.378 3.466,-11.286l-0,-29.503Zm19.529,0c2.6,-3.475 7.378,-8.68 1.74,-10.848l-0,-0.437l14.313,-0l0,0.437l-18.226,22.994l16.059,20.827c2.6,3.465 5.643,5.643 9.545,7.806l-7.378,-0c-3.903,-0 -7.368,-1.303 -9.108,-3.466l-17.351,-23.431l10.406,-13.882Z" style="fill:#236bb3;"/><path d="M876.949,434.7c-0,16.059 -13.449,27.772 -29.075,27.772c-15.626,0 -28.637,-11.286 -28.637,-27.334c-0,-15.189 13.011,-27.773 29.502,-27.335c16.491,-0 28.21,12.583 28.21,26.897Zm-48.599,-0.427c0,11.275 7.806,22.556 19.967,22.556c12.146,0 19.519,-8.68 19.519,-20.394c-0,-11.713 -6.941,-22.994 -19.519,-22.994c-12.161,0.005 -19.967,9.113 -19.967,20.832Zm71.593,21.254c5.206,0.437 9.983,-1.303 13.886,-4.768l0.428,-0l-4.331,10.411l-32.55,-0c4.341,-1.74 3.913,-7.378 3.913,-10.849l0,-29.935c0,-3.475 0.428,-9.545 -3.913,-10.848l0,-0.437l15.189,-0l0,0.437c-3.903,1.303 -3.465,7.368 -3.465,10.848l-0,34.281l10.843,0.86Z" style="fill:#236bb3;"/><path d="M920.775,441.641l-3.903,11.286c-1.74,4.34 -2.178,6.508 1.303,8.243l-14.324,-0c4.34,-2.601 6.08,-6.941 7.806,-11.286l13.021,-32.978c0.865,-3.028 2.6,-6.07 -1.303,-7.368l0,-0.437l12.584,-0l16.476,40.783c1.74,4.34 3.038,8.68 7.815,11.286l-16.486,-0c3.903,-1.74 3.465,-2.601 1.303,-8.243l-4.341,-11.286l-19.951,-0Zm9.973,-25.595l-7.806,19.957l15.627,-0l-7.821,-19.957Z" style="fill:#236bb3;"/><path d="M969.364,450.759c-0,4.768 -0.438,7.805 3.902,10.411l-13.886,-0c4.341,-2.601 4.341,-5.643 4.341,-10.411l-0,-31.248c-0,-4.33 -0,-7.805 -4.341,-9.973l0,-0.437l11.719,-0l-0,0.437c-0,0.865 0.437,1.303 0.865,1.73l1.302,1.74l29.075,36.443l0,-29.935c0,-4.33 0,-7.805 -4.34,-9.973l-0,-0.437l13.886,-0l-0,0.437c-3.903,2.168 -3.903,5.643 -3.903,9.973l0,44.259c-5.643,-1.74 -8.243,-4.34 -11.708,-9.108l-26.907,-34.281l-0,30.373l-0.005,-0Zm-464.694,-77.674c-0,1.303 1.302,26.47 -4.341,49.464l4.341,-49.464Z" style="fill:#236bb3;"/></g></svg>