<svg xmlns="http://www.w3.org/2000/svg" xmlns:xlink="http://www.w3.org/1999/xlink" width="312" height="158" viewBox="0 0 312 158">
  <defs>
    <polygon id="path-1" points="0 156.497 311.115 156.497 311.115 .414 0 .414"/>
  </defs>
  <g fill="none" fill-rule="evenodd" class="web-landing-page">
    <g class="web-landing-page__rma-lightweight-home" transform="translate(-380 -30)">
      <g class="web-landing-page__rma-lightweight-home__header" transform="translate(1)">
        <g class="web-landing-page__rma-lightweight-home__header__group-75" transform="translate(379 30)">
          <polygon fill="#004494" points="223.391 155.872 310.402 155.872 310.402 98.295 223.391 98.295" class="web-landing-page__rma-lightweight-home__header__group-75__fill-1"/>
          <path fill="#FFF" d="M309.68884,97.5813372 L224.104719,97.5813372 L222.678132,97.5813372 L222.678132,99.0079237 L222.678132,155.159074 L222.678132,156.585661 L224.104719,156.585661 L309.68884,156.585661 L311.114924,156.585661 L311.114924,97.5813372 L309.68884,97.5813372 Z M224.104719,155.159074 L309.68884,155.159074 L309.68884,99.0079237 L224.104719,99.0079237 L224.104719,155.159074 Z" class="web-landing-page__rma-lightweight-home__header__group-75__fill-2"/>
          <polygon fill="#FFED00" points="265.071 111.24 266.876 109.943 268.685 111.24 267.998 109.142 269.832 107.844 267.571 107.844 266.876 105.724 266.185 107.849 263.924 107.844 265.758 109.142" class="web-landing-page__rma-lightweight-home__header__group-75__fill-3"/>
          <polygon fill="#FFED00" points="255.726 113.712 257.53 112.415 259.335 113.712 258.652 111.613 260.483 110.316 258.222 110.316 257.53 108.192 256.839 110.32 254.578 110.316 256.413 111.613" class="web-landing-page__rma-lightweight-home__header__group-75__fill-4"/>
          <polygon fill="#FFED00" points="250.693 114.937 250.002 117.065 247.741 117.061 249.576 118.358 248.889 120.457 250.693 119.16 252.498 120.457 251.811 118.358 253.645 117.061 251.384 117.061" class="web-landing-page__rma-lightweight-home__header__group-75__fill-5"/>
          <polygon fill="#FFED00" points="248.185 128.345 249.989 129.642 249.303 127.543 251.137 126.246 248.876 126.246 248.185 124.122 247.494 126.25 245.233 126.246 247.067 127.543 246.381 129.642" class="web-landing-page__rma-lightweight-home__header__group-75__fill-6"/>
          <polygon fill="#FFED00" points="251.385 135.461 250.694 133.337 250.003 135.465 247.742 135.461 249.576 136.758 248.885 138.857 250.694 137.555 252.499 138.857 251.812 136.758 253.646 135.461" class="web-landing-page__rma-lightweight-home__header__group-75__fill-7"/>
          <polygon fill="#FFED00" points="258.236 142.203 257.546 140.079 256.855 142.208 254.594 142.203 256.428 143.501 255.741 145.599 257.546 144.302 259.35 145.599 258.663 143.501 260.497 142.203" class="web-landing-page__rma-lightweight-home__header__group-75__fill-8"/>
          <polygon fill="#FFED00" points="267.571 144.647 266.88 142.522 266.189 144.651 263.928 144.647 265.762 145.944 265.075 148.043 266.88 146.745 268.684 148.043 267.997 145.944 269.832 144.647" class="web-landing-page__rma-lightweight-home__header__group-75__fill-9"/>
          <polygon fill="#FFED00" points="276.905 142.203 276.214 140.079 275.523 142.208 273.262 142.203 275.096 143.501 274.409 145.599 276.214 144.302 278.018 145.599 277.331 143.501 279.166 142.203" class="web-landing-page__rma-lightweight-home__header__group-75__fill-10"/>
          <polygon fill="#FFED00" points="283.758 135.461 283.067 133.337 282.371 135.465 280.115 135.461 281.949 136.758 281.258 138.857 283.067 137.555 284.871 138.857 284.181 136.758 286.015 135.461" class="web-landing-page__rma-lightweight-home__header__group-75__fill-11"/>
          <polygon fill="#FFED00" points="288.5 126.222 286.239 126.222 285.544 124.098 284.857 126.227 282.596 126.222 284.43 127.519 283.743 129.618 285.544 128.317 287.352 129.618 286.665 127.519" class="web-landing-page__rma-lightweight-home__header__group-75__fill-12"/>
          <polygon fill="#FFED00" points="281.26 120.428 283.064 119.132 284.873 120.428 284.182 118.329 286.016 117.037 283.759 117.037 283.064 114.912 282.373 117.041 280.112 117.037 281.946 118.329" class="web-landing-page__rma-lightweight-home__header__group-75__fill-13"/>
          <polygon fill="#FFED00" points="276.24 108.194 275.549 110.323 273.288 110.319 275.118 111.616 274.435 113.715 276.244 112.414 278.044 113.715 277.361 111.616 279.196 110.319 276.931 110.319" class="web-landing-page__rma-lightweight-home__header__group-75__fill-14"/>
          <polygon fill="#FFF" points="150.132 113.179 156.061 113.179 156.061 114.137 151.235 114.137 151.235 117.941 155.316 117.941 155.316 118.9 151.235 118.9 151.235 122.929 150.132 122.929" class="web-landing-page__rma-lightweight-home__header__group-75__fill-15"/>
          <g class="web-landing-page__rma-lightweight-home__header__group-75__group-74" transform="translate(0 .09)">
            <path fill="#FFF" d="M162.761598,115.795249 L162.761598,122.840121 L161.687255,122.840121 L161.687255,122.34698 C161.687255,122.34698 160.612912,122.981019 159.567755,122.981019 C157.563489,122.981019 157.147842,122.065185 157.147842,119.472672 L157.147842,115.795249 L158.222185,115.795249 L158.222185,119.458583 C158.222185,121.402967 158.393778,122.037006 159.725762,122.037006 C160.785008,122.037006 161.687255,121.515685 161.687255,121.515685 L161.687255,115.795249 L162.761598,115.795249 Z" class="web-landing-page__rma-lightweight-home__header__group-75__group-74__fill-16"/>
            <path fill="#FFF" d="M164.822072,122.840121 L164.822072,115.795249 L165.881822,115.795249 L165.881822,116.28839 C165.881822,116.28839 167.04171,115.654352 168.10146,115.654352 C170.077546,115.654352 170.521373,116.612454 170.521373,119.120429 L170.521373,122.840121 L169.462127,122.840121 L169.462127,119.148608 C169.462127,117.288762 169.247258,116.598365 167.915274,116.598365 C166.884207,116.598365 165.896415,117.119685 165.896415,117.119685 L165.896415,122.840121 L164.822072,122.840121 Z" class="web-landing-page__rma-lightweight-home__header__group-75__group-74__fill-18"/>
            <path fill="#FFF" d="M176.949618,121.515736 L176.949618,116.739312 C176.720156,116.697043 175.832502,116.570236 175.245262,116.570236 C173.741685,116.570236 173.297858,117.542428 173.297858,119.374095 C173.297858,121.656633 174.056691,122.037056 174.902076,122.037056 C175.91855,122.037056 176.949618,121.515736 176.949618,121.515736 L176.949618,121.515736 Z M178.008864,122.840171 L176.949618,122.840171 L176.949618,122.36112 C176.949618,122.36112 175.847095,122.981069 174.772752,122.981069 C173.369816,122.981069 172.195336,122.417479 172.195336,119.374095 C172.195336,116.893796 173.011534,115.654402 175.187896,115.654402 C175.80382,115.654402 176.734749,115.7953 176.949618,115.837569 L176.949618,112.723736 L178.008864,112.723736 L178.008864,122.840171 Z" class="web-landing-page__rma-lightweight-home__header__group-75__group-74__fill-20"/>
            <path fill="#FFF" d="M184.565979,118.909284 C184.565979,117.161653 184.022015,116.542207 182.761486,116.542207 C181.544233,116.542207 180.857358,117.203922 180.843268,118.909284 L184.565979,118.909284 Z M185.368088,121.923986 L185.396268,122.755784 C185.396268,122.755784 183.763871,122.98122 182.604486,122.98122 C180.470393,122.98122 179.768925,121.754909 179.768925,119.360156 C179.768925,116.682601 180.943406,115.65405 182.761486,115.65405 C184.666117,115.65405 185.640322,116.640332 185.640322,118.951553 L185.582957,119.754669 L180.857358,119.754669 C180.857358,121.262271 181.329364,122.050794 182.732803,122.050794 C183.807146,122.050794 185.368088,121.923986 185.368088,121.923986 L185.368088,121.923986 Z" class="web-landing-page__rma-lightweight-home__header__group-75__group-74__fill-22"/>
            <path fill="#FFF" d="M191.753359,121.515736 L191.753359,116.739312 C191.523897,116.697043 190.636244,116.570236 190.049003,116.570236 C188.545426,116.570236 188.101599,117.542428 188.101599,119.374095 C188.101599,121.656633 188.860433,122.037056 189.705817,122.037056 C190.722292,122.037056 191.753359,121.515736 191.753359,121.515736 L191.753359,121.515736 Z M192.812606,122.840171 L191.753359,122.840171 L191.753359,122.36112 C191.753359,122.36112 190.650837,122.981069 189.576494,122.981069 C188.173558,122.981069 186.999077,122.417479 186.999077,119.374095 C186.999077,116.893796 187.815276,115.654402 189.991638,115.654402 C190.607561,115.654402 191.53849,115.7953 191.753359,115.837569 L191.753359,112.723736 L192.812606,112.723736 L192.812606,122.840171 Z" class="web-landing-page__rma-lightweight-home__header__group-75__group-74__fill-24"/>
            <path fill="#FFF" d="M202.719708,119.205118 C202.719708,117.387541 202.347337,116.598012 201.087311,116.598012 C200.099016,116.598012 199.097135,117.007118 199.097135,117.007118 L199.097135,121.966205 C199.097135,121.966205 200.027561,122.037157 200.414022,122.037157 C202.376019,122.037157 202.719708,121.177682 202.719708,119.205118 M203.808141,119.205118 C203.808141,122.008474 203.034715,122.98117 200.428615,122.98117 C199.569141,122.98117 198.036881,122.825679 198.036881,122.825679 L198.036881,112.723836 L199.097135,112.723836 L199.097135,116.147644 C199.097135,116.147644 200.185064,115.654 201.201538,115.654 C203.149446,115.654 203.808141,116.668964 203.808141,119.205118" class="web-landing-page__rma-lightweight-home__header__group-75__group-74__fill-26"/>
            <polygon fill="#FFF" points="205.84 115.795 207.631 121.924 208.103 121.924 209.907 115.795 210.981 115.795 208.002 125.968 206.929 125.968 207.86 122.84 206.799 122.84 204.766 115.795" class="web-landing-page__rma-lightweight-home__header__group-75__group-74__fill-28"/>
            <path fill="#FFF" d="M94.8392215,135.365199 L94.8392215,138.732144 C94.8392215,140.268429 94.9393593,140.704708 95.8702888,140.704708 C96.2713433,140.704708 97.1449074,140.62017 97.1449074,140.62017 L97.2168657,141.494237 C97.2168657,141.494237 96.2567503,141.648721 95.755558,141.648721 C94.281167,141.648721 93.7799747,141.099724 93.7799747,139.070298 L93.7799747,135.365199 L92.7629971,135.365199 L92.7629971,134.449365 L93.7799747,134.449365 L93.7799747,132.293635 L94.8392215,132.293635 L94.8392215,134.449365 L97.1162247,134.449365 L97.1162247,135.365199 L94.8392215,135.365199 Z" class="web-landing-page__rma-lightweight-home__header__group-75__group-74__fill-30"/>
            <path fill="#FFF" d="M98.432408,141.494086 L98.432408,131.37765 L99.506751,131.37765 L99.506751,134.843727 C99.506751,134.843727 100.652046,134.308317 101.711796,134.308317 C103.673793,134.308317 104.131709,135.26642 104.131709,137.774394 L104.131709,141.494086 L103.05787,141.494086 L103.05787,137.802573 C103.05787,135.942727 102.843001,135.25233 101.52561,135.25233 C100.509136,135.25233 99.506751,135.675525 99.506751,135.675525 L99.506751,141.494086 L98.432408,141.494086 Z" class="web-landing-page__rma-lightweight-home__header__group-75__group-74__fill-32"/>
            <path fill="#FFF" d="M110.602726,137.563249 C110.602726,135.815618 110.058761,135.196172 108.798232,135.196172 C107.580979,135.196172 106.894104,135.857887 106.880014,137.563249 L110.602726,137.563249 Z M111.404835,140.577951 L111.433014,141.409749 C111.433014,141.409749 109.800617,141.635185 108.641232,141.635185 C106.507139,141.635185 105.805671,140.408874 105.805671,138.014121 C105.805671,135.336566 106.980152,134.308015 108.798232,134.308015 C110.702864,134.308015 111.677069,135.294297 111.677069,137.605518 L111.619704,138.408634 L106.894104,138.408634 C106.894104,139.916236 107.366111,140.704759 108.76955,140.704759 C109.843893,140.704759 111.404835,140.577951 111.404835,140.577951 L111.404835,140.577951 Z" class="web-landing-page__rma-lightweight-home__header__group-75__group-74__fill-34"/>
            <polygon fill="#FFF" points="116.686 131.744 122.715 131.744 122.715 132.702 117.789 132.702 117.789 136.07 121.856 136.07 121.856 137.014 117.789 137.014 117.789 140.536 122.715 140.536 122.715 141.494 116.686 141.494" class="web-landing-page__rma-lightweight-home__header__group-75__group-74__fill-36"/>
            <path fill="#FFF" d="M129.845391,134.449214 L129.845391,141.494086 L128.771048,141.494086 L128.771048,141.000945 C128.771048,141.000945 127.696705,141.634984 126.651548,141.634984 C124.646779,141.634984 124.231634,140.71915 124.231634,138.126637 L124.231634,134.449214 L125.305977,134.449214 L125.305977,138.112548 C125.305977,140.056932 125.47757,140.690971 126.809554,140.690971 C127.868801,140.690971 128.771048,140.16965 128.771048,140.16965 L128.771048,134.449214 L129.845391,134.449214 Z" class="web-landing-page__rma-lightweight-home__header__group-75__group-74__fill-38"/>
            <path fill="#FFF" d="M131.905865,134.449214 L132.965615,134.449214 L132.965615,135.407317 C132.965615,135.407317 134.211551,134.561932 135.585804,134.294227 L135.585804,135.365048 C134.240233,135.633256 132.980208,136.32315 132.980208,136.32315 L132.980208,141.494086 L131.905865,141.494086 L131.905865,134.449214 Z" class="web-landing-page__rma-lightweight-home__header__group-75__group-74__fill-40"/>
            <path fill="#FFF" d="M141.427965,137.887112 C141.427965,135.928638 140.998228,135.22415 139.466471,135.22415 C137.948302,135.22415 137.504475,135.928638 137.504475,137.887112 C137.504475,139.887855 137.776709,140.71915 139.466471,140.71915 C141.170324,140.71915 141.427965,139.887855 141.427965,137.887112 M142.530488,137.887112 C142.530488,140.451445 141.886385,141.634984 139.466471,141.634984 C137.060648,141.634984 136.401952,140.451445 136.401952,137.887112 C136.401952,135.463676 137.203558,134.308317 139.466471,134.308317 C141.742971,134.308317 142.530488,135.463676 142.530488,137.887112" class="web-landing-page__rma-lightweight-home__header__group-75__group-74__fill-42"/>
            <path fill="#FFF" d="M145.350399,135.815819 L145.350399,140.564566 C145.536585,140.592242 146.281328,140.71905 146.896748,140.71905 C148.47178,140.71905 148.987565,139.915934 148.987565,137.887011 C148.987565,135.956716 148.371642,135.252229 147.326485,135.252229 C146.352783,135.252229 145.350399,135.815819 145.350399,135.815819 L145.350399,135.815819 Z M144.276056,134.449114 L145.336309,134.449114 L145.336309,134.956345 C145.336309,134.956345 146.424238,134.308216 147.483988,134.308216 C149.287979,134.308216 150.075998,135.393127 150.075998,137.887011 C150.075998,140.648601 149.159158,141.634883 146.954113,141.634883 C146.281328,141.634883 145.550674,141.522165 145.350399,141.479896 L145.350399,144.621909 L144.276056,144.621909 L144.276056,134.449114 Z" class="web-landing-page__rma-lightweight-home__header__group-75__group-74__fill-44"/>
            <path fill="#FFF" d="M156.303463,137.563249 C156.303463,135.815618 155.759499,135.196172 154.49897,135.196172 C153.281717,135.196172 152.594842,135.857887 152.580752,137.563249 L156.303463,137.563249 Z M157.105572,140.577951 L157.133752,141.409749 C157.133752,141.409749 155.501354,141.635185 154.34197,141.635185 C152.207877,141.635185 151.506409,140.408874 151.506409,138.014121 C151.506409,135.336566 152.68089,134.308015 154.49897,134.308015 C156.403601,134.308015 157.377806,135.294297 157.377806,137.605518 L157.320441,138.408634 L152.594842,138.408634 C152.594842,139.916236 153.066848,140.704759 154.470287,140.704759 C155.54463,140.704759 157.105572,140.577951 157.105572,140.577951 L157.105572,140.577951 Z" class="web-landing-page__rma-lightweight-home__header__group-75__group-74__fill-46"/>
            <path fill="#FFF" d="M160.912873,138.182946 C160.039812,138.267485 159.69562,138.676087 159.69562,139.451526 C159.69562,140.268731 160.053902,140.747279 160.784052,140.747279 C161.844305,140.747279 163.032373,140.311001 163.032373,140.311001 L163.032373,137.98569 L160.912873,138.182946 Z M164.106716,140.184193 C164.134895,140.592292 164.478584,140.747279 164.937004,140.803638 L164.894232,141.634933 C164.134895,141.634933 163.619613,141.494036 163.189876,141.071344 C163.189876,141.071344 161.901168,141.634933 160.611956,141.634933 C159.309158,141.634933 158.5936,140.902267 158.5936,139.479203 C158.5936,138.126587 159.309158,137.534818 160.784052,137.393921 L163.032373,137.182574 L163.032373,136.577219 C163.032373,135.590433 162.602636,135.23819 161.743664,135.23819 C160.74128,135.23819 159.036924,135.421356 159.036924,135.421356 L158.994152,134.618241 C158.994152,134.618241 160.569184,134.308267 161.80103,134.308267 C163.418834,134.308267 164.106716,135.040933 164.106716,136.577219 L164.106716,140.184193 Z" class="web-landing-page__rma-lightweight-home__header__group-75__group-74__fill-48"/>
            <path fill="#FFF" d="M166.224555,141.494086 L166.224555,134.449214 L167.284305,134.449214 L167.284305,134.942355 C167.284305,134.942355 168.444193,134.308317 169.503943,134.308317 C171.480029,134.308317 171.923856,135.26642 171.923856,137.774394 L171.923856,141.494086 L170.86461,141.494086 L170.86461,137.802573 C170.86461,135.942727 170.649741,135.25233 169.317757,135.25233 C168.28669,135.25233 167.298898,135.77365 167.298898,135.77365 L167.298898,141.494086 L166.224555,141.494086 Z" class="web-landing-page__rma-lightweight-home__header__group-75__group-74__fill-50"/>
            <path fill="#FFF" d="M180.599314,140.676831 C182.145663,140.676831 183.019731,140.085062 183.019731,138.563369 L183.019731,131.743933 L184.10766,131.743933 L184.10766,138.53519 C184.10766,140.761369 182.861724,141.634933 180.599314,141.634933 C178.422449,141.634933 177.176513,140.775459 177.176513,138.53519 L177.176513,131.743933 L178.279538,131.743933 L178.279538,138.563369 C178.279538,140.085062 179.139013,140.676831 180.599314,140.676831" class="web-landing-page__rma-lightweight-home__header__group-75__group-74__fill-52"/>
            <path fill="#FFF" d="M186.282513,141.494086 L186.282513,134.449214 L187.342263,134.449214 L187.342263,134.942355 C187.342263,134.942355 188.502151,134.308317 189.561901,134.308317 C191.537987,134.308317 191.981814,135.26642 191.981814,137.774394 L191.981814,141.494086 L190.922567,141.494086 L190.922567,137.802573 C190.922567,135.942727 190.707699,135.25233 189.375212,135.25233 C188.344647,135.25233 187.356856,135.77365 187.356856,135.77365 L187.356856,141.494086 L186.282513,141.494086 Z" class="web-landing-page__rma-lightweight-home__header__group-75__group-74__fill-54"/>
            <mask id="mask-2" fill="#fff">
              <use xlink:href="#path-1"/>
            </mask>
            <path fill="#FFF" d="M193.970481,141.494237 L195.044824,141.494237 L195.044824,134.449365 L193.970481,134.449365 L193.970481,141.494237 Z M193.970481,132.857224 L195.044824,132.857224 L195.044824,131.631417 L193.970481,131.631417 L193.970481,132.857224 Z" class="web-landing-page__rma-lightweight-home__header__group-75__group-74__fill-56" mask="url(#mask-2)"/>
            <path fill="#FFF" d="M201.816958,137.887112 C201.816958,135.928638 201.387221,135.22415 199.855465,135.22415 C198.337295,135.22415 197.893468,135.928638 197.893468,137.887112 C197.893468,139.887855 198.165702,140.71915 199.855465,140.71915 C201.559317,140.71915 201.816958,139.887855 201.816958,137.887112 M202.919481,137.887112 C202.919481,140.451445 202.275378,141.634984 199.855465,141.634984 C197.449138,141.634984 196.790946,140.451445 196.790946,137.887112 C196.790946,135.463676 197.592551,134.308317 199.855465,134.308317 C202.131965,134.308317 202.919481,135.463676 202.919481,137.887112" class="web-landing-page__rma-lightweight-home__header__group-75__group-74__fill-58" mask="url(#mask-2)"/>
            <path fill="#FFF" d="M204.6652,141.494086 L204.6652,134.449214 L205.72495,134.449214 L205.72495,134.942355 C205.72495,134.942355 206.884838,134.308317 207.944588,134.308317 C209.920674,134.308317 210.364501,135.26642 210.364501,137.774394 L210.364501,141.494086 L209.305254,141.494086 L209.305254,137.802573 C209.305254,135.942727 209.090386,135.25233 207.757899,135.25233 C206.727335,135.25233 205.739543,135.77365 205.739543,135.77365 L205.739543,141.494086 L204.6652,141.494086 Z" class="web-landing-page__rma-lightweight-home__header__group-75__group-74__fill-59" mask="url(#mask-2)"/>
            <polygon fill="#FFF" points="45.125 31.325 47.539 31.325 47.539 28.909 45.125 28.909" class="web-landing-page__rma-lightweight-home__header__group-75__group-74__fill-60" mask="url(#mask-2)"/>
            <polygon fill="#FFF" points="45.125 52.695 47.539 52.695 47.539 33.679 45.125 33.679" class="web-landing-page__rma-lightweight-home__header__group-75__group-74__fill-61" mask="url(#mask-2)"/>
            <path fill="#FFF" d="M52.2441654,28.9087824 L54.6580404,28.9087824 L54.6580404,33.6781606 L64.1293673,33.6781606 L64.1293673,36.031651 L54.6580404,36.031651 L54.6580404,47.9254074 C54.6580404,49.2533657 55.6830692,50.3412952 57.0100212,50.3412952 L64.1293673,50.3412952 L64.1293673,52.6947856 L57.0100212,52.6947856 C54.5362647,52.6947856 52.2441654,50.7030997 52.2441654,47.9254074 L52.2441654,36.031651 L48.6849955,36.031651 L48.6849955,33.6781606 L52.2441654,33.6781606 L52.2441654,28.9087824 Z" class="web-landing-page__rma-lightweight-home__header__group-75__group-74__fill-62" mask="url(#mask-2)"/>
            <path fill="#FFF" d="M24.1914859,43.2167157 L42.7728385,43.2167157 C42.7728385,41.1032542 42.651566,39.5337574 42.411034,38.5077221 C42.1694955,37.4816869 41.7463,36.5759176 41.1439635,35.791924 C40.3594667,34.8861548 39.393816,34.221924 38.1267455,33.920001 C36.9200596,33.6185811 34.8700019,33.4364208 32.0943224,33.4364208 C29.2587615,33.4364208 27.2685853,33.6185811 26.0020179,33.920001 C24.7349474,34.221924 23.7698,34.8861548 23.0446814,35.791924 C22.3809538,36.5759176 21.9592679,37.4816869 21.7776109,38.5077221 C21.5375821,39.5337574 21.4158064,41.1032542 21.355925,43.2167157 C21.4158064,45.2702958 21.5375821,46.838283 21.7776109,47.8658279 C21.9592679,48.8913599 22.3809538,49.7971292 23.0446814,50.581626 C23.7698,51.4873952 24.7349474,52.1511228 26.0020179,52.4530458 C27.2685853,52.8148503 29.2587615,52.936626 32.0943224,52.936626 C34.8700019,52.936626 36.9200596,52.8148503 38.1267455,52.4530458 C39.393816,52.1511228 40.3594667,51.4873952 41.1439635,50.581626 C41.626034,49.9777798 41.9878385,49.2536676 42.2298801,48.5300587 L39.393816,48.5300587 C39.2126622,48.7715971 39.0320115,49.0121292 38.7909763,49.2536676 C38.2475147,49.6758567 37.4635212,50.039674 36.4983737,50.2193183 C35.4733449,50.4009753 34.0246173,50.4613599 32.1542038,50.4613599 C30.223909,50.4613599 28.7771942,50.4009753 27.810034,50.2193183 C26.7850051,50.039674 26.0618994,49.6758567 25.5184378,49.2536676 C24.7948288,48.6498215 24.3726397,47.6237862 24.2513673,46.2359465 C24.1914859,45.2702958 24.1914859,44.1823663 24.1914859,43.2167157 M40.0570404,40.8013311 L24.1914859,40.8013311 C24.2513673,39.0516869 24.6745628,37.8434913 25.5184378,37.1797638 C26.0618994,36.6961837 26.7850051,36.3937574 27.810034,36.2136099 C28.7771942,35.9720715 30.223909,35.9116869 32.1542038,35.9116869 C34.0246173,35.9116869 35.4733449,35.9720715 36.4983737,36.2136099 C37.4635212,36.3937574 38.2475147,36.6961837 38.7909763,37.1797638 C39.6353545,37.8434913 40.0570404,39.0516869 40.0570404,40.8013311" class="web-landing-page__rma-lightweight-home__header__group-75__group-74__fill-63" mask="url(#mask-2)"/>
            <path fill="#FFF" d="M42.7722346,85.9587077 C66.3614846,85.9587077 85.5446705,66.8223199 85.5446705,43.2164641 C85.5446705,19.5507269 66.3614846,0.413835897 42.7722346,0.413835897 C34.9891609,0.413835897 27.6896673,2.46590641 21.4157058,6.14886474 L23.7691962,10.2545154 C29.3804365,6.99475256 35.8345455,5.18371731 42.7722346,5.18371731 C63.7659526,5.18371731 80.7788147,22.2081532 80.7788147,43.2164641 C80.7788147,64.1648936 63.7659526,81.2497141 42.7722346,81.2497141 C21.7785167,81.2497141 4.76615769,64.1648936 4.76615769,43.2164641 L-0.000201282051,43.2164641 C-0.000201282051,66.8223199 19.1834878,85.9587077 42.7722346,85.9587077" class="web-landing-page__rma-lightweight-home__header__group-75__group-74__fill-64" mask="url(#mask-2)"/>
            <path fill="#FFF" d="M42.7722346,76.4808391 C55.0796256,76.4808391 65.8180231,69.7801596 71.5495295,59.8182077 L67.4463949,57.4642141 C62.4993853,65.9764321 53.328975,71.7114609 42.7722346,71.7114609 C27.0264429,71.7114609 14.297366,58.9139481 14.297366,43.2169673 C14.297366,27.4596019 27.0264429,14.6615859 42.7722346,14.6615859 C53.328975,14.6615859 62.4993853,20.3966147 67.4463949,28.9093359 L71.5495295,26.5538327 C65.8180231,16.5933904 55.0796256,9.8927109 42.7722346,9.8927109 C24.4329237,9.8927109 9.53151026,24.8041885 9.53151026,43.2169673 C9.53151026,61.5693615 24.4329237,76.4808391 42.7722346,76.4808391" class="web-landing-page__rma-lightweight-home__header__group-75__group-74__fill-65" mask="url(#mask-2)"/>
            <path fill="#FFF" d="M98.594591,52.6995157 L98.594591,33.673833 L110.431988,33.673833 C113.634889,33.7342176 115.687463,33.7946022 116.593735,33.9158747 C118.164238,34.0960221 119.250658,34.8221471 119.854504,36.028833 C120.277197,36.8148394 120.458854,37.9616439 120.458854,39.4118811 C120.458854,40.4998106 120.398469,41.344692 120.277197,41.9485381 C120.156931,42.4925029 119.97628,42.9750766 119.612966,43.2764965 C119.130392,43.8209644 118.405777,44.2431535 117.317847,44.4851952 C118.164238,44.6054612 118.768085,44.9073843 119.250658,45.3914676 C119.612966,45.8131535 119.854504,46.2373554 119.97628,46.7798106 C120.096546,47.3237753 120.156931,48.4106984 120.156931,49.9812016 L120.156931,52.6995157 L117.620274,52.6995157 L117.620274,50.8869708 C117.620274,49.3164676 117.559889,48.2300478 117.499504,47.686083 C117.317847,46.4778875 116.65412,45.7532721 115.445421,45.5117337 C114.962847,45.451349 114.539652,45.451349 114.177344,45.451349 C113.815037,45.3914676 112.606841,45.3914676 110.431988,45.3914676 L101.131248,45.3914676 L101.131248,52.6995157 L98.594591,52.6995157 Z M101.131248,43.1567337 L110.431988,43.1567337 C112.908764,43.1567337 114.478764,43.0968522 115.203379,43.034958 C115.86912,42.9750766 116.471456,42.794426 116.895658,42.5523843 C117.559889,42.1301952 117.861812,41.0422657 117.861812,39.3519997 C117.861812,37.9616439 117.559889,36.9949869 116.95554,36.5727978 C116.593735,36.3307561 115.989386,36.1506087 115.143498,36.028833 C114.29912,35.9689516 112.728617,35.908567 110.431988,35.908567 L101.131248,35.908567 L101.131248,43.1567337 Z M124.808056,43.4586567 L122.633203,43.4586567 L122.633203,42.8548106 C122.633203,41.526349 123.115274,40.559692 124.20421,40.0761119 C125.230245,39.5316439 127.162553,39.2911119 130.061517,39.2911119 C132.296754,39.2911119 133.928649,39.4118811 134.894803,39.5935381 C135.86146,39.8340702 136.645453,40.1978875 137.189418,40.800224 C137.671992,41.2239228 137.973915,41.7678875 138.09569,42.4326215 C138.275838,43.034958 138.337732,44.1827689 138.337732,45.7532721 L138.337732,52.6995157 L136.223264,52.6995157 L136.283146,51.1290125 L136.162879,51.1290125 C135.679299,51.8531247 135.015069,52.337208 134.290453,52.5792497 C133.564831,52.7593971 132.175985,52.8811728 130.183293,52.8811728 C127.827287,52.8811728 126.256783,52.8192785 125.352021,52.6995157 C124.445748,52.5792497 123.781517,52.337208 123.297937,52.0352849 C122.813854,51.6729772 122.512937,51.2492785 122.33128,50.8265862 C122.149623,50.3445157 122.029357,49.6787753 122.029357,48.8338939 C122.029357,47.8677401 122.211517,47.0822369 122.451546,46.4778875 C122.753469,45.9354324 123.177671,45.5716151 123.841902,45.2712016 C124.566014,44.9692785 126.196902,44.7871183 128.79344,44.7871183 C131.511754,44.7871183 133.262908,44.9073843 134.108796,45.0890413 C134.955187,45.2093074 135.618915,45.6335093 136.041104,46.2373554 L136.223264,46.2373554 L136.223264,44.7871183 C136.223264,43.6388042 136.041104,42.794426 135.618915,42.3103426 C135.256607,41.8282721 134.652761,41.526349 133.928649,41.4045734 C133.142139,41.2239228 131.934447,41.1640413 130.183293,41.1640413 C127.949062,41.1640413 126.498322,41.2838042 125.834594,41.526349 C125.170363,41.8282721 124.808056,42.3707272 124.808056,43.2764965 L124.808056,43.4586567 Z M130.183293,46.6595446 C128.491014,46.6595446 127.284831,46.7199292 126.558706,46.7798106 C125.894476,46.8412016 125.412405,46.9619708 125.109979,47.0822369 C124.566014,47.4440413 124.264091,48.0483907 124.264091,48.8942785 C124.264091,49.7406696 124.625896,50.3445157 125.290629,50.646942 C125.77421,50.8869708 127.586754,51.0092497 130.605482,51.0092497 C132.840719,51.0092497 134.290453,50.8869708 135.015069,50.5850478 C135.739181,50.2826215 136.101488,49.7406696 136.101488,48.8338939 C136.101488,47.9885093 135.679299,47.4440413 134.894803,47.1421183 C134.108796,46.8412016 132.538293,46.6595446 130.183293,46.6595446 L130.183293,46.6595446 Z M144.799389,52.6995157 L147.880514,52.6995157 L151.92578,41.4659644 L152.10794,41.4659644 L156.215101,52.6995157 L159.295722,52.6995157 L165.455456,39.4717625 L163.040575,39.4717625 L157.905367,50.7667048 L157.725219,50.7667048 L153.678444,39.4717625 L150.355277,39.4717625 L146.369892,50.7667048 L146.188235,50.7667048 L141.114921,39.4717625 L138.759921,39.4717625 L144.799389,52.6995157 Z M166.481995,52.6995157 L169.018652,52.6995157 L169.018652,36.028833 L170.106581,36.028833 L180.858062,52.6995157 L182.911139,52.6995157 L193.541851,36.028833 L194.628271,36.028833 L194.628271,52.6995157 L197.164928,52.6995157 L197.164928,33.673833 L192.031229,33.673833 L181.884601,49.800551 L171.555309,33.673833 L166.481995,33.673833 L166.481995,52.6995157 Z M201.99771,43.4586567 L199.82336,43.4586567 C199.82336,43.2166151 199.761466,43.034958 199.761466,42.8548106 C199.761466,41.526349 200.305431,40.559692 201.331969,40.0761119 C202.360017,39.5316439 204.35271,39.2911119 207.191793,39.2911119 C209.426024,39.2911119 211.056408,39.4118811 212.023065,39.5935381 C213.049101,39.8340702 213.775729,40.1978875 214.379575,40.800224 C214.801764,41.2239228 215.103687,41.7678875 215.284338,42.4326215 C215.406113,43.034958 215.465995,44.1827689 215.465995,45.7532721 L215.465995,52.6995157 L213.413421,52.6995157 L213.473303,51.1290125 L213.351527,51.1290125 C212.809072,51.8531247 212.204722,52.337208 211.479101,52.5792497 C210.754988,52.7593971 209.366142,52.8811728 207.311556,52.8811728 C205.01694,52.8811728 203.386556,52.8192785 202.480283,52.6995157 C201.574011,52.5792497 200.90978,52.337208 200.427206,52.0352849 C200.003508,51.6729772 199.641703,51.2492785 199.461053,50.8265862 C199.279396,50.3445157 199.219514,49.6787753 199.219514,48.8338939 C199.219514,47.8677401 199.339277,47.0822369 199.641703,46.4778875 C199.883242,45.9354324 200.365815,45.5716151 201.029543,45.2712016 C201.69629,44.9692785 203.386556,44.7871183 205.983094,44.7871183 C208.701912,44.7871183 210.452562,44.9073843 211.298953,45.0890413 C212.144841,45.2093074 212.747681,45.6335093 213.230758,46.2373554 L213.413421,46.2373554 L213.413421,44.7871183 C213.413421,43.6388042 213.170876,42.794426 212.747681,42.3103426 C212.385373,41.8282721 211.842918,41.526349 211.056408,41.4045734 C210.332296,41.2239228 209.063716,41.1640413 207.37194,41.1640413 C205.137206,41.1640413 203.628094,41.2838042 202.963863,41.526349 C202.298123,41.8282721 201.99771,42.3707272 201.99771,43.2764965 L201.99771,43.4586567 Z M207.311556,46.6595446 C205.620787,46.6595446 204.412591,46.7199292 203.748863,46.7798106 C203.024248,46.8412016 202.540165,46.9619708 202.298123,47.0822369 C201.69629,47.4440413 201.453745,48.0483907 201.453745,48.8942785 C201.453745,49.7406696 201.756171,50.3445157 202.419899,50.646942 C202.963863,50.8869708 204.715017,51.0092497 207.795639,51.0092497 C209.970492,51.0092497 211.479101,50.8869708 212.144841,50.5850478 C212.869456,50.2826215 213.230758,49.7406696 213.230758,48.8338939 C213.230758,47.9885093 212.869456,47.4440413 212.023065,47.1421183 C211.238569,46.8412016 209.668065,46.6595446 207.311556,46.6595446 L207.311556,46.6595446 Z M219.692918,39.4717625 L216.432149,39.4717625 L216.432149,41.2838042 L219.692918,41.2838042 L219.692918,47.686083 C219.692918,48.7121183 219.692918,49.4986279 219.814694,50.0425926 C219.935463,50.5251663 220.11712,51.0092497 220.419546,51.3710542 C220.781351,51.9150189 221.3857,52.2773266 222.230078,52.5178587 C223.016085,52.7593971 224.102504,52.8811728 225.552742,52.8811728 C226.941588,52.8811728 228.029517,52.7593971 228.813511,52.5178587 C229.538126,52.216942 230.142476,51.8531247 230.566174,51.2492785 C230.806203,50.8265862 230.988363,50.4043971 231.108629,49.8604324 C231.170524,49.3164676 231.230405,48.5923554 231.230405,47.565817 L231.230405,46.7199292 L229.175819,46.7199292 L229.175819,47.565817 C229.175819,48.3503138 229.115937,48.9546631 229.056056,49.2565862 C229.056056,49.6188939 228.935287,49.8604324 228.753629,50.102474 C228.512091,50.4647817 228.209665,50.7068234 227.787476,50.8265862 C227.364783,50.9488651 226.639162,51.0092497 225.732889,51.0092497 C224.706351,51.0092497 223.922357,50.9488651 223.438274,50.8265862 C222.896322,50.7068234 222.532001,50.4647817 222.230078,50.1628587 C222.049931,49.8604324 221.928155,49.5585093 221.867771,49.3164676 C221.807386,49.0145446 221.747504,48.2300478 221.747504,47.0218522 L221.747504,41.2838042 L230.988363,41.2838042 L230.988363,39.4717625 L221.747504,39.4717625 L221.747504,36.2104901 L219.692918,36.2104901 L219.692918,39.4717625 Z M247.417004,48.6522369 L249.591354,48.6522369 C249.591354,50.2227401 249.047389,51.3106696 247.960969,51.9150189 C246.87304,52.5792497 245.00011,52.8811728 242.34369,52.8811728 C240.108956,52.8811728 238.418187,52.7593971 237.269873,52.6396343 C236.122062,52.4579772 235.277181,52.155551 234.673335,51.7328587 C233.344873,50.7667048 232.679133,48.8942785 232.679133,46.1155798 C232.679133,44.1827689 232.981056,42.6726503 233.525021,41.7059933 C234.069488,40.800224 234.853482,40.1359933 235.88153,39.8340702 C236.847684,39.4717625 238.598838,39.2911119 240.954844,39.2911119 C243.249963,39.2911119 244.880347,39.4118811 245.906383,39.6534196 C246.87304,39.8959644 247.719431,40.3780349 248.323277,41.0422657 C248.805851,41.6461119 249.168158,42.3103426 249.349815,43.0968522 C249.531472,43.8209644 249.651235,44.9692785 249.651235,46.5397817 L234.913363,46.5397817 C234.975258,48.2300478 235.277181,49.3164676 235.88153,49.920817 C236.303719,50.3445157 236.908069,50.646942 237.814341,50.8265862 C238.658719,50.9488651 240.108956,51.0092497 242.101649,51.0092497 C243.611767,51.0092497 244.69869,50.9488651 245.362418,50.8265862 C246.088543,50.7068234 246.570613,50.4043971 246.932921,50.0425926 C247.175466,49.7406696 247.357123,49.3164676 247.417004,48.6522369 L247.417004,48.6522369 Z M247.357123,44.7871183 C247.357123,43.4586567 246.994815,42.5523843 246.330585,42.068301 C245.846501,41.7059933 245.242655,41.4659644 244.458158,41.344692 C243.611767,41.2239228 242.463453,41.1640413 240.89295,41.1640413 C239.564992,41.1640413 238.478069,41.2239228 237.814341,41.344692 C237.088216,41.4659644 236.546264,41.7059933 236.122062,42.0084196 C235.457328,42.4925029 235.095524,43.4586567 234.975258,44.7871183 L247.357123,44.7871183 Z M251.584046,52.6995157 L253.638633,52.6995157 L253.638633,46.5996631 C253.638633,44.3030349 254.00094,42.794426 254.725053,42.1301952 C255.449668,41.4659644 257.019668,41.1640413 259.556325,41.1640413 C261.248604,41.1640413 262.335527,41.4045734 262.879492,41.8886567 C263.121533,42.1301952 263.301178,42.4326215 263.362065,42.794426 C263.483841,43.2166151 263.543722,43.7605798 263.543722,44.4851952 L263.543722,45.451349 L265.65819,45.451349 L265.65819,44.0630061 C265.65819,42.3103426 265.233988,41.1021471 264.327716,40.3181535 C263.90603,39.9558458 263.362065,39.6534196 262.697331,39.5316439 C262.093485,39.4118811 261.066947,39.2911119 259.798367,39.2911119 C258.470408,39.2911119 257.503751,39.3519997 256.840024,39.4118811 C256.17529,39.5316439 255.691206,39.6534196 255.269521,39.8340702 C254.604787,40.1978875 254.120703,40.679958 253.758899,41.2838042 L253.638633,41.2838042 L253.638633,39.4717625 L251.584046,39.4717625 L251.584046,52.6995157 Z M267.166799,52.6995157 L269.219373,52.6995157 L269.219373,39.4717625 L267.166799,39.4717625 L267.166799,52.6995157 Z M267.166799,36.1506087 L269.219373,36.1506087 L269.219373,33.673833 L267.166799,33.673833 L267.166799,36.1506087 Z M273.932392,43.4586567 L271.758043,43.4586567 C271.697658,43.2166151 271.697658,43.034958 271.697658,42.8548106 C271.697658,41.526349 272.240113,40.559692 273.268162,40.0761119 C274.2947,39.5316439 276.287392,39.2911119 279.126476,39.2911119 C281.360706,39.2911119 282.991091,39.4118811 283.957245,39.5935381 C284.985293,39.8340702 285.709908,40.1978875 286.314258,40.800224 C286.736447,41.2239228 287.03837,41.7678875 287.22053,42.4326215 C287.340293,43.034958 287.400678,44.1827689 287.400678,45.7532721 L287.400678,52.6995157 L285.347601,52.6995157 L285.347601,51.1290125 L285.225825,51.1290125 C284.743754,51.8531247 284.139405,52.337208 283.353399,52.5792497 C282.629287,52.7593971 281.300825,52.8811728 279.246238,52.8811728 C276.95112,52.8811728 275.320735,52.8192785 274.414463,52.6995157 C273.508694,52.5792497 272.844463,52.337208 272.361889,52.0352849 C271.93819,51.6729772 271.575883,51.2492785 271.395735,50.8265862 C271.213575,50.3445157 271.153694,49.6787753 271.153694,48.8338939 C271.153694,47.8677401 271.27396,47.0822369 271.575883,46.4778875 C271.817924,45.9354324 272.302008,45.5716151 272.965735,45.2712016 C273.630469,44.9692785 275.320735,44.7871183 277.857392,44.7871183 C280.576713,44.7871183 282.387245,44.9073843 283.233133,45.0890413 C284.019139,45.2093074 284.683873,45.6335093 285.165944,46.2373554 L285.347601,46.2373554 L285.347601,44.7871183 C285.347601,43.6388042 285.105559,42.794426 284.683873,42.3103426 C284.319553,41.8282721 283.777601,41.526349 282.991091,41.4045734 C282.266979,41.2239228 280.998399,41.1640413 279.308133,41.1640413 C277.012008,41.1640413 275.56328,41.2838042 274.898546,41.526349 C274.234315,41.8282721 273.932392,42.3707272 273.932392,43.2764965 L273.932392,43.4586567 Z M279.246238,46.6595446 C277.555972,46.6595446 276.347274,46.7199292 275.683043,46.7798106 C274.958428,46.8412016 274.474847,46.9619708 274.172924,47.0822369 C273.630469,47.4440413 273.388428,48.0483907 273.388428,48.8942785 C273.388428,49.7406696 273.690351,50.3445157 274.354581,50.646942 C274.898546,50.8869708 276.6497,51.0092497 279.67044,51.0092497 C281.904671,51.0092497 283.415293,50.8869708 284.079021,50.5850478 C284.803636,50.2826215 285.165944,49.7406696 285.165944,48.8338939 C285.165944,47.9885093 284.803636,47.4440413 283.957245,47.1421183 C283.173251,46.8412016 281.602748,46.6595446 279.246238,46.6595446 L279.246238,46.6595446 Z M289.695293,52.6995157 L291.74837,52.6995157 L291.74837,33.673833 L289.695293,33.673833 L289.695293,52.6995157 Z M293.802453,48.1097817 L296.037187,48.1097817 L296.037187,48.4725926 C296.037187,49.1962016 296.098578,49.6787753 296.279229,49.9812016 C296.401004,50.2826215 296.702928,50.5251663 297.184998,50.7068234 C297.789851,50.9488651 299.480117,51.0092497 302.379081,51.0092497 C304.191123,51.0092497 305.399822,51.0092497 306.123934,50.8869708 C306.849556,50.8265862 307.332129,50.7068234 307.634053,50.4647817 C308.056745,50.102474 308.238402,49.6188939 308.238402,48.9546631 C308.238402,48.1701663 307.99636,47.6262016 307.51429,47.3237753 C307.030206,47.0822369 306.064053,46.9020894 304.794969,46.9020894 C304.373283,46.9020894 302.3192,46.9020894 298.755501,46.8412016 C297.789851,46.8412016 297.065235,46.7798106 296.460886,46.5996631 C295.916921,46.4778875 295.434851,46.2972369 295.07053,45.995817 C294.346418,45.451349 294.044495,44.5450766 294.044495,43.2166151 C294.044495,41.8282721 294.468194,40.8621183 295.372956,40.1978875 C295.797158,39.8959644 296.581152,39.6534196 297.607187,39.5316439 C298.69562,39.3519997 300.205738,39.2911119 302.198431,39.2911119 C304.433165,39.2911119 306.064053,39.4118811 307.090088,39.6534196 C308.178017,39.8959644 308.963017,40.3181535 309.447101,40.9818811 C309.688639,41.2239228 309.808402,41.5862304 309.929171,41.8886567 C309.991065,42.2504612 309.991065,42.794426 309.991065,43.5789228 L307.81571,43.5789228 C307.81571,42.7345446 307.634053,42.2504612 307.392514,41.9485381 C307.090088,41.7059933 306.547633,41.4659644 305.701745,41.344692 C304.915738,41.2239228 303.709053,41.1640413 302.138549,41.1640413 C299.299969,41.1640413 297.547306,41.344692 296.94346,41.7678875 C296.460886,42.068301 296.279229,42.5523843 296.279229,43.2764965 C296.279229,44.0031247 296.520767,44.4851952 297.004851,44.6668522 C297.547306,44.9073843 298.573844,45.0291599 300.205738,44.9692785 C301.714347,44.9692785 303.768934,45.0291599 306.24571,45.0890413 C307.754319,45.149426 308.842248,45.5117337 309.506982,46.1155798 C310.17071,46.7199292 310.473136,47.686083 310.473136,48.9546631 C310.473136,49.7406696 310.35287,50.4043971 310.17071,50.8869708 C309.929171,51.3710542 309.566863,51.7932433 309.022899,52.0951663 C308.540325,52.3970894 307.81571,52.5792497 306.787662,52.6995157 C305.761626,52.8192785 304.251004,52.8811728 302.3192,52.8811728 C300.143844,52.8811728 298.51346,52.8192785 297.427543,52.6995157 C296.401004,52.5178587 295.614495,52.337208 295.132424,51.9754035 C294.648341,51.6729772 294.286537,51.2492785 294.104376,50.7667048 C293.864347,50.2826215 293.802453,49.6188939 293.802453,48.7740125 L293.802453,48.1097817 Z" class="web-landing-page__rma-lightweight-home__header__group-75__group-74__fill-66" mask="url(#mask-2)"/>
            <path fill="#FFF" d="M206.964998,62.0879144 L210.042098,67.5632894 L203.599059,67.5632894 L206.705848,62.0879144 L206.964998,62.0879144 Z M208.125893,60.2532285 L205.48155,60.2532285 L198.995236,71.6986292 L201.290354,71.6986292 L202.579566,69.3974721 L211.043476,69.3974721 L212.333694,71.6986292 L214.596607,71.6986292 L208.207412,60.3961388 L208.125893,60.2532285 Z" class="web-landing-page__rma-lightweight-home__header__group-75__group-74__fill-67" mask="url(#mask-2)"/>
            <path fill="#FFF" d="M226.69859,67.6757558 C226.680978,67.8961596 226.680978,68.1185763 226.680978,68.186509 C226.680978,69.4762237 226.488754,69.6130955 225.51002,69.7348712 C225.098398,69.7826756 223.177161,69.8641949 222.246734,69.8641949 C220.860404,69.8641949 219.423754,69.8103519 218.747949,69.7338647 C217.978045,69.6649256 217.70883,69.4264064 217.598125,68.7234288 C217.533212,68.1855026 217.4371,66.4353551 217.4371,65.576384 C217.4371,63.3939833 217.71185,62.7045923 217.932757,62.5184064 C218.428917,62.1324481 220.715984,62.088166 222.39367,62.088166 C224.891077,62.088166 225.752061,62.2808936 226.038385,62.3936115 C226.444471,62.5621853 226.599459,62.7247205 226.616064,63.7653487 L226.616064,64.4215282 L228.535289,64.4215282 L228.53227,64.1367141 C228.515161,62.8424705 228.500568,62.6577942 228.379798,62.1722013 C228.209715,61.3851885 227.494157,60.7305186 226.549138,60.5035731 C225.69218,60.3158776 224.316417,60.2207718 222.458584,60.2207718 C221.49092,60.2207718 219.996904,60.2720987 219.308016,60.3183936 C217.716379,60.4205442 217.092907,60.5765378 216.520763,61.0193583 C215.698023,61.6951628 215.40717,63.0372109 215.40717,66.1475218 C215.40717,68.8668423 215.659779,70.1243519 216.341622,70.7890859 C217.143731,71.5549641 218.329282,71.7315891 222.687039,71.7315891 C226.126949,71.7315891 227.199782,71.5574801 227.908295,70.8857013 C228.506606,70.306009 228.58108,69.8017974 228.6626,67.7074577 L228.674677,67.4155987 L226.717712,67.4155987 L226.69859,67.6757558 Z" class="web-landing-page__rma-lightweight-home__header__group-75__group-74__fill-68" mask="url(#mask-2)"/>
            <path fill="#FFF" d="M237.451681,62.0879144 L240.52878,67.5632894 L234.085742,67.5632894 L237.19253,62.0879144 L237.451681,62.0879144 Z M238.612575,60.2532285 L235.968232,60.2532285 L229.481918,71.6986292 L231.777037,71.6986292 L233.066248,69.3974721 L241.530159,69.3974721 L242.820377,71.6986292 L245.08329,71.6986292 L238.693591,60.3961388 L238.612575,60.2532285 Z" class="web-landing-page__rma-lightweight-home__header__group-75__group-74__fill-69" mask="url(#mask-2)"/>
            <path fill="#FFF" d="M258.507646,65.9022596 C258.507646,68.3765192 258.092501,69.4835705 257.074014,69.7246058 C256.513947,69.8609744 256.463626,69.8639936 254.367274,69.8639936 L248.546197,69.8639936 L248.546197,62.0879647 L254.285754,62.0879647 C255.616229,62.0879647 256.017787,62.0879647 256.350405,62.1196667 C257.317062,62.2042051 257.676854,62.4155513 257.91487,62.6998622 C258.13628,62.9796442 258.507646,63.7681667 258.507646,65.9022596 M254.31796,60.2532788 L246.531363,60.2532788 L246.531363,71.6986795 L254.432187,71.6986795 C257.552562,71.6986795 258.463867,71.5170224 259.308245,70.725984 C260.170235,69.9153205 260.555187,68.4484776 260.555187,65.9681795 C260.555187,63.327359 260.306604,62.2142692 259.530158,61.3839808 C258.624389,60.4434904 257.748309,60.2532788 254.31796,60.2532788" class="web-landing-page__rma-lightweight-home__header__group-75__group-74__fill-70" mask="url(#mask-2)"/>
            <polygon fill="#FFF" points="264.665 66.689 273.476 66.689 273.476 64.854 264.665 64.854 264.665 62.088 273.867 62.088 273.867 60.253 262.65 60.253 262.65 71.698 273.883 71.698 273.883 69.864 264.665 69.864" class="web-landing-page__rma-lightweight-home__header__group-75__group-74__fill-71" mask="url(#mask-2)"/>
            <polygon fill="#FFF" points="284.793 69.244 279.043 60.254 275.703 60.254 275.703 71.698 277.717 71.698 277.717 62.17 277.919 62.17 284.054 71.698 285.536 71.698 291.605 62.17 291.774 62.17 291.774 71.698 293.789 71.698 293.789 60.254 290.431 60.254" class="web-landing-page__rma-lightweight-home__header__group-75__group-74__fill-72" mask="url(#mask-2)"/>
            <polygon fill="#FFF" points="307.898 60.253 302.939 65.355 297.805 60.253 295.03 60.253 301.928 67.08 301.928 71.698 303.943 71.698 303.943 67.079 310.716 60.253" class="web-landing-page__rma-lightweight-home__header__group-75__group-74__fill-73" mask="url(#mask-2)"/>
          </g>
        </g>
      </g>
    </g>
  </g>
</svg>
