<?xml version="1.0" encoding="UTF-8" standalone="no"?>
<!DOCTYPE svg PUBLIC "-//W3C//DTD SVG 1.1//EN" "http://www.w3.org/Graphics/SVG/1.1/DTD/svg11.dtd">
<svg width="100%" height="100%" viewBox="0 0 1178 174" version="1.1" xmlns="http://www.w3.org/2000/svg" xmlns:xlink="http://www.w3.org/1999/xlink" xml:space="preserve" xmlns:serif="http://www.serif.com/" style="fill-rule:evenodd;clip-rule:evenodd;stroke-linejoin:round;stroke-miterlimit:2;">
    <g transform="matrix(1,0,0,1,-24.45,-24)">
        <g>
            <g>
                <g>
                    <rect x="116.2" y="82.6" width="4.8" height="4.8" style="fill:white;"/>
                    <rect x="116.2" y="92.1" width="4.8" height="37.8" style="fill:white;"/>
                    <path d="M130.3,82.6L135.1,82.6L135.1,92.1L153.9,92.1L153.9,96.8L135.1,96.8L135.1,120.4C135.1,123 137.1,125.2 139.8,125.2L153.9,125.2L153.9,129.9L139.8,129.9C134.9,129.9 130.3,125.9 130.3,120.4L130.3,96.8L123.2,96.8L123.2,92.1L130.3,92.1L130.3,82.6Z" style="fill:white;"/>
                    <path d="M106.1,106.3L74.6,106.3C74.7,102.8 75.6,100.4 77.2,99.1C78.3,98.1 79.7,97.5 81.8,97.2C83.7,96.7 86.6,96.6 90.4,96.6C94.1,96.6 97,96.7 99,97.2C100.9,97.6 102.5,98.2 103.6,99.1C105.3,100.4 106.1,102.8 106.1,106.3M74.6,111.1L111.5,111.1C111.5,106.9 111.3,103.8 110.8,101.7C110.3,99.7 109.5,97.9 108.3,96.3C106.7,94.5 104.8,93.2 102.3,92.6C99.9,92 95.8,91.6 90.3,91.6C84.7,91.6 80.7,92 78.2,92.6C75.7,93.2 73.8,94.5 72.3,96.3C71,97.9 70.1,99.7 69.8,101.7C69.3,103.7 69.1,106.9 69,111.1C69.1,115.2 69.4,118.3 69.8,120.3C70.2,122.3 71,124.1 72.3,125.7C73.7,127.5 75.7,128.8 78.2,129.4C80.7,130.1 84.7,130.4 90.3,130.4C95.8,130.4 99.9,130.2 102.3,129.4C104.8,128.8 106.7,127.5 108.3,125.7C109.3,124.5 110,123.1 110.5,121.6L104.9,121.6C104.5,122.1 104.2,122.6 103.7,123C102.6,123.8 101.1,124.6 99.1,124.9C97.1,125.3 94.2,125.4 90.5,125.4C86.7,125.4 83.8,125.3 81.9,124.9C79.9,124.5 78.4,123.8 77.3,123C75.9,121.8 75,119.8 74.8,117C74.6,115.1 74.6,113 74.6,111.1" style="fill:white;fill-rule:nonzero;"/>
                    <path d="M111.5,196C158.4,196 196.5,158 196.5,111.1C196.5,64.1 158.4,26 111.5,26C96,26 81.5,30.1 69.1,37.4L73.8,45.6C85,39.1 97.8,35.5 111.6,35.5C153.3,35.5 187.1,69.3 187.1,111.1C187.1,152.7 153.3,186.7 111.6,186.7C69.9,186.7 36,152.7 36,111.1L26.5,111.1C26.5,158 64.6,196 111.5,196" style="fill:white;"/>
                    <path d="M111.5,177.2C136,177.2 157.3,163.9 168.7,144.1L160.5,139.4C150.7,156.3 132.4,167.7 111.5,167.7C80.2,167.7 54.9,142.3 54.9,111.1C54.9,79.8 80.2,54.4 111.5,54.4C132.5,54.4 150.7,65.8 160.5,82.7L168.7,78C157.3,58.2 136,44.9 111.5,44.9C75.1,44.9 45.4,74.5 45.4,111.1C45.4,147.5 75.1,177.2 111.5,177.2" style="fill:white;"/>
                    <path d="M610.2,120.8L614.7,120.8L614.7,121.5C614.7,122.9 614.8,123.9 615.2,124.5C615.4,125.1 616,125.6 617,125.9C618.2,126.4 621.6,126.5 627.3,126.5C630.9,126.5 633.3,126.5 634.7,126.3C636.1,126.2 637.1,125.9 637.7,125.5C638.5,124.8 638.9,123.8 638.9,122.5C638.9,120.9 638.4,119.9 637.5,119.3C636.5,118.8 634.6,118.5 632.1,118.5C631.3,118.5 627.2,118.5 620.1,118.4C618.2,118.4 616.7,118.3 615.5,117.9C614.4,117.7 613.5,117.3 612.7,116.7C611.3,115.6 610.7,113.8 610.7,111.2C610.7,108.4 611.5,106.5 613.3,105.2C614.1,104.6 615.7,104.1 617.7,103.9C619.9,103.5 622.9,103.4 626.8,103.4C631.2,103.4 634.5,103.6 636.5,104.1C638.7,104.6 640.2,105.4 641.2,106.7C641.7,107.2 641.9,107.9 642.2,108.5C642.3,109.2 642.3,110.3 642.3,111.9L638,111.9C638,110.2 637.6,109.3 637.2,108.7C636.6,108.2 635.5,107.7 633.8,107.5C632.2,107.3 629.8,107.1 626.7,107.1C621.1,107.1 617.6,107.5 616.4,108.3C615.4,108.9 615.1,109.9 615.1,111.3C615.1,112.7 615.6,113.7 616.5,114.1C617.6,114.6 619.6,114.8 622.9,114.7C625.9,114.7 630,114.8 634.9,114.9C637.9,115 640.1,115.7 641.4,116.9C642.7,118.1 643.3,120 643.3,122.5C643.3,124.1 643.1,125.4 642.7,126.3C642.2,127.3 641.5,128.1 640.4,128.7C639.4,129.3 638,129.7 636,129.9C634,130.1 631,130.3 627.1,130.3C622.8,130.3 619.5,130.2 617.4,129.9C615.4,129.5 613.8,129.2 612.8,128.5C611.8,127.9 611.1,127.1 610.8,126.1C610.3,125.1 610.2,123.8 610.2,122.1L610.2,120.8ZM602.1,129.9L606.2,129.9L606.2,92.1L602.1,92.1L602.1,129.9ZM581.3,117.9C577.9,117.9 575.5,118 574.2,118.1C572.8,118.2 571.8,118.5 571.2,118.7C570.1,119.4 569.6,120.6 569.6,122.3C569.6,124 570.2,125.2 571.5,125.8C572.6,126.3 576.1,126.5 582.1,126.5C586.5,126.5 589.5,126.3 590.9,125.7C592.3,125.1 593.1,124 593.1,122.2C593.1,120.5 592.4,119.4 590.7,118.8C589.1,118.3 586,117.9 581.3,117.9M570.8,111.5L566.5,111.5C566.4,111 566.4,110.7 566.4,110.3C566.4,107.7 567.5,105.7 569.5,104.8C571.5,103.7 575.5,103.2 581.1,103.2C585.5,103.2 588.8,103.4 590.7,103.8C592.7,104.3 594.2,105 595.4,106.2C596.2,107 596.8,108.1 597.2,109.4C597.4,110.6 597.6,112.9 597.6,116L597.6,129.8L593.5,129.8L593.5,126.7L593.3,126.7C592.3,128.1 591.1,129.1 589.6,129.6C588.2,130 585.5,130.2 581.4,130.2C576.8,130.2 573.6,130.1 571.8,129.8C570,129.6 568.7,129.1 567.7,128.5C566.9,127.8 566.1,126.9 565.8,126.1C565.4,125.1 565.3,123.8 565.3,122.1C565.3,120.2 565.5,118.6 566.1,117.4C566.6,116.3 567.5,115.6 568.9,115C570.2,114.4 573.6,114 578.6,114C584,114 587.6,114.2 589.3,114.6C590.9,114.8 592.2,115.7 593.1,116.9L593.5,116.9L593.5,114C593.5,111.7 593,110 592.2,109.1C591.5,108.1 590.4,107.5 588.8,107.3C587.4,106.9 584.8,106.8 581.5,106.8C576.9,106.8 574.1,107 572.7,107.5C571.4,108.1 570.8,109.2 570.8,111L570.8,111.5ZM557.3,97L561.4,97L561.4,92.1L557.3,92.1L557.3,97ZM557.3,129.9L561.4,129.9L561.4,103.6L557.3,103.6L557.3,129.9ZM526.4,129.9L530.5,129.9L530.5,117.8C530.5,113.2 531.2,110.2 532.7,108.9C534.1,107.6 537.3,107 542.3,107C545.7,107 547.8,107.5 548.9,108.4C549.4,108.9 549.7,109.5 549.9,110.2C550.1,111 550.3,112.1 550.3,113.6L550.3,115.5L554.5,115.5L554.5,112.7C554.5,109.2 553.7,106.8 551.9,105.3C551.1,104.6 550,104 548.7,103.7C547.5,103.5 545.5,103.2 542.9,103.2C540.3,103.2 538.3,103.3 537,103.4C535.7,103.6 534.7,103.9 533.9,104.2C532.6,104.9 531.6,105.9 530.9,107.1L530.7,107.1L530.7,103.5L526.6,103.5L526.6,129.9L526.4,129.9ZM518,114.2C518,111.6 517.3,109.8 516,108.8C515,108.1 513.8,107.6 512.3,107.4C510.6,107.2 508.3,107 505.2,107C502.6,107 500.4,107.1 499.1,107.4C497.7,107.6 496.6,108.1 495.7,108.7C494.4,109.7 493.7,111.6 493.4,114.2L518,114.2ZM518.1,121.9L522.4,121.9C522.4,125 521.3,127.2 519.2,128.4C517,129.7 513.3,130.3 508,130.3C503.6,130.3 500.2,130.1 497.9,129.8C495.6,129.4 493.9,128.8 492.7,128C490.1,126.1 488.7,122.4 488.7,116.8C488.7,113 489.3,110 490.4,108C491.5,106.2 493,104.9 495.1,104.3C497,103.6 500.5,103.2 505.2,103.2C509.8,103.2 513,103.4 515,103.9C516.9,104.4 518.6,105.3 519.8,106.7C520.8,107.9 521.5,109.2 521.8,110.8C522.2,112.2 522.4,114.5 522.4,117.6L493.1,117.6C493.2,121 493.8,123.1 495,124.3C495.8,125.1 497,125.7 498.8,126.1C500.5,126.3 503.4,126.5 507.3,126.5C510.3,126.5 512.5,126.4 513.8,126.1C515.2,125.9 516.2,125.3 516.9,124.5C517.6,124 518,123.2 518.1,121.9M463,103.6L456.5,103.6L456.5,107.2L463,107.2L463,119.9C463,121.9 463,123.5 463.2,124.6C463.4,125.6 463.8,126.5 464.4,127.2C465.1,128.3 466.3,129 468,129.5C469.6,130 471.7,130.2 474.6,130.2C477.4,130.2 479.5,130 481.1,129.5C482.5,128.9 483.7,128.2 484.6,127C485.1,126.2 485.4,125.3 485.7,124.2C485.8,123.1 485.9,121.7 485.9,119.6L485.9,118L481.8,118L481.8,119.7C481.8,121.3 481.7,122.5 481.6,123.1C481.6,123.8 481.4,124.3 481,124.8C480.5,125.5 479.9,126 479.1,126.2C478.3,126.4 476.8,126.6 475,126.6C473,126.6 471.4,126.5 470.4,126.2C469.3,126 468.6,125.5 468,124.9C467.6,124.3 467.4,123.7 467.3,123.2C467.2,122.6 467.1,121 467.1,118.6L467.1,107.2L485.5,107.2L485.5,103.6L467.1,103.6L467.1,97.1L463,97.1L463,103.6ZM438.4,117.9C435,117.9 432.6,118 431.3,118.1C429.9,118.2 428.9,118.5 428.4,118.7C427.2,119.4 426.7,120.6 426.7,122.3C426.7,124 427.3,125.2 428.6,125.8C429.7,126.3 433.2,126.5 439.3,126.5C443.6,126.5 446.6,126.3 447.9,125.7C449.3,125.1 450.1,124 450.1,122.2C450.1,120.5 449.4,119.4 447.7,118.8C446.2,118.3 443.1,117.9 438.4,117.9M427.8,111.5L423.5,111.5C423.5,111 423.4,110.7 423.4,110.3C423.4,107.7 424.5,105.7 426.5,104.8C428.5,103.7 432.5,103.2 438.1,103.2C442.5,103.2 445.8,103.4 447.7,103.8C449.7,104.3 451.2,105 452.4,106.2C453.2,107 453.8,108.1 454.2,109.4C454.4,110.6 454.6,112.9 454.6,116L454.6,129.8L450.5,129.8L450.6,126.7L450.4,126.7C449.3,128.1 448.1,129.1 446.7,129.6C445.3,130 442.5,130.2 438.4,130.2C433.8,130.2 430.6,130.1 428.8,129.8C427,129.6 425.7,129.1 424.7,128.5C423.9,127.8 423.1,126.9 422.8,126.1C422.4,125.1 422.3,123.8 422.3,122.1C422.3,120.2 422.5,118.6 423.1,117.4C423.6,116.3 424.5,115.6 425.9,115C427.2,114.4 430.6,114 435.7,114C441.1,114 444.6,114.2 446.3,114.6C448,114.8 449.2,115.7 450.1,116.9L450.5,116.9L450.5,114C450.5,111.7 450,110 449.2,109.1C448.5,108.1 447.4,107.5 445.8,107.3C444.4,106.9 441.8,106.8 438.5,106.8C434.1,106.8 431.1,107 429.7,107.5C428.4,108.1 427.8,109.2 427.8,111L427.8,111.5ZM357.2,129.9L362.2,129.9L362.2,96.8L364.4,96.8L385.8,129.9L389.9,129.9L411,96.8L413.2,96.8L413.2,129.9L418.2,129.9L418.2,92.1L408,92.1L387.8,124.1L367.3,92.1L357.2,92.1L357.2,129.9ZM314.2,129.9L320.3,129.9L328.3,107.6L328.7,107.6L336.9,129.9L343,129.9L355.2,103.6L350.4,103.6L340.2,126L339.8,126L331.8,103.6L325.2,103.6L317.3,126L316.9,126L306.8,103.6L302.1,103.6L314.2,129.9ZM285.1,117.9C281.7,117.9 279.3,118 277.9,118.1C276.6,118.2 275.6,118.5 275,118.7C273.9,119.4 273.3,120.6 273.3,122.3C273.3,124 274,125.2 275.3,125.8C276.3,126.3 279.9,126.5 285.9,126.5C290.3,126.5 293.2,126.3 294.7,125.7C296.1,125.1 296.9,124 296.9,122.2C296.9,120.5 296.1,119.4 294.5,118.8C292.9,118.3 289.8,117.9 285.1,117.9M274.5,111.5L270.1,111.5L270.1,110.3C270.1,107.7 271.1,105.7 273.2,104.8C275.2,103.7 279.1,103.2 284.8,103.2C289.2,103.2 292.5,103.4 294.4,103.8C296.3,104.3 297.9,105 299,106.2C300,107 300.6,108.1 300.8,109.4C301.2,110.6 301.3,112.9 301.3,116L301.3,129.8L297.1,129.8L297.2,126.7L297,126.7C296,128.1 294.7,129.1 293.3,129.6C291.9,130 289.1,130.2 285.1,130.2C280.4,130.2 277.3,130.1 275.5,129.8C273.7,129.6 272.4,129.1 271.4,128.5C270.4,127.8 269.8,126.9 269.5,126.1C269.1,125.1 268.9,123.8 268.9,122.1C268.9,120.2 269.3,118.6 269.7,117.4C270.3,116.3 271.1,115.6 272.5,115C273.9,114.4 277.2,114 282.3,114C287.7,114 291.2,114.2 292.9,114.6C294.6,114.8 295.9,115.7 296.7,116.9L297.1,116.9L297.1,114C297.1,111.7 296.7,110 295.9,109.1C295.2,108.1 294,107.5 292.5,107.3C290.9,106.9 288.5,106.8 285.1,106.8C280.7,106.8 277.8,107 276.5,107.5C275.2,108.1 274.5,109.2 274.5,111L274.5,111.5ZM227.4,110.9L245.9,110.9C250.8,110.9 253.9,110.8 255.4,110.7C256.7,110.6 257.9,110.2 258.8,109.7C260.1,108.9 260.7,106.7 260.7,103.3C260.7,100.5 260.1,98.6 258.9,97.8C258.2,97.3 257,97 255.3,96.7C253.6,96.6 250.5,96.5 245.9,96.5L227.4,96.5L227.4,110.9ZM222.3,129.9L222.3,92.1L245.8,92.1C252.2,92.2 256.2,92.3 258,92.6C261.1,93 263.3,94.4 264.5,96.8C265.3,98.4 265.7,100.6 265.7,103.5C265.7,105.7 265.6,107.3 265.3,108.5C265.1,109.6 264.7,110.5 264,111.1C263,112.2 261.6,113 259.4,113.5C261.1,113.7 262.3,114.3 263.2,115.3C263.9,116.1 264.4,117 264.6,118.1C264.8,119.2 265,121.3 265,124.5L265,129.9L260,129.9L260,126.3C260,123.2 259.9,121 259.8,119.9C259.4,117.5 258.1,116.1 255.7,115.6C254.7,115.5 253.9,115.5 253.2,115.5C252.5,115.4 250.1,115.4 245.8,115.4L227.3,115.4L227.3,129.9L222.3,129.9Z" style="fill:white;fill-rule:nonzero;"/>
                </g>
            </g>
            <path d="M440.1,144.9L434.8,144.9L422,167.7L426.6,167.7L429.2,163.1L446,163.1L448.6,167.7L453.1,167.7L440.4,145.2L440.1,144.9ZM437.8,148.6L443.9,159.5L431.1,159.5L437.3,148.6L437.8,148.6Z" style="fill:white;fill-rule:nonzero;"/>
            <path d="M477,159.7L477,160.7C477,163.3 476.6,163.5 474.7,163.8C473.9,163.9 470.1,164.1 468.2,164.1C465.4,164.1 462.6,164 461.2,163.8C459.7,163.7 459.1,163.2 458.9,161.8C458.8,160.7 458.6,157.3 458.6,155.5C458.6,151.2 459.1,149.8 459.6,149.4C460.6,148.6 465.1,148.5 468.5,148.5C473.5,148.5 475.2,148.9 475.7,149.1C476.5,149.4 476.8,149.8 476.8,151.8L476.8,153.1L480.6,153.1L480.6,152.5C480.6,149.9 480.5,149.6 480.3,148.6C480,147 478.5,145.7 476.7,145.3C475,144.9 472.3,144.7 468.6,144.7C466.7,144.7 463.7,144.8 462.3,144.9C459.1,145.1 457.9,145.4 456.8,146.3C455.2,147.6 454.6,150.3 454.6,156.5C454.6,161.9 455.1,164.4 456.5,165.7C458.1,167.2 460.4,167.6 469.1,167.6C475.9,167.6 478.1,167.3 479.5,165.9C480.7,164.7 480.8,163.7 481,159.6L481,159L477.1,159L477,159.7Z" style="fill:white;fill-rule:nonzero;"/>
            <path d="M500.7,144.9L495.4,144.9L482.5,167.6L487.1,167.6L489.7,163L506.5,163L509.1,167.6L513.6,167.6L500.9,145.1L500.7,144.9ZM498.4,148.6L504.5,159.5L491.7,159.5L497.9,148.6L498.4,148.6Z" style="fill:white;fill-rule:nonzero;"/>
            <path d="M531.9,144.9L516.4,144.9L516.4,167.6L532.1,167.6C538.3,167.6 540.1,167.2 541.8,165.7C543.5,164.1 544.3,161.2 544.3,156.2C544.3,151 543.8,148.7 542.3,147.1C540.5,145.3 538.7,144.9 531.9,144.9ZM540.2,156.1C540.2,161 539.4,163.2 537.4,163.7C536.3,164 536.2,164 532,164L520.4,164L520.4,148.5L531.8,148.5C534.4,148.5 535.2,148.5 535.9,148.6C537.8,148.8 538.5,149.2 539,149.8C539.5,150.3 540.2,151.9 540.2,156.1Z" style="fill:white;fill-rule:nonzero;"/>
            <path d="M552.5,157.7L570,157.7L570,154.1L552.5,154.1L552.5,148.6L570.7,148.6L570.7,144.9L548.5,144.9L548.5,167.7L570.8,167.7L570.8,164L552.5,164L552.5,157.7Z" style="fill:white;fill-rule:nonzero;"/>
            <path d="M592.5,162.8L581,144.9L574.4,144.9L574.4,167.7L578.4,167.7L578.4,148.7L578.8,148.7L591,167.7L593.9,167.7L606,148.7L606.3,148.7L606.3,167.7L610.3,167.7L610.3,144.9L603.7,144.9L592.5,162.8Z" style="fill:white;fill-rule:nonzero;"/>
            <path d="M638.4,144.9L628.5,155.1L618.3,144.9L612.8,144.9L626.5,158.5L626.5,167.7L630.5,167.7L630.5,158.5L644,144.9L638.4,144.9Z" style="fill:white;fill-rule:nonzero;"/>
        </g>
        <g transform="matrix(0.706315,0,0,0.706315,730.667,44.7727)">
            <g transform="matrix(1,0,0,1,24.45,-160.6)">
                <rect x="465" y="210.6" width="178.5" height="122" style="fill:white;"/>
            </g>
            <g transform="matrix(1,0,0,1,24.45,-160.6)">
                <g>
                    <g>
                        <g>
                            <rect x="469.3" y="214.9" width="169.9" height="113.3" style="fill:rgb(0,51,153);"/>
                        </g>
                    </g>
                    <g>
                        <path d="M550.7,239.6L554.3,237L557.8,239.6L556.5,235.4L560.1,232.7L555.6,232.7L554.3,228.5L552.9,232.8L548.4,232.7L552,235.4L550.7,239.6Z" style="fill:rgb(255,204,0);fill-rule:nonzero;"/>
                    </g>
                    <g>
                        <path d="M532.1,244.6L535.7,242L539.3,244.6L537.9,240.3L541.6,237.7L537.1,237.7L535.7,233.4L534.3,237.7L529.8,237.7L533.5,240.3L532.1,244.6Z" style="fill:rgb(255,204,0);fill-rule:nonzero;"/>
                    </g>
                    <g>
                        <path d="M522.1,247.1L520.8,251.3L516.3,251.3L519.9,254L518.5,258.2L522.1,255.6L525.7,258.2L524.3,254L528,251.3L523.5,251.3L522.1,247.1Z" style="fill:rgb(255,204,0);fill-rule:nonzero;"/>
                    </g>
                    <g>
                        <path d="M517.1,274.1L520.7,276.7L519.4,272.5L523,269.9L518.5,269.9L517.1,265.6L515.8,269.9L511.3,269.9L514.9,272.5L513.6,276.7L517.1,274.1Z" style="fill:rgb(255,204,0);fill-rule:nonzero;"/>
                    </g>
                    <g>
                        <path d="M523.5,288.5L522.1,284.2L520.7,288.5L516.3,288.5L519.9,291.1L518.5,295.3L522.1,292.7L525.7,295.3L524.3,291.1L528,288.5L523.5,288.5Z" style="fill:rgb(255,204,0);fill-rule:nonzero;"/>
                    </g>
                    <g>
                        <path d="M537.1,302.1L535.7,297.8L534.4,302.1L529.9,302.1L533.5,304.7L532.1,308.9L535.7,306.3L539.3,308.9L538,304.7L541.6,302.1L537.1,302.1Z" style="fill:rgb(255,204,0);fill-rule:nonzero;"/>
                    </g>
                    <g>
                        <path d="M555.6,307L554.3,302.7L552.9,307L548.4,307L552,309.6L550.7,313.8L554.3,311.2L557.9,313.8L556.5,309.6L560.1,307L555.6,307Z" style="fill:rgb(255,204,0);fill-rule:nonzero;"/>
                    </g>
                    <g>
                        <path d="M574.2,302.1L572.8,297.8L571.4,302.1L566.9,302.1L570.6,304.7L569.2,308.9L572.8,306.3L576.4,308.9L575,304.7L578.7,302.1L574.2,302.1Z" style="fill:rgb(255,204,0);fill-rule:nonzero;"/>
                    </g>
                    <g>
                        <path d="M587.8,288.5L586.4,284.2L585,288.5L580.5,288.5L584.2,291.1L582.8,295.3L586.4,292.7L590,295.3L588.6,291.1L592.3,288.5L587.8,288.5Z" style="fill:rgb(255,204,0);fill-rule:nonzero;"/>
                    </g>
                    <g>
                        <path d="M597.2,269.8L592.7,269.8L591.3,265.5L590,269.8L585.5,269.8L589.1,272.4L587.7,276.7L591.3,274.1L594.9,276.7L593.6,272.4L597.2,269.8Z" style="fill:rgb(255,204,0);fill-rule:nonzero;"/>
                    </g>
                    <g>
                        <path d="M582.8,258.1L586.4,255.5L590,258.1L588.6,253.9L592.3,251.3L587.8,251.3L586.4,247L585,251.3L580.5,251.3L584.2,253.9L582.8,258.1Z" style="fill:rgb(255,204,0);fill-rule:nonzero;"/>
                    </g>
                    <g>
                        <path d="M572.9,233.4L571.5,237.7L567,237.7L570.6,240.4L569.3,244.6L572.9,242L576.4,244.6L575.1,240.4L578.7,237.7L574.2,237.7L572.9,233.4Z" style="fill:rgb(255,204,0);fill-rule:nonzero;"/>
                    </g>
                </g>
            </g>
            <g transform="matrix(1,0,0,1,24.45,-160.6)">
                <g>
                    <g>
                        <path d="M176.5,307.7L176.5,308.4C176.5,308.6 176.4,308.7 176.4,308.9C176.3,309 176.2,309.1 176.2,309.2C176.1,309.3 176,309.3 175.9,309.3L162.8,309.3C162.5,309.3 162.2,309.2 161.9,309C161.6,308.8 161.5,308.4 161.5,307.8L161.5,283.4C161.5,282.9 161.6,282.5 161.9,282.2C162.2,282 162.5,281.9 162.8,281.9L175.8,281.9C175.9,281.9 176,281.9 176.1,282C176.2,282.1 176.3,282.1 176.3,282.3C176.4,282.4 176.4,282.6 176.4,282.8C176.4,283 176.5,283.2 176.5,283.5C176.5,283.8 176.5,284 176.4,284.2C176.4,284.4 176.3,284.5 176.3,284.7C176.2,284.8 176.2,284.9 176.1,285C176,285.1 175.9,285.1 175.8,285.1L165.1,285.1L165.1,293.7L174.3,293.7C174.4,293.7 174.5,293.7 174.6,293.8C174.7,293.9 174.8,294 174.8,294.1C174.9,294.2 174.9,294.4 174.9,294.6L174.9,296C174.9,296.2 174.8,296.3 174.8,296.4C174.7,296.5 174.7,296.6 174.6,296.6C174.5,296.6 174.4,296.7 174.3,296.7L165.1,296.7L165.1,306.5L175.9,306.5C176,306.5 176.1,306.5 176.2,306.6C176.3,306.7 176.4,306.7 176.4,306.9C176.5,307 176.5,307.2 176.5,307.4C176.5,307.2 176.5,307.5 176.5,307.7Z" style="fill:white;fill-rule:nonzero;"/>
                        <path d="M198.4,308.7C198.4,308.8 198.4,308.9 198.3,309C198.2,309.1 198.2,309.1 198,309.2C197.9,309.3 197.7,309.3 197.5,309.3L195.9,309.3C195.7,309.3 195.5,309.2 195.4,309.2C195.3,309.1 195.2,309.1 195.2,309C195.2,308.9 195.1,308.8 195.1,308.7L195.1,306.2C194,307.4 192.9,308.3 191.9,308.8C190.8,309.3 189.8,309.6 188.7,309.6C187.4,309.6 186.4,309.4 185.5,309C184.6,308.6 183.9,308 183.4,307.3C182.9,306.6 182.5,305.7 182.2,304.8C182,303.8 181.9,302.7 181.9,301.3L181.9,289.7C181.9,289.6 181.9,289.5 182,289.4C182,289.3 182.1,289.3 182.3,289.2C182.4,289.1 182.6,289.1 182.8,289.1L184.4,289.1C184.6,289.1 184.8,289.2 184.9,289.2C185,289.3 185.1,289.3 185.2,289.4C185.3,289.5 185.3,289.6 185.3,289.7L185.3,300.8C185.3,301.9 185.4,302.8 185.5,303.5C185.7,304.2 185.9,304.7 186.2,305.2C186.5,305.7 186.9,306 187.5,306.3C188,306.6 188.6,306.7 189.3,306.7C190.2,306.7 191,306.4 191.9,305.8C192.8,305.2 193.7,304.3 194.7,303.1L194.7,289.8C194.7,289.7 194.7,289.6 194.8,289.5C194.8,289.4 194.9,289.4 195.1,289.3C195.2,289.2 195.4,289.2 195.6,289.2L197.3,289.2C197.5,289.2 197.7,289.3 197.8,289.3C197.9,289.4 198,289.4 198.1,289.5C198.2,289.6 198.2,289.7 198.2,289.8L198.2,308.7L198.4,308.7Z" style="fill:white;fill-rule:nonzero;"/>
                        <path d="M216.2,290.9L216.2,291.7C216.2,291.9 216.2,292.1 216.1,292.2C216.1,292.3 216,292.4 215.9,292.5C215.8,292.6 215.7,292.6 215.6,292.6C215.5,292.6 215.4,292.6 215.2,292.5C215,292.4 214.9,292.4 214.6,292.3C214.4,292.2 214.2,292.2 213.9,292.1C213.6,292 213.4,292 213.1,292C212.7,292 212.4,292.1 212.1,292.2C211.8,292.3 211.4,292.6 211,292.9C210.6,293.2 210.2,293.7 209.8,294.2C209.4,294.7 208.9,295.4 208.4,296.2L208.4,308.7C208.4,308.8 208.4,308.9 208.3,309C208.2,309.1 208.2,309.1 208,309.2C207.9,309.3 207.7,309.3 207.5,309.3L205.8,309.3C205.6,309.3 205.4,309.2 205.3,309.2C205.2,309.1 205.1,309.1 205,309C205,308.9 204.9,308.8 204.9,308.7L204.9,289.7C204.9,289.6 204.9,289.5 205,289.4C205,289.3 205.1,289.3 205.3,289.2C205.4,289.1 205.6,289.1 205.8,289.1L207.4,289.1C207.6,289.1 207.8,289.2 207.9,289.2C208,289.3 208.1,289.3 208.1,289.4C208.1,289.5 208.2,289.6 208.2,289.7L208.2,292.5C208.7,291.7 209.2,291.1 209.7,290.6C210.2,290.1 210.6,289.7 211,289.5C211.4,289.2 211.8,289 212.2,288.9C212.6,288.8 213,288.7 213.4,288.7L214,288.7C214.2,288.7 214.5,288.8 214.7,288.8C214.9,288.8 215.2,288.9 215.4,289C215.6,289.1 215.7,289.1 215.8,289.2C215.9,289.3 215.9,289.3 216,289.4C216,289.5 216.1,289.5 216.1,289.6L216.1,290C216.2,290.3 216.2,290.6 216.2,290.9Z" style="fill:white;fill-rule:nonzero;"/>
                        <path d="M237.3,299C237.3,300.6 237.1,302 236.7,303.3C236.3,304.6 235.7,305.7 234.9,306.7C234.1,307.6 233.1,308.4 231.9,308.9C230.7,309.4 229.3,309.7 227.7,309.7C226.1,309.7 224.8,309.5 223.6,309C222.4,308.5 221.5,307.9 220.7,307C219.9,306.1 219.3,305 219,303.8C218.6,302.5 218.4,301.1 218.4,299.5C218.4,297.9 218.6,296.5 219,295.2C219.4,293.9 220,292.8 220.8,291.8C221.6,290.9 222.6,290.1 223.8,289.6C225,289.1 226.4,288.8 228.1,288.8C229.7,288.8 231,289 232.2,289.5C233.4,290 234.3,290.6 235.1,291.5C235.9,292.4 236.5,293.5 236.8,294.7C237.1,296 237.3,297.4 237.3,299ZM233.7,299.2C233.7,298.2 233.6,297.2 233.4,296.3C233.2,295.4 232.9,294.6 232.5,293.9C232.1,293.2 231.5,292.7 230.7,292.3C229.9,291.9 229,291.7 227.9,291.7C226.9,291.7 226,291.9 225.2,292.2C224.5,292.6 223.8,293.1 223.4,293.8C223,294.5 222.6,295.3 222.3,296.2C222,297.1 221.9,298.1 221.9,299.2C221.9,300.2 222,301.2 222.2,302.1C222.4,303 222.7,303.8 223.2,304.5C223.6,305.2 224.3,305.7 225,306.1C225.8,306.5 226.7,306.7 227.8,306.7C228.8,306.7 229.7,306.5 230.5,306.2C231.3,305.8 231.9,305.3 232.4,304.7C232.9,304.1 233.2,303.2 233.5,302.3C233.6,301.3 233.7,300.3 233.7,299.2Z" style="fill:white;fill-rule:nonzero;"/>
                        <path d="M260.1,298.9C260.1,300.6 259.9,302.1 259.6,303.4C259.2,304.7 258.7,305.8 258,306.8C257.3,307.7 256.4,308.4 255.4,308.9C254.4,309.4 253.2,309.7 251.9,309.7C251.3,309.7 250.8,309.6 250.3,309.5C249.8,309.4 249.4,309.2 248.9,309C248.4,308.8 248,308.5 247.5,308.1C247.1,307.7 246.6,307.3 246.1,306.8L246.1,316.3C246.1,316.4 246.1,316.5 246,316.6C245.9,316.7 245.9,316.8 245.7,316.8C245.6,316.9 245.4,316.9 245.2,316.9L243.5,316.9C243.3,316.9 243.1,316.8 243,316.8C242.9,316.7 242.8,316.7 242.7,316.6C242.7,316.5 242.6,316.4 242.6,316.3L242.6,289.7C242.6,289.6 242.6,289.5 242.7,289.4C242.7,289.3 242.8,289.3 243,289.2C243.1,289.1 243.3,289.1 243.5,289.1L244.9,289.1C245.1,289.1 245.2,289.2 245.4,289.2C245.5,289.3 245.6,289.3 245.7,289.4C245.7,289.5 245.8,289.6 245.8,289.7L245.8,292.3C246.4,291.7 246.9,291.2 247.5,290.8C248,290.4 248.6,290 249.1,289.7C249.6,289.4 250.2,289.2 250.8,289C251.4,288.9 252,288.8 252.6,288.8C254,288.8 255.2,289.1 256.1,289.6C257.1,290.1 257.9,290.9 258.5,291.8C259.1,292.7 259.6,293.8 259.8,295C260,296.2 260.1,297.5 260.1,298.9ZM256.5,299.3C256.5,298.3 256.4,297.4 256.3,296.5C256.1,295.6 255.9,294.8 255.5,294.1C255.1,293.4 254.7,292.8 254,292.4C253.4,292 252.6,291.8 251.7,291.8C251.2,291.8 250.8,291.9 250.4,292C250,292.1 249.5,292.3 249.1,292.6C248.6,292.9 248.2,293.3 247.7,293.7C247.2,294.2 246.7,294.8 246.1,295.4L246.1,303C247.1,304.2 248,305.1 248.8,305.7C249.7,306.3 250.6,306.6 251.5,306.6C252.4,306.6 253.1,306.4 253.8,306C254.4,305.6 254.9,305 255.3,304.3C255.7,303.6 256,302.8 256.2,301.9C256.4,301.1 256.5,300.2 256.5,299.3Z" style="fill:white;fill-rule:nonzero;"/>
                        <path d="M281.7,298.4C281.7,298.9 281.6,299.3 281.3,299.6C281,299.8 280.7,299.9 280.4,299.9L267.9,299.9C267.9,301 268,301.9 268.2,302.8C268.4,303.6 268.8,304.4 269.3,305C269.8,305.6 270.4,306.1 271.2,306.4C272,306.7 273,306.9 274.1,306.9C275,306.9 275.8,306.8 276.5,306.7C277.2,306.6 277.8,306.4 278.3,306.2C278.8,306 279.2,305.9 279.6,305.7C279.9,305.6 280.2,305.5 280.4,305.5C280.5,305.5 280.6,305.5 280.7,305.6C280.8,305.6 280.8,305.7 280.9,305.8C280.9,305.9 281,306 281,306.2L281,307.3C281,307.4 281,307.6 280.9,307.7C280.9,307.8 280.8,307.9 280.8,308C280.8,308.1 280.7,308.2 280.6,308.2C280.5,308.3 280.3,308.4 279.9,308.6C279.5,308.8 279,308.9 278.4,309.1C277.8,309.3 277.1,309.4 276.3,309.6C275.5,309.7 274.7,309.8 273.8,309.8C272.2,309.8 270.9,309.6 269.7,309.1C268.5,308.7 267.5,308 266.7,307.2C265.9,306.3 265.3,305.3 264.9,304C264.5,302.7 264.3,301.2 264.3,299.5C264.3,297.9 264.5,296.4 264.9,295.1C265.3,293.8 265.9,292.7 266.7,291.8C267.5,290.9 268.5,290.2 269.6,289.7C270.7,289.2 272,289 273.4,289C274.9,289 276.2,289.2 277.2,289.7C278.3,290.2 279.1,290.8 279.8,291.6C280.5,292.4 281,293.4 281.3,294.5C281.6,295.6 281.8,296.8 281.8,298L281.8,298.4L281.7,298.4ZM278.2,297.3C278.2,295.5 277.8,294 277,293C276.1,292 274.9,291.4 273.2,291.4C272.3,291.4 271.6,291.6 270.9,291.9C270.2,292.2 269.7,292.7 269.3,293.2C268.9,293.7 268.5,294.4 268.3,295.1C268.1,295.8 267.9,296.6 267.9,297.3L278.2,297.3Z" style="fill:white;fill-rule:nonzero;"/>
                        <path d="M301.6,308.7C301.6,308.9 301.5,309 301.4,309.1C301.3,309.2 301.1,309.2 300.9,309.3C300.7,309.3 300.4,309.4 300,309.4C299.6,309.4 299.3,309.4 299.1,309.3C298.9,309.3 298.7,309.2 298.6,309.1C298.5,309 298.5,308.9 298.5,308.7L298.5,306.8C297.7,307.7 296.7,308.4 295.7,308.9C294.7,309.4 293.6,309.6 292.5,309.6C291.5,309.6 290.6,309.5 289.8,309.2C289,308.9 288.3,308.6 287.7,308.1C287.1,307.6 286.7,307 286.4,306.3C286.1,305.6 285.9,304.8 285.9,303.8C285.9,302.7 286.1,301.8 286.6,301C287,300.2 287.7,299.6 288.5,299C289.3,298.5 290.3,298.1 291.5,297.8C292.7,297.5 294,297.4 295.5,297.4L298.1,297.4L298.1,296C298.1,295.3 298,294.6 297.9,294.1C297.7,293.5 297.5,293.1 297.1,292.7C296.7,292.3 296.3,292 295.8,291.9C295.3,291.7 294.6,291.6 293.8,291.6C292.9,291.6 292.2,291.7 291.5,291.9C290.8,292.1 290.2,292.3 289.7,292.6C289.2,292.8 288.8,293.1 288.4,293.3C288.1,293.5 287.8,293.6 287.6,293.6C287.5,293.6 287.4,293.6 287.3,293.5C287.2,293.4 287.1,293.4 287.1,293.2C287,293.1 287,292.9 287,292.8L287,292.2C287,291.8 287,291.6 287.1,291.4C287.1,291.2 287.3,291 287.5,290.8C287.7,290.6 288,290.4 288.5,290.2C289,290 289.5,289.7 290.1,289.5C290.7,289.3 291.4,289.1 292.1,289C292.8,288.9 293.5,288.8 294.3,288.8C295.7,288.8 296.8,289 297.8,289.3C298.8,289.6 299.5,290.1 300.1,290.7C300.7,291.3 301.1,292 301.4,292.9C301.7,293.8 301.8,294.8 301.8,296L301.8,308.7L301.6,308.7ZM298.1,300L295.1,300C294.1,300 293.3,300.1 292.6,300.2C291.9,300.4 291.3,300.6 290.8,300.9C290.3,301.2 290,301.6 289.8,302C289.6,302.4 289.5,303 289.5,303.5C289.5,304.5 289.8,305.3 290.4,305.9C291,306.5 291.9,306.8 293,306.8C293.9,306.8 294.8,306.6 295.5,306.1C296.3,305.6 297.1,304.9 298,304L298,300L298.1,300Z" style="fill:white;fill-rule:nonzero;"/>
                        <path d="M324.5,308.7C324.5,308.8 324.5,308.9 324.4,309C324.3,309.1 324.2,309.1 324.1,309.2C324,309.3 323.8,309.3 323.6,309.3L321.9,309.3C321.6,309.3 321.5,309.2 321.4,309.2C321.3,309.1 321.2,309.1 321.1,309C321,308.9 321,308.8 321,308.7L321,297.6C321,296.5 320.9,295.6 320.7,295C320.5,294.3 320.3,293.8 320,293.3C319.7,292.8 319.3,292.5 318.7,292.2C318.2,291.9 317.6,291.8 316.9,291.8C316,291.8 315.2,292.1 314.3,292.7C313.4,293.3 312.5,294.2 311.5,295.4L311.5,308.7C311.5,308.8 311.5,308.9 311.4,309C311.3,309.1 311.2,309.1 311.1,309.2C311,309.3 310.8,309.3 310.6,309.3L308.9,309.3C308.7,309.3 308.5,309.2 308.4,309.2C308.3,309.1 308.2,309.1 308.1,309C308.1,308.9 308,308.8 308,308.7L308,289.7C308,289.6 308,289.5 308.1,289.4C308.1,289.3 308.2,289.3 308.4,289.2C308.5,289.1 308.7,289.1 308.9,289.1L310.5,289.1C310.7,289.1 310.9,289.2 311,289.2C311.1,289.3 311.2,289.3 311.2,289.4C311.2,289.5 311.3,289.6 311.3,289.7L311.3,292.2C312.4,291 313.4,290.1 314.5,289.6C315.6,289 316.6,288.8 317.7,288.8C319,288.8 320,289 320.9,289.4C321.8,289.8 322.5,290.4 323,291.1C323.5,291.8 323.9,292.7 324.2,293.6C324.4,294.6 324.5,295.7 324.5,297.1L324.5,308.7Z" style="fill:white;fill-rule:nonzero;"/>
                        <path d="M361.9,299.1C361.9,300.8 361.7,302.3 361.2,303.6C360.7,304.9 360,306 359.1,306.9C358.2,307.8 357.1,308.5 355.8,309C354.5,309.5 353,309.7 351.4,309.7C349.9,309.7 348.5,309.5 347.3,309C346.1,308.6 345,307.9 344.1,307.1C343.2,306.2 342.5,305.2 342,303.9C341.5,302.6 341.3,301.1 341.3,299.5L341.3,282.5C341.3,282.4 341.3,282.3 341.4,282.2C341.5,282.1 341.6,282 341.7,282C341.8,282 342,281.9 342.3,281.9C342.5,281.9 342.8,281.8 343.2,281.8C343.5,281.8 343.8,281.8 344.1,281.9C344.3,281.9 344.5,282 344.7,282C344.8,282.1 344.9,282.1 345,282.2C345.1,282.3 345.1,282.4 345.1,282.5L345.1,299C345.1,300.3 345.3,301.4 345.6,302.3C345.9,303.2 346.4,304 346.9,304.7C347.4,305.4 348.2,305.8 349,306.1C349.8,306.4 350.7,306.6 351.8,306.6C352.9,306.6 353.8,306.4 354.6,306.1C355.4,305.8 356.1,305.3 356.7,304.7C357.3,304.1 357.7,303.3 358,302.4C358.3,301.5 358.5,300.4 358.5,299.2L358.5,282.5C358.5,282.4 358.5,282.3 358.6,282.2C358.7,282.1 358.8,282 358.9,282C359,282 359.2,281.9 359.5,281.9C359.7,281.9 360,281.8 360.4,281.8C360.7,281.8 361,281.8 361.3,281.9C361.6,282 361.7,282 361.9,282C362,282.1 362.1,282.1 362.2,282.2C362.3,282.3 362.3,282.4 362.3,282.5L362.3,299.1L361.9,299.1Z" style="fill:white;fill-rule:nonzero;"/>
                        <path d="M385.3,308.7C385.3,308.8 385.3,308.9 385.2,309C385.1,309.1 385.1,309.1 384.9,309.2C384.8,309.3 384.6,309.3 384.4,309.3L382.7,309.3C382.5,309.3 382.3,309.2 382.2,309.2C382.1,309.1 382,309.1 381.9,309C381.8,308.9 381.8,308.8 381.8,308.7L381.8,297.6C381.8,296.5 381.7,295.6 381.5,295C381.3,294.3 381.1,293.8 380.8,293.3C380.5,292.8 380.1,292.5 379.5,292.2C379,291.9 378.4,291.8 377.7,291.8C376.8,291.8 376,292.1 375.1,292.7C374.2,293.3 373.3,294.2 372.3,295.4L372.3,308.7C372.3,308.8 372.3,308.9 372.2,309C372.1,309.1 372.1,309.1 371.9,309.2C371.8,309.3 371.6,309.3 371.4,309.3L369.7,309.3C369.5,309.3 369.3,309.2 369.2,309.2C369.1,309.1 369,309.1 368.9,309C368.9,308.9 368.8,308.8 368.8,308.7L368.8,289.7C368.8,289.6 368.8,289.5 368.9,289.4C368.9,289.3 369,289.3 369.2,289.2C369.3,289.1 369.5,289.1 369.7,289.1L371.3,289.1C371.5,289.1 371.7,289.2 371.8,289.2C371.9,289.3 372,289.3 372,289.4C372,289.5 372.1,289.6 372.1,289.7L372.1,292.2C373.2,291 374.2,290.1 375.3,289.6C376.4,289 377.4,288.8 378.5,288.8C379.8,288.8 380.8,289 381.7,289.4C382.6,289.8 383.3,290.4 383.8,291.1C384.3,291.8 384.7,292.7 385,293.6C385.2,294.6 385.4,295.7 385.4,297.1L385.4,308.7L385.3,308.7Z" style="fill:white;fill-rule:nonzero;"/>
                        <path d="M395.7,283.2C395.7,284 395.5,284.6 395.2,284.9C394.9,285.2 394.3,285.3 393.5,285.3C392.7,285.3 392.1,285.2 391.8,284.9C391.5,284.6 391.3,284.1 391.3,283.3C391.3,282.5 391.5,281.9 391.8,281.6C392.1,281.3 392.7,281.2 393.5,281.2C394.3,281.2 394.9,281.3 395.2,281.6C395.5,281.9 395.7,282.4 395.7,283.2ZM395.3,308.7C395.3,308.8 395.3,308.9 395.2,309C395.1,309.1 395.1,309.1 394.9,309.2C394.8,309.3 394.6,309.3 394.4,309.3L392.7,309.3C392.5,309.3 392.3,309.2 392.2,309.2C392.1,309.1 392,309.1 391.9,309C391.9,308.9 391.8,308.8 391.8,308.7L391.8,289.7C391.8,289.6 391.8,289.5 391.9,289.4C391.9,289.3 392,289.2 392.2,289.2C392.3,289.1 392.5,289.1 392.7,289.1L394.4,289.1C394.6,289.1 394.8,289.2 394.9,289.2C395,289.3 395.1,289.3 395.2,289.4C395.3,289.5 395.3,289.6 395.3,289.7L395.3,308.7Z" style="fill:white;fill-rule:nonzero;"/>
                        <path d="M419.6,299C419.6,300.6 419.4,302 419,303.3C418.6,304.6 418,305.7 417.2,306.7C416.4,307.6 415.4,308.4 414.2,308.9C413,309.4 411.6,309.7 410,309.7C408.4,309.7 407.1,309.5 405.9,309C404.7,308.5 403.8,307.9 403,307C402.2,306.1 401.6,305 401.3,303.8C401,302.6 400.7,301.1 400.7,299.5C400.7,297.9 400.9,296.5 401.3,295.2C401.7,293.9 402.3,292.8 403.1,291.8C403.9,290.9 404.9,290.1 406.1,289.6C407.3,289.1 408.7,288.8 410.3,288.8C411.9,288.8 413.2,289 414.4,289.5C415.6,290 416.5,290.6 417.3,291.5C418.1,292.4 418.7,293.5 419,294.7C419.4,296 419.6,297.4 419.6,299ZM415.9,299.2C415.9,298.2 415.8,297.2 415.6,296.3C415.4,295.4 415.1,294.6 414.6,293.9C414.2,293.2 413.6,292.7 412.8,292.3C412,291.9 411.1,291.7 410,291.7C409,291.7 408.1,291.9 407.3,292.2C406.6,292.6 405.9,293.1 405.5,293.8C405.1,294.5 404.7,295.3 404.4,296.2C404.2,297.1 404,298.1 404,299.2C404,300.2 404.1,301.2 404.3,302.1C404.5,303 404.8,303.8 405.3,304.5C405.7,305.2 406.4,305.7 407.1,306.1C407.9,306.5 408.8,306.7 409.9,306.7C410.9,306.7 411.8,306.5 412.6,306.2C413.4,305.8 414,305.3 414.5,304.7C415,304.1 415.3,303.2 415.6,302.3C415.8,301.3 415.9,300.3 415.9,299.2Z" style="fill:white;fill-rule:nonzero;"/>
                        <path d="M441.2,308.7C441.2,308.8 441.2,308.9 441.1,309C441,309.1 440.9,309.1 440.8,309.2C440.7,309.3 440.5,309.3 440.3,309.3L438.6,309.3C438.4,309.3 438.2,309.2 438.1,309.2C438,309.1 437.9,309.1 437.8,309C437.7,308.9 437.7,308.8 437.7,308.7L437.7,297.6C437.7,296.5 437.6,295.6 437.4,295C437.2,294.3 437,293.8 436.7,293.3C436.4,292.8 436,292.5 435.4,292.2C434.9,291.9 434.3,291.8 433.6,291.8C432.7,291.8 431.9,292.1 431,292.7C430.1,293.3 429.2,294.2 428.2,295.4L428.2,308.7C428.2,308.8 428.2,308.9 428.1,309C428,309.1 427.9,309.1 427.8,309.2C427.7,309.3 427.5,309.3 427.3,309.3L425.6,309.3C425.4,309.3 425.2,309.2 425.1,309.2C425,309.1 424.9,309.1 424.8,309C424.8,308.9 424.7,308.8 424.7,308.7L424.7,289.7C424.7,289.6 424.7,289.5 424.8,289.4C424.8,289.3 424.9,289.3 425.1,289.2C425.2,289.1 425.4,289.1 425.6,289.1L427.2,289.1C427.4,289.1 427.6,289.2 427.7,289.2C427.8,289.3 427.9,289.3 427.9,289.4C427.9,289.5 428,289.6 428,289.7L428,292.2C429.1,291 430.1,290.1 431.2,289.6C432.3,289 433.3,288.8 434.4,288.8C435.7,288.8 436.7,289 437.6,289.4C438.5,289.8 439.2,290.4 439.7,291.1C440.2,291.8 440.6,292.7 440.9,293.6C441.1,294.6 441.2,295.7 441.2,297.1L441.2,308.7Z" style="fill:white;fill-rule:nonzero;"/>
                    </g>
                    <g>
                        <path d="M159.9,258.2L159.9,258.8C159.9,259 159.9,259.1 159.8,259.2C159.8,259.3 159.7,259.4 159.7,259.5C159.6,259.6 159.5,259.7 159.4,259.9C159.3,260 159,260.3 158.5,260.5C158,260.8 157.5,261.1 156.8,261.3C156.1,261.6 155.4,261.8 154.5,262C153.6,262.2 152.7,262.3 151.7,262.3C149.9,262.3 148.3,262 146.9,261.4C145.5,260.8 144.2,259.9 143.2,258.8C142.2,257.6 141.4,256.2 140.9,254.5C140.4,252.8 140.1,250.8 140.1,248.6C140.1,246.3 140.4,244.3 141,242.5C141.6,240.7 142.4,239.2 143.5,238C144.6,236.8 145.8,235.8 147.3,235.2C148.8,234.6 150.4,234.2 152.2,234.2C153,234.2 153.8,234.3 154.5,234.4C155.2,234.5 155.9,234.7 156.6,235C157.2,235.2 157.8,235.5 158.3,235.8C158.8,236.1 159.1,236.3 159.3,236.5C159.5,236.7 159.6,236.8 159.7,236.9C159.8,237 159.8,237.1 159.8,237.2C159.8,237.3 159.9,237.5 159.9,237.7L159.9,239.1C159.9,239.3 159.8,239.5 159.8,239.6C159.8,239.7 159.7,239.8 159.6,239.9C159.5,240 159.4,240 159.3,240C159.1,240 158.8,239.9 158.5,239.6C158.1,239.3 157.7,239 157.1,238.7C156.5,238.4 155.9,238.1 155.1,237.8C154.3,237.5 153.3,237.4 152.2,237.4C151,237.4 149.9,237.6 148.9,238.1C147.9,238.6 147,239.3 146.3,240.2C145.6,241.1 145,242.3 144.7,243.7C144.3,245.1 144.1,246.6 144.1,248.4C144.1,250.1 144.3,251.7 144.7,253C145.1,254.3 145.6,255.4 146.3,256.3C147,257.2 147.9,257.9 148.9,258.3C149.9,258.8 151.1,259 152.4,259C153.5,259 154.4,258.9 155.3,258.6C156.1,258.3 156.8,258 157.4,257.7C158,257.4 158.4,257.1 158.8,256.8C159.2,256.5 159.5,256.4 159.7,256.4C159.8,256.4 159.9,256.4 160,256.5C160.1,256.5 160.1,256.6 160.2,256.7C160.2,256.8 160.3,257 160.3,257.2C159.9,257.6 159.9,257.9 159.9,258.2Z" style="fill:white;fill-rule:nonzero;"/>
                        <path d="M182.1,251.9C182.1,253.5 181.9,254.9 181.5,256.2C181.1,257.5 180.5,258.6 179.7,259.6C178.9,260.5 177.9,261.3 176.7,261.8C175.5,262.3 174.1,262.6 172.5,262.6C170.9,262.6 169.6,262.4 168.4,261.9C167.2,261.4 166.3,260.8 165.5,259.9C164.7,259 164.1,257.9 163.8,256.7C163.4,255.4 163.2,254 163.2,252.4C163.2,250.8 163.4,249.4 163.8,248.1C164.2,246.8 164.8,245.7 165.6,244.7C166.4,243.8 167.4,243 168.6,242.5C169.8,242 171.2,241.7 172.9,241.7C174.5,241.7 175.8,241.9 177,242.4C178.2,242.9 179.1,243.5 179.9,244.4C180.7,245.3 181.3,246.4 181.6,247.6C181.9,248.8 182.1,250.3 182.1,251.9ZM178.5,252.1C178.5,251.1 178.4,250.1 178.2,249.2C178,248.3 177.7,247.5 177.2,246.8C176.8,246.1 176.2,245.6 175.4,245.2C174.6,244.8 173.7,244.6 172.6,244.6C171.6,244.6 170.7,244.8 169.9,245.2C169.2,245.6 168.5,246.1 168.1,246.8C167.6,247.5 167.3,248.3 167,249.2C166.8,250.1 166.6,251.1 166.6,252.2C166.6,253.2 166.7,254.2 166.9,255.1C167.1,256 167.4,256.8 167.9,257.5C168.3,258.2 169,258.7 169.7,259.1C170.5,259.5 171.4,259.7 172.5,259.7C173.5,259.7 174.4,259.5 175.2,259.2C176,258.8 176.6,258.3 177.1,257.7C177.6,257.1 177.9,256.2 178.2,255.3C178.4,254.2 178.5,253.2 178.5,252.1Z" style="fill:white;fill-rule:nonzero;"/>
                        <path d="M195.9,251.4C195.9,251.9 195.8,252.3 195.7,252.5C195.6,252.7 195.4,252.8 195.2,252.8L186.4,252.8C186.1,252.8 186,252.7 185.8,252.5C185.7,252.3 185.6,251.9 185.6,251.4C185.6,250.9 185.7,250.5 185.8,250.3C185.9,250.1 186.1,250 186.4,250L195.2,250C195.3,250 195.4,250 195.5,250.1C195.6,250.1 195.7,250.2 195.7,250.3C195.8,250.4 195.8,250.6 195.8,250.8C195.9,250.9 195.9,251.2 195.9,251.4Z" style="fill:white;fill-rule:nonzero;"/>
                        <path d="M210.8,234.2L210.8,235.3C210.8,235.5 210.7,235.6 210.7,235.7C210.7,235.8 210.6,235.9 210.6,235.9C210.5,235.9 210.5,236 210.4,236C210.3,236 210.2,236 210,235.9C209.9,235.8 209.7,235.8 209.5,235.7C209.3,235.6 209,235.6 208.7,235.5C208.4,235.4 208.1,235.4 207.7,235.4C207.2,235.4 206.7,235.5 206.4,235.7C206,235.9 205.7,236.1 205.5,236.5C205.3,236.9 205.1,237.3 205,237.9C204.9,238.5 204.9,239.2 204.9,240L204.9,242.1L209.2,242.1C209.3,242.1 209.4,242.1 209.5,242.2C209.6,242.2 209.6,242.3 209.7,242.5C209.8,242.6 209.8,242.8 209.8,243C209.8,243.2 209.9,243.4 209.9,243.7C209.9,244.2 209.8,244.6 209.7,244.8C209.6,245 209.4,245.1 209.2,245.1L204.9,245.1L204.9,261.8C204.9,261.9 204.9,262 204.8,262.1C204.7,262.2 204.6,262.2 204.5,262.3C204.4,262.4 204.2,262.4 204,262.4L202.4,262.4C202.2,262.4 202,262.3 201.9,262.3C201.8,262.2 201.7,262.2 201.6,262.1C201.5,262 201.5,261.9 201.5,261.8L201.5,245.1L198.8,245.1C198.6,245.1 198.4,245 198.3,244.8C198.2,244.6 198.1,244.2 198.1,243.7L198.1,243C198.1,242.8 198.2,242.7 198.2,242.5C198.3,242.4 198.3,242.3 198.4,242.2C198.5,242.2 198.6,242.1 198.7,242.1L201.4,242.1L201.4,240.1C201.4,238.8 201.5,237.6 201.8,236.7C202,235.7 202.4,235 202.9,234.4C203.4,233.8 204,233.3 204.8,233.1C205.6,232.8 206.5,232.7 207.5,232.7C208,232.7 208.5,232.7 208.9,232.8C209.4,232.9 209.7,233 210,233.1C210.3,233.2 210.4,233.3 210.5,233.4C210.6,233.5 210.7,233.6 210.7,233.7C210.7,233.8 210.8,234 210.8,234.2Z" style="fill:white;fill-rule:nonzero;"/>
                        <path d="M230,261.6C230,261.7 230,261.8 229.9,261.9C229.8,262 229.8,262 229.6,262.1C229.5,262.2 229.3,262.2 229.1,262.2L227.6,262.2C227.4,262.2 227.2,262.1 227.1,262.1C227,262 226.9,262 226.9,261.9C226.9,261.8 226.8,261.7 226.8,261.6L226.8,259.1C225.7,260.3 224.6,261.2 223.6,261.7C222.6,262.2 221.5,262.5 220.4,262.5C219.1,262.5 218.1,262.3 217.2,261.9C216.3,261.5 215.6,260.9 215.1,260.2C214.6,259.5 214.2,258.6 213.9,257.7C213.7,256.7 213.6,255.6 213.6,254.2L213.6,242.6C213.6,242.5 213.6,242.4 213.7,242.3C213.7,242.2 213.8,242.2 214,242.1C214.1,242 214.3,242 214.5,242L216.1,242C216.3,242 216.5,242.1 216.6,242.1C216.7,242.2 216.8,242.2 216.9,242.3C217,242.4 217,242.5 217,242.6L217,253.7C217,254.8 217.1,255.7 217.2,256.4C217.4,257.1 217.6,257.6 217.9,258.1C218.2,258.6 218.6,258.9 219.2,259.2C219.7,259.5 220.3,259.6 221,259.6C221.9,259.6 222.7,259.3 223.6,258.7C224.5,258.1 225.4,257.2 226.4,256L226.4,242.7C226.4,242.6 226.4,242.5 226.5,242.4C226.5,242.3 226.6,242.3 226.8,242.2C226.9,242.1 227.1,242.1 227.3,242.1L229,242.1C229.2,242.1 229.4,242.2 229.5,242.2C229.6,242.3 229.7,242.3 229.8,242.4C229.9,242.5 229.9,242.6 229.9,242.7L229.9,261.6L230,261.6Z" style="fill:white;fill-rule:nonzero;"/>
                        <path d="M253,261.6C253,261.7 253,261.8 252.9,261.9C252.8,262 252.8,262 252.6,262.1C252.5,262.2 252.3,262.2 252.1,262.2L250.4,262.2C250.2,262.2 250,262.1 249.9,262.1C249.8,262 249.7,262 249.6,261.9C249.5,261.8 249.5,261.7 249.5,261.6L249.5,250.5C249.5,249.4 249.4,248.5 249.2,247.9C249,247.2 248.8,246.7 248.5,246.2C248.2,245.7 247.8,245.4 247.2,245.1C246.7,244.8 246.1,244.7 245.4,244.7C244.5,244.7 243.7,245 242.8,245.6C241.9,246.2 241,247.1 240,248.3L240,261.6C240,261.7 240,261.8 239.9,261.9C239.8,262 239.8,262 239.6,262.1C239.5,262.2 239.3,262.2 239.1,262.2L237.4,262.2C237.2,262.2 237,262.1 236.9,262.1C236.8,262 236.7,262 236.6,261.9C236.6,261.8 236.5,261.7 236.5,261.6L236.5,242.6C236.5,242.5 236.5,242.4 236.6,242.3C236.6,242.2 236.7,242.2 236.9,242.1C237,242 237.2,242 237.4,242L239,242C239.2,242 239.4,242.1 239.5,242.1C239.6,242.2 239.7,242.2 239.7,242.3C239.7,242.4 239.8,242.5 239.8,242.6L239.8,245.1C240.9,243.9 241.9,243 243,242.5C244.1,241.9 245.1,241.7 246.2,241.7C247.5,241.7 248.5,241.9 249.4,242.3C250.3,242.7 251,243.3 251.5,244C252,244.7 252.4,245.6 252.7,246.5C252.9,247.5 253,248.6 253,250L253,261.6Z" style="fill:white;fill-rule:nonzero;"/>
                        <path d="M275.7,261.6C275.7,261.7 275.7,261.8 275.6,261.9C275.5,262 275.5,262.1 275.3,262.1C275.2,262.1 275,262.2 274.8,262.2L273.4,262.2C273.2,262.2 273,262.1 272.9,262.1C272.8,262.1 272.7,262 272.6,261.9C272.5,261.8 272.5,261.7 272.5,261.6L272.5,259.1C271.5,260.2 270.5,261 269.4,261.6C268.3,262.2 267.1,262.5 265.9,262.5C264.5,262.5 263.3,262.2 262.3,261.7C261.3,261.2 260.5,260.4 259.9,259.5C259.3,258.6 258.8,257.5 258.6,256.2C258.3,255 258.2,253.6 258.2,252.3C258.2,250.7 258.4,249.2 258.7,247.9C259.1,246.6 259.6,245.5 260.3,244.5C261,243.5 261.8,242.9 262.9,242.4C263.9,241.9 265.1,241.7 266.4,241.7C267.5,241.7 268.5,241.9 269.5,242.4C270.4,242.9 271.3,243.6 272.2,244.5L272.2,233.4C272.2,233.3 272.2,233.2 272.3,233.1C272.3,233 272.4,232.9 272.6,232.9C272.7,232.9 272.9,232.8 273.1,232.8C273.3,232.8 273.6,232.7 273.9,232.7C274.3,232.7 274.5,232.7 274.8,232.8C275,232.8 275.2,232.9 275.3,232.9C275.4,232.9 275.5,233 275.6,233.1C275.7,233.2 275.7,233.3 275.7,233.4L275.7,261.6ZM272.2,248.2C271.3,247 270.3,246.1 269.5,245.5C268.6,244.9 267.7,244.6 266.7,244.6C265.8,244.6 265.1,244.8 264.4,245.2C263.8,245.6 263.3,246.2 262.9,246.9C262.5,247.6 262.2,248.4 262.1,249.2C261.9,250.1 261.8,251 261.8,251.9C261.8,252.9 261.9,253.8 262,254.7C262.1,255.6 262.4,256.4 262.8,257.1C263.2,257.8 263.7,258.4 264.3,258.8C264.9,259.2 265.7,259.4 266.6,259.4C267.1,259.4 267.5,259.3 267.9,259.2C268.3,259.1 268.8,258.9 269.2,258.6C269.7,258.3 270.1,257.9 270.6,257.4C271.1,256.9 271.6,256.3 272.2,255.7L272.2,248.2Z" style="fill:white;fill-rule:nonzero;"/>
                        <path d="M298.5,251.2C298.5,251.7 298.4,252.1 298.1,252.4C297.8,252.6 297.5,252.7 297.2,252.7L284.7,252.7C284.7,253.8 284.8,254.7 285,255.6C285.2,256.4 285.6,257.2 286.1,257.8C286.6,258.4 287.2,258.9 288,259.2C288.8,259.5 289.8,259.7 290.9,259.7C291.8,259.7 292.6,259.6 293.3,259.5C294,259.4 294.6,259.2 295.1,259C295.6,258.8 296,258.7 296.4,258.5C296.7,258.4 297,258.3 297.2,258.3C297.3,258.3 297.4,258.3 297.5,258.4C297.6,258.5 297.6,258.5 297.7,258.6C297.7,258.7 297.8,258.8 297.8,259L297.8,260.1C297.8,260.2 297.8,260.4 297.7,260.5C297.7,260.6 297.6,260.7 297.6,260.8C297.6,260.9 297.5,261 297.4,261C297.3,261.1 297.1,261.2 296.7,261.4C296.3,261.6 295.8,261.7 295.2,261.9C294.6,262.1 293.9,262.2 293.1,262.4C292.3,262.5 291.5,262.6 290.6,262.6C289,262.6 287.7,262.4 286.5,261.9C285.3,261.5 284.3,260.8 283.5,260C282.7,259.1 282.1,258.1 281.7,256.8C281.3,255.5 281.1,254 281.1,252.3C281.1,250.7 281.3,249.2 281.7,247.9C282.1,246.6 282.7,245.5 283.5,244.6C284.3,243.7 285.3,243 286.4,242.5C287.5,242 288.8,241.8 290.2,241.8C291.7,241.8 293,242 294,242.5C295.1,243 295.9,243.6 296.6,244.4C297.3,245.2 297.8,246.2 298.1,247.3C298.4,248.4 298.6,249.6 298.6,250.8L298.6,251.2L298.5,251.2ZM295,250.2C295,248.4 294.6,246.9 293.8,245.9C292.9,244.9 291.7,244.3 290,244.3C289.1,244.3 288.4,244.5 287.7,244.8C287,245.1 286.5,245.6 286.1,246.1C285.7,246.6 285.3,247.3 285.1,248C284.9,248.7 284.7,249.5 284.7,250.2L295,250.2Z" style="fill:white;fill-rule:nonzero;"/>
                        <path d="M320.3,261.6C320.3,261.7 320.3,261.8 320.2,261.9C320.1,262 320.1,262.1 319.9,262.1C319.8,262.1 319.6,262.2 319.4,262.2L318,262.2C317.8,262.2 317.6,262.1 317.5,262.1C317.4,262.1 317.3,262 317.2,261.9C317.1,261.8 317.1,261.7 317.1,261.6L317.1,259.1C316.1,260.2 315.1,261 314,261.6C312.9,262.2 311.7,262.5 310.5,262.5C309.1,262.5 307.9,262.2 306.9,261.7C305.9,261.2 305.1,260.4 304.5,259.5C303.9,258.6 303.4,257.5 303.2,256.2C302.9,255 302.8,253.6 302.8,252.3C302.8,250.7 303,249.2 303.3,247.9C303.7,246.6 304.2,245.5 304.9,244.5C305.6,243.5 306.4,242.9 307.5,242.4C308.5,241.9 309.7,241.7 311,241.7C312.1,241.7 313.1,241.9 314.1,242.4C315,242.9 315.9,243.6 316.8,244.5L316.8,233.4C316.8,233.3 316.8,233.2 316.9,233.1C316.9,233 317,232.9 317.2,232.9C317.3,232.9 317.5,232.8 317.7,232.8C317.9,232.8 318.2,232.7 318.5,232.7C318.9,232.7 319.1,232.7 319.4,232.8C319.6,232.8 319.8,232.9 319.9,232.9C320,232.9 320.1,233 320.2,233.1C320.3,233.2 320.3,233.3 320.3,233.4L320.3,261.6ZM316.8,248.2C315.9,247 314.9,246.1 314.1,245.5C313.2,244.9 312.3,244.6 311.3,244.6C310.4,244.6 309.7,244.8 309,245.2C308.4,245.6 307.9,246.2 307.5,246.9C307.1,247.6 306.8,248.4 306.7,249.2C306.5,250.1 306.4,251 306.4,251.9C306.4,252.9 306.5,253.8 306.6,254.7C306.7,255.6 307,256.4 307.4,257.1C307.8,257.8 308.3,258.4 308.9,258.8C309.5,259.2 310.3,259.4 311.2,259.4C311.7,259.4 312.1,259.3 312.5,259.2C312.9,259.1 313.4,258.9 313.8,258.6C314.3,258.3 314.7,257.9 315.2,257.4C315.7,256.9 316.2,256.3 316.8,255.7L316.8,248.2Z" style="fill:white;fill-rule:nonzero;"/>
                        <path d="M354.2,251.8C354.2,253.5 354,254.9 353.7,256.3C353.3,257.6 352.8,258.7 352.1,259.7C351.4,260.6 350.5,261.3 349.5,261.8C348.5,262.3 347.3,262.5 346,262.5C345.4,262.5 344.8,262.4 344.3,262.3C343.8,262.2 343.3,262 342.8,261.7C342.3,261.4 341.8,261.1 341.3,260.7C340.8,260.3 340.3,259.8 339.7,259.2L339.7,261.5C339.7,261.6 339.7,261.7 339.6,261.8C339.5,261.9 339.5,262 339.3,262C339.2,262 339,262.1 338.8,262.1L337.4,262.1C337.2,262.1 337,262 336.9,262C336.8,262 336.7,261.9 336.6,261.8C336.6,261.7 336.5,261.6 336.5,261.5L336.5,233.2C336.5,233.1 336.5,233 336.6,232.9C336.6,232.8 336.7,232.7 336.9,232.7C337,232.6 337.2,232.6 337.4,232.6L339.1,232.6C339.3,232.6 339.5,232.7 339.6,232.7C339.7,232.8 339.8,232.8 339.9,232.9C340,233 340,233.1 340,233.2L340,244.6C340.6,244 341.1,243.5 341.6,243.1C342.1,242.7 342.6,242.4 343.2,242.1C343.7,241.9 344.2,241.7 344.7,241.6C345.2,241.5 345.7,241.4 346.3,241.4C347.7,241.4 348.9,241.7 349.8,242.2C350.8,242.7 351.6,243.5 352.2,244.4C352.8,245.3 353.3,246.4 353.5,247.6C354.1,249.1 354.2,250.4 354.2,251.8ZM350.6,252.2C350.6,251.2 350.5,250.3 350.4,249.4C350.3,248.5 350,247.7 349.6,247C349.2,246.3 348.7,245.7 348.1,245.3C347.5,244.9 346.7,244.7 345.8,244.7C345.3,244.7 344.9,244.8 344.5,244.9C344.1,245 343.6,245.2 343.2,245.5C342.7,245.8 342.3,246.2 341.8,246.6C341.3,247.1 340.8,247.7 340.2,248.4L340.2,256C341.2,257.2 342.1,258.1 343,258.7C343.9,259.3 344.8,259.6 345.7,259.6C346.6,259.6 347.3,259.4 348,259C348.6,258.6 349.1,258 349.5,257.3C349.9,256.6 350.2,255.8 350.4,255C350.5,254 350.6,253.1 350.6,252.2Z" style="fill:white;fill-rule:nonzero;"/>
                        <path d="M368.1,262.1L365.6,269.1C365.5,269.3 365.3,269.5 365,269.6C364.7,269.7 364.1,269.8 363.4,269.8C363,269.8 362.7,269.8 362.5,269.7C362.3,269.7 362.1,269.6 362,269.5C361.9,269.4 361.8,269.3 361.8,269.2C361.8,269.1 361.8,268.9 361.9,268.7L364.5,262.1C364.4,262 364.3,262 364.1,261.8C364,261.7 363.9,261.5 363.9,261.4L357.1,243.2C357,242.9 356.9,242.7 356.9,242.5C356.9,242.3 357,242.2 357.1,242.1C357.2,242 357.4,241.9 357.7,241.9C358,241.9 358.3,241.8 358.7,241.8L359.7,241.8C359.9,241.8 360.1,241.9 360.3,241.9C360.4,242 360.5,242 360.6,242.1C360.7,242.2 360.7,242.3 360.8,242.5L366.2,257.8L366.3,257.8L371.5,242.4C371.6,242.1 371.7,242 371.8,241.9C371.9,241.8 372.1,241.8 372.3,241.7C372.5,241.7 372.9,241.6 373.3,241.6C373.7,241.6 374,241.6 374.3,241.7C374.6,241.7 374.7,241.8 374.9,241.9C375,242 375.1,242.1 375.1,242.3C375.1,242.5 375.1,242.7 375,242.9L368.1,262.1Z" style="fill:white;fill-rule:nonzero;"/>
                        <path d="M398.9,260.2C398.9,260.6 398.9,260.9 398.8,261.2C398.7,261.4 398.7,261.6 398.5,261.7C398.4,261.8 398.2,261.9 398,262C397.8,262.1 397.5,262.2 397.2,262.2C396.9,262.3 396.6,262.3 396.3,262.4C396,262.4 395.7,262.5 395.3,262.5C394.3,262.5 393.5,262.4 392.8,262.1C392.1,261.8 391.5,261.4 391.1,260.9C390.6,260.4 390.3,259.7 390.1,258.9C389.9,258.1 389.8,257.1 389.8,256L389.8,244.9L387.1,244.9C386.9,244.9 386.7,244.8 386.6,244.6C386.5,244.4 386.4,244 386.4,243.5C386.4,243.2 386.4,243 386.5,242.8C386.5,242.6 386.6,242.5 386.6,242.3C386.7,242.2 386.7,242.1 386.8,242C386.9,242 387,241.9 387.1,241.9L389.7,241.9L389.7,237.4C389.7,237.3 389.7,237.2 389.8,237.1C389.8,237 389.9,236.9 390.1,236.9C390.2,236.8 390.4,236.8 390.6,236.8L392.3,236.8C392.5,236.8 392.7,236.9 392.8,236.9C392.9,237 393,237 393.1,237.1C393.2,237.2 393.2,237.3 393.2,237.4L393.2,241.9L398.1,241.9C398.2,241.9 398.3,241.9 398.4,242C398.5,242 398.6,242.1 398.6,242.3C398.7,242.4 398.7,242.6 398.7,242.8L398.7,243.5C398.7,244 398.6,244.4 398.5,244.6C398.4,244.8 398.2,244.9 398,244.9L393.1,244.9L393.1,255.5C393.1,256.8 393.3,257.8 393.7,258.5C394.1,259.2 394.8,259.5 395.8,259.5C396.1,259.5 396.4,259.5 396.7,259.4C397,259.3 397.2,259.3 397.4,259.2C397.6,259.1 397.8,259.1 397.9,259C398,258.9 398.2,258.9 398.3,258.9C398.4,258.9 398.4,258.9 398.5,259C398.6,259 398.6,259.1 398.6,259.2C398.6,259.3 398.7,259.4 398.7,259.6C398.9,259.7 398.9,259.9 398.9,260.2Z" style="fill:white;fill-rule:nonzero;"/>
                        <path d="M420.1,261.6C420.1,261.7 420.1,261.8 420,261.9C419.9,262 419.9,262 419.7,262.1C419.6,262.2 419.4,262.2 419.2,262.2L417.5,262.2C417.3,262.2 417.1,262.1 417,262.1C416.9,262 416.8,262 416.7,261.9C416.6,261.8 416.6,261.7 416.6,261.6L416.6,250.5C416.6,249.4 416.5,248.5 416.3,247.9C416.1,247.2 415.9,246.7 415.6,246.2C415.3,245.7 414.9,245.4 414.3,245.1C413.8,244.8 413.2,244.7 412.5,244.7C411.6,244.7 410.8,245 409.9,245.6C409,246.2 408.1,247.1 407.1,248.3L407.1,261.6C407.1,261.7 407.1,261.8 407,261.9C406.9,262 406.9,262 406.7,262.1C406.6,262.2 406.4,262.2 406.2,262.2L404.5,262.2C404.3,262.2 404.1,262.1 404,262.1C403.9,262 403.8,262 403.7,261.9C403.7,261.8 403.6,261.7 403.6,261.6L403.6,233.3C403.6,233.2 403.6,233.1 403.7,233C403.7,232.9 403.8,232.8 404,232.8C404.1,232.7 404.3,232.7 404.5,232.7L406.2,232.7C406.4,232.7 406.6,232.8 406.7,232.8C406.8,232.9 406.9,232.9 407,233C407.1,233.1 407.1,233.2 407.1,233.3L407.1,244.7C408.1,243.6 409.1,242.9 410.1,242.3C411.1,241.8 412.1,241.5 413.2,241.5C414.5,241.5 415.5,241.7 416.4,242.1C417.3,242.5 418,243.1 418.5,243.8C419,244.5 419.4,245.4 419.7,246.3C419.9,247.3 420,248.4 420,249.8L420,261.6L420.1,261.6Z" style="fill:white;fill-rule:nonzero;"/>
                        <path d="M442.8,251.2C442.8,251.7 442.7,252.1 442.4,252.4C442.1,252.6 441.8,252.7 441.5,252.7L429,252.7C429,253.8 429.1,254.7 429.3,255.6C429.5,256.4 429.9,257.2 430.4,257.8C430.9,258.4 431.5,258.9 432.3,259.2C433.1,259.5 434.1,259.7 435.2,259.7C436.1,259.7 436.9,259.6 437.6,259.5C438.3,259.4 438.9,259.2 439.4,259C439.9,258.8 440.3,258.7 440.7,258.5C441,258.4 441.3,258.3 441.5,258.3C441.6,258.3 441.7,258.3 441.8,258.4C441.9,258.5 441.9,258.5 442,258.6C442,258.7 442.1,258.8 442.1,259L442.1,260.1C442.1,260.2 442.1,260.4 442,260.5C442,260.6 441.9,260.7 441.9,260.8C441.9,260.9 441.8,261 441.7,261C441.6,261.1 441.4,261.2 441,261.4C440.6,261.6 440.1,261.7 439.5,261.9C438.9,262.1 438.2,262.2 437.4,262.4C436.6,262.5 435.8,262.6 434.9,262.6C433.3,262.6 432,262.4 430.8,261.9C429.6,261.5 428.6,260.8 427.8,260C427,259.1 426.4,258.1 426,256.8C425.6,255.5 425.4,254 425.4,252.3C425.4,250.7 425.6,249.2 426,247.9C426.4,246.6 427,245.5 427.8,244.6C428.6,243.7 429.6,243 430.7,242.5C431.8,242 433.1,241.8 434.5,241.8C436,241.8 437.3,242 438.3,242.5C439.4,243 440.2,243.6 440.9,244.4C441.6,245.2 442.1,246.2 442.4,247.3C442.7,248.4 442.9,249.6 442.9,250.8L442.9,251.2L442.8,251.2ZM439.3,250.2C439.3,248.4 438.9,246.9 438.1,245.9C437.2,244.9 436,244.3 434.3,244.3C433.4,244.3 432.7,244.5 432,244.8C431.3,245.1 430.8,245.6 430.4,246.1C430,246.6 429.6,247.3 429.4,248C429.2,248.7 429,249.5 429,250.2L439.3,250.2Z" style="fill:white;fill-rule:nonzero;"/>
                    </g>
                </g>
            </g>
        </g>
    </g>
</svg>
